<svg width="32" height="32" viewBox="0 0 32 32" fill="none" xmlns="http://www.w3.org/2000/svg">
<path d="M9 12.5C9 12.8978 9.15804 13.2794 9.43934 13.5607C9.72064 13.842 10.1022 14 10.5 14C10.8978 14 11.2794 13.842 11.5607 13.5607C11.842 13.2794 12 12.8978 12 12.5C12 12.1022 11.842 11.7206 11.5607 11.4393C11.2794 11.158 10.8978 11 10.5 11C10.1022 11 9.72064 11.158 9.43934 11.4393C9.15804 11.7206 9 12.1022 9 12.5Z" stroke="#D17A22" stroke-width="1.5" stroke-linecap="round" stroke-linejoin="round"/>
<path d="M5 10.4997V16.5331C5.00013 17.1518 5.24603 17.7451 5.6836 18.1826L14.6777 27.1767C15.205 27.7039 15.92 28 16.6655 28C17.4111 28 18.1261 27.7039 18.6533 27.1767L25.1767 20.6533C25.7039 20.1261 26 19.4111 26 18.6655C26 17.92 25.7039 17.205 25.1767 16.6777L16.1826 7.6836C15.7451 7.24603 15.1518 7.00013 14.5331 7H8.49966C7.57149 7 6.68134 7.36871 6.02503 8.02503C5.36871 8.68134 5 9.57149 5 10.4997Z" stroke="#D17A22" stroke-width="1.5" stroke-linecap="round" stroke-linejoin="round"/>
<path d="M16 19.5588L14.2 21L14.8384 18.6787L13 17.25H15.2824L16 15L16.7176 17.25H19L17.1616 18.6787L17.8 21L16 19.5588Z" stroke="#D17A22" stroke-width="1.5" stroke-linecap="round" stroke-linejoin="round"/>
</svg>
