<svg width="653" height="460" viewBox="0 0 653 460" fill="none" xmlns="http://www.w3.org/2000/svg">
<path d="M231.565 368C214.105 368 196.67 367.687 179.261 367.061C154.386 366.166 128.664 365.242 104.756 351.965C88.0315 342.678 73.2194 327.778 61.9214 308.875C54.37 296.062 48.833 282.163 45.5048 267.664C39.2966 241.266 39.508 213.762 46.1215 187.463C48.439 178.446 51.634 169.679 55.6605 161.286C73.0954 125.136 104.895 100.869 142.907 94.7086C143.221 94.6678 143.538 94.6611 143.854 94.6884C144.025 94.6976 144.195 94.7074 144.369 94.7001L144.592 94.6289C145.166 94.4294 145.755 94.2781 146.353 94.1765C204.977 85.4379 266.951 103.119 325.57 145.307C370.895 177.931 430.962 195.499 509.206 199.014L510.317 199.072C532.098 200.325 553.167 209.316 571.249 225.075C589.096 240.629 602.496 261.382 610 285.089C610.922 287.98 611.768 290.988 612.513 294.031C613.207 296.859 613.158 299.819 612.371 302.622C611.584 305.426 610.086 307.977 608.022 310.029V310.035L607.827 310.235C607.358 310.702 606.864 311.15 606.36 311.567L605.767 312.057C600.766 316.181 596.817 319.439 592.09 321.97C588.938 323.646 585.585 324.913 582.113 325.741C563.046 330.396 543.683 334.711 524.562 338.568C487.428 346.065 449.316 352.25 411.283 356.949C351.66 364.31 291.641 368.001 231.565 368ZM143.409 95.9687C143.292 95.9677 143.176 95.9756 143.06 95.9925C105.404 102.095 73.9049 126.124 56.6429 161.916C52.6562 170.226 49.4928 178.906 47.1983 187.834C40.6451 213.899 40.4363 241.159 46.5893 267.322C49.8849 281.683 55.3682 295.45 62.8467 308.14C74.0342 326.858 88.6948 341.608 105.244 350.797C128.937 363.955 154.538 364.876 179.296 365.765C256.73 368.535 334.262 365.157 411.164 355.661C449.171 350.964 487.258 344.784 524.368 337.292C543.476 333.438 562.825 329.125 581.88 324.473C585.268 323.666 588.54 322.43 591.617 320.794C596.248 318.315 600.16 315.088 605.112 311.003L605.706 310.514C606.139 310.155 606.565 309.772 606.973 309.373L607.09 309.25C611.159 305.143 612.742 299.724 611.432 294.384V294.383C610.694 291.372 609.858 288.396 608.944 285.535C593.615 237.105 553.958 202.879 510.263 200.366L509.159 200.308C473.418 198.702 442.142 194.254 413.548 186.708C379.413 177.7 349.613 164.141 324.975 146.406C266.579 104.38 204.864 86.7645 146.496 95.4616C145.951 95.5558 145.415 95.695 144.892 95.8779L144.489 95.9909C144.26 96.0011 144.031 95.9984 143.802 95.9827C143.667 95.9757 143.537 95.9687 143.409 95.9687Z" fill="#F0F0F0"/>
<path d="M544.076 111.937C541.578 109.541 539.023 96.1758 535.834 94.819C538.218 100.088 536.487 101.482 536.474 107.265C536.504 110.548 536.121 113.822 535.333 117.009H481.309V74.8476C481.308 71.0592 482.055 67.308 483.504 63.808C484.954 60.308 487.079 57.1278 489.758 54.449C492.436 51.7702 495.617 49.6453 499.117 48.1956C502.617 46.746 506.368 45.9999 510.156 46C511.602 46.0282 513.039 46.2385 514.432 46.626C519.076 47.8797 523.308 50.3324 526.704 53.7381C530.101 57.1439 532.542 61.3828 533.783 66.0298C537.901 81.0834 544.451 106.141 544.076 111.937Z" fill="#2F2E41"/>
<path d="M484.479 163.804L484.506 130.941L465.188 132.668L472.006 153.394L468.815 205.491C467.267 205.838 465.854 206.628 464.748 207.764C463.642 208.901 462.89 210.335 462.585 211.891C462.279 213.447 462.433 215.059 463.028 216.529C463.622 217.999 464.632 219.265 465.933 220.171C467.235 221.078 468.772 221.586 470.357 221.634C471.942 221.682 473.507 221.268 474.861 220.442C476.215 219.616 477.299 218.414 477.982 216.982C478.664 215.55 478.916 213.951 478.705 212.379L484.479 163.804Z" fill="#FFB6B6"/>
<path d="M522.496 398.64L530.3 398.639L534.013 368.537H522.494L522.496 398.64Z" fill="#FFB6B6"/>
<path d="M519.852 394.791L532.19 394.055V399.34L543.919 407.441C544.498 407.841 544.934 408.416 545.164 409.081C545.394 409.747 545.404 410.468 545.195 411.141C544.985 411.813 544.566 412.4 543.999 412.817C543.432 413.235 542.747 413.46 542.043 413.46H527.355L524.823 408.231L523.835 413.46H518.297L519.852 394.791Z" fill="#2F2E41"/>
<path d="M477.37 398.64L485.175 398.639L488.887 368.537H477.369L477.37 398.64Z" fill="#FFB6B6"/>
<path d="M474.727 394.791L487.065 394.055V399.34L498.794 407.441C499.373 407.841 499.809 408.416 500.039 409.081C500.269 409.747 500.279 410.468 500.07 411.141C499.86 411.813 499.441 412.4 498.874 412.817C498.307 413.235 497.622 413.46 496.918 413.46H482.23L479.698 408.231L478.71 413.46H473.172L474.727 394.791Z" fill="#2F2E41"/>
<path d="M515.546 95.4531L499.379 95.7701L487.967 107.816L478.817 109.158C474.679 109.765 470.874 111.774 468.038 114.85C465.203 117.926 463.509 121.881 463.24 126.055L464.825 134.762H474.335L479.837 167.065C477.698 172.516 477.552 176.819 481.944 178.509L495.575 204.186L535.835 186.117C537.876 182.607 538.531 179.081 536.444 175.653L539.322 126.203H548.999C548.999 116.954 545.871 109.157 536.68 108.128C533.029 107.733 529.362 107.523 525.69 107.499L515.546 95.4531Z" fill="#E5E6E4"/>
<path d="M535.834 186.116C535.834 186.116 496.525 193.09 481.943 178.508C481.943 178.508 480.462 181.021 478.231 185.189C477.59 186.388 476.351 187.2 475.603 188.652C474.923 189.972 473.173 191.594 472.433 193.091C471.837 194.295 472.793 195.868 472.173 197.169C464.705 212.832 455.98 234.927 457.85 249.517C459.056 258.926 461.548 280.819 464.172 304.333C464.377 306.171 462.716 308.531 462.922 310.382C463.117 312.129 465.178 313.366 465.372 315.116C465.501 316.278 464.062 317.464 464.19 318.625C464.332 319.898 466.041 321.146 466.181 322.415C469.775 354.883 473.067 385.196 473.067 385.196H491.453L494.922 315.964L492.087 290.728L498.744 239.69L507.937 288.192L509.12 315.489L518.835 386.464H535.834V317.756L537.102 314.187L535.834 309.609L537.102 304.676L535.834 299.305V186.116Z" fill="#2F2E41"/>
<path d="M520.508 86.0764C518.004 89.4031 514.441 91.7778 510.407 92.8093C506.372 93.8408 502.107 93.4677 498.313 91.7512C494.519 90.0348 491.423 87.0775 489.534 83.3664C487.646 79.6552 487.077 75.4115 487.923 71.3342C488.768 67.2568 490.977 63.5889 494.185 60.9345C497.394 58.2801 501.41 56.7975 505.574 56.7309C509.737 56.6642 513.799 58.0175 517.091 60.5679C520.383 63.1183 522.708 66.7137 523.683 70.7619C523.736 70.9815 523.78 71.2 523.824 71.4267C524.339 73.9641 524.31 76.582 523.738 79.1073C523.166 81.6327 522.066 84.008 520.508 86.0764Z" fill="#FFB6B6"/>
<path d="M516.687 75.6206C516.299 73.6695 515.315 71.8866 513.872 70.5168C514.015 72.3866 513.755 74.2652 513.112 76.0264C508.292 76.4533 503.45 75.4942 499.157 73.2621C495.924 71.0685 491.809 71.2586 487.016 73.2621C487.015 70.9308 487.474 68.6222 488.366 66.4683C489.258 64.3143 490.566 62.3572 492.215 60.7087C493.863 59.0602 495.82 57.7525 497.974 56.8605C500.128 55.9685 502.437 55.5095 504.768 55.5098H507.938C512.646 55.5106 517.161 57.3812 520.49 60.7103C523.819 64.0393 525.69 68.5542 525.69 73.2621C522.765 74.3115 519.752 75.1007 516.687 75.6206Z" fill="#2F2E41"/>
<path d="M378 301.881C406.167 301.881 429 279.047 429 250.881C429 222.714 406.167 199.881 378 199.881C349.833 199.881 327 222.714 327 250.881C327 279.047 349.833 301.881 378 301.881Z" fill="#E5E6E4"/>
<path d="M508.83 236.284H375.043C373.143 236.279 371.322 235.522 369.979 234.179C368.635 232.835 367.878 231.015 367.873 229.115V163.926C367.878 162.026 368.635 160.205 369.978 158.862C371.321 157.518 373.142 156.761 375.042 156.756H508.829C510.729 156.761 512.55 157.518 513.893 158.861C515.237 160.204 515.994 162.025 515.999 163.925V229.114C515.994 231.014 515.237 232.834 513.894 234.178C512.551 235.522 510.73 236.279 508.83 236.284Z" fill="#E5E6E4"/>
<path d="M508.83 236.284H375.043C373.143 236.279 371.322 235.522 369.979 234.179C368.635 232.835 367.878 231.015 367.873 229.115V163.926C367.878 162.026 368.635 160.205 369.978 158.862C371.321 157.518 373.142 156.761 375.042 156.756H508.829C510.729 156.761 512.55 157.518 513.893 158.861C515.237 160.204 515.994 162.025 515.999 163.925V229.114C515.994 231.014 515.237 232.834 513.894 234.178C512.551 235.522 510.73 236.279 508.83 236.284ZM375.043 158.756C373.673 158.76 372.36 159.306 371.391 160.275C370.423 161.244 369.877 162.557 369.873 163.927V229.114C369.877 230.484 370.423 231.797 371.392 232.765C372.361 233.734 373.674 234.28 375.044 234.284H508.828C510.198 234.28 511.511 233.734 512.48 232.765C513.449 231.796 513.995 230.483 513.999 229.113V163.926C513.995 162.556 513.449 161.243 512.48 160.274C511.511 159.306 510.198 158.76 508.828 158.756L375.043 158.756Z" fill="#3F3D56"/>
<path d="M449.107 226.649C422.721 226.649 395.208 226.397 384.943 226.233C383.592 226.206 382.306 225.651 381.359 224.688C380.411 223.724 379.878 222.429 379.873 221.078V167.117C379.874 166.633 380.066 166.169 380.407 165.827C380.749 165.484 381.212 165.291 381.696 165.289H502.172C502.655 165.29 503.119 165.482 503.462 165.823C503.804 166.165 503.997 166.628 503.999 167.112V203.724C503.977 209.7 501.613 215.43 497.414 219.683C493.216 223.937 487.518 226.375 481.542 226.476C471.975 226.601 460.646 226.649 449.107 226.649Z" fill="#D17A22"/>
<path d="M495.021 200.362H386.162C385.25 200.359 384.361 200.076 383.616 199.551C382.871 199.026 382.306 198.284 381.998 197.426L369.676 162.86C369.439 162.193 369.365 161.479 369.461 160.778C369.556 160.077 369.819 159.409 370.226 158.83C370.633 158.251 371.174 157.779 371.801 157.452C372.429 157.126 373.126 156.954 373.834 156.953L509.906 156.764C510.553 156.763 511.192 156.904 511.779 157.177C512.365 157.45 512.884 157.849 513.3 158.344C513.716 158.84 514.017 159.421 514.184 160.046C514.351 160.671 514.379 161.325 514.266 161.961L514.371 162.006L513.98 162.917L513.976 162.927L499.081 197.682C498.742 198.478 498.176 199.156 497.454 199.632C496.732 200.109 495.886 200.363 495.021 200.362ZM509.913 158.764L373.838 158.953C373.45 158.954 373.068 159.048 372.724 159.226C372.38 159.405 372.085 159.664 371.861 159.981C371.638 160.298 371.494 160.664 371.442 161.048C371.389 161.432 371.43 161.823 371.56 162.188L383.881 196.753C384.05 197.223 384.36 197.63 384.768 197.917C385.177 198.205 385.664 198.36 386.163 198.362H495.021C495.494 198.362 495.957 198.223 496.352 197.962C496.747 197.702 497.057 197.33 497.243 196.895L512.138 162.139C512.296 161.77 512.36 161.369 512.324 160.97C512.289 160.57 512.155 160.186 511.934 159.852C511.714 159.517 511.413 159.243 511.061 159.053C510.708 158.863 510.313 158.764 509.913 158.764Z" fill="#3F3D56"/>
<path d="M441.733 207.886C446.441 207.886 450.257 204.07 450.257 199.362C450.257 194.654 446.441 190.838 441.733 190.838C437.025 190.838 433.209 194.654 433.209 199.362C433.209 204.07 437.025 207.886 441.733 207.886Z" fill="white"/>
<path d="M548.514 156.195L548.541 123.332L529.223 125.058L536.041 145.785L511.293 183.299C509.746 183.646 508.333 184.436 507.227 185.573C506.12 186.709 505.369 188.143 505.063 189.699C504.758 191.255 504.912 192.867 505.506 194.337C506.101 195.808 507.11 197.073 508.412 197.98C509.713 198.886 511.25 199.394 512.835 199.442C514.421 199.49 515.986 199.076 517.34 198.25C518.694 197.424 519.778 196.222 520.46 194.79C521.143 193.359 521.394 191.759 521.183 190.187L548.514 156.195Z" fill="#FFB6B6"/>
</svg>
