<svg width="7731" height="7731" viewBox="0 0 7731 7731" fill="none" xmlns="http://www.w3.org/2000/svg">
<g clip-path="url(#clip0_53_463)">
<path d="M2423.01 4880.09C2398.51 5072.03 2308.42 5247.64 2212.32 5416.81C2209.14 5422.57 2205.87 5428.24 2202.52 5434H1203.68C1183.48 5428.76 1163.53 5423 1143.68 5416.81C1030.86 5382.46 924.353 5330.06 828.294 5261.65C460.819 4996.9 319.415 4496.63 383.284 4048.35C422.998 3769.85 545.23 3485.5 783.25 3335.5C908.923 3256.17 1070.35 3230.38 1215.02 3259.86C1218.81 3260.55 1222.59 3261.41 1226.45 3262.18C1350.92 3290.2 1461.81 3359.83 1524.91 3472.01C1638.37 3673.58 1570.81 3923.29 1515.02 4147.64C1459.4 4371.99 1429.23 4640.52 1590.66 4805.99C1537.37 4649.12 1589.98 4461.99 1717.28 4355.91C1813.47 4275.89 1947.39 4245.89 2069.54 4270.73C2081.23 4273.22 2092.75 4276.06 2104.1 4279.5C2131.52 4287.53 2157.96 4298.6 2182.92 4312.5C2373.32 4418.83 2450.43 4663.73 2423.01 4880.09Z" fill="#EFEFEF"/>
<path d="M1830.75 5416.81C1858.43 5423.25 1886.19 5428.93 1914.13 5434H1763.1C1743.33 5428.67 1723.64 5423 1704.13 5416.81C1661.24 5403.4 1619 5388.01 1577.43 5370.65C1410.67 5300.68 1257.06 5195.64 1140.84 5055.87C1084 4988.15 1037.59 4912.33 1003.13 4830.92C965.772 4738.9 942.027 4641.92 932.65 4543.04C911.588 4340.18 933.078 4131.73 973.22 3932.48C1014.65 3725.97 1081.52 3525.39 1172.3 3335.33C1183.22 3312.55 1194.51 3289.92 1206.17 3267.43C1206.97 3265.57 1208.19 3263.93 1209.72 3262.62C1211.25 3261.31 1213.07 3260.36 1215.02 3259.86C1218.99 3259.09 1223.1 3259.93 1226.46 3262.18C1230.48 3264.49 1233.47 3268.26 1234.79 3272.71C1236.12 3277.15 1235.69 3281.94 1233.59 3286.08C1139.99 3468.62 1069.03 3661.91 1022.3 3861.65C976.574 4056.52 950.614 4260.41 959.466 4460.78C967.89 4648 1016.8 4832.12 1127.77 4985.21C1229.12 5124.98 1369.06 5235.18 1523.87 5310.22C1621.86 5357.1 1724.8 5392.85 1830.75 5416.81Z" fill="white"/>
<path d="M2162.21 5434H2117.68C2112.69 5428.33 2107.88 5422.57 2103.15 5416.81C2001.73 5293.58 1933.02 5146.76 1903.38 4989.94C1867.39 4794.23 1895.39 4592.14 1983.24 4413.59C2007.75 4363.52 2036.63 4315.72 2069.54 4270.73C2081.23 4273.22 2092.75 4276.06 2104.1 4279.5C2017.52 4394.2 1959.29 4527.74 1934.15 4669.23C1911.73 4801.81 1919.19 4937.73 1955.98 5067.06C1992.77 5196.39 2057.97 5315.88 2146.82 5416.81C2151.8 5422.57 2156.96 5428.33 2162.21 5434Z" fill="white"/>
<path d="M6173.39 5287.81C6179.86 5338.47 6203.63 5384.82 6229 5429.46C6229.83 5430.98 6230.7 5432.48 6231.58 5434H6495.19C6500.53 5432.62 6505.79 5431.1 6511.03 5429.46C6540.8 5420.4 6568.91 5406.57 6594.26 5388.51C6691.25 5318.64 6728.57 5186.61 6711.71 5068.3C6701.23 4994.8 6668.97 4919.75 6606.15 4880.17C6572.04 4859.39 6531.34 4852.26 6492.2 4860.2C6491.2 4860.39 6490.2 4860.61 6489.18 4860.82C6472.89 4863.97 6457.45 4870.53 6443.87 4880.07C6430.3 4889.62 6418.89 4901.93 6410.42 4916.19C6380.47 4969.39 6398.3 5035.29 6413.03 5094.5C6427.7 5153.71 6435.67 5224.59 6393.06 5268.26C6399.31 5249.99 6400.57 5230.4 6396.74 5211.48C6392.9 5192.57 6384.09 5175.01 6371.22 5160.63C6358.35 5146.24 6341.88 5135.55 6323.51 5129.63C6305.14 5123.72 6285.52 5122.81 6266.68 5126.99C6263.59 5127.65 6260.55 5128.4 6257.56 5129.3C6250.32 5131.42 6243.34 5134.35 6236.75 5138.02C6186.5 5166.08 6166.15 5230.71 6173.39 5287.81Z" fill="#EFEFEF"/>
<path d="M6329.7 5429.46C6322.4 5431.17 6315.07 5432.66 6307.69 5434H6347.55C6352.77 5432.59 6357.97 5431.1 6363.12 5429.46C6374.44 5425.93 6385.58 5421.86 6396.56 5417.28C6441.06 5399.21 6480.58 5370.72 6511.78 5334.21C6526.78 5316.33 6539.03 5296.32 6548.12 5274.84C6557.98 5250.55 6564.25 5224.96 6566.72 5198.86C6571.25 5144.92 6567.64 5090.6 6556.02 5037.72C6545.08 4983.22 6527.43 4930.28 6503.48 4880.12C6500.59 4874.11 6497.61 4868.14 6494.54 4862.2C6494.32 4861.71 6494 4861.28 6493.6 4860.93C6493.19 4860.59 6492.72 4860.34 6492.2 4860.21C6491.15 4860 6490.07 4860.22 6489.18 4860.82C6488.12 4861.43 6487.33 4862.42 6486.98 4863.6C6486.63 4864.77 6486.75 4866.03 6487.3 4867.13C6512 4915.3 6530.73 4966.31 6543.06 5019.03C6555.76 5070.74 6561.34 5123.94 6559.65 5177.15C6558.74 5226.65 6543.29 5274.78 6515.23 5315.56C6487.93 5352.28 6452.04 5381.74 6410.69 5401.33C6384.83 5413.71 6357.66 5423.14 6329.7 5429.46Z" fill="#EFEFEF"/>
<path d="M6242.22 5434H6253.97C6255.29 5432.5 6256.56 5430.98 6257.81 5429.46C6284.57 5396.94 6302.71 5358.19 6310.53 5316.81C6320.03 5265.15 6312.64 5211.82 6289.45 5164.7C6282.99 5151.48 6275.36 5138.87 6266.68 5126.99C6263.59 5127.65 6260.55 5128.4 6257.56 5129.31C6280.41 5159.58 6295.77 5194.82 6302.41 5232.16C6308.33 5267.15 6306.36 5303.02 6296.65 5337.16C6286.94 5371.29 6269.73 5402.83 6246.28 5429.46C6244.97 5430.98 6243.61 5432.5 6242.22 5434Z" fill="white"/>
<path d="M3797.32 4124.68H2972.27L2963.53 3871.01C2963.15 3860.01 2965.16 3849.07 2969.42 3838.92C2973.67 3828.78 2980.08 3819.67 2988.19 3812.24C2996.3 3804.81 3005.93 3799.22 3016.41 3795.86C3026.89 3792.51 3037.97 3791.46 3048.89 3792.8L3529.01 3851.59H3529.07C3600.25 3851.78 3668.45 3880.18 3718.73 3930.56C3769.01 3980.94 3797.27 4049.2 3797.32 4120.38V4124.68Z" fill="#D17A22"/>
<path d="M3429.59 3224.88H2854.17C2846.51 3224.87 2838.93 3226.38 2831.86 3229.31C2824.79 3232.24 2818.37 3236.53 2812.96 3241.94C2807.55 3247.35 2803.25 3253.78 2800.33 3260.85C2797.4 3267.92 2795.89 3275.49 2795.89 3283.15V3858.57C2795.89 3866.22 2797.4 3873.8 2800.33 3880.87C2803.25 3887.94 2807.55 3894.37 2812.96 3899.78C2818.37 3905.19 2824.79 3909.48 2831.86 3912.41C2838.93 3915.34 2846.51 3916.84 2854.17 3916.84H3429.59C3437.25 3916.84 3444.82 3915.34 3451.9 3912.41C3458.97 3909.48 3465.39 3905.19 3470.8 3899.78C3476.21 3894.37 3480.51 3887.94 3483.43 3880.87C3486.36 3873.8 3487.87 3866.22 3487.86 3858.57V3283.15C3487.87 3275.49 3486.36 3267.92 3483.43 3260.85C3480.51 3253.78 3476.21 3247.35 3470.8 3241.94C3465.39 3236.53 3458.97 3232.24 3451.9 3229.31C3444.82 3226.38 3437.25 3224.87 3429.59 3224.88Z" fill="#CCCCCC"/>
<path d="M3300 3655.16L3028.31 3708.06C3012.2 3711.18 2995.5 3707.78 2981.89 3698.61C2968.28 3689.43 2958.86 3675.23 2955.71 3659.13L2934.82 3551.88C2931.7 3535.77 2935.1 3519.07 2944.28 3505.46C2953.45 3491.85 2967.65 3482.43 2983.76 3479.28L3255.45 3426.37C3271.56 3423.25 3288.26 3426.65 3301.87 3435.83C3315.48 3445 3324.9 3459.2 3328.05 3475.31L3348.94 3582.55C3352.06 3598.67 3348.65 3615.36 3339.48 3628.97C3330.31 3642.58 3316.11 3652 3300 3655.16Z" fill="#141414"/>
<path d="M3245.64 3528.46L3038.3 3568.83C3034.51 3569.57 3030.58 3568.78 3027.38 3566.62C3024.17 3564.46 3021.96 3561.11 3021.22 3557.32C3020.48 3553.53 3021.28 3549.6 3023.44 3546.39C3025.6 3543.19 3028.94 3540.97 3032.74 3540.24L3240.07 3499.86C3243.87 3499.12 3247.8 3499.92 3251 3502.08C3254.2 3504.24 3256.42 3507.58 3257.16 3511.38C3257.9 3515.17 3257.1 3519.1 3254.94 3522.3C3252.78 3525.51 3249.43 3527.72 3245.64 3528.46Z" fill="white"/>
<path d="M3205.34 3588.25L3098.1 3609.14C3094.31 3609.87 3090.37 3609.08 3087.17 3606.92C3083.97 3604.76 3081.75 3601.41 3081.01 3597.62C3080.28 3593.83 3081.07 3589.9 3083.23 3586.69C3085.39 3583.49 3088.74 3581.28 3092.53 3580.54L3199.77 3559.65C3201.65 3559.29 3203.58 3559.3 3205.46 3559.68C3207.33 3560.06 3209.11 3560.8 3210.7 3561.87C3212.29 3562.94 3213.65 3564.31 3214.7 3565.91C3215.76 3567.5 3216.49 3569.29 3216.86 3571.17C3217.22 3573.05 3217.21 3574.98 3216.83 3576.85C3216.45 3578.73 3215.71 3580.51 3214.64 3582.09C3213.57 3583.68 3212.2 3585.04 3210.6 3586.1C3209.01 3587.15 3207.22 3587.89 3205.34 3588.25Z" fill="white"/>
<path d="M3487.86 3283.15V3359.63H2795.89V3283.15C2795.89 3275.49 2797.4 3267.92 2800.33 3260.85C2803.25 3253.78 2807.55 3247.35 2812.96 3241.94C2818.37 3236.53 2824.79 3232.24 2831.86 3229.31C2838.93 3226.38 2846.51 3224.87 2854.17 3224.88H3429.59C3437.25 3224.87 3444.82 3226.38 3451.9 3229.31C3458.97 3232.24 3465.39 3236.53 3470.8 3241.94C3476.21 3247.35 3480.51 3253.78 3483.43 3260.85C3486.36 3267.92 3487.87 3275.49 3487.86 3283.15Z" fill="#B3B3B3"/>
<path d="M4869.66 3383.58C4865.67 3370.68 4858.89 3358.82 4849.82 3348.83C4840.74 3338.83 4829.59 3330.95 4817.13 3325.73C4804.68 3320.52 4791.24 3318.09 4777.75 3318.64C4764.26 3319.18 4751.05 3322.67 4739.06 3328.87L3947.41 3044.84L3912.54 3242.6L4701.67 3459.61C4713.42 3479.07 4731.9 3493.54 4753.6 3500.28C4775.31 3507.03 4798.73 3505.58 4819.44 3496.21C4840.15 3486.84 4856.69 3470.19 4865.95 3449.43C4875.21 3428.68 4876.53 3405.24 4869.66 3383.58Z" fill="#FFB8B8"/>
<path opacity="0.2" d="M4869.66 3383.58C4865.67 3370.68 4858.89 3358.82 4849.82 3348.83C4840.74 3338.83 4829.59 3330.95 4817.13 3325.73C4804.68 3320.52 4791.24 3318.09 4777.75 3318.64C4764.26 3319.18 4751.05 3322.67 4739.06 3328.87L3947.41 3044.84L3912.54 3242.6L4701.67 3459.61C4713.42 3479.07 4731.9 3493.54 4753.6 3500.28C4775.31 3507.03 4798.73 3505.58 4819.44 3496.21C4840.15 3486.84 4856.69 3470.19 4865.95 3449.43C4875.21 3428.68 4876.53 3405.24 4869.66 3383.58Z" fill="black"/>
<path d="M4087.92 3080.88L4013.17 3276.17C4011.04 3281.73 4007.74 3286.76 4003.49 3290.93C3999.24 3295.1 3994.15 3298.3 3988.55 3300.32C3982.95 3302.34 3976.99 3303.13 3971.06 3302.63C3965.13 3302.14 3959.38 3300.37 3954.19 3297.46L3772.51 3195.2C3744.14 3184.15 3721.31 3162.31 3709.02 3134.46C3696.74 3106.61 3696 3075.02 3706.96 3046.62C3717.93 3018.23 3739.7 2995.34 3767.52 2982.97C3795.34 2970.61 3826.92 2969.77 3855.35 2980.66L4058.23 3025.65C4064.04 3026.95 4069.5 3029.47 4074.25 3033.06C4078.99 3036.65 4082.9 3041.23 4085.72 3046.47C4088.54 3051.71 4090.19 3057.49 4090.57 3063.43C4090.95 3069.37 4090.05 3075.32 4087.92 3080.88Z" fill="#D17A22"/>
<path d="M4931.98 3564.41L4648.31 3693.35L4685.55 3833.56C4757.47 4104.3 4776.56 4386.37 4741.77 4664.34L4949.17 4707.65L5121.08 4269.27L5060.91 3770.71L4931.98 3564.41Z" fill="#D17A22"/>
<path d="M5488.56 4213.39C5302.18 4213.39 5150.3 4348.88 5142.93 4518.55H5834.19C5826.82 4348.88 5674.94 4213.39 5488.56 4213.39Z" fill="#141414"/>
<path d="M5343.47 4242.64C5333.77 3476.76 4897.59 3547.22 4897.59 3547.22C4897.59 3547.22 4905.75 3785.61 4909.67 3793.03C5187.62 4318.91 4728.9 4935.44 4144.98 4822.02C4133.97 4819.88 4123.39 4817.71 4113.25 4815.51C4039.26 4800.06 3973.94 4757.01 3930.56 4695.12C3887.19 4633.22 3869.02 4557.13 3879.76 4482.31C3937.28 4020.41 3651.19 4028.59 3651.19 4028.59H3232.85L3015.61 3833.07C3007.94 3826.17 2998.7 3821.25 2988.69 3818.74C2978.68 3816.24 2968.21 3816.23 2958.2 3818.7C2948.18 3821.18 2938.93 3826.07 2931.24 3832.95C2923.55 3839.84 2917.67 3848.49 2914.1 3858.17L2886.15 3934.03C2886.15 3934.03 2473.55 3977.01 2507.93 4381.01H2635.49C2635.19 4392.49 2635.65 4403.98 2636.87 4415.4L3588.87 4407.66C3644.68 4407.2 3693.94 4452.42 3694.17 4508.23C3694.22 4521.81 3691.54 4535.27 3686.27 4547.8C3681.01 4560.32 3673.27 4571.65 3663.53 4581.12C3653.78 4590.59 3642.23 4597.99 3629.56 4602.89C3616.88 4607.78 3603.35 4610.07 3589.77 4609.62L3436.29 4604.51C3389.01 4815.1 3505.06 4956.93 3632.92 5046.12C3753.31 5128.86 3896.16 5172.74 4042.24 5171.83H4459.2C5000.74 5171.83 5095.3 4716.25 5095.3 4716.25C5378.96 4595.91 5343.47 4242.64 5343.47 4242.64Z" fill="#141414"/>
<path d="M5462.77 5421.11C5729.81 5421.11 5946.29 5204.63 5946.29 4937.59C5946.29 4670.55 5729.81 4454.08 5462.77 4454.08C5195.73 4454.08 4979.25 4670.55 4979.25 4937.59C4979.25 5204.63 5195.73 5421.11 5462.77 5421.11Z" fill="#141414"/>
<path d="M5462.77 5056.1C5528.22 5056.1 5581.28 5003.04 5581.28 4937.59C5581.28 4872.14 5528.22 4819.08 5462.77 4819.08C5397.32 4819.08 5344.26 4872.14 5344.26 4937.59C5344.26 5003.04 5397.32 5056.1 5462.77 5056.1Z" fill="white"/>
<path d="M3021.54 5421.11C3328.93 5421.11 3578.12 5171.92 3578.12 4864.53C3578.12 4557.14 3328.93 4307.95 3021.54 4307.95C2714.14 4307.95 2464.95 4557.14 2464.95 4864.53C2464.95 5171.92 2714.14 5421.11 3021.54 5421.11Z" fill="#141414"/>
<path d="M3021.54 5000.94C3096.88 5000.94 3157.95 4939.87 3157.95 4864.53C3157.95 4789.19 3096.88 4728.11 3021.54 4728.11C2946.2 4728.11 2885.12 4789.19 2885.12 4864.53C2885.12 4939.87 2946.2 5000.94 3021.54 5000.94Z" fill="white"/>
<path d="M4649.12 3731.45L4547.05 3454.24C4541.73 3439.79 4539.31 3424.43 4539.93 3409.05C4540.54 3393.67 4544.18 3378.56 4550.64 3364.58C4557.09 3350.6 4566.24 3338.03 4577.55 3327.59C4588.86 3317.15 4602.12 3309.04 4616.57 3303.72L4909.17 3196C4934.59 3186.64 4961.61 3182.38 4988.68 3183.46C5015.74 3184.54 5042.33 3190.94 5066.93 3202.29C5091.52 3213.65 5113.64 3229.74 5132.02 3249.64C5150.39 3269.54 5164.67 3292.87 5174.03 3318.29C5182.47 3341.11 5186.78 3365.25 5186.76 3389.57C5186.65 3420.46 5179.66 3450.94 5166.29 3478.79C5152.93 3506.64 5133.53 3531.16 5109.5 3550.57C5092.14 3564.5 5072.63 3575.5 5051.73 3583.14L4649.12 3731.45Z" fill="#141414"/>
<path d="M5182.46 3389.57C5182.44 3419.83 5175.63 3449.7 5162.54 3476.98C5149.45 3504.27 5130.41 3528.27 5106.81 3547.22C5070.62 3537.67 5036.94 3520.36 5008.12 3496.48C4979.29 3472.6 4956.01 3442.73 4939.9 3408.95C4923.78 3375.16 4915.22 3338.27 4914.8 3300.85C4914.38 3263.42 4922.12 3226.35 4937.48 3192.21C4966.96 3185.8 4997.51 3186.07 5026.87 3193.01C5056.23 3199.95 5083.67 3213.38 5107.17 3232.3C5130.67 3251.23 5149.62 3275.18 5162.65 3302.4C5175.68 3329.61 5182.45 3359.4 5182.46 3389.57Z" fill="#D17A22"/>
<path d="M2581 4436.89C2647.46 4436.89 2701.34 4371.46 2701.34 4290.76C2701.34 4210.05 2647.46 4144.63 2581 4144.63C2514.53 4144.63 2460.65 4210.05 2460.65 4290.76C2460.65 4371.46 2514.53 4436.89 2581 4436.89Z" fill="#EFEFEF"/>
<path d="M4171.76 4808.02H4277.15L4327.29 4534.7L4171.75 4534.71L4171.76 4808.02Z" fill="#FFB8B8"/>
<path d="M4144.88 4773.61L4352.42 4773.61H4352.43C4369.8 4773.6 4387 4777.03 4403.04 4783.67C4419.09 4790.32 4433.67 4800.06 4445.95 4812.34C4458.23 4824.62 4467.97 4839.2 4474.62 4855.25C4481.27 4871.3 4484.69 4888.49 4484.69 4905.86V4910.16L4144.89 4910.17L4144.88 4773.61Z" fill="#141414"/>
<path d="M4294.09 4695.84C4292.86 4695.84 4291.63 4695.78 4290.39 4695.66L4144.55 4685.04C4138.65 4684.5 4132.96 4682.6 4127.91 4679.51C4122.86 4676.41 4118.58 4672.2 4115.42 4667.19C4112.26 4662.18 4110.28 4656.51 4109.66 4650.62C4109.03 4644.73 4109.76 4638.78 4111.8 4633.22L4306.99 4194.71C4308.38 4190.8 4308.95 4186.64 4308.66 4182.5C4308.37 4178.36 4307.22 4174.32 4305.3 4170.65C4303.38 4166.93 4300.69 4163.66 4297.41 4161.05C4294.14 4158.44 4290.35 4156.56 4286.29 4155.52C4194.51 4131.53 3959.03 4067.65 3755.18 3992.91C3667.85 3960.88 3612.84 3914.6 3591.7 3855.36C3563.82 3777.25 3605.06 3706.01 3606.83 3703.02L3608.21 3700.68L3800.03 3718.12L4007.97 3735.8L4463.67 3980.16C4501.86 4000.81 4530.86 4035.09 4544.91 4076.16C4558.96 4117.23 4557.02 4162.09 4539.48 4201.8L4329.38 4672.91C4326.34 4679.74 4321.39 4685.53 4315.13 4689.6C4308.87 4693.67 4301.56 4695.84 4294.09 4695.84Z" fill="#141414"/>
<path d="M3833.38 2850.55C3949.98 2850.55 4044.51 2756.03 4044.51 2639.43C4044.51 2522.83 3949.98 2428.3 3833.38 2428.3C3716.78 2428.3 3622.26 2522.83 3622.26 2639.43C3622.26 2756.03 3716.78 2850.55 3833.38 2850.55Z" fill="#FFB8B8"/>
<path d="M4111.59 4833.81H4216.98L4267.12 4560.48L4111.58 4560.49L4111.59 4833.81Z" fill="#FFB8B8"/>
<path d="M4084.71 4799.4L4292.25 4799.39H4292.26C4309.63 4799.39 4326.82 4802.81 4342.87 4809.46C4358.92 4816.11 4373.5 4825.85 4385.78 4838.13C4398.06 4850.41 4407.8 4864.99 4414.45 4881.04C4421.1 4897.08 4424.52 4914.28 4424.52 4931.65V4935.95L4084.72 4935.96L4084.71 4799.4Z" fill="#141414"/>
<path d="M4233.92 4721.63C4232.69 4721.63 4231.46 4721.57 4230.22 4721.45L4084.38 4710.83C4078.48 4710.28 4072.78 4708.39 4067.73 4705.29C4062.68 4702.2 4058.41 4697.98 4055.25 4692.98C4052.08 4687.97 4050.11 4682.3 4049.49 4676.41C4048.86 4670.52 4049.59 4664.57 4051.63 4659L4246.81 4220.49C4248.21 4216.58 4248.78 4212.43 4248.49 4208.29C4248.2 4204.15 4247.05 4200.11 4245.13 4196.43C4243.21 4192.71 4240.52 4189.44 4237.24 4186.84C4233.97 4184.23 4230.18 4182.35 4226.12 4181.31C4134.34 4157.32 3898.86 4093.44 3695.01 4018.69C3607.68 3986.67 3552.67 3940.39 3531.53 3881.14C3503.65 3803.03 3544.89 3731.8 3546.66 3728.81L3548.04 3726.47L3739.86 3743.9L3947.8 3761.59L4403.5 4005.95C4441.68 4026.6 4470.69 4060.87 4484.74 4101.95C4498.78 4143.02 4496.85 4187.88 4479.3 4227.59L4269.21 4698.7C4266.17 4705.52 4261.22 4711.32 4254.96 4715.39C4248.69 4719.46 4241.39 4721.62 4233.92 4721.63Z" fill="#141414"/>
<path d="M3898.49 2970.26L3675 2892.9C3675 2892.9 3534.7 3000.69 3602.1 3268.1C3637.29 3406.09 3627.04 3551.75 3572.87 3683.45C3566.35 3699.74 3558.83 3715.62 3550.36 3730.99C3550.36 3730.99 3799.64 4031.85 4031.73 3808.36L3941.47 3374.27C3941.47 3374.27 4083.31 3086.31 3898.49 2970.26Z" fill="#D17A22"/>
<path d="M3859.59 2857.73C3829.55 2812.75 3805.83 2750.39 3838.92 2707.6C3871.57 2665.35 3935.98 2671.58 3986 2652.89C4055.66 2626.85 4096.06 2545.01 4083.46 2471.72C4070.86 2398.43 4012.02 2337.68 3941.93 2312.82C3871.85 2287.96 3792.81 2296.04 3724.17 2324.67C3639.68 2359.91 3567.2 2428.08 3536.81 2514.43C3506.42 2600.79 3522.66 2704.47 3585.71 2770.84C3653.31 2842 3759.4 2860.97 3857.54 2859.82" fill="#141414"/>
<path d="M3663.2 2474.08C3625.34 2504.9 3567.57 2491.21 3526.93 2464.16C3486.28 2437.11 3453.3 2398.59 3409.33 2377.38C3331.8 2339.99 3238.07 2364.84 3162.61 2406.26C3087.16 2447.68 3020.27 2504.9 2940.57 2537.4C2860.87 2569.9 2759.16 2571.51 2698.81 2510.14C2683.96 2553.16 2682.74 2599.73 2695.33 2643.47C2707.92 2687.22 2733.7 2726.01 2769.15 2754.57C2804.61 2783.12 2848 2800.04 2893.43 2803.01C2938.85 2805.99 2984.09 2794.88 3022.96 2771.2C3110.29 2718.01 3158.53 2606.48 3256.48 2577.12C3310.68 2560.87 3368.88 2573.95 3423.66 2588.13C3478.44 2602.3 3535.56 2617.61 3590.84 2605.55C3646.13 2593.48 3697.84 2543.8 3690.8 2487.66L3663.2 2474.08Z" fill="#141414"/>
<path d="M4859.16 3374.98C4853.6 3362.68 4845.42 3351.74 4835.18 3342.94C4824.94 3334.14 4812.89 3327.7 4799.89 3324.06C4786.89 3320.42 4773.25 3319.67 4759.93 3321.87C4746.61 3324.08 4733.94 3329.17 4722.8 3336.8L3902.16 3152.62L3891.96 3353.17L4701.83 3471.16C4715.89 3489.02 4736.01 3501.1 4758.38 3505.11C4780.75 3509.13 4803.82 3504.8 4823.21 3492.95C4842.61 3481.09 4856.98 3462.53 4863.6 3440.79C4870.22 3419.05 4868.64 3395.63 4859.16 3374.98Z" fill="#FFB8B8"/>
<path d="M4046.04 3171.04L3995.95 3374.07C3994.53 3379.85 3991.88 3385.25 3988.17 3389.91C3984.47 3394.57 3979.81 3398.37 3974.51 3401.07C3969.2 3403.76 3963.38 3405.28 3957.43 3405.52C3951.49 3405.76 3945.56 3404.72 3940.05 3402.47L3747.14 3323.41C3717.61 3315.96 3692.24 3297.11 3676.59 3270.98C3660.95 3244.85 3656.3 3213.58 3663.68 3184.03C3671.07 3154.49 3689.87 3129.08 3715.96 3113.37C3742.06 3097.67 3773.32 3092.97 3802.88 3100.28L4009.76 3119.9C4015.69 3120.47 4021.42 3122.3 4026.57 3125.28C4031.72 3128.26 4036.17 3132.31 4039.61 3137.17C4043.05 3142.02 4045.41 3147.56 4046.52 3153.4C4047.63 3159.25 4047.47 3165.26 4046.04 3171.04Z" fill="#D17A22"/>
<path d="M4764.36 3534.33C4797.59 3534.33 4824.53 3507.39 4824.53 3474.16C4824.53 3440.92 4797.59 3413.98 4764.36 3413.98C4731.12 3413.98 4704.18 3440.92 4704.18 3474.16C4704.18 3507.39 4731.12 3534.33 4764.36 3534.33Z" fill="#EFEFEF"/>
<path d="M7429 5425.4C7428.99 5427.68 7428.09 5429.86 7426.47 5431.48C7424.86 5433.09 7422.68 5433.99 7420.4 5434H311.596C309.316 5434 307.13 5433.09 305.518 5431.48C303.906 5429.87 303 5427.68 303 5425.4C303 5423.12 303.906 5420.94 305.518 5419.33C307.13 5417.71 309.316 5416.81 311.596 5416.81H7420.4C7422.68 5416.82 7424.86 5417.72 7426.47 5419.33C7428.09 5420.94 7428.99 5423.13 7429 5425.4Z" fill="#141414"/>
</g>
<defs>
<clipPath id="clip0_53_463">
<rect width="7126" height="3136" fill="white" transform="translate(303 2298)"/>
</clipPath>
</defs>
</svg>
