<svg width="1597" height="1597" viewBox="0 0 1597 1597" fill="none" xmlns="http://www.w3.org/2000/svg">
<g clip-path="url(#clip0_43_233)">
<path d="M970.057 1127.08C972.759 1128.53 975.84 1129.11 978.882 1128.74C981.924 1128.38 984.78 1127.08 987.063 1125.04C989.346 1123 990.946 1120.3 991.646 1117.32C992.346 1114.33 992.112 1111.2 990.977 1108.36C991.281 1106.84 991.499 1105.76 991.804 1104.24C997.649 1098.78 1004.99 1095.2 1012.89 1093.94C1020.78 1092.68 1028.88 1093.81 1036.13 1097.19C1043.38 1100.56 1049.46 1106.02 1053.58 1112.88C1057.71 1119.73 1059.7 1127.66 1059.29 1135.64C1057.44 1180.7 1059.66 1229.32 1029.73 1265.64C1166.35 1153.95 1228.65 963.687 1186.92 792.56C1166.45 764.021 1156.9 726.108 1166.08 691.752C1177.6 702.961 1200.06 699.95 1196.63 680.544C1194.79 672.875 1192.88 665.229 1191.04 657.56C1269.73 626.841 1290.28 743.893 1197.06 791.551C1204.63 824.085 1208.77 857.322 1209.42 890.717C1219.94 860.605 1237.46 833.421 1260.54 811.403C1282.87 791.281 1312.41 779.449 1339.89 765.949C1373.33 749.479 1410.44 782.132 1397.28 816.99C1375.02 814.141 1359.27 840.758 1379.47 855.062C1343.99 914.671 1275.96 952.559 1206.84 953.161C1199.85 1021.18 1178.45 1086.92 1144.06 1146.01C1188.22 1078.85 1273.67 1098.18 1341.2 1095.32C1345.68 1094.76 1350.23 1095.51 1354.29 1097.49C1358.35 1099.46 1361.75 1102.58 1364.07 1106.45C1366.39 1110.33 1367.53 1114.8 1367.36 1119.31C1367.18 1123.83 1365.7 1128.19 1363.09 1131.88C1354.2 1131.36 1345.29 1131.72 1336.48 1132.96C1332.33 1133.57 1328.48 1135.46 1325.45 1138.35C1322.41 1141.24 1320.35 1145 1319.53 1149.11C1318.72 1153.22 1319.2 1157.48 1320.9 1161.31C1322.6 1165.15 1325.45 1168.35 1329.04 1170.5C1269.8 1224.83 1178.01 1236.51 1105.97 1201.84C1084.67 1228.68 1060.64 1253.24 1034.26 1275.11L927.157 1224.03C927.34 1222.66 927.58 1221.27 927.802 1219.91C937.419 1225.26 947.654 1229.41 958.28 1232.28C946.854 1188.7 934.121 1163.18 970.053 1127.08H970.057Z" fill="#EFEFEF"/>
<path d="M780.799 1024C778.841 1026.36 776.206 1028.06 773.251 1028.87C770.296 1029.68 767.163 1029.56 764.278 1028.53C761.393 1027.49 758.895 1025.6 757.121 1023.1C755.348 1020.6 754.385 1017.62 754.364 1014.55C753.511 1013.27 752.899 1012.34 752.045 1011.05C744.574 1008.2 736.422 1007.65 728.634 1009.47C720.847 1011.28 713.779 1015.38 708.336 1021.24C702.893 1027.11 699.324 1034.46 698.086 1042.36C696.848 1050.26 697.997 1058.36 701.387 1065.6C720.089 1106.63 736.36 1152.5 777.778 1174.84C609.135 1122.96 479.703 970.255 453.82 796.025C462.019 761.869 456.569 723.152 435.112 694.798C428.669 709.527 406.734 715.213 402.595 695.946C401.409 688.149 400.291 680.348 399.104 672.551C314.644 673.796 339.751 789.954 444.047 798.917C449.311 831.902 458.008 864.245 469.994 895.421C448.895 871.503 422.421 852.938 392.75 841.254C364.474 831.048 332.656 831.237 302.116 829.104C264.937 826.469 242.878 870.714 268.215 898.029C287.756 886.99 312.38 905.698 299.065 926.568C354.399 968.385 431.688 977.803 495.928 952.278C528.047 1012.63 572.656 1065.45 626.782 1107.2C560.564 1061.65 488.718 1111.81 425.097 1134.64C420.735 1135.81 416.806 1138.22 413.79 1141.58C410.775 1144.95 408.803 1149.11 408.115 1153.58C407.427 1158.04 408.052 1162.61 409.916 1166.73C411.779 1170.84 414.799 1174.33 418.608 1176.75C426.639 1172.92 435.03 1169.89 443.66 1167.72C447.73 1166.72 452.008 1167.01 455.908 1168.54C459.808 1170.08 463.138 1172.78 465.443 1176.28C467.747 1179.78 468.913 1183.91 468.781 1188.1C468.648 1192.29 467.223 1196.33 464.702 1199.68C540.05 1227.64 629.465 1203.82 683.115 1144.53C712.962 1161.35 744.476 1175.02 777.148 1185.32L857.084 1097.6C856.397 1096.4 855.649 1095.2 854.932 1094.03C848.043 1102.61 840.13 1110.32 831.368 1116.98C825.52 1072.31 827.688 1043.87 780.802 1024L780.799 1024Z" fill="#EFEFEF"/>
<path d="M801.371 653.336C804.419 653.028 807.299 651.79 809.621 649.79C811.942 647.79 813.593 645.124 814.349 642.154C815.105 639.184 814.931 636.053 813.849 633.185C812.767 630.318 810.83 627.852 808.301 626.122C807.709 624.696 807.285 623.671 806.693 622.244C808.504 614.452 812.599 607.379 818.454 601.93C824.309 596.482 831.657 592.907 839.556 591.664C847.455 590.421 855.545 591.566 862.789 594.952C870.034 598.339 876.102 603.812 880.217 610.672C903.792 649.106 932.734 688.225 928.128 735.075C979.298 566.153 924.972 373.458 794.962 254.67C762.062 242.398 733.004 216.252 721.478 182.61C737.289 185.489 754.255 170.463 740.59 156.268C734.788 150.928 728.944 145.643 723.142 140.303C771.346 70.9109 853.637 156.622 802.819 248.176C827.228 270.967 849.189 296.247 868.344 323.606C860.297 292.739 859.69 260.401 866.572 229.253C873.903 200.089 891.83 173.791 907.119 147.256C925.698 114.932 974.705 121.338 983.202 157.62C963.136 167.67 964.895 198.552 989.635 199.159C993.405 268.433 958.047 337.83 901.004 376.882C933.108 437.245 951.984 503.759 956.372 571.993C955.592 491.606 1037.31 459.998 1091.77 419.955C1095.17 416.987 1099.37 415.074 1103.84 414.45C1108.31 413.826 1112.87 414.517 1116.96 416.44C1121.05 418.363 1124.48 421.434 1126.86 425.279C1129.23 429.124 1130.43 433.576 1130.31 438.092C1122.65 442.614 1115.45 447.887 1108.83 453.833C1105.73 456.654 1103.58 460.366 1102.67 464.458C1101.77 468.55 1102.15 472.823 1103.76 476.691C1105.38 480.559 1108.15 483.832 1111.7 486.062C1115.24 488.292 1119.39 489.369 1123.58 489.147C1104.68 567.289 1034.99 628.184 955.862 639.589C953.139 673.751 946.874 707.538 937.169 740.405L819.789 757.746C819.176 756.504 818.598 755.213 818.027 753.964C828.993 753.042 839.804 750.78 850.22 747.229C816.449 717.429 791.655 703.342 801.368 653.339L801.371 653.336Z" fill="#EFEFEF"/>
<path d="M919.427 615.684C865.988 615.684 837.003 609.151 826.88 595.206C817.948 582.902 823.936 566.668 830.87 547.871C835.853 534.36 841.501 519.047 841.501 503.891C841.501 430.178 878.863 392.801 952.547 392.801C989.208 392.801 1028.57 412.284 1057.84 444.918C1084.46 474.586 1097.71 510.094 1094.22 542.336C1091.35 568.778 1079.05 586.167 1055.5 597.063L1054.12 597.7L1053.73 596.234C1051.7 588.645 1048.26 581.505 1043.59 575.189C1043.13 585.104 1040.63 594.819 1036.25 603.723L1036 604.231L1035.45 604.386C1008.8 611.98 977.173 614.038 952.595 614.981C940.633 615.447 929.577 615.682 919.427 615.684Z" fill="#141414"/>
<path d="M933.991 718.39C931.943 712.367 928.489 706.919 923.915 702.499C919.34 698.079 913.778 694.814 907.69 692.975C901.602 691.136 895.164 690.776 888.909 691.925C882.654 693.073 876.763 695.698 871.725 699.58L695.95 804.714L640.947 670.452C645.593 663.633 647.962 655.517 647.712 647.268C647.463 639.019 644.608 631.061 639.558 624.535C634.508 618.009 627.522 613.251 619.602 610.943C611.682 608.635 603.234 608.895 595.471 611.687C587.708 614.478 581.028 619.658 576.389 626.482C571.75 633.307 569.391 641.426 569.65 649.674C569.909 657.923 572.772 665.878 577.829 672.398C582.887 678.918 589.878 683.669 597.801 685.968C601.191 724.684 620.032 897.733 685.574 891.442C740.665 886.155 877.479 795.002 919.974 763.397C926.772 758.346 931.793 751.266 934.312 743.178C936.831 735.09 936.719 726.41 933.991 718.39Z" fill="#FFB6B6"/>
<path d="M1066.45 1482H913.464L887.808 1355.1L879.486 1482H737.374C737.428 1382.35 742.617 1282.76 752.92 1183.64L754.681 1177.64L757.464 1168.04L759.225 1162.01L788.633 1060.98L790.956 1052.96H968.042C978.232 1062.54 987.632 1072.92 996.148 1084.02C999.033 1087.69 1002.04 1091.68 1005.13 1095.97C1007.28 1099.01 1009.5 1102.2 1011.72 1105.54C1031.45 1134.93 1046.2 1167.37 1055.37 1201.57V1201.59C1056.93 1207.44 1058.31 1213.43 1059.51 1219.55V1219.57C1060.58 1225.01 1061.52 1230.53 1062.26 1236.17C1062.83 1240.28 1063.31 1244.45 1063.67 1248.66C1065.8 1272 1065.05 1295.52 1061.45 1318.68L1066.45 1482Z" fill="#141414"/>
<path d="M255.31 321.656C265.246 317.808 271.131 309.084 268.456 302.169C265.78 295.255 255.557 292.769 245.622 296.616C235.686 300.464 229.801 309.188 232.477 316.103C235.152 323.017 245.375 325.503 255.31 321.656Z" fill="#EFEFEF"/>
<path d="M380.405 305.602C390.341 301.754 396.226 293.03 393.551 286.116C390.875 279.201 380.652 276.715 370.717 280.563C360.781 284.41 354.896 293.135 357.571 300.049C360.247 306.963 370.47 309.449 380.405 305.602Z" fill="#141414"/>
<path d="M244.461 428.426C254.397 424.579 260.282 415.854 257.607 408.94C254.931 402.026 244.708 399.539 234.773 403.387C224.837 407.234 218.952 415.959 221.627 422.873C224.303 429.787 234.526 432.274 244.461 428.426Z" fill="#D17A22"/>
<path d="M208.272 475.522C212.83 474.443 215.268 468.254 213.717 461.699C212.167 455.145 207.214 450.706 202.656 451.785C198.098 452.864 195.66 459.053 197.211 465.608C198.762 472.163 203.714 476.602 208.272 475.522Z" fill="#EFEFEF"/>
<path d="M207.528 555.26C212.086 554.18 214.524 547.992 212.973 541.437C211.422 534.882 206.47 530.443 201.912 531.522C197.354 532.602 194.916 538.79 196.467 545.345C198.018 551.9 202.97 556.339 207.528 555.26Z" fill="#141414"/>
<path d="M317.32 390.106C321.878 389.027 324.316 382.838 322.765 376.283C321.214 369.728 316.262 365.29 311.704 366.369C307.146 367.448 304.708 373.637 306.259 380.192C307.81 386.747 312.762 391.185 317.32 390.106Z" fill="#EFEFEF"/>
<path d="M251.436 374.1C255.994 373.021 258.432 366.832 256.881 360.278C255.33 353.723 250.378 349.284 245.82 350.363C241.262 351.442 238.824 357.631 240.375 364.186C241.926 370.741 246.878 375.18 251.436 374.1Z" fill="#D17A22"/>
<path d="M321.268 300.676C325.826 299.597 328.264 293.409 326.713 286.854C325.163 280.299 320.21 275.86 315.652 276.939C311.094 278.019 308.656 284.207 310.207 290.762C311.758 297.317 316.71 301.756 321.268 300.676Z" fill="#141414"/>
<path d="M353.746 852.548C358.55 846.902 355.868 836.724 347.755 829.816C339.642 822.908 329.171 821.884 324.367 827.53C319.563 833.176 322.246 843.353 330.358 850.262C338.471 857.17 348.942 858.194 353.746 852.548Z" fill="#EFEFEF"/>
<path d="M280.071 750.143C284.875 744.497 282.193 734.32 274.08 727.412C265.968 720.503 255.496 719.48 250.693 725.126C245.889 730.772 248.571 740.949 256.684 747.857C264.797 754.766 275.267 755.789 280.071 750.143Z" fill="#141414"/>
<path d="M452.764 811.254C457.568 805.608 454.885 795.43 446.773 788.522C438.66 781.614 428.189 780.59 423.385 786.236C418.581 791.882 421.263 802.059 429.376 808.968C437.489 815.876 447.96 816.9 452.764 811.254Z" fill="#D17A22"/>
<path d="M501.954 812.385C506.977 807.9 508.521 801.43 505.402 797.934C502.283 794.438 495.683 795.24 490.659 799.725C485.636 804.211 484.092 810.681 487.211 814.177C490.33 817.672 496.931 816.87 501.954 812.385Z" fill="#EFEFEF"/>
<path d="M572.398 775.073C577.421 770.588 578.965 764.118 575.846 760.622C572.727 757.126 566.126 757.928 561.103 762.414C556.079 766.899 554.536 773.369 557.655 776.865C560.774 780.361 567.374 779.559 572.398 775.073Z" fill="#141414"/>
<path d="M374.95 757.124C379.973 752.639 381.517 746.169 378.398 742.673C375.279 739.177 368.678 739.979 363.655 744.464C358.632 748.95 357.088 755.42 360.207 758.916C363.326 762.412 369.926 761.61 374.95 757.124Z" fill="#EFEFEF"/>
<path d="M392.251 822.704C397.274 818.219 398.818 811.749 395.699 808.253C392.58 804.757 385.98 805.559 380.956 810.045C375.933 814.53 374.389 821 377.508 824.496C380.627 827.992 387.228 827.19 392.251 822.704Z" fill="#D17A22"/>
<path d="M294.46 796.232C299.484 791.746 301.028 785.276 297.909 781.78C294.79 778.284 288.189 779.086 283.166 783.572C278.142 788.057 276.599 794.527 279.717 798.023C282.836 801.519 289.437 800.717 294.46 796.232Z" fill="#141414"/>
<path d="M848.694 195.759C855.344 192.487 856.924 182.081 852.223 172.517C847.521 162.953 838.318 157.852 831.667 161.124C825.017 164.396 823.437 174.802 828.139 184.366C832.84 193.93 842.043 199.031 848.694 195.759Z" fill="#EFEFEF"/>
<path d="M875.64 319.017C882.29 315.745 883.87 305.339 879.169 295.775C874.467 286.211 865.264 281.11 858.613 284.382C851.963 287.654 850.383 298.06 855.085 307.624C859.786 317.188 868.989 322.289 875.64 319.017Z" fill="#141414"/>
<path d="M741.427 194.303C748.078 191.031 749.657 180.625 744.956 171.061C740.254 161.497 731.051 156.396 724.401 159.668C717.75 162.94 716.17 173.346 720.872 182.91C725.574 192.474 734.776 197.575 741.427 194.303Z" fill="#D17A22"/>
<path d="M685.046 155.187C691.437 153.067 695.423 147.743 693.949 143.295C692.475 138.847 686.099 136.96 679.708 139.08C673.317 141.2 669.33 146.524 670.805 150.971C672.279 155.419 678.655 157.306 685.046 155.187Z" fill="#EFEFEF"/>
<path d="M605.583 161.432C611.974 159.312 615.96 153.988 614.486 149.54C613.012 145.092 606.636 143.205 600.245 145.325C593.853 147.445 589.868 152.769 591.342 157.216C592.816 161.664 599.192 163.551 605.583 161.432Z" fill="#141414"/>
<path d="M779.654 256.375C786.045 254.255 790.031 248.931 788.557 244.483C787.083 240.036 780.707 238.148 774.315 240.268C767.924 242.388 763.938 247.712 765.412 252.16C766.886 256.608 773.262 258.495 779.654 256.375Z" fill="#EFEFEF"/>
<path d="M789.818 189.315C796.209 187.196 800.196 181.871 798.721 177.424C797.247 172.976 790.871 171.089 784.48 173.209C778.089 175.328 774.103 180.653 775.577 185.1C777.051 189.548 783.427 191.435 789.818 189.315Z" fill="#D17A22"/>
<path d="M869.049 252.475C875.44 250.355 879.426 245.031 877.952 240.583C876.478 236.135 870.102 234.248 863.711 236.368C857.32 238.488 853.334 243.812 854.808 248.259C856.282 252.707 862.658 254.594 869.049 252.475Z" fill="#141414"/>
<path d="M893.582 636.206L977.864 631.862L1017.01 693.744C1017.01 693.744 1090.67 706.063 1085.56 792.893C1080.46 879.722 995.944 955.916 995.944 955.916L999.556 1001.13L993.282 1019.07L994.087 1029.14L1002.65 1039.8L1003.53 1050.83L995.944 1068.28L1006.26 1084.99L789.439 1063.98L781.511 1035.08L793.077 1019.57L786.617 999.33L796.329 979.865L801.393 918.035C801.393 918.035 745.987 834.762 809.591 772.042L835.119 728.627L863.683 693.764L893.582 636.206Z" fill="#D17A22"/>
<path d="M935.481 618.733C984.804 618.733 1024.79 578.733 1024.79 529.39C1024.79 480.047 984.804 440.047 935.481 440.047C886.158 440.047 846.174 480.047 846.174 529.39C846.174 578.733 886.158 618.733 935.481 618.733Z" fill="#FFB6B6"/>
<path d="M923.524 523.975C915.828 523.975 908.136 523.758 900.449 523.324L899.076 523.247L899.256 521.882C900.389 513.354 899.751 504.685 897.384 496.414C893.364 505.831 887.382 514.282 879.839 521.204L879.413 521.594L878.839 521.532C857.961 519.247 837.273 515.473 816.933 510.237L816.154 510.037L815.998 509.249C814.479 501.786 813.693 494.193 813.65 486.577C813.65 462.786 822.272 442.762 837.929 430.193C854.969 416.513 879.398 412.306 906.737 418.34H994.156C1003.77 418.351 1012.98 422.175 1019.78 428.973C1026.57 435.772 1030.4 444.99 1030.41 454.604V509.986L1029.45 510.236C994.875 519.326 959.275 523.944 923.524 523.975Z" fill="#141414"/>
<path d="M314.143 424.595C310.23 426.027 307.044 428.953 305.285 432.732C303.525 436.511 303.336 440.834 304.759 444.752L399.066 703.628C400.497 707.543 403.423 710.731 407.2 712.491C410.977 714.251 415.298 714.441 419.215 713.018L785.239 579.568C789.152 578.136 792.338 575.21 794.098 571.431C795.857 567.652 796.046 563.33 794.624 559.411L700.316 300.535C698.885 296.62 695.96 293.433 692.182 291.672C688.405 289.912 684.084 289.723 680.168 291.146L314.143 424.595Z" fill="#EFEFEF"/>
<path d="M649.012 614.964L424.968 696.649C420.752 698.18 416.102 697.977 412.036 696.082C407.971 694.188 404.823 690.757 403.282 686.543L317.746 451.745C316.215 447.528 316.419 442.875 318.312 438.808C320.206 434.741 323.635 431.591 327.847 430.05L673.188 304.142C677.403 302.61 682.054 302.814 686.12 304.708C690.185 306.603 693.333 310.033 694.874 314.247L736.204 427.699C749.419 464.102 747.66 504.261 731.314 539.368C714.968 574.475 685.37 601.662 649.012 614.964Z" fill="white"/>
<path d="M487.8 445.342L434.56 464.753C433.892 464.996 433.183 465.106 432.473 465.075C431.763 465.044 431.066 464.874 430.422 464.574C429.778 464.274 429.199 463.849 428.719 463.326C428.238 462.802 427.866 462.188 427.623 461.52C427.379 460.852 427.27 460.143 427.3 459.433C427.331 458.722 427.501 458.025 427.801 457.381C428.102 456.736 428.526 456.157 429.049 455.677C429.573 455.196 430.186 454.824 430.854 454.58L484.094 435.169C485.443 434.677 486.931 434.742 488.232 435.348C489.533 435.954 490.54 437.053 491.032 438.402C491.523 439.751 491.459 441.24 490.853 442.541C490.247 443.843 489.149 444.85 487.8 445.342Z" fill="#D17A22"/>
<path d="M614.727 422.632L442.138 485.556C441.47 485.801 440.761 485.911 440.05 485.881C439.34 485.851 438.642 485.681 437.997 485.381C437.352 485.081 436.773 484.657 436.292 484.132C435.811 483.608 435.438 482.994 435.195 482.326C434.951 481.657 434.842 480.947 434.873 480.237C434.904 479.526 435.074 478.828 435.375 478.183C435.676 477.538 436.101 476.959 436.625 476.479C437.15 475.999 437.764 475.626 438.432 475.383L611.021 412.459C611.688 412.216 612.398 412.106 613.108 412.137C613.818 412.168 614.514 412.338 615.159 412.638C615.803 412.938 616.382 413.362 616.862 413.886C617.342 414.41 617.715 415.024 617.958 415.692C618.201 416.36 618.311 417.069 618.28 417.779C618.249 418.49 618.079 419.187 617.779 419.831C617.479 420.476 617.055 421.055 616.531 421.535C616.008 422.016 615.394 422.388 614.727 422.632Z" fill="#D17A22"/>
<path d="M623.426 446.51L450.837 509.435C450.17 509.678 449.461 509.788 448.751 509.757C448.041 509.726 447.344 509.556 446.699 509.256C446.055 508.956 445.477 508.531 444.996 508.007C444.516 507.483 444.143 506.87 443.9 506.202C443.657 505.534 443.547 504.825 443.578 504.115C443.609 503.404 443.779 502.707 444.079 502.063C444.379 501.418 444.803 500.839 445.327 500.359C445.851 499.878 446.464 499.505 447.131 499.262L619.72 436.338C621.068 435.848 622.555 435.914 623.855 436.52C625.154 437.127 626.16 438.225 626.651 439.573C627.142 440.92 627.078 442.408 626.473 443.709C625.869 445.01 624.773 446.017 623.426 446.51Z" fill="#D17A22"/>
<path d="M632.125 470.39L459.536 533.314C458.869 533.558 458.159 533.669 457.448 533.639C456.738 533.609 456.04 533.439 455.395 533.139C454.75 532.839 454.171 532.414 453.69 531.89C453.209 531.366 452.836 530.752 452.593 530.084C452.349 529.415 452.24 528.705 452.271 527.994C452.302 527.284 452.473 526.586 452.773 525.941C453.074 525.296 453.499 524.717 454.023 524.237C454.548 523.756 455.162 523.384 455.831 523.141L628.419 460.217C629.087 459.974 629.796 459.864 630.506 459.895C631.216 459.925 631.913 460.096 632.557 460.396C633.201 460.696 633.78 461.12 634.26 461.644C634.74 462.168 635.113 462.782 635.356 463.45C635.6 464.118 635.709 464.827 635.678 465.537C635.648 466.247 635.477 466.945 635.177 467.589C634.877 468.234 634.453 468.812 633.93 469.293C633.406 469.774 632.793 470.146 632.125 470.39Z" fill="#D17A22"/>
<path d="M640.824 494.269L468.236 557.194C466.887 557.685 465.399 557.621 464.098 557.015C462.797 556.409 461.79 555.31 461.298 553.961C460.807 552.612 460.871 551.123 461.477 549.822C462.083 548.52 463.181 547.513 464.53 547.021L637.118 484.097C637.786 483.853 638.495 483.744 639.205 483.775C639.915 483.805 640.612 483.976 641.256 484.276C641.9 484.576 642.479 485 642.959 485.524C643.44 486.048 643.812 486.662 644.055 487.329C644.299 487.997 644.408 488.707 644.378 489.417C644.347 490.127 644.176 490.825 643.876 491.469C643.576 492.113 643.152 492.692 642.629 493.173C642.105 493.653 641.492 494.026 640.824 494.269Z" fill="#D17A22"/>
<path d="M1188.45 560.587L1093.95 786.804C1089.92 796.376 1082.29 803.978 1072.7 807.971C1063.12 811.963 1052.35 812.025 1042.72 808.144C1037.74 806.135 1033.21 803.133 1029.43 799.32C1025.65 795.507 1022.68 790.963 1020.71 785.964C1018.73 780.966 1017.8 775.618 1017.96 770.247C1018.12 764.876 1019.38 759.594 1021.64 754.723L1127 522.75L1185.08 379.095C1180.06 374.087 1176.71 367.656 1175.47 360.673C1174.23 353.691 1175.17 346.497 1178.16 340.069C1181.16 333.64 1186.05 328.289 1192.19 324.741C1198.33 321.194 1205.41 319.623 1212.47 320.242C1219.53 320.861 1226.23 323.639 1231.66 328.2C1237.09 332.76 1240.98 338.882 1242.81 345.733C1244.64 352.583 1244.31 359.832 1241.88 366.492C1239.45 373.153 1235.03 378.903 1229.21 382.962L1188.45 560.587Z" fill="#FFB6B6"/>
</g>
<defs>
<clipPath id="clip0_43_233">
<rect width="1204" height="1367" fill="white" transform="translate(196 115)"/>
</clipPath>
</defs>
</svg>
