<svg width="945" height="945" viewBox="0 0 945 945" fill="none" xmlns="http://www.w3.org/2000/svg">
<g clip-path="url(#clip0_105_223)">
<path d="M288.56 252.845C292.127 241.476 300.239 231.049 311.457 227.205C322.676 223.362 339.103 229.216 347.537 237.623C362.964 253 366.729 305.824 356.13 322.517C354.022 322.406 346.747 322.323 344.613 322.243L341.595 312.182V322.144C324.94 321.629 307.601 321.952 290.252 322.285C288.697 310.466 284.993 264.214 288.56 252.845Z" fill="#141414"/>
<path d="M453.435 428.752C451.937 428.551 450.501 428.025 449.228 427.209C447.955 426.393 446.877 425.308 446.068 424.03C445.26 422.753 444.742 421.313 444.55 419.814C444.358 418.314 444.497 416.79 444.958 415.35L415.562 393.296L433.538 386.852L458.697 408.783C461.065 409.717 463.008 411.487 464.158 413.758C465.307 416.029 465.584 418.643 464.935 421.105C464.287 423.566 462.758 425.704 460.638 427.114C458.519 428.523 455.956 429.106 453.435 428.752Z" fill="#9E616A"/>
<path d="M336.658 313.154L339.471 303.202C339.471 303.202 346.484 300.915 358.453 309.596C370.421 318.277 444.299 395.765 444.299 395.765L422.304 398.841L355.081 350.814L336.658 313.154Z" fill="#E6E6E6"/>
<path d="M796.905 693.252C841.896 670.276 877.716 624.207 876.728 573.695C834.666 609.036 781.46 628.359 726.524 628.244C705.338 628.123 681.786 625.782 665.32 639.116C655.075 647.413 649.704 660.555 648.114 673.643C646.525 686.731 648.309 699.967 650.091 713.031L648.985 716.131C699.384 719.589 751.914 716.229 796.905 693.252Z" fill="#EFEFEF"/>
<path d="M875.675 573.571C856.078 610.013 824.712 640.429 787.322 658.288C779.238 662.149 770.702 665.362 761.776 666.53C753.067 667.602 744.23 666.323 736.183 662.824C728.614 659.712 721.232 655.653 713.039 654.436C704.403 653.153 696.148 655.982 689.452 661.44C681.259 668.118 675.954 677.342 671.08 686.543C665.669 696.759 660.209 707.455 650.651 714.434C649.493 715.28 650.872 717.027 652.029 716.183C668.659 704.041 672.663 682.16 686.28 667.473C692.633 660.62 701.091 655.64 710.704 656.409C719.111 657.082 726.726 661.261 734.363 664.478C742.381 667.855 750.511 669.725 759.252 669.034C768.194 668.328 776.874 665.442 785.021 661.804C803.433 653.418 820.413 642.189 835.338 628.528C852.458 613.031 866.802 594.72 877.748 574.386C878.424 573.127 876.348 572.321 875.675 573.571Z" fill="white"/>
<path d="M799.781 653.123C803.7 659.02 809.587 663.332 816.391 665.288C823.196 667.245 830.474 666.719 836.926 663.805C838.229 663.21 837.367 661.157 836.062 661.752C830.059 664.477 823.279 664.966 816.947 663.131C810.615 661.296 805.147 657.258 801.53 651.745C800.743 650.548 798.999 651.933 799.781 653.123Z" fill="white"/>
<path d="M739.812 664.905C742.544 650.691 750.532 638.03 762.184 629.444C763.339 628.595 761.96 626.847 760.806 627.695C748.697 636.652 740.411 649.845 737.601 664.643C737.335 666.054 739.547 666.308 739.812 664.905Z" fill="white"/>
<path d="M849.771 611.808C847.779 609.843 846.307 607.413 845.486 604.738C844.665 602.062 844.522 599.225 845.069 596.48C845.353 595.074 843.14 594.821 842.858 596.218C842.268 599.253 842.43 602.387 843.33 605.344C844.23 608.302 845.841 610.995 848.022 613.186C848.21 613.41 848.476 613.554 848.767 613.588C849.057 613.623 849.35 613.545 849.585 613.372C849.816 613.188 849.965 612.921 849.999 612.628C850.034 612.336 849.952 612.041 849.771 611.808Z" fill="white"/>
<path d="M742.815 467.273C742.613 468.147 742.41 469.02 742.19 469.9C739.404 481.626 735.67 493.105 731.026 504.226C730.68 505.092 730.317 505.964 729.947 506.817C718.472 533.49 702.144 557.801 681.794 578.512C673.689 586.747 664.969 594.352 655.71 601.264C642.923 610.808 628.299 620.138 619.665 632.972C618.749 634.301 617.916 635.685 617.171 637.117L645.289 714.537C645.441 714.681 645.576 714.833 645.729 714.977L646.71 718.12C647.212 717.797 647.726 717.451 648.229 717.128C648.521 716.941 648.807 716.738 649.099 716.552C649.292 716.422 649.485 716.292 649.666 716.186C649.73 716.143 649.795 716.099 649.841 716.063C650.023 715.957 650.18 715.839 650.344 715.74C653.223 713.814 656.094 711.865 658.956 709.892C658.974 709.886 658.974 709.886 658.985 709.862C680.755 694.776 701.458 677.739 718.916 658.101C719.441 657.51 719.984 656.914 720.496 656.287C728.317 647.392 735.397 637.872 741.667 627.823C745.082 622.31 748.216 616.627 751.057 610.796C758.368 595.717 763.262 579.581 765.559 562.981C770.134 529.888 764.075 495.7 744.343 469.277C743.838 468.602 743.338 467.943 742.815 467.273Z" fill="#EFEFEF"/>
<path d="M741.896 467.808C748.187 508.705 741.455 551.876 722.352 588.649C718.222 596.599 713.34 604.305 706.917 610.612C700.609 616.712 692.782 621.011 684.251 623.063C676.334 625.136 667.997 626.34 660.722 630.301C653.054 634.476 648.166 641.706 646.105 650.096C643.585 660.361 644.902 670.92 646.549 681.201C648.378 692.616 650.459 704.444 647.028 715.772C646.613 717.144 648.766 717.709 649.182 716.338C655.15 696.63 645.175 676.749 647.205 656.823C648.152 647.525 651.907 638.457 660.046 633.282C667.163 628.757 675.76 627.509 683.793 625.479C692.229 623.348 699.846 619.945 706.409 614.131C713.123 608.183 718.316 600.652 722.631 592.842C732.285 575.06 739.082 555.87 742.774 535.976C747.115 513.294 747.543 490.037 744.042 467.21C743.824 465.798 741.681 466.404 741.896 467.808Z" fill="white"/>
<path d="M729.191 577.024C735.87 579.373 743.167 579.271 749.777 576.736C756.388 574.202 761.883 569.4 765.28 563.188C765.963 561.928 764.038 560.808 763.354 562.069C760.201 567.859 755.083 572.332 748.922 574.679C742.761 577.027 735.965 577.095 729.758 574.871C728.409 574.389 727.85 576.545 729.191 577.024Z" fill="white"/>
<path d="M688.403 622.538C682.027 609.545 680.782 594.625 684.917 580.754C685.328 579.38 683.174 578.815 682.764 580.187C678.488 594.63 679.815 610.153 686.48 623.66C687.116 624.947 689.036 623.818 688.403 622.538Z" fill="white"/>
<path d="M744.233 513.937C741.46 513.566 738.822 512.513 736.556 510.871C734.29 509.229 732.467 507.05 731.251 504.529C730.632 503.235 728.713 504.365 729.328 505.651C730.684 508.43 732.7 510.834 735.2 512.654C737.699 514.473 740.606 515.653 743.667 516.09C743.952 516.155 744.251 516.11 744.503 515.962C744.756 515.815 744.943 515.577 745.027 515.297C745.1 515.011 745.058 514.708 744.91 514.454C744.761 514.199 744.518 514.013 744.233 513.937Z" fill="white"/>
<path d="M255.771 327.895C217.231 295.232 160.919 279.934 114.695 300.315C163.515 325.509 201.851 367.161 222.92 417.901C230.974 437.499 237.892 460.135 256.542 470.19C268.145 476.447 282.342 476.338 295.029 472.76C307.718 469.182 319.243 462.434 330.609 455.754L333.895 455.58C317.66 407.738 294.312 360.557 255.771 327.895Z" fill="#EFEFEF"/>
<path d="M114.988 301.334C156.165 305.373 196.318 322.594 227.207 350.215C233.885 356.187 240.14 362.826 244.659 370.612C249.005 378.236 251.23 386.884 251.104 395.659C251.15 403.842 250.25 412.219 252.285 420.249C254.43 428.713 260.222 435.241 267.839 439.316C277.158 444.302 287.714 445.642 298.081 446.594C309.592 447.65 321.566 448.565 331.689 454.696C332.916 455.439 333.997 453.492 332.772 452.75C315.159 442.084 293.427 446.822 274.628 439.918C265.856 436.696 258.001 430.811 255.006 421.643C252.386 413.626 253.307 404.987 253.331 396.701C253.357 387.999 251.948 379.776 247.942 371.976C243.843 363.997 237.835 357.099 231.339 350.983C216.504 337.224 199.599 325.882 181.242 317.375C160.345 307.549 137.922 301.371 114.941 299.108C113.519 298.968 113.575 301.196 114.988 301.334Z" fill="white"/>
<path d="M217.64 340.707C221.571 334.818 223.28 327.723 222.463 320.69C221.645 313.657 218.355 307.143 213.179 302.312C212.128 301.339 210.566 302.926 211.618 303.901C216.446 308.39 219.51 314.458 220.258 321.009C221.006 327.56 219.387 334.162 215.695 339.624C214.894 340.812 216.844 341.888 217.64 340.707Z" fill="white"/>
<path d="M251.627 391.504C237.459 394.462 222.698 391.971 210.286 384.528C209.057 383.789 207.975 385.736 209.203 386.473C222.134 394.195 237.501 396.756 252.237 393.646C253.641 393.348 253.023 391.208 251.627 391.504Z" fill="white"/>
<path d="M160.254 310.5C159.208 313.095 157.534 315.39 155.382 317.179C153.229 318.967 150.667 320.193 147.924 320.747C146.517 321.026 147.136 323.166 148.534 322.888C151.562 322.263 154.39 320.905 156.772 318.935C159.154 316.964 161.018 314.44 162.199 311.582C162.333 311.322 162.363 311.021 162.283 310.74C162.203 310.459 162.019 310.218 161.768 310.068C161.51 309.926 161.206 309.892 160.922 309.973C160.639 310.053 160.398 310.243 160.254 310.5Z" fill="white"/>
<path d="M68.125 464.912C69.0088 464.763 69.8926 464.613 70.7898 464.477C82.6819 462.528 94.7128 461.549 106.764 461.549C107.695 461.534 108.64 461.533 109.57 461.545C138.603 461.854 167.326 467.551 194.279 478.347C205.001 482.653 215.379 487.768 225.325 493.648C239.059 501.77 253.305 511.67 268.474 514.69C270.053 515.023 271.651 515.258 273.259 515.394L333.853 459.605C333.927 459.409 334.015 459.226 334.089 459.03L336.611 456.913C336.119 456.574 335.602 456.233 335.11 455.893C334.825 455.696 334.527 455.51 334.243 455.312C334.049 455.184 333.854 455.057 333.687 454.93C333.622 454.887 333.557 454.845 333.506 454.816C333.338 454.689 333.169 454.59 333.014 454.477C330.128 452.562 327.223 450.664 324.299 448.783C324.287 448.769 324.287 448.769 324.26 448.768C301.95 434.493 278.251 421.955 253.403 413.413C252.656 413.157 251.896 412.886 251.121 412.654C239.899 408.866 228.387 406.002 216.698 404.089C210.295 403.063 203.844 402.361 197.369 401.987C180.638 401.052 163.865 402.756 147.663 407.034C115.367 415.568 86.1586 434.336 69.3852 462.73C68.9567 463.457 68.5408 464.172 68.125 464.912Z" fill="#EFEFEF"/>
<path d="M68.9696 465.553C104.278 443.985 146.705 433.557 187.997 437.012C196.924 437.759 205.915 439.294 214.21 442.79C222.269 446.26 229.253 451.826 234.434 458.908C239.398 465.414 243.722 472.644 250.181 477.83C256.989 483.297 265.544 485.022 274.079 483.689C284.522 482.059 293.756 476.773 302.607 471.29C312.434 465.202 322.545 458.724 334.319 457.523C335.745 457.378 335.436 455.173 334.012 455.318C313.527 457.406 299.028 474.275 279.862 480.082C270.918 482.791 261.104 482.822 253.193 477.305C246.275 472.482 241.809 465.03 236.84 458.399C231.622 451.436 225.547 445.718 217.652 441.902C209.576 437.999 200.627 436.109 191.758 435.138C171.63 433.084 151.305 434.208 131.526 438.468C108.926 443.206 87.3025 451.774 67.5915 463.804C66.3719 464.549 67.7579 466.294 68.9696 465.553Z" fill="white"/>
<path d="M174.634 435.183C174.227 428.115 171.32 421.421 166.434 416.297C161.547 411.174 154.999 407.954 147.958 407.214C146.533 407.069 146.24 409.277 147.667 409.422C154.225 410.1 160.325 413.099 164.866 417.879C169.406 422.66 172.089 428.906 172.429 435.49C172.504 436.921 174.709 436.606 174.634 435.183Z" fill="white"/>
<path d="M232.352 455.276C222.821 466.169 209.535 473.068 195.144 474.598C193.718 474.749 194.026 476.954 195.45 476.804C210.424 475.183 224.235 467.975 234.128 456.619C235.07 455.536 233.289 454.199 232.352 455.276Z" fill="white"/>
<path d="M110.629 445.618C111.357 448.32 111.402 451.161 110.76 453.885C110.118 456.609 108.81 459.131 106.953 461.224C105.998 462.295 107.781 463.63 108.73 462.566C110.771 460.244 112.212 457.457 112.927 454.449C113.643 451.441 113.611 448.304 112.834 445.311C112.785 445.023 112.627 444.764 112.394 444.588C112.161 444.412 111.869 444.331 111.578 444.362C111.287 444.404 111.023 444.56 110.846 444.795C110.668 445.03 110.59 445.326 110.629 445.618Z" fill="white"/>
<path d="M665.237 523.397C665.077 520.585 663.927 517.92 661.99 515.875C660.052 513.83 657.454 512.537 654.654 512.225L482.406 492.788C480.754 492.599 479.081 492.758 477.495 493.255L437.981 505.628L415.31 512.734L373.47 525.832C370.944 526.626 368.753 528.235 367.241 530.408C365.729 532.581 364.98 535.195 365.113 537.839L372.175 705.733C372.326 708.461 373.402 711.057 375.227 713.091C377.051 715.126 379.515 716.477 382.211 716.922L558.084 717.305C558.909 717.44 559.747 717.484 560.583 717.438C561.8 717.379 563.002 717.134 564.145 716.71L667.206 715.998C669.607 715.114 671.66 713.479 673.058 711.335C674.457 709.192 675.128 706.655 674.97 704.101L665.237 523.397Z" fill="white"/>
<path d="M383.87 706.598L559.742 706.978C559.999 707.022 560.263 706.997 560.508 706.908L663.555 706.2C663.858 706.092 664.116 705.887 664.292 705.618C664.467 705.349 664.551 705.03 664.529 704.71L654.807 524.002C654.783 523.652 654.638 523.322 654.398 523.067C654.157 522.812 653.835 522.649 653.487 522.605L652.328 522.469L481.231 503.182C481.153 503.171 481.074 503.169 480.995 503.175C480.866 503.179 480.739 503.199 480.615 503.236L384.24 533.419L376.591 535.808C376.278 535.91 376.007 536.112 375.819 536.383C375.631 536.653 375.537 536.978 375.551 537.307L382.616 705.194C382.634 705.536 382.768 705.862 382.996 706.117C383.224 706.373 383.532 706.543 383.87 706.598Z" fill="#D17A22"/>
<path d="M384.24 533.419L480.615 503.236C480.739 503.199 480.867 503.179 480.996 503.175C481.074 503.169 481.153 503.171 481.232 503.182L652.328 522.469L611.122 535.879L595.699 540.89L551.816 555.161C551.686 555.196 551.554 555.222 551.421 555.24C551.336 555.233 551.251 555.226 551.15 555.221L384.24 533.419Z" fill="#141414"/>
<path d="M382.21 716.932L558.082 717.312C558.909 717.444 559.748 717.483 560.584 717.429C561.803 717.374 563.006 717.134 564.153 716.718L667.201 716.011C669.603 715.124 671.655 713.487 673.055 711.343C674.455 709.198 675.127 706.66 674.972 704.104L665.234 523.398C665.111 521.281 664.43 519.235 663.261 517.467C663.1 517.233 662.938 516.999 662.762 516.784C661.551 515.2 659.955 513.952 658.126 513.159C657.023 512.675 655.853 512.361 654.655 512.227L654.45 512.2L482.414 492.785C481.714 492.715 481.009 492.695 480.305 492.724C479.348 492.789 478.403 492.971 477.49 493.264L437.98 505.623L415.314 512.74L373.466 525.837C371.754 526.371 370.185 527.287 368.878 528.515C368.774 528.596 368.677 528.686 368.589 528.784C368.525 528.848 368.465 528.917 368.411 528.989C367.29 530.161 366.42 531.55 365.854 533.069C365.287 534.589 365.036 536.208 365.115 537.827L372.166 705.733C372.317 708.464 373.395 711.062 375.22 713.097C377.046 715.133 379.512 716.486 382.21 716.932ZM368.093 537.689C368.012 536.009 368.411 534.342 369.242 532.881C369.489 532.415 369.783 531.976 370.118 531.569C371.032 530.444 372.207 529.558 373.541 528.991C373.803 528.876 374.073 528.778 374.348 528.697L444.808 506.642L478.387 496.106C478.614 496.029 478.828 495.988 479.04 495.93C479.556 495.809 480.083 495.738 480.613 495.716C481.097 495.678 481.583 495.69 482.064 495.752L654.305 515.195C654.442 515.213 654.562 515.232 654.698 515.25C656.276 515.484 657.76 516.147 658.988 517.165C659.952 517.94 660.741 518.91 661.305 520.01C661.868 521.111 662.193 522.319 662.258 523.554L671.981 704.278C672.098 706.191 671.596 708.092 670.55 709.699C669.504 711.306 667.97 712.534 666.173 713.202L563.109 713.911C561.652 714.445 560.082 714.596 558.55 714.348L382.68 713.985C380.661 713.646 378.817 712.631 377.451 711.106C376.084 709.581 375.277 707.637 375.161 705.593L368.093 537.689Z" fill="#141414"/>
<path d="M561.117 717.761C560.724 717.781 560.339 717.644 560.045 717.382C559.752 717.119 559.574 716.751 559.551 716.358L549.858 553.829C549.835 553.433 549.969 553.045 550.232 552.748C550.495 552.452 550.865 552.272 551.26 552.249L551.274 552.248C551.667 552.228 552.052 552.364 552.346 552.627C552.639 552.89 552.817 553.258 552.84 553.651L562.533 716.18C562.556 716.576 562.422 716.964 562.159 717.26C561.896 717.557 561.526 717.736 561.131 717.76L561.117 717.761Z" fill="#141414"/>
<path d="M621.921 706.766L605.047 706.651L589.035 539.913C589.035 539.913 609.304 531.622 610.193 533.033C610.733 533.873 621.859 705.732 621.921 706.766Z" fill="#141414"/>
<path d="M659.863 518.586L658.646 517.589C657.392 516.558 655.864 515.915 654.25 515.738L482.011 496.297C481.061 496.192 480.1 496.245 479.167 496.454L478.522 496.614L478.392 494.037L506.956 462.435C508.657 460.562 510.768 459.106 513.123 458.182C515.479 457.258 518.015 456.89 520.536 457.108L636.976 467.41C640.454 467.707 643.746 469.112 646.365 471.421C648.984 473.729 650.792 476.818 651.523 480.232L659.863 518.586Z" fill="#141414"/>
<path d="M399.53 645.751C399.713 645.721 399.9 645.712 400.086 645.723L453.097 648.937C453.761 648.977 454.381 649.279 454.822 649.776C455.263 650.274 455.489 650.926 455.448 651.59C455.408 652.254 455.106 652.875 454.609 653.316C454.111 653.757 453.459 653.982 452.795 653.942L399.783 650.729C399.168 650.691 398.588 650.428 398.154 649.99C397.72 649.552 397.463 648.969 397.431 648.353C397.4 647.738 397.597 647.132 397.984 646.652C398.371 646.172 398.921 645.851 399.53 645.751Z" fill="white"/>
<path d="M400.418 664.372C400.602 664.343 400.788 664.333 400.974 664.344L453.986 667.558C454.649 667.598 455.27 667.9 455.711 668.397C456.152 668.895 456.377 669.548 456.337 670.211C456.297 670.875 455.995 671.496 455.497 671.937C455 672.378 454.347 672.603 453.684 672.563L400.672 669.35C400.057 669.312 399.477 669.049 399.043 668.611C398.609 668.173 398.352 667.59 398.32 666.974C398.289 666.359 398.485 665.753 398.872 665.273C399.259 664.793 399.81 664.472 400.418 664.372Z" fill="white"/>
<path d="M653.973 441.986L551.717 497.666L509.705 420.496L611.961 364.816L653.973 441.986Z" fill="white"/>
<path d="M653.973 441.986L551.717 497.666L509.705 420.496L611.961 364.816L653.973 441.986ZM552.574 494.761L651.068 441.129L611.104 367.721L512.61 421.353L552.574 494.761Z" fill="#E6E6E6"/>
<path d="M609.916 393.18L534.634 434.172L537.367 439.191L612.648 398.2L609.916 393.18Z" fill="#D17A22"/>
<path d="M618.113 408.235L542.832 449.227L545.564 454.246L620.845 413.254L618.113 408.235Z" fill="#D17A22"/>
<path d="M626.311 423.294L551.029 464.285L553.762 469.304L629.043 428.313L626.311 423.294Z" fill="#D17A22"/>
<path d="M420.954 373.983C419.898 372.799 419.538 372.679 419.163 372.937L360.972 413.09C360.601 413.346 360.579 413.724 361.299 415.116C363.201 418.06 365.526 421.536 368.07 425.225L442.94 533.749C449.958 543.921 456.055 551.93 456.53 551.603L514.721 511.45C515.196 511.122 509.874 502.578 502.856 492.406L427.986 383.881C425.447 380.202 423.029 376.802 420.954 373.983Z" fill="white"/>
<path d="M428.706 384.141C427.383 382.286 426.123 380.566 424.997 379.067C423.641 377.272 422.53 375.848 421.687 374.831C421.409 374.5 421.17 374.216 420.954 373.983C419.898 372.799 419.538 372.679 419.163 372.937L360.972 413.09C360.601 413.346 360.579 413.724 361.299 415.116C361.447 415.401 361.629 415.737 361.846 416.122C362.495 417.268 363.431 418.812 364.631 420.721C366.639 423.899 369.281 427.871 372.067 431.909L443.165 534.966C446.393 539.646 449.524 543.987 451.978 547.197C456.064 552.54 456.364 552.333 456.818 552.019L515.009 511.867C515.463 511.553 515.763 511.346 512.219 505.629C510.09 502.196 507.143 497.728 503.914 493.048L432.816 389.991C431.422 387.97 430.031 385.989 428.706 384.141ZM372.9 431.334C370.123 427.308 367.487 423.345 365.49 420.183C364.294 418.29 363.368 416.751 362.731 415.622C362.37 415.025 362.055 414.401 361.789 413.757L419.496 373.938C420.004 374.416 420.475 374.932 420.905 375.481C421.323 375.98 421.808 376.581 422.358 377.284C422.906 377.988 423.516 378.787 424.189 379.68C426.436 382.669 429.203 386.536 431.983 390.566L503.081 493.623C509.828 503.404 513.715 509.849 514.196 511.197L456.48 551.022C455.391 550.094 450.746 544.171 443.998 534.391L372.9 431.334Z" fill="#E4E4E4"/>
<path d="M408.513 407.364L397.496 414.966C396.943 415.348 396.565 415.933 396.444 416.593C396.323 417.253 396.469 417.935 396.85 418.488L403.433 428.031C403.815 428.582 404.4 428.96 405.06 429.081C405.72 429.202 406.402 429.057 406.954 428.677L417.972 421.075C418.523 420.692 418.9 420.107 419.021 419.447C419.142 418.787 418.997 418.107 418.618 417.553L412.034 408.01C411.652 407.458 411.067 407.081 410.407 406.96C409.747 406.839 409.066 406.984 408.513 407.364Z" fill="#D17A22"/>
<path d="M435.961 417.863L397.563 444.359C397.439 444.444 397.333 444.554 397.251 444.681C397.169 444.807 397.113 444.949 397.085 445.097C397.058 445.246 397.06 445.398 397.092 445.546C397.124 445.693 397.184 445.833 397.27 445.957C397.355 446.082 397.465 446.188 397.591 446.27C397.718 446.352 397.86 446.408 398.008 446.435C398.157 446.462 398.309 446.46 398.457 446.429C398.604 446.397 398.744 446.336 398.868 446.251L437.266 419.755C437.39 419.67 437.497 419.56 437.579 419.434C437.661 419.307 437.717 419.165 437.744 419.017C437.771 418.868 437.769 418.716 437.737 418.568C437.706 418.421 437.645 418.281 437.56 418.157C437.474 418.033 437.364 417.926 437.238 417.844C437.111 417.762 436.969 417.706 436.821 417.679C436.673 417.652 436.52 417.654 436.373 417.686C436.225 417.717 436.085 417.778 435.961 417.863Z" fill="#E4E4E4"/>
<path d="M415.206 438.727L400.622 448.79C400.497 448.876 400.391 448.985 400.309 449.112C400.227 449.239 400.171 449.38 400.144 449.529C400.117 449.677 400.119 449.83 400.151 449.977C400.182 450.125 400.243 450.265 400.328 450.389C400.414 450.513 400.523 450.619 400.65 450.701C400.777 450.783 400.918 450.839 401.067 450.867C401.215 450.894 401.368 450.891 401.515 450.86C401.663 450.828 401.803 450.768 401.927 450.682L416.511 440.619C416.762 440.446 416.934 440.18 416.989 439.88C417.044 439.58 416.977 439.271 416.804 439.02C416.631 438.769 416.366 438.597 416.066 438.542C415.766 438.487 415.457 438.554 415.206 438.727Z" fill="#E4E4E4"/>
<path d="M436.975 448.618L425.958 456.22C425.405 456.602 425.027 457.187 424.906 457.847C424.785 458.507 424.931 459.189 425.312 459.741L431.895 469.285C432.277 469.836 432.862 470.214 433.522 470.335C434.182 470.456 434.863 470.311 435.416 469.931L446.434 462.328C446.985 461.946 447.362 461.361 447.483 460.701C447.604 460.041 447.459 459.36 447.08 458.807L440.496 449.264C440.114 448.712 439.529 448.335 438.869 448.214C438.209 448.092 437.528 448.238 436.975 448.618Z" fill="#D17A22"/>
<path d="M464.423 459.117L426.025 485.613C425.774 485.786 425.602 486.052 425.547 486.351C425.492 486.651 425.559 486.961 425.732 487.211C425.905 487.462 426.17 487.634 426.47 487.689C426.77 487.744 427.079 487.678 427.33 487.505L465.728 461.009C465.852 460.924 465.958 460.814 466.04 460.688C466.122 460.561 466.179 460.419 466.206 460.271C466.233 460.122 466.231 459.97 466.199 459.822C466.168 459.675 466.107 459.535 466.021 459.411C465.936 459.286 465.826 459.18 465.7 459.098C465.573 459.016 465.431 458.96 465.283 458.933C465.134 458.906 464.982 458.908 464.835 458.94C464.687 458.971 464.547 459.032 464.423 459.117Z" fill="#E4E4E4"/>
<path d="M443.668 479.985L429.084 490.048C428.833 490.221 428.661 490.487 428.606 490.787C428.551 491.086 428.618 491.396 428.791 491.647C428.964 491.897 429.229 492.069 429.529 492.124C429.829 492.179 430.138 492.113 430.389 491.94L444.973 481.877C445.098 481.791 445.204 481.681 445.286 481.555C445.368 481.428 445.424 481.286 445.451 481.138C445.478 480.989 445.476 480.837 445.444 480.69C445.413 480.542 445.352 480.402 445.267 480.278C445.181 480.154 445.072 480.048 444.945 479.966C444.818 479.884 444.677 479.827 444.528 479.8C444.38 479.773 444.227 479.775 444.08 479.807C443.932 479.838 443.792 479.899 443.668 479.985Z" fill="#E4E4E4"/>
<path d="M465.437 489.876L454.42 497.478C453.868 497.859 453.489 498.445 453.368 499.105C453.247 499.765 453.393 500.447 453.774 500.999L460.358 510.542C460.74 511.094 461.325 511.472 461.985 511.593C462.645 511.714 463.326 511.569 463.879 511.188L474.896 503.586C475.447 503.204 475.824 502.619 475.945 501.959C476.066 501.299 475.921 500.618 475.542 500.065L468.958 490.522C468.576 489.97 467.991 489.592 467.331 489.471C466.671 489.35 465.99 489.496 465.437 489.876Z" fill="#D17A22"/>
<path d="M492.885 500.375L454.487 526.871C454.363 526.956 454.257 527.066 454.175 527.192C454.093 527.319 454.037 527.461 454.01 527.609C453.982 527.758 453.985 527.91 454.016 528.057C454.048 528.205 454.108 528.345 454.194 528.469C454.28 528.593 454.389 528.7 454.516 528.782C454.642 528.863 454.784 528.92 454.933 528.947C455.081 528.974 455.233 528.972 455.381 528.94C455.528 528.909 455.668 528.848 455.793 528.763L494.191 502.267C494.441 502.094 494.613 501.828 494.668 501.529C494.723 501.229 494.657 500.919 494.484 500.668C494.311 500.418 494.045 500.246 493.745 500.191C493.446 500.136 493.136 500.202 492.885 500.375Z" fill="#E4E4E4"/>
<path d="M472.131 521.242L457.546 531.306C457.422 531.391 457.316 531.501 457.234 531.628C457.152 531.754 457.096 531.896 457.069 532.044C457.041 532.193 457.044 532.345 457.075 532.493C457.107 532.64 457.167 532.78 457.253 532.904C457.339 533.029 457.448 533.135 457.575 533.217C457.702 533.299 457.843 533.355 457.992 533.382C458.14 533.409 458.292 533.407 458.44 533.375C458.588 533.344 458.727 533.283 458.852 533.198L473.436 523.134C473.687 522.961 473.859 522.696 473.914 522.396C473.969 522.096 473.902 521.787 473.729 521.536C473.556 521.285 473.29 521.113 472.991 521.058C472.691 521.003 472.381 521.069 472.131 521.242Z" fill="#E4E4E4"/>
<path d="M594.275 422.431C594.044 416.782 593.694 413.141 593.288 413.141H444.794C444.389 413.141 444.038 416.782 443.807 422.431C443.654 426.368 443.555 431.282 443.555 436.601V540.074L444.158 540.15L468.571 543.331L494.014 546.665L505.639 548.179L530.502 551.426L551.152 554.124C551.251 554.135 551.339 554.135 551.427 554.146C551.558 554.124 551.69 554.102 551.811 554.069L559.937 551.426L569.314 548.376L593.924 540.37L594.527 540.172V436.601C594.527 431.282 594.428 426.368 594.275 422.431Z" fill="white"/>
<path d="M594.768 419.982C594.691 418.513 594.614 417.328 594.527 416.385C594.465 415.399 594.326 414.42 594.11 413.456C593.869 412.535 593.594 412.535 593.287 412.535H444.794C444.487 412.535 444.213 412.535 443.972 413.456C443.759 414.469 443.62 415.495 443.555 416.528C443.478 417.449 443.401 418.589 443.325 419.982C443.083 424.425 442.952 430.325 442.952 436.599V539.984L443.555 540.071L444.158 540.148V436.599C444.158 431.137 444.257 426.508 444.399 422.856C444.426 419.801 444.672 416.751 445.134 413.731H592.958C593.421 416.747 593.667 419.793 593.693 422.845C593.825 426.497 593.924 431.126 593.924 436.599V540.367L595.13 539.973V436.599C595.13 430.325 594.998 424.424 594.768 419.982Z" fill="#E4E4E4"/>
<path d="M490.428 444.684H471.488C471.018 444.683 470.552 444.774 470.117 444.953C469.682 445.133 469.287 445.396 468.954 445.728C468.621 446.06 468.356 446.454 468.176 446.889C467.995 447.323 467.902 447.789 467.902 448.259V464.667C467.901 465.139 467.993 465.605 468.173 466.041C468.353 466.476 468.617 466.872 468.951 467.205C469.284 467.538 469.679 467.802 470.115 467.982C470.55 468.162 471.017 468.255 471.488 468.254H490.428C491.379 468.254 492.291 467.876 492.964 467.203C493.636 466.531 494.014 465.618 494.014 464.667V448.259C494.012 447.31 493.633 446.4 492.96 445.73C492.288 445.06 491.377 444.683 490.428 444.684Z" fill="#D17A22"/>
<path d="M568.557 451.035H502.536C502.105 451.035 501.692 451.206 501.388 451.511C501.084 451.815 500.913 452.228 500.913 452.658C500.913 453.089 501.084 453.502 501.388 453.806C501.692 454.111 502.105 454.282 502.536 454.282H568.557C568.988 454.282 569.4 454.111 569.705 453.806C570.009 453.502 570.18 453.089 570.18 452.658C570.18 452.228 570.009 451.815 569.705 451.511C569.4 451.206 568.988 451.035 568.557 451.035Z" fill="#E4E4E4"/>
<path d="M527.606 458.656H502.536C502.105 458.656 501.692 458.827 501.388 459.132C501.084 459.436 500.913 459.849 500.913 460.28C500.913 460.71 501.084 461.123 501.388 461.427C501.692 461.732 502.105 461.903 502.536 461.903H527.606C528.037 461.903 528.45 461.732 528.754 461.427C529.058 461.123 529.229 460.71 529.229 460.28C529.229 459.849 529.058 459.436 528.754 459.132C528.45 458.827 528.037 458.656 527.606 458.656Z" fill="#E4E4E4"/>
<path d="M490.428 493.25H471.488C470.537 493.25 469.625 493.628 468.953 494.301C468.28 494.973 467.902 495.885 467.902 496.837V513.245C467.902 514.196 468.28 515.108 468.953 515.78C469.625 516.453 470.537 516.831 471.488 516.831H490.428C491.379 516.829 492.289 516.45 492.962 515.778C493.634 515.106 494.012 514.195 494.014 513.245V496.837C494.012 495.886 493.634 494.975 492.961 494.303C492.289 493.631 491.379 493.252 490.428 493.25Z" fill="#D17A22"/>
<path d="M568.557 499.602H502.536C502.104 499.602 501.69 499.773 501.384 500.079C501.079 500.384 500.907 500.798 500.907 501.23C500.907 501.662 501.079 502.077 501.384 502.382C501.69 502.687 502.104 502.859 502.536 502.859H568.557C568.989 502.859 569.403 502.687 569.709 502.382C570.014 502.077 570.186 501.662 570.186 501.23C570.186 500.798 570.014 500.384 569.709 500.079C569.403 499.773 568.989 499.602 568.557 499.602Z" fill="#E4E4E4"/>
<path d="M527.606 507.223H502.536C502.104 507.223 501.69 507.394 501.384 507.7C501.079 508.005 500.907 508.419 500.907 508.851C500.907 509.283 501.079 509.698 501.384 510.003C501.69 510.309 502.104 510.48 502.536 510.48H527.606C528.038 510.48 528.453 510.309 528.758 510.003C529.063 509.698 529.235 509.283 529.235 508.851C529.235 508.419 529.063 508.005 528.758 507.7C528.453 507.394 528.038 507.223 527.606 507.223Z" fill="#E4E4E4"/>
<path d="M493.499 543.572C493.182 543.04 492.733 542.599 492.194 542.293C491.656 541.987 491.047 541.827 490.428 541.828H471.488C470.917 541.827 470.354 541.963 469.846 542.224C469.339 542.486 468.901 542.865 468.571 543.331L494.014 546.665V545.404C494.015 544.757 493.837 544.123 493.499 543.572Z" fill="#D17A22"/>
<path d="M568.557 548.176H505.639L530.501 551.422H559.937L569.314 548.373C569.084 548.24 568.822 548.172 568.557 548.176Z" fill="#E4E4E4"/>
<path d="M661.064 519.574C660.944 519.652 660.815 519.714 660.68 519.761L655.229 521.527L611.12 535.884L595.7 540.885L595.13 541.072L593.924 541.467L569.314 549.473L559.937 552.522L551.81 555.166C551.69 555.199 551.558 555.221 551.427 555.243C551.339 555.232 551.251 555.232 551.152 555.221L530.501 552.522L505.639 549.276L494.014 547.762L468.571 544.428L444.158 541.247L443.555 541.171L442.952 541.083L370.12 531.574L369.506 531.486C369.364 531.473 369.226 531.432 369.1 531.365C368.807 531.233 368.563 531.011 368.405 530.731C368.247 530.45 368.183 530.127 368.223 529.808C368.251 529.54 368.354 529.286 368.519 529.073C368.585 529.007 368.639 528.941 368.705 528.886C368.76 528.853 368.826 528.788 368.892 528.755C369.186 528.552 369.546 528.466 369.901 528.513L373.542 528.996L442.952 538.067L443.555 538.143L444.158 538.22L480.119 542.925L493.499 544.669L528.714 549.276L551.207 552.215L560.255 549.276L589.032 539.92L593.924 538.33L594.527 538.132L595.13 537.935L610.188 533.043L654.977 518.467L658.991 517.162L659.77 516.909C660.105 516.803 660.467 516.819 660.792 516.953C661.117 517.088 661.384 517.332 661.546 517.644C661.586 517.718 661.619 517.795 661.645 517.875C661.743 518.183 661.74 518.514 661.635 518.821C661.53 519.127 661.33 519.391 661.064 519.574Z" fill="#141414"/>
<path d="M509.619 622.716C508.656 622.716 507.694 622.641 506.743 622.493L396.628 605.294C392.847 604.692 389.339 602.955 386.567 600.313C383.795 597.672 381.891 594.25 381.107 590.502L368.817 530.848L369.574 530.94L553.653 553.194L526.738 611.761C525.224 615.028 522.809 617.795 519.776 619.736C516.743 621.676 513.219 622.71 509.619 622.716Z" fill="#141414"/>
<path d="M318.478 691.831L331.887 689.034L327.486 635.977L307.695 640.104L318.478 691.831Z" fill="#9E616A"/>
<path d="M312.553 686.16L316.562 718.733L316.57 718.799L316.883 718.733L326.088 716.811L325.915 707.474L332.133 715.557L338.088 714.32V714.312L350.113 711.804L351.087 711.606L354.798 710.831L357.371 710.295C358.335 710.092 359.231 709.647 359.975 709.002C360.719 708.357 361.287 707.534 361.625 706.609C361.963 705.684 362.061 704.689 361.908 703.716C361.755 702.743 361.358 701.825 360.753 701.048C360.289 700.46 359.718 699.965 359.07 699.588C358.988 699.547 358.905 699.498 358.823 699.456H358.815C358.691 699.39 358.567 699.333 358.435 699.275L358.213 699.176L354.278 697.518L354.262 697.51L343.878 693.138L335.383 689.558L333.494 680.477L331.226 681.095L317.04 684.939L312.553 686.16Z" fill="#141414"/>
<path d="M226.319 648.514L236.734 657.415L276.013 621.479L260.644 608.344L226.319 648.514Z" fill="#9E616A"/>
<path d="M211.205 669.819L218.488 663.967L215.905 673.828L235.502 690.577C236.073 691.071 236.738 691.445 237.457 691.678C237.998 691.854 238.563 691.95 239.132 691.962C240.031 691.984 240.922 691.797 241.736 691.414C242.55 691.032 243.264 690.466 243.821 689.76C244.378 689.054 244.763 688.228 244.946 687.347C245.129 686.467 245.104 685.556 244.874 684.687L238.458 660.5L244.488 653.449L242.611 652.035L230.889 643.163L227.182 640.359L203.819 663.497L211.205 669.819Z" fill="#141414"/>
<path d="M278.995 436.655L343.552 434.172L345.982 368.664L291.432 370.416L278.995 436.655Z" fill="#9E616A"/>
<path d="M327.264 290.526C340.842 290.526 351.849 279.518 351.849 265.939C351.849 252.36 340.842 241.352 327.264 241.352C313.686 241.352 302.679 252.36 302.679 265.939C302.679 279.518 313.686 290.526 327.264 290.526Z" fill="#9E616A"/>
<path d="M306.046 244.344L334.354 230.168C340.141 232.776 345.125 236.885 348.79 242.069C352.454 247.253 354.665 253.323 355.193 259.649L355.898 268.101L344.045 265.083L342.746 254.276L340.733 264.24L335.262 262.848L335.314 246.069L329.841 262.836L310.303 258.347L306.046 244.344Z" fill="#141414"/>
<path d="M344.794 419.271C344.794 419.271 366.303 456.659 345.538 513.386L316.173 588.27L265.151 639.909L237.731 623.698L288.712 580.47L265.976 503.392C260.741 485.925 259.127 467.572 261.233 449.458C262.872 435.904 275.103 425.327 283.47 412.535C311.408 430.557 343.588 427.658 344.794 419.271Z" fill="#141414"/>
<path d="M316.208 569.336L335.352 658.271L307.66 663.493L291.889 588.73L316.208 569.336Z" fill="#141414"/>
<path d="M309.246 298.746L341.032 299.17L351.377 312.307C356.318 313.473 360.808 316.065 364.287 319.761C367.767 323.457 370.084 328.095 370.95 333.098L371.925 338.738C373.945 350.407 371.801 362.414 365.869 372.663L346.464 390.982L347.305 392.511C347.721 393.267 347.843 394.15 347.648 394.991C347.454 395.831 346.955 396.57 346.249 397.066C346.845 398.568 346.914 400.228 346.446 401.775L346.036 403.13C346.036 403.13 356.915 406.023 289.794 396.059C288.372 395.847 287.057 395.178 286.049 394.152C285.041 393.126 284.395 391.8 284.207 390.374C283.478 389.64 282.997 388.696 282.833 387.675C282.669 386.653 282.83 385.606 283.292 384.68L283.429 384.407L282.74 383.595C281.973 382.692 281.53 381.558 281.481 380.374C281.432 379.19 281.781 378.023 282.471 377.06L282.295 338.593C281.488 332.821 282.758 326.949 285.878 322.027C288.998 317.104 293.766 313.45 299.33 311.717L309.246 298.746Z" fill="#E6E6E6"/>
<path d="M399.662 463.196C399.645 461.685 399.298 460.195 398.644 458.832C397.99 457.469 397.045 456.265 395.875 455.307C394.706 454.349 393.341 453.659 391.876 453.285C390.411 452.912 388.882 452.864 387.396 453.145L369.098 421.273L360.508 438.33L379.201 465.981C379.839 468.446 381.359 470.59 383.472 472.009C385.586 473.427 388.146 474.021 390.668 473.678C393.19 473.334 395.499 472.078 397.156 470.146C398.814 468.214 399.705 465.742 399.662 463.196Z" fill="#9E616A"/>
<path d="M299.198 333.168L288.979 334.745C288.979 334.745 285.853 341.427 293.007 354.367C300.161 367.306 368.042 450.1 368.042 450.1L373.78 428.643L334.324 356.053L299.198 333.168Z" fill="#E6E6E6"/>
<path d="M943.694 718.999H1.30595C0.960283 718.998 0.62912 718.86 0.385047 718.615C0.140975 718.37 0.00390625 718.038 0.00390625 717.693C0.00390625 717.347 0.140975 717.015 0.385047 716.771C0.62912 716.526 0.960283 716.388 1.30595 716.387H943.694C944.041 716.387 944.373 716.524 944.618 716.769C944.862 717.014 945 717.346 945 717.693C945 718.039 944.862 718.371 944.618 718.616C944.373 718.861 944.041 718.999 943.694 718.999Z" fill="#CCCCCC"/>
</g>
<defs>
<clipPath id="clip0_105_223">
<rect width="945" height="493" fill="white" transform="translate(0 226)"/>
</clipPath>
</defs>
</svg>
