<svg width="1597" height="1597" viewBox="0 0 1597 1597" fill="none" xmlns="http://www.w3.org/2000/svg">
<path d="M495.74 503.035C486.443 506.576 476.949 509.578 467.306 512.026C454.568 515.129 447.376 516.568 435.082 511.798C434.65 511.63 434.238 511.464 433.849 511.301C410.546 501.395 390.626 484.929 376.513 463.908C362.401 442.887 354.705 418.217 354.362 392.902C354.3 392.034 354.3 391.121 354.3 390.23C354.288 385.94 354.493 381.651 354.915 377.382C355.454 371.565 356.384 365.792 357.7 360.101L357.577 360.079C347.623 349.903 343.794 335.963 345.063 321.956C345.933 312.46 348.947 303.286 353.879 295.124C358.81 286.962 365.53 280.025 373.532 274.837C386.073 266.954 400.213 261.964 414.925 260.229C418.875 259.774 422.848 259.543 426.824 259.539H464.182C471.897 257.733 479.736 256.497 487.633 255.843H487.694C562.881 249.607 622.174 299.443 616.644 360.079C616.603 360.146 616.541 360.213 616.5 360.28C614.903 362.885 613.49 365.357 612.24 367.717C611.032 369.922 610.008 372.037 609.127 374.041C602.266 389.54 634.872 630 623.177 633.651C616.521 635.722 589.691 456.79 594.504 490.815C600.566 533.503 530.378 490.233 495.74 503.035Z" fill="#141414"/>
<path d="M609.004 937.718L713.228 1159.71L312.305 1119.12L395.995 906.003L609.004 937.718Z" fill="#FFB6B6"/>
<path d="M818.224 1382.81C748.506 1406.01 675.035 1415.85 601.667 1411.81L569.763 1360.08C569.763 1360.08 568.427 1379.35 566.435 1408.8C531.51 1404.75 497.04 1397.45 463.477 1386.98C399.828 1367.08 340.164 1336.24 279.685 1307.81C267.435 1234.8 262.838 1122.22 330.563 1056.68L695.092 1123.46C695.092 1123.46 753.579 1167.2 737.932 1182.87C722.286 1198.51 719.863 1196.09 730.143 1206.36C740.423 1216.64 762.636 1230.38 762.862 1239.37C762.953 1242.88 787.883 1306.52 818.224 1382.81Z" fill="#141414"/>
<path d="M545.349 508.738L457.28 514.882L400.358 569.876L380.422 573.434C362.503 576.628 346.379 586.286 335.107 600.576C323.836 614.866 318.202 632.795 319.272 650.962C323.373 720.424 332.554 824.212 351.744 857.885C381.5 910.098 406.077 893.716 381.5 910.098C356.922 926.48 340.422 913.607 351.744 939.497C363.066 965.387 336.441 998.595 336.441 998.595L325.842 1009.19L337.083 1013.8L695.287 1060.4C695.287 1060.4 664.314 921.167 683.684 886.964C703.054 852.761 750.019 749.372 708.103 708.917L667.12 564.721L596.624 543.933L545.349 508.738Z" fill="#D17A22"/>
<path d="M1078.47 1080.19C1072.58 1080.01 1066.8 1078.54 1061.52 1075.9C1056.25 1073.26 1051.62 1069.51 1047.94 1064.9C1044.26 1060.29 1041.63 1054.94 1040.22 1049.21C1038.82 1043.49 1038.67 1037.52 1039.8 1031.74L871.772 917.962L891.821 863.758L1090.4 1000.35C1100 1002.97 1108.31 1009.02 1113.75 1017.35C1119.19 1025.69 1121.38 1035.72 1119.91 1045.57C1118.44 1055.41 1113.41 1064.37 1105.77 1070.75C1098.13 1077.13 1088.42 1080.49 1078.47 1080.19Z" fill="#FFB6B6"/>
<path d="M603.883 557.912L579.467 567.578L709.713 821.911L979.344 1005.67L1018.21 939.989L812.964 762.739L730.794 605.176C719.23 583.002 699.858 565.899 676.419 557.17C652.981 548.441 627.138 548.705 603.883 557.912Z" fill="#D17A22"/>
<path d="M496.732 486.371C545.572 486.371 585.165 446.785 585.165 397.953C585.165 349.121 545.572 309.535 496.732 309.535C447.891 309.535 408.298 349.121 408.298 397.953C408.298 446.785 447.891 486.371 496.732 486.371Z" fill="#FFB6B6"/>
<path d="M573.634 360.564C572.159 361.342 570.705 362.058 569.23 362.775C567.694 363.512 566.158 364.25 564.602 364.946C535.006 378.358 510.9 379.853 496.276 360.564C495.876 350.415 493.591 340.43 489.538 331.117C490.254 341.524 487.511 351.876 481.735 360.564H452.283C421.95 380.693 406.384 399.184 427.439 465.265C428.811 469.606 438.212 623.843 440.895 635.7C394.976 618.089 355.366 431.109 354.362 381.84C354.301 381.041 354.301 380.202 354.301 379.382C354.289 375.436 354.494 371.491 354.915 367.567C355.456 362.209 356.387 356.898 357.701 351.676L357.578 351.656C352.906 347.19 349.342 341.695 347.169 335.609C344.996 329.522 344.275 323.012 345.064 316.598C352.767 306.514 362.299 297.97 373.164 291.411C383.043 286.628 393.34 282.762 403.927 279.862C404.193 279.8 404.418 279.739 404.684 279.677C407.92 278.797 411.238 277.998 414.556 277.302C421.394 275.868 428.307 274.822 435.263 274.169C435.775 274.148 436.266 274.107 436.717 274.107C439.499 274.109 442.23 274.859 444.623 276.278C444.643 276.278 444.643 276.299 444.684 276.299C446.983 277.672 448.89 279.614 450.221 281.939C451.552 284.263 452.262 286.89 452.283 289.568H485.094C486.302 289.568 487.51 289.609 488.719 289.67C534.412 291.493 571.135 311.028 573.49 355.936C573.593 357.492 573.634 359.007 573.634 360.564Z" fill="#141414"/>
<path d="M379.65 364.118C411.826 364.118 437.911 338.038 437.911 305.867C437.911 273.697 411.826 247.617 379.65 247.617C347.473 247.617 321.389 273.697 321.389 305.867C321.389 338.038 347.473 364.118 379.65 364.118Z" fill="#141414"/>
<path d="M459.636 278.925C453.017 310.407 420.361 329.237 389.121 321.534C374.118 317.835 361.2 308.33 353.208 295.108C345.215 281.886 342.804 266.031 346.503 251.032C354.207 219.797 392.121 228.801 417.018 208.422C452.239 179.592 468.562 236.468 459.636 278.925Z" fill="#141414"/>
<path d="M330.189 1155.28C379.843 952.829 478.229 778.816 641.169 642.479C647.475 632.107 657.638 624.66 669.43 621.771C681.221 618.881 693.677 620.786 704.065 627.068L1091.41 861.884C1101.79 868.189 1109.24 878.351 1112.13 890.14C1115.02 901.929 1113.11 914.383 1106.83 924.769C1044.64 1132.51 951.487 1312.77 795.849 1437.57C789.543 1447.94 779.379 1455.39 767.588 1458.28C755.797 1461.17 743.341 1459.27 732.953 1452.98L345.604 1218.17C335.23 1211.86 327.781 1201.7 324.891 1189.91C322.001 1178.12 323.906 1165.67 330.189 1155.28Z" fill="#EFEFEF"/>
<path opacity="0.2" d="M399.036 1223.51C388.662 1217.21 381.214 1207.05 378.324 1195.26C375.434 1183.47 377.339 1171.01 383.622 1160.63C433.276 958.174 531.662 784.161 694.601 647.825C698.776 641.035 704.67 635.469 711.687 631.689L704.064 627.068C693.676 620.786 681.221 618.882 669.429 621.771C657.638 624.66 647.475 632.107 641.169 642.479C478.229 778.816 379.843 952.828 330.189 1155.28C323.907 1165.67 322.001 1178.12 324.891 1189.91C327.781 1201.7 335.23 1211.86 345.604 1218.17L732.952 1452.98C739.847 1457.13 747.715 1459.38 755.76 1459.51C763.805 1459.64 771.741 1457.64 778.763 1453.71L399.036 1223.51Z" fill="black"/>
<path d="M853.298 1110.4L593.291 953.765C589.161 951.269 586.189 947.236 585.03 942.552C583.872 937.867 584.62 932.914 587.111 928.781C589.601 924.648 593.631 921.672 598.315 920.507C602.999 919.342 607.954 920.084 612.091 922.569L872.098 1079.21C876.218 1081.71 879.18 1085.74 880.332 1090.42C881.485 1095.1 880.736 1100.04 878.248 1104.17C875.76 1108.3 871.737 1111.27 867.06 1112.44C862.384 1113.61 857.435 1112.87 853.298 1110.4Z" fill="#141414"/>
<path d="M702.043 902.686L644.841 868.226C640.696 865.747 637.706 861.723 636.528 857.039C635.35 852.355 636.082 847.395 638.562 843.25C641.042 839.105 645.067 836.116 649.752 834.938C654.437 833.761 659.397 834.492 663.543 836.972L663.641 837.031L720.842 871.491C724.964 873.991 727.927 878.023 729.08 882.703C730.234 887.384 729.485 892.33 726.996 896.459C724.508 900.588 720.484 903.561 715.807 904.729C711.129 905.896 706.18 905.162 702.043 902.686Z" fill="#141414"/>
<path d="M811.974 1178.97L551.967 1022.34C547.832 1019.85 544.854 1015.82 543.689 1011.13C542.523 1006.45 543.265 1001.49 545.752 997.356C548.238 993.219 552.266 990.238 556.949 989.068C561.633 987.899 566.589 988.636 570.73 991.118L570.767 991.14L830.773 1147.78C834.894 1150.28 837.855 1154.31 839.008 1158.99C840.161 1163.67 839.411 1168.61 836.924 1172.74C834.436 1176.87 830.413 1179.84 825.736 1181.01C821.059 1182.18 816.111 1181.45 811.974 1178.97Z" fill="#141414"/>
<path d="M886.317 815.059C928.259 815.059 962.26 781.065 962.26 739.13C962.26 697.196 928.259 663.201 886.317 663.201C844.375 663.201 810.375 697.196 810.375 739.13C810.375 781.065 844.375 815.059 886.317 815.059Z" fill="#141414"/>
<path d="M886.317 815.059C928.259 815.059 962.26 781.065 962.26 739.13C962.26 697.196 928.259 663.201 886.317 663.201C844.375 663.201 810.375 697.196 810.375 739.13C810.375 781.065 844.375 815.059 886.317 815.059Z" fill="#141414"/>
<path d="M755.412 1552.74C845.057 1552.74 917.728 1480.08 917.728 1390.45C917.728 1300.82 845.057 1228.16 755.412 1228.16C665.768 1228.16 593.096 1300.82 593.096 1390.45C593.096 1480.08 665.768 1552.74 755.412 1552.74Z" fill="white"/>
<path d="M755.412 1555C722.861 1555 691.041 1545.35 663.976 1527.27C636.911 1509.19 615.816 1483.49 603.36 1453.42C590.903 1423.35 587.644 1390.27 593.994 1358.35C600.344 1326.43 616.019 1297.11 639.036 1274.09C662.053 1251.08 691.378 1235.41 723.303 1229.06C755.229 1222.71 788.32 1225.97 818.393 1238.42C848.467 1250.88 874.171 1271.97 892.255 1299.03C910.34 1326.09 919.992 1357.9 919.992 1390.45C919.943 1434.07 902.588 1475.9 871.734 1506.75C840.88 1537.6 799.047 1554.95 755.412 1555ZM755.412 1230.43C723.757 1230.43 692.812 1239.81 666.492 1257.4C640.172 1274.98 619.657 1299.97 607.543 1329.21C595.429 1358.45 592.26 1390.63 598.436 1421.67C604.611 1452.71 619.855 1481.22 642.239 1503.6C664.622 1525.98 693.141 1541.22 724.188 1547.4C755.235 1553.57 787.416 1550.4 816.662 1538.29C845.908 1526.18 870.904 1505.67 888.491 1479.35C906.077 1453.04 915.464 1422.1 915.464 1390.45C915.416 1348.02 898.538 1307.35 868.533 1277.35C838.527 1247.35 797.846 1230.47 755.412 1230.43Z" fill="#141414"/>
<path d="M733.269 1474.91C730.466 1474.91 727.701 1474.26 725.194 1473C722.687 1471.75 720.507 1469.93 718.826 1467.69L674.543 1408.66C673.118 1406.76 672.081 1404.6 671.491 1402.3C670.901 1400.01 670.769 1397.61 671.104 1395.27C671.438 1392.92 672.232 1390.66 673.441 1388.62C674.649 1386.58 676.248 1384.79 678.146 1383.37C680.044 1381.95 682.203 1380.91 684.502 1380.32C686.8 1379.74 689.192 1379.61 691.54 1379.94C693.888 1380.28 696.147 1381.08 698.188 1382.29C700.228 1383.5 702.01 1385.1 703.432 1386.99L732.403 1425.61L806.811 1314.02C808.127 1312.05 809.818 1310.35 811.788 1309.04C813.758 1307.72 815.968 1306.8 818.294 1306.33C820.619 1305.87 823.012 1305.87 825.339 1306.33C827.665 1306.79 829.877 1307.7 831.85 1309.01C833.823 1310.33 835.518 1312.02 836.837 1313.99C838.156 1315.96 839.075 1318.17 839.54 1320.49C840.005 1322.82 840.007 1325.21 839.547 1327.54C839.087 1329.86 838.173 1332.08 836.858 1334.05L748.293 1466.87C746.691 1469.27 744.536 1471.26 742.01 1472.65C739.483 1474.05 736.658 1474.82 733.771 1474.91C733.604 1474.91 733.436 1474.91 733.269 1474.91Z" fill="#D17A22"/>
<path d="M1279.61 568.051C1286.06 567.5 1290.98 563.416 1290.6 558.93C1290.21 554.444 1284.67 551.254 1278.22 551.805C1271.77 552.357 1266.86 556.44 1267.24 560.927C1267.62 565.413 1273.16 568.603 1279.61 568.051Z" fill="white"/>
<path d="M1352.19 543.438C1358.64 542.886 1363.55 538.803 1363.17 534.317C1362.79 529.83 1357.25 526.641 1350.8 527.192C1344.35 527.743 1339.43 531.827 1339.81 536.313C1340.2 540.8 1345.74 543.989 1352.19 543.438Z" fill="#141414"/>
<path d="M1245.21 512.694C1251.66 512.142 1256.58 508.059 1256.2 503.572C1255.81 499.086 1250.27 495.896 1243.82 496.448C1237.37 496.999 1232.46 501.083 1232.84 505.569C1233.22 510.055 1238.76 513.245 1245.21 512.694Z" fill="#D17A22"/>
<path d="M1214.77 494.856C1217.55 494.229 1219.07 490.486 1218.17 486.496C1217.26 482.506 1214.28 479.78 1211.51 480.407C1208.73 481.035 1207.21 484.778 1208.11 488.767C1209.01 492.757 1212 495.483 1214.77 494.856Z" fill="#EFEFEF"/>
<path d="M1193.1 451.552C1195.87 450.924 1197.39 447.182 1196.49 443.192C1195.59 439.202 1192.61 436.476 1189.83 437.103C1187.06 437.73 1185.54 441.473 1186.44 445.463C1187.34 449.453 1190.32 452.179 1193.1 451.552Z" fill="#141414"/>
<path d="M1297.08 512.366C1299.86 511.739 1301.38 507.996 1300.48 504.006C1299.58 500.016 1296.6 497.29 1293.82 497.917C1291.04 498.544 1289.52 502.287 1290.43 506.277C1291.33 510.267 1294.31 512.993 1297.08 512.366Z" fill="#EFEFEF"/>
<path d="M1265.39 538.676C1268.16 538.048 1269.68 534.306 1268.78 530.316C1267.88 526.326 1264.9 523.6 1262.12 524.227C1259.35 524.854 1257.83 528.597 1258.73 532.587C1259.63 536.577 1262.61 539.303 1265.39 538.676Z" fill="#D17A22"/>
<path d="M1323.09 560.104C1325.87 559.477 1327.39 555.734 1326.49 551.744C1325.58 547.754 1322.6 545.028 1319.83 545.655C1317.05 546.283 1315.53 550.026 1316.43 554.015C1317.34 558.005 1320.32 560.731 1323.09 560.104Z" fill="#141414"/>
<path d="M979.99 232.603C981.096 228.239 976.906 223.411 970.631 221.821C964.355 220.231 958.372 222.481 957.265 226.845C956.159 231.21 960.349 236.037 966.624 237.627C972.9 239.217 978.883 236.968 979.99 232.603Z" fill="white"/>
<path d="M903.358 232.11C904.464 227.745 900.274 222.918 893.999 221.328C887.724 219.738 881.74 221.987 880.634 226.352C879.527 230.717 883.717 235.544 889.993 237.134C896.268 238.724 902.252 236.474 903.358 232.11Z" fill="#141414"/>
<path d="M994.37 296.171C995.476 291.806 991.286 286.979 985.011 285.389C978.736 283.799 972.752 286.048 971.646 290.413C970.539 294.777 974.73 299.604 981.005 301.194C987.28 302.784 993.264 300.535 994.37 296.171Z" fill="#D17A22"/>
<path d="M1012.23 320.139C1012.69 316.074 1010.76 312.522 1007.94 312.206C1005.11 311.89 1002.45 314.929 1001.99 318.995C1001.54 323.06 1003.46 326.612 1006.29 326.928C1009.12 327.244 1011.78 324.204 1012.23 320.139Z" fill="#EFEFEF"/>
<path d="M1018.54 368.152C1018.99 364.086 1017.06 360.535 1014.24 360.219C1011.41 359.903 1008.75 362.942 1008.29 367.007C1007.84 371.073 1009.76 374.624 1012.59 374.94C1015.42 375.256 1018.08 372.217 1018.54 368.152Z" fill="#141414"/>
<path d="M940.19 276.654C940.644 272.588 938.72 269.037 935.891 268.721C933.063 268.405 930.401 271.444 929.947 275.509C929.493 279.575 931.417 283.126 934.246 283.442C937.074 283.758 939.736 280.719 940.19 276.654Z" fill="#EFEFEF"/>
<path d="M978.755 262.169C979.209 258.104 977.285 254.552 974.456 254.236C971.628 253.92 968.966 256.96 968.512 261.025C968.058 265.09 969.982 268.642 972.811 268.958C975.639 269.274 978.301 266.235 978.755 262.169Z" fill="#D17A22"/>
<path d="M931.245 223.034C931.699 218.968 929.774 215.417 926.946 215.101C924.117 214.785 921.456 217.824 921.002 221.889C920.547 225.954 922.472 229.506 925.301 229.822C928.129 230.138 930.79 227.099 931.245 223.034Z" fill="#141414"/>
<path d="M354.341 1157.43C348.554 1155.06 343.35 1151.46 339.091 1146.88C334.831 1142.3 331.618 1136.85 329.672 1130.9C327.727 1124.96 327.095 1118.67 327.822 1112.45C328.549 1106.24 330.617 1100.26 333.883 1094.93L209.108 919.568L249.137 873.136L395.81 1082.5C404.381 1088.66 410.392 1097.76 412.706 1108.06C415.019 1118.35 413.474 1129.14 408.362 1138.38C403.25 1147.62 394.928 1154.66 384.972 1158.17C375.015 1161.68 364.117 1161.41 354.341 1157.43Z" fill="#FFB6B6"/>
<path d="M357.209 601.706C350.896 597.992 343.466 596.65 336.253 597.92C329.04 599.189 322.516 602.988 317.851 608.634L149.264 844.37L305.501 1066.23L366.636 1000.58L271.536 851.161L397.925 730.846C408.311 708.097 409.898 682.306 402.378 658.456C394.858 634.606 378.766 614.387 357.209 601.706Z" fill="#D17A22"/>
</svg>
