<svg width="194" height="194" viewBox="0 0 194 194" fill="none" xmlns="http://www.w3.org/2000/svg">
<g clip-path="url(#clip0_93_43)">
<path d="M160.656 50.6824C166.315 53.8996 169.79 59.9217 169.75 66.4288V125.308C169.75 131.847 166.169 137.877 160.389 141.054L105.827 175.57C103.122 177.055 100.086 177.834 97 177.834C93.9141 177.834 90.878 177.055 88.173 175.57L33.6105 141.054C30.7827 139.509 28.422 137.232 26.7753 134.462C25.1287 131.692 24.2565 128.53 24.25 125.308V66.4207C24.25 59.8813 27.8309 53.8592 33.6105 50.6824L88.173 18.5108C90.958 16.9752 94.0865 16.1699 97.2667 16.1699C100.447 16.1699 103.575 16.9752 106.36 18.5108L160.923 50.6824H160.656Z" stroke="#EA7A0B" stroke-width="10.4167" stroke-linecap="round" stroke-linejoin="round"/>
<path d="M97 129.334V129.415" stroke="#EA7A0B" stroke-width="10.4167" stroke-linecap="round" stroke-linejoin="round"/>
<path d="M97 105.083C100.635 105.094 104.169 103.88 107.029 101.635C109.889 99.391 111.909 96.2482 112.763 92.7145C113.617 89.1807 113.255 85.4622 111.735 82.1595C110.216 78.8568 107.627 76.1627 104.388 74.5122C101.172 72.8649 97.4939 72.3542 93.951 73.063C90.4082 73.7719 87.2094 75.6587 84.875 78.4165" stroke="#EA7A0B" stroke-width="10.4167" stroke-linecap="round" stroke-linejoin="round"/>
</g>
<defs>
<clipPath id="clip0_93_43">
<rect width="194" height="194" fill="white"/>
</clipPath>
</defs>
</svg>
