<svg width="7731" height="7731" viewBox="0 0 7731 7731" fill="none" xmlns="http://www.w3.org/2000/svg">
<g clip-path="url(#clip0_52_377)">
<path d="M6554.71 6798.34C6517.7 6811.35 6477.96 6814.61 6439.33 6807.81C6400.7 6801 6364.47 6784.36 6334.13 6759.49C6256.87 6694.64 6232.62 6587.81 6212.94 6488.88L6154.65 6196.29L6276.69 6280.33C6364.46 6340.77 6454.2 6403.14 6514.98 6490.68C6575.75 6578.22 6602.27 6697.73 6553.45 6792.44" fill="#141414"/>
<path d="M6544.27 7152.59C6556.62 7062.6 6569.33 6971.48 6560.67 6880.53C6552.97 6799.76 6528.33 6720.87 6478.16 6656.19C6451.53 6621.92 6419.13 6592.56 6382.41 6569.42C6372.83 6563.39 6364.03 6578.56 6373.56 6584.57C6437.09 6624.72 6486.23 6684.01 6513.89 6753.89C6544.44 6831.6 6549.35 6916.32 6544.04 6998.86C6540.86 7048.78 6534.11 7098.36 6527.31 7147.91C6526.76 7150.16 6527.09 7152.52 6528.23 7154.53C6529.37 7156.54 6531.23 7158.03 6533.44 7158.71C6535.68 7159.31 6538.08 7159.01 6540.1 7157.86C6542.12 7156.71 6543.6 7154.81 6544.23 7152.58L6544.27 7152.59Z" fill="#F2F2F2"/>
<path d="M6101.94 5658.06H996.006V552H6101.94V5658.06Z" fill="white"/>
<path d="M6101.94 5658.06H996.006V552H6101.94V5658.06ZM1071.45 5582.62H6026.5V627.442H1071.45V5582.62Z" fill="#E5E5E5"/>
<path d="M5197.41 1350.85H2986.33V1419.72H5197.41V1350.85Z" fill="#E5E5E5"/>
<path d="M5197.41 1529.93H2986.33V1598.81H5197.41V1529.93Z" fill="#E5E5E5"/>
<path d="M5197.41 1709.01H2986.33V1777.89H5197.41V1709.01Z" fill="#E5E5E5"/>
<path d="M5197.41 2888.59H2986.33V2957.47H5197.41V2888.59Z" fill="#E5E5E5"/>
<path d="M5197.41 3067.68H2986.33V3136.56H5197.41V3067.68Z" fill="#E5E5E5"/>
<path d="M5197.41 3246.76H2986.33V3315.64H5197.41V3246.76Z" fill="#E5E5E5"/>
<path d="M5197.41 4426.34H2986.33V4495.22H5197.41V4426.34Z" fill="#E5E5E5"/>
<path d="M5197.41 4605.43H2986.33V4674.3H5197.41V4605.43Z" fill="#E5E5E5"/>
<path d="M5197.41 4784.51H2986.33V4853.39H5197.41V4784.51Z" fill="#E5E5E5"/>
<path d="M2101.18 1899.63C2063.4 1879.72 2023.98 1863.13 1983.34 1850.04L1978.15 1792.71L1767.99 1770.07L1741.28 1843.34L1665.86 1871.64C1663.16 1872.67 1660.59 1874.01 1658.21 1875.63H1658.13C1653.92 1878.48 1650.33 1882.15 1647.59 1886.43C1644.85 1890.7 1643.01 1895.49 1642.18 1900.51C1641.38 1905.49 1641.57 1910.58 1642.74 1915.49L1646.73 1931.84C1652.47 1935.27 1658.37 1938.54 1664.27 1941.65L1668.01 1943.56C1676.63 1948.02 1685.4 1952.25 1694.4 1956.16C1696.24 1956.95 1698.23 1957.75 1700.07 1958.55C1700.22 1958.63 1700.3 1958.63 1700.46 1958.71C1704.69 1960.46 1708.91 1962.14 1713.22 1963.73C1727.36 1969.13 1741.79 1973.76 1756.43 1977.6C1793.81 1987.57 1832.32 1992.61 1871 1992.59C1885.11 1992.59 1899.07 1991.96 1912.86 1990.6C1944.37 1987.69 1975.49 1981.41 2005.66 1971.86C2005.74 1971.86 2005.82 1971.78 2005.9 1971.78C2024.96 1965.71 2043.58 1958.33 2061.63 1949.7C2061.71 1949.62 2061.87 1949.62 2061.95 1949.54C2066.01 1947.63 2069.92 1945.55 2073.91 1943.56L2075.82 1942.6C2079.01 1940.93 2082.2 1939.25 2085.39 1937.5C2093.36 1933.11 2101.18 1928.49 2108.91 1923.55C2111.06 1922.27 2113.13 1920.92 2115.29 1919.48C2118.32 1917.49 2121.35 1915.41 2124.3 1913.26C2116.88 1908.48 2109.15 1903.93 2101.18 1899.63Z" fill="#141414"/>
<path d="M1706.76 1934.95L1693.61 1875.55H1659.24C1658.9 1875.56 1658.55 1875.58 1658.21 1875.63H1658.13C1645.78 1876.68 1633.88 1880.79 1623.53 1887.59C1616.5 1892.08 1610.25 1897.68 1605.03 1904.17C1615.23 1911.91 1625.84 1919.08 1636.76 1925.94L1637.24 1926.18C1640.35 1928.09 1643.54 1930.01 1646.73 1931.84C1652.47 1935.27 1658.37 1938.54 1664.27 1941.65L1668.02 1943.56C1676.63 1948.02 1685.4 1952.25 1694.41 1956.16C1696.24 1956.95 1698.23 1957.75 1700.07 1958.55C1700.23 1958.63 1700.3 1958.63 1700.46 1958.71C1704.69 1960.46 1708.91 1962.14 1713.22 1963.73L1706.76 1934.95Z" fill="#141414"/>
<path d="M1864.83 1733.83C1948.42 1733.83 2016.19 1666.06 2016.19 1582.46C2016.19 1498.87 1948.42 1431.1 1864.83 1431.1C1781.23 1431.1 1713.47 1498.87 1713.47 1582.46C1713.47 1666.06 1781.23 1733.83 1864.83 1733.83Z" fill="#FFB8B8"/>
<path d="M1763.2 1508.74C1778.87 1527.28 1805.39 1532.51 1829.85 1534.66C1887.04 1537.82 1944.39 1533.13 2000.31 1520.74C2003.77 1554.32 1994.32 1590.53 2014.1 1618.16C2023.38 1584.71 2028.77 1550.31 2030.17 1515.63C2031.65 1500.76 2029.71 1485.74 2024.49 1471.72C2021.71 1464.7 2017 1458.6 2010.92 1454.12C2004.84 1449.63 1997.62 1446.94 1990.09 1446.36C2001.37 1437.8 2014.58 1432.16 2028.55 1429.92L1980.49 1405.76L1992.83 1393.09L1905.82 1387.77L1931.02 1371.76C1893.09 1366.54 1854.72 1365.33 1816.54 1368.14C1798.7 1368.15 1781.19 1373.02 1765.9 1382.22C1751.54 1392.49 1743.24 1412.91 1752.15 1427.99C1740.99 1429.83 1730.48 1434.48 1721.61 1441.52C1712.75 1448.55 1705.83 1457.73 1701.5 1468.19C1696.04 1484.81 1694.72 1502.51 1697.66 1519.76C1700.94 1547.43 1707.37 1574.64 1716.83 1600.85L1763.2 1508.74Z" fill="#141414"/>
<path d="M2290.45 1418.38C2269.21 1357.37 2234.92 1301.73 2189.97 1255.33C2145.02 1208.93 2090.49 1172.9 2030.18 1149.75C1969.88 1126.59 1905.25 1116.87 1840.8 1121.26C1776.35 1125.65 1713.63 1144.04 1657.02 1175.16C1600.41 1206.28 1551.27 1249.38 1513.02 1301.44C1474.78 1353.5 1448.35 1413.28 1435.58 1476.61C1422.81 1539.93 1424.01 1605.28 1439.1 1668.1C1454.18 1730.92 1482.78 1789.69 1522.91 1840.31C1526.89 1845.33 1531.04 1850.36 1535.27 1855.22C1535.59 1855.54 1535.83 1855.86 1536.14 1856.18C1546.54 1868.15 1557.58 1879.54 1569.23 1890.3C1572.26 1893.09 1575.45 1895.96 1578.64 1898.67C1584.7 1904.09 1590.92 1909.28 1597.38 1914.22C1599.93 1916.21 1602.4 1918.21 1605.03 1920.12C1615.23 1927.85 1625.84 1935.03 1636.76 1941.89L1637.24 1942.12C1640.35 1944.04 1643.54 1945.95 1646.73 1947.79C1652.47 1951.21 1658.37 1954.48 1664.27 1957.59L1668.01 1959.51C1676.63 1963.97 1685.4 1968.2 1694.41 1972.1C1696.24 1972.9 1698.23 1973.7 1700.07 1974.5C1700.23 1974.58 1700.3 1974.58 1700.46 1974.66C1704.69 1976.41 1708.91 1978.08 1713.22 1979.68C1727.36 1985.08 1741.79 1989.71 1756.43 1993.55C1793.81 2003.51 1832.32 2008.55 1871 2008.54C1885.11 2008.54 1899.07 2007.9 1912.86 2006.55C1944.37 2003.64 1975.49 1997.36 2005.66 1987.81C2005.74 1987.81 2005.82 1987.73 2005.9 1987.73C2024.96 1981.66 2043.58 1974.28 2061.63 1965.65C2061.71 1965.57 2061.87 1965.57 2061.95 1965.49C2066.01 1963.57 2069.92 1961.5 2073.91 1959.51L2075.82 1958.55C2079.01 1956.88 2082.2 1955.2 2085.39 1953.45C2093.36 1949.06 2101.18 1944.44 2108.91 1939.49C2111.06 1938.22 2113.14 1936.86 2115.29 1935.43C2118.32 1933.43 2121.35 1931.36 2124.3 1929.21C2128.2 1926.5 2132.11 1923.71 2135.94 1920.84C2137.13 1919.96 2138.41 1919.08 2139.6 1918.13C2214.3 1861.43 2269.12 1782.54 2296.22 1692.76C2323.32 1602.99 2321.3 1506.94 2290.45 1418.38ZM2124.94 1898.75C2122.3 1900.82 2119.59 1902.82 2116.88 1904.65C2114.25 1906.65 2111.62 1908.56 2108.91 1910.31C2106.6 1911.99 2104.28 1913.58 2101.89 1915.1L2101.18 1915.58C2099.42 1916.77 2097.67 1917.89 2095.91 1919C2089.3 1923.15 2082.6 1927.14 2075.82 1930.96L2073.67 1932.16C2070.64 1933.83 2067.61 1935.43 2064.58 1937.02C2064.18 1937.26 2063.7 1937.42 2063.31 1937.66L2062.83 1937.9C2059 1939.89 2055.09 1941.81 2051.19 1943.64C2036.11 1950.9 2020.59 1957.19 2004.71 1962.46C2002.63 1963.17 2000.56 1963.89 1998.49 1964.53C1969.93 1973.61 1940.47 1979.6 1910.63 1982.39C1897.55 1983.59 1884.32 1984.22 1871 1984.22C1834.42 1984.3 1797.98 1979.53 1762.65 1970.03C1744.52 1965.3 1726.75 1959.28 1709.47 1952.01C1708.6 1951.61 1707.64 1951.29 1706.76 1950.9C1705.81 1950.5 1704.93 1950.18 1704.05 1949.78C1703.09 1949.38 1702.22 1948.98 1701.26 1948.5C1693.77 1945.24 1686.35 1941.65 1679.1 1937.9L1675.59 1936.07C1666.74 1931.44 1658.05 1926.5 1649.6 1921.24C1647.12 1919.72 1644.58 1918.13 1642.18 1916.45C1641.55 1916.05 1640.99 1915.66 1640.35 1915.26C1634.69 1911.51 1629.03 1907.6 1623.53 1903.54C1619.78 1900.75 1616.03 1897.95 1612.36 1895.08C1606.23 1890.46 1600.32 1885.52 1594.59 1880.41C1591.56 1877.86 1588.61 1875.07 1585.74 1872.44C1574.43 1862 1563.73 1850.93 1553.69 1839.27C1550.34 1835.45 1547.07 1831.62 1543.96 1827.63C1543.25 1826.84 1542.59 1826.02 1541.96 1825.16C1490.16 1759.79 1459 1680.48 1452.46 1597.33C1445.92 1514.18 1464.3 1430.96 1505.24 1358.3C1546.18 1285.63 1607.84 1226.81 1682.35 1189.33C1756.86 1151.85 1840.84 1137.41 1923.59 1147.86C2006.34 1158.3 2084.1 1193.16 2146.96 1247.98C2209.82 1302.8 2254.92 1375.1 2276.52 1455.66C2298.12 1536.22 2295.24 1621.39 2268.24 1700.31C2241.25 1779.22 2191.36 1848.31 2124.94 1898.75Z" fill="#D17A22"/>
<path d="M2290.45 2956.13C2269.21 2895.12 2234.93 2839.48 2189.97 2793.08C2145.02 2746.68 2090.49 2710.65 2030.19 2687.5C1969.88 2664.34 1905.25 2654.62 1840.8 2659.01C1776.35 2663.4 1713.63 2681.79 1657.02 2712.91C1600.41 2744.03 1551.27 2787.13 1513.03 2839.19C1474.78 2891.25 1448.35 2951.03 1435.59 3014.36C1422.82 3077.68 1424.02 3143.03 1439.1 3205.85C1454.18 3268.66 1482.78 3327.43 1522.91 3378.06C1526.9 3383.08 1531.04 3388.11 1535.27 3392.97C1535.59 3393.29 1535.83 3393.61 1536.14 3393.93C1546.54 3405.9 1557.59 3417.29 1569.23 3428.05C1572.26 3430.84 1575.45 3433.71 1578.64 3436.42C1584.7 3441.84 1590.92 3447.03 1597.38 3451.97C1609.99 3461.91 1623.13 3471.14 1636.76 3479.64L1637.24 3479.87C1646.09 3485.38 1655.1 3490.48 1664.27 3495.34L1668.01 3497.26C1676.63 3501.72 1685.4 3505.95 1694.4 3509.85C1696.24 3510.65 1698.23 3511.45 1700.06 3512.24C1700.22 3512.32 1700.31 3512.32 1700.47 3512.4C1718.67 3519.97 1737.37 3526.29 1756.43 3531.3C1793.81 3541.26 1832.32 3546.3 1871 3546.29C1885.11 3546.29 1899.06 3545.65 1912.86 3544.3C1944.37 3541.39 1975.49 3535.11 2005.66 3525.56C2005.74 3525.56 2005.82 3525.48 2005.9 3525.48C2024.96 3519.41 2043.58 3512.03 2061.63 3503.39C2061.71 3503.32 2061.87 3503.32 2061.95 3503.24C2066.01 3501.32 2069.92 3499.25 2073.91 3497.26L2075.82 3496.3C2079.01 3494.62 2082.2 3492.95 2085.39 3491.2C2093.36 3486.81 2101.18 3482.19 2108.91 3477.24C2111.06 3475.97 2113.13 3474.61 2115.29 3473.18C2122.3 3468.55 2129.24 3463.61 2135.94 3458.59C2137.13 3457.71 2138.41 3456.83 2139.61 3455.88C2214.3 3399.18 2269.12 3320.29 2296.22 3230.51C2323.32 3140.74 2321.3 3044.69 2290.45 2956.13Z" fill="white"/>
<path d="M2017.57 3285.21C2054.33 3285.21 2084.14 3255.41 2084.14 3218.64C2084.14 3181.88 2054.33 3152.08 2017.57 3152.08C1980.81 3152.08 1951.01 3181.88 1951.01 3218.64C1951.01 3255.41 1980.81 3285.21 2017.57 3285.21Z" fill="#141414"/>
<path d="M2036.12 3153.91C2047.64 3153.91 2058.96 3156.9 2068.98 3162.59C2079 3168.28 2087.37 3176.47 2093.28 3186.36C2099.18 3196.25 2102.42 3207.51 2102.67 3219.03C2102.92 3230.54 2100.18 3241.93 2094.72 3252.07C2100.49 3244.85 2104.69 3236.51 2107.05 3227.57C2109.42 3218.64 2109.9 3209.31 2108.46 3200.18C2107.03 3191.05 2103.7 3182.32 2098.71 3174.54C2093.71 3166.77 2087.15 3160.12 2079.44 3155.02C2071.73 3149.92 2063.04 3146.49 2053.93 3144.93C2044.82 3143.37 2035.49 3143.73 2026.52 3145.98C2017.56 3148.23 2009.16 3152.33 2001.86 3158C1994.57 3163.68 1988.54 3170.81 1984.15 3178.94C1990.37 3171.13 1998.28 3164.82 2007.28 3160.49C2016.28 3156.15 2026.13 3153.91 2036.12 3153.91Z" fill="#141414"/>
<path d="M1893.18 3218.5C2001.17 3218.5 2088.72 3130.95 2088.72 3022.96C2088.72 2914.96 2001.17 2827.41 1893.18 2827.41C1785.19 2827.41 1697.64 2914.96 1697.64 3022.96C1697.64 3130.95 1785.19 3218.5 1893.18 3218.5Z" fill="#141414"/>
<path d="M1739.71 2901.63C1773.41 2863.74 1820.5 2840.42 1871.06 2836.59C1921.63 2832.76 1971.7 2848.73 2010.71 2881.12C2009.11 2879.6 2007.52 2878.07 2005.87 2876.59C1967.24 2841.99 1916.45 2824.15 1864.67 2826.99C1812.88 2829.84 1764.35 2853.14 1729.75 2891.76C1695.14 2930.39 1677.3 2981.19 1680.15 3032.97C1682.99 3084.75 1706.29 3133.29 1744.92 3167.89C1745.29 3168.22 1745.66 3168.55 1746.03 3168.88C1747.69 3170.36 1749.4 3171.75 1751.1 3173.17C1714.36 3138.22 1692.64 3090.36 1690.52 3039.7C1688.39 2989.04 1706.03 2939.53 1739.71 2901.63Z" fill="#141414"/>
<path d="M1891.52 3216.84C1961.08 3216.84 2017.46 3160.46 2017.46 3090.9C2017.46 3021.34 1961.08 2964.96 1891.52 2964.96C1821.97 2964.96 1765.58 3021.34 1765.58 3090.9C1765.58 3160.46 1821.97 3216.84 1891.52 3216.84Z" fill="#A0616A"/>
<path d="M2116.88 3419.04V3461.3C2109.15 3466.24 2101.34 3470.86 2093.36 3475.25C2090.17 3477 2086.99 3478.68 2083.8 3480.35L2081.88 3481.31C2077.9 3483.3 2073.99 3485.38 2069.92 3487.29C2069.85 3487.37 2069.68 3487.37 2069.6 3487.45C2051.56 3496.08 2032.93 3503.46 2013.87 3509.53C2013.79 3509.53 2013.72 3509.61 2013.63 3509.61C1983.46 3519.16 1952.35 3525.44 1920.83 3528.35C1907.04 3529.71 1893.09 3530.34 1878.97 3530.34C1840.3 3530.35 1801.78 3525.32 1764.41 3515.35C1745.34 3510.34 1726.64 3504.03 1708.44 3496.46C1708.28 3496.38 1708.2 3496.38 1708.04 3496.3C1706.2 3495.5 1704.21 3494.7 1702.38 3493.91C1693.37 3490 1684.6 3485.77 1675.99 3481.31L1672.24 3479.4C1663.07 3474.53 1654.06 3469.43 1645.21 3463.93L1644.73 3463.69C1631.11 3455.2 1617.96 3445.96 1605.35 3436.02C1598.89 3431.08 1592.67 3425.9 1586.61 3420.48C1583.42 3417.76 1580.24 3414.89 1577.21 3412.1C1565.56 3401.35 1554.51 3389.95 1544.12 3377.98C1545.5 3369.67 1547.52 3361.49 1550.18 3353.5L1550.26 3353.42C1550.73 3352.06 1551.29 3350.73 1551.93 3349.44C1552.37 3348.29 1552.88 3347.17 1553.44 3346.09C1567.72 3319.38 1593.55 3312.76 1625.6 3311.33C1643.7 3310.53 1663.71 3311.41 1684.84 3311.17C1696 3311.09 1707.56 3310.69 1719.12 3309.65C1792.07 3303.03 1778.84 3259.98 1782.11 3236.78C1785.38 3214.29 1805.63 3233.75 1806.98 3235.02L1807.06 3235.1C1848.34 3254.42 1894.02 3262.43 1939.41 3258.3C1947.22 3257.35 1955.03 3256.79 1962.85 3256.55C1983.42 3256.31 1978.95 3262.21 1971.86 3267.08C1968.42 3269.34 1964.82 3271.37 1961.1 3273.14C1961.1 3273.14 1957.83 3293.07 1954.48 3322.89C1951.29 3351.43 2005.98 3364.82 2010.52 3365.86C2010.62 3365.92 2010.73 3365.95 2010.84 3365.94C2030.82 3360.76 2051.85 3361.31 2071.52 3367.53H2071.6C2082.84 3371.67 2092.87 3378.54 2100.78 3387.54C2108.69 3396.53 2114.22 3407.36 2116.88 3419.04Z" fill="#D17A22"/>
<path d="M1709.23 3470.31C1709.23 3476.21 1709.08 3481.87 1708.84 3487.21C1708.76 3490.4 1708.6 3493.51 1708.44 3496.46C1708.28 3496.38 1708.2 3496.38 1708.04 3496.3C1706.2 3495.5 1704.21 3494.7 1702.38 3493.91C1693.37 3490 1684.6 3485.77 1675.99 3481.31L1672.24 3479.4C1663.07 3474.53 1654.06 3469.43 1645.21 3463.93C1645.45 3461.14 1645.85 3458.35 1646.25 3455.56C1647.12 3449.42 1647.84 3443.2 1648.32 3437.06C1651.46 3393.93 1643.64 3350.71 1625.6 3311.41V3311.33C1624 3308.14 1623.05 3306.38 1623.05 3306.38C1623.05 3306.38 1646.25 3286.45 1679.33 3306.38C1681.45 3307.62 1683.31 3309.25 1684.84 3311.17C1704.77 3334.69 1710.19 3413.78 1709.23 3470.31Z" fill="#141414"/>
<path d="M2071.28 3459.46C2070.96 3468.39 2070.48 3477.72 2069.92 3487.21V3487.29C2069.85 3487.37 2069.68 3487.37 2069.6 3487.45C2051.56 3496.08 2032.93 3503.46 2013.87 3509.53C2013.79 3509.53 2013.72 3509.61 2013.63 3509.61L2012.76 3487.21L2012.68 3484.26L2008.45 3375.19C2008.34 3372.72 2008.73 3370.25 2009.6 3367.94C2010.46 3365.62 2011.79 3363.51 2013.49 3361.72C2015.2 3359.93 2017.25 3358.51 2019.52 3357.54C2021.79 3356.56 2024.24 3356.06 2026.71 3356.05H2067.13C2069.12 3356.05 2070.56 3360.12 2071.52 3367.46V3367.54C2073.48 3398.15 2073.4 3428.86 2071.28 3459.46Z" fill="#141414"/>
<path d="M1783.81 2933.47V3059.45H1812.97L1850.09 3019.68L1845.12 3059.45H1974.04L1966.07 3019.68L1982.01 3059.45H2002.57V2933.47H1783.81Z" fill="#141414"/>
<path d="M1763.93 3082.62C1769.42 3082.62 1773.87 3074.46 1773.87 3064.39C1773.87 3054.32 1769.42 3046.16 1763.93 3046.16C1758.43 3046.16 1753.98 3054.32 1753.98 3064.39C1753.98 3074.46 1758.43 3082.62 1763.93 3082.62Z" fill="#A0616A"/>
<path d="M2019.13 3082.62C2024.62 3082.62 2029.07 3074.46 2029.07 3064.39C2029.07 3054.32 2024.62 3046.16 2019.13 3046.16C2013.64 3046.16 2009.18 3054.32 2009.18 3064.39C2009.18 3074.46 2013.64 3082.62 2019.13 3082.62Z" fill="#A0616A"/>
<path d="M2143.91 3442.64C2137.21 3447.66 2130.28 3452.61 2123.26 3457.23C2121.11 3458.67 2119.04 3460.02 2116.88 3461.3C2109.15 3466.24 2101.33 3470.86 2093.36 3475.25C2090.17 3477 2086.99 3478.68 2083.8 3480.35V3392.49C2083.8 3392.49 2096.55 3402.7 2116.88 3419.68C2119.43 3421.83 2122.06 3424.06 2124.86 3426.45C2130.75 3431.4 2137.13 3436.82 2143.91 3442.64Z" fill="#D17A22"/>
<path d="M2290.45 2956.13C2269.21 2895.12 2234.93 2839.48 2189.97 2793.08C2145.02 2746.68 2090.49 2710.65 2030.19 2687.5C1969.88 2664.34 1905.25 2654.62 1840.8 2659.01C1776.35 2663.4 1713.63 2681.79 1657.02 2712.91C1600.41 2744.03 1551.27 2787.13 1513.03 2839.19C1474.78 2891.25 1448.35 2951.03 1435.59 3014.36C1422.82 3077.68 1424.02 3143.03 1439.1 3205.85C1454.18 3268.66 1482.78 3327.43 1522.91 3378.06C1526.9 3383.08 1531.04 3388.11 1535.27 3392.97C1535.59 3393.29 1535.83 3393.61 1536.14 3393.93C1546.54 3405.9 1557.59 3417.29 1569.23 3428.05C1572.26 3430.84 1575.45 3433.71 1578.64 3436.42C1584.7 3441.84 1590.92 3447.03 1597.38 3451.97C1609.99 3461.91 1623.13 3471.14 1636.76 3479.64L1637.24 3479.87C1646.09 3485.38 1655.1 3490.48 1664.27 3495.34L1668.01 3497.26C1676.63 3501.72 1685.4 3505.95 1694.4 3509.85C1696.24 3510.65 1698.23 3511.45 1700.06 3512.24C1700.22 3512.32 1700.31 3512.32 1700.47 3512.4C1718.67 3519.97 1737.37 3526.29 1756.43 3531.3C1793.81 3541.26 1832.32 3546.3 1871 3546.29C1885.11 3546.29 1899.06 3545.65 1912.86 3544.3C1944.37 3541.39 1975.49 3535.11 2005.66 3525.56C2005.74 3525.56 2005.82 3525.48 2005.9 3525.48C2024.96 3519.41 2043.58 3512.03 2061.63 3503.39C2061.71 3503.32 2061.87 3503.32 2061.95 3503.24C2066.01 3501.32 2069.92 3499.25 2073.91 3497.26L2075.82 3496.3C2079.01 3494.62 2082.2 3492.95 2085.39 3491.2C2093.36 3486.81 2101.18 3482.19 2108.91 3477.24C2111.06 3475.97 2113.13 3474.61 2115.29 3473.18C2122.3 3468.55 2129.24 3463.61 2135.94 3458.59C2137.13 3457.71 2138.41 3456.83 2139.61 3455.88C2214.3 3399.18 2269.12 3320.29 2296.22 3230.51C2323.32 3140.74 2321.3 3044.69 2290.45 2956.13ZM2124.93 3436.5C2122.3 3438.57 2119.59 3440.57 2116.88 3442.4C2114.25 3444.39 2111.62 3446.31 2108.91 3448.06C2106.6 3449.74 2104.29 3451.33 2101.89 3452.85C2099.9 3454.2 2097.91 3455.48 2095.91 3456.75C2089.3 3460.9 2082.6 3464.89 2075.82 3468.71L2073.67 3469.91C2070.64 3471.58 2067.61 3473.18 2064.58 3474.77C2064.18 3475.01 2063.7 3475.17 2063.31 3475.41L2062.83 3475.65C2059 3477.64 2055.1 3479.56 2051.19 3481.39C2036.11 3488.65 2020.59 3494.93 2004.7 3500.21C2002.63 3500.92 2000.56 3501.64 1998.49 3502.28C1969.93 3511.36 1940.47 3517.35 1910.63 3520.14C1897.55 3521.33 1884.31 3521.97 1871 3521.97C1834.42 3522.05 1797.98 3517.27 1762.65 3507.78C1744.52 3503.05 1726.75 3497.02 1709.47 3489.76C1707.64 3489.04 1705.81 3488.25 1704.05 3487.53C1703.1 3487.13 1702.22 3486.73 1701.26 3486.25C1693.77 3482.98 1686.35 3479.4 1679.1 3475.65L1675.59 3473.81C1666.74 3469.19 1658.05 3464.25 1649.6 3458.99C1646.49 3457.07 1643.38 3455.08 1640.35 3453.01C1630.78 3446.71 1621.45 3439.93 1612.36 3432.83C1606.23 3428.21 1600.33 3423.27 1594.59 3418.16C1591.56 3415.61 1588.61 3412.82 1585.74 3410.19C1574.43 3399.75 1563.73 3388.68 1553.69 3377.02C1550.34 3373.2 1547.07 3369.37 1543.96 3365.38C1543.25 3364.59 1542.58 3363.77 1541.96 3362.91C1490.16 3297.54 1459 3218.22 1452.46 3135.07C1445.92 3051.93 1464.3 2968.71 1505.24 2896.05C1546.18 2823.38 1607.84 2764.56 1682.35 2727.08C1756.86 2689.6 1840.84 2675.16 1923.59 2685.6C2006.34 2696.05 2084.1 2730.91 2146.96 2785.73C2209.81 2840.55 2254.92 2912.85 2276.52 2993.41C2298.12 3073.97 2295.24 3159.14 2268.24 3238.05C2241.25 3316.97 2191.35 3386.06 2124.93 3436.5Z" fill="#D17A22"/>
<path d="M1873.51 4839.5C1969.62 4839.5 2047.53 4761.59 2047.53 4665.48C2047.53 4569.37 1969.62 4491.46 1873.51 4491.46C1777.4 4491.46 1699.49 4569.37 1699.49 4665.48C1699.49 4761.59 1777.4 4839.5 1873.51 4839.5Z" fill="#141414"/>
<path d="M1737.68 4571.65C1765.8 4543.53 1771.5 4503.64 1750.41 4482.55C1729.32 4461.46 1689.42 4467.16 1661.3 4495.28C1633.18 4523.4 1627.48 4563.29 1648.57 4584.38C1669.67 4605.47 1709.56 4599.78 1737.68 4571.65Z" fill="#141414"/>
<path d="M2054.88 4516.39C2066.6 4488.96 2046.45 4454.06 2009.88 4438.44C1973.31 4422.82 1934.16 4432.39 1922.44 4459.82C1910.73 4487.25 1930.88 4522.15 1967.45 4537.77C2004.02 4553.39 2043.17 4543.82 2054.88 4516.39Z" fill="#141414"/>
<path d="M2081.66 5003.04L2061.16 4970.78C2052.46 4951.34 2036.41 4936.15 2016.53 4928.52C1996.65 4920.89 1974.56 4921.46 1955.09 4930.09C1935.63 4938.72 1920.37 4954.71 1912.68 4974.56C1904.98 4994.41 1905.46 5016.51 1914.02 5036.01L1919.85 5056.91L1926.48 5080.63C1953.35 5077.24 1979.85 5071.45 2005.68 5063.34C2005.76 5063.33 2005.83 5063.3 2005.88 5063.24C2024.97 5057.2 2043.62 5049.81 2061.66 5041.13C2061.76 5041.03 2061.86 5041.03 2061.96 5040.93C2065.98 5039.02 2069.9 5037.01 2073.92 5035C2074.58 5034.71 2075.22 5034.37 2075.83 5034C2079.05 5032.39 2082.26 5030.68 2085.38 5028.97C2088.6 5027.26 2091.71 5025.45 2094.72 5023.54L2081.66 5003.04Z" fill="#CACACA"/>
<path d="M1879.03 4854.72C1960.59 4854.72 2026.72 4788.59 2026.72 4707.03C2026.72 4625.46 1960.59 4559.34 1879.03 4559.34C1797.46 4559.34 1731.34 4625.46 1731.34 4707.03C1731.34 4788.59 1797.46 4854.72 1879.03 4854.72Z" fill="#FFB6B6"/>
<path d="M2092.32 4996.71C2076.02 4969.62 2055.8 4945.09 2032.31 4923.94C2016.22 4909.56 1995.4 4901.62 1973.82 4901.63H1765.78C1753.79 4901.62 1741.93 4904.08 1730.92 4908.84C1719.92 4913.6 1710.01 4920.57 1701.81 4929.31C1693.6 4938.05 1687.28 4948.38 1683.23 4959.66C1679.17 4970.94 1677.47 4982.93 1678.24 4994.9C1678.69 5001.65 1679.91 5008.32 1681.86 5014.8C1683.34 5019.49 1685.19 5024.06 1687.38 5028.47L1697.64 5048.97C1698.44 5049.27 1699.25 5049.67 1700.05 5049.98C1700.25 5050.08 1700.35 5050.08 1700.45 5050.18C1704.67 5051.89 1708.89 5053.59 1713.21 5055.2C1727.35 5060.61 1741.78 5065.24 1756.43 5069.07C1780.01 5075.4 1804.08 5079.74 1828.39 5082.04C1842.56 5083.34 1856.73 5084.05 1871 5084.05C1885.18 5084.05 1899.04 5083.34 1912.91 5082.04C1917.44 5081.64 1921.96 5081.13 1926.48 5080.63C1953.34 5077.24 1979.85 5071.45 2005.68 5063.34C2005.75 5063.33 2005.83 5063.3 2005.88 5063.24C2024.97 5057.2 2043.61 5049.81 2061.66 5041.13C2061.76 5041.03 2061.86 5041.03 2061.96 5040.93C2065.98 5039.02 2069.9 5037.01 2073.92 5035C2074.58 5034.71 2075.21 5034.37 2075.83 5034C2079.04 5032.39 2082.26 5030.68 2085.38 5028.97C2088.59 5027.26 2091.71 5025.45 2094.72 5023.54C2097.94 5021.83 2100.96 5019.92 2104.07 5018.02C2100.26 5010.48 2096.33 5003.44 2092.32 4996.71Z" fill="#D17A22"/>
<path d="M1803.46 4928.57C1784.21 4919.56 1762.18 4918.54 1742.18 4925.74C1722.18 4932.93 1705.84 4947.75 1696.73 4966.96L1678.24 4994.9L1669.39 5008.27L1655.93 5028.57C1658.74 5030.08 1661.45 5031.58 1664.27 5033.09L1667.99 5035C1676.63 5039.42 1685.37 5043.64 1694.42 5047.56C1695.42 5048.07 1696.53 5048.47 1697.64 5048.97C1698.44 5049.27 1699.25 5049.67 1700.05 5049.98C1700.25 5050.08 1700.35 5050.08 1700.45 5050.18C1704.67 5051.89 1708.89 5053.59 1713.21 5055.2C1727.35 5060.61 1741.78 5065.24 1756.43 5069.07C1780.01 5075.4 1804.08 5079.74 1828.39 5082.04L1835.43 5058.22L1842.26 5035.5C1851.27 5016.17 1852.25 4994.06 1844.97 4974.01C1837.7 4953.96 1822.77 4937.62 1803.46 4928.57Z" fill="#D17A22"/>
<path d="M1723.84 4614.13C1757.59 4637.39 1797.65 4649.77 1838.64 4649.61C1824.02 4659.74 1807.37 4666.59 1789.85 4669.68C1844.35 4681.37 1900.67 4681.68 1955.29 4670.61C1967.44 4668.66 1979.15 4664.64 1989.93 4658.71C1995.3 4655.71 1999.98 4651.62 2003.66 4646.69C2007.34 4641.77 2009.95 4636.12 2011.3 4630.12C2014.93 4609.38 1998.78 4590.54 1981.98 4577.85C1956.28 4558.7 1926.63 4545.52 1895.2 4539.23C1863.77 4532.95 1831.33 4533.74 1800.24 4541.53C1779.53 4545.7 1760.68 4556.35 1746.42 4571.95C1739.52 4579.89 1735.35 4589.83 1734.54 4600.32C1733.72 4610.8 1736.3 4621.27 1741.89 4630.18L1723.84 4614.13Z" fill="#141414"/>
<path d="M2290.51 4493.87C2269.27 4432.86 2234.99 4377.21 2190.04 4330.8C2145.09 4284.4 2090.55 4248.36 2030.24 4225.2C1969.93 4202.04 1905.3 4192.32 1840.84 4196.7C1776.39 4201.09 1713.67 4219.49 1657.05 4250.61C1600.44 4281.73 1551.29 4324.83 1513.05 4376.9C1474.8 4428.96 1448.37 4488.75 1435.61 4552.08C1422.84 4615.41 1424.04 4680.76 1439.13 4743.58C1454.22 4806.4 1482.83 4865.17 1522.96 4915.8C1526.88 4920.82 1531.1 4925.85 1535.32 4930.67C1535.57 4931.03 1535.83 4931.37 1536.13 4931.68C1546.54 4943.65 1557.61 4955.02 1569.29 4965.75C1572.31 4968.57 1575.42 4971.48 1578.64 4974.19C1584.67 4979.62 1590.9 4984.75 1597.43 4989.67C1599.94 4991.68 1602.46 4993.69 1605.07 4995.6C1615.22 5003.34 1625.88 5010.48 1636.73 5017.41C1636.92 5017.41 1637.09 5017.49 1637.23 5017.61C1640.35 5019.52 1643.57 5021.43 1646.78 5023.24C1649.79 5025.05 1652.91 5026.86 1655.93 5028.57C1658.74 5030.07 1661.45 5031.58 1664.27 5033.09L1667.99 5035C1676.63 5039.42 1685.37 5043.64 1694.42 5047.56C1695.42 5048.07 1696.53 5048.47 1697.64 5048.97C1698.44 5049.27 1699.25 5049.67 1700.05 5049.98C1700.25 5050.08 1700.35 5050.08 1700.45 5050.18C1704.67 5051.89 1708.89 5053.59 1713.21 5055.2C1727.35 5060.61 1741.78 5065.24 1756.43 5069.07C1780.01 5075.4 1804.08 5079.74 1828.39 5082.04C1842.56 5083.34 1856.73 5084.05 1871 5084.05C1885.18 5084.05 1899.05 5083.34 1912.91 5082.04C1917.44 5081.63 1921.96 5081.13 1926.48 5080.63C1953.34 5077.24 1979.85 5071.45 2005.68 5063.34C2005.76 5063.33 2005.83 5063.3 2005.88 5063.24C2024.97 5057.2 2043.61 5049.81 2061.66 5041.13C2061.76 5041.03 2061.86 5041.03 2061.96 5040.93C2065.98 5039.02 2069.9 5037.01 2073.92 5035C2074.58 5034.7 2075.21 5034.37 2075.83 5033.99C2079.04 5032.39 2082.26 5030.68 2085.38 5028.97C2088.59 5027.26 2091.71 5025.45 2094.72 5023.54C2097.94 5021.83 2100.96 5019.92 2104.07 5018.01C2105.68 5017.01 2107.29 5016 2108.9 5015C2111.11 5013.69 2113.12 5012.39 2115.33 5010.88C2118.34 5008.97 2121.36 5006.86 2124.27 5004.75C2128.19 5002.03 2132.11 4999.22 2135.93 4996.3C2137.22 4995.47 2138.46 4994.56 2139.65 4993.59C2214.29 4936.85 2269.07 4857.97 2296.17 4768.21C2323.26 4678.46 2321.28 4582.43 2290.51 4493.87ZM2124.98 4974.19C2122.36 4976.3 2119.65 4978.31 2116.94 4980.12C2114.22 4982.13 2111.61 4984.04 2108.9 4985.85C2106.59 4987.46 2104.27 4989.07 2101.86 4990.58C2101.65 4990.77 2101.41 4990.94 2101.16 4991.08C2099.45 4992.29 2097.64 4993.39 2095.93 4994.5C2094.72 4995.2 2093.52 4996 2092.31 4996.71C2088.8 4998.92 2085.28 5001.03 2081.66 5003.04C2079.75 5004.25 2077.74 5005.35 2075.83 5006.46C2075.13 5006.86 2074.42 5007.26 2073.72 5007.66C2070.6 5009.37 2067.59 5010.88 2064.57 5012.49C2064.18 5012.79 2063.67 5012.89 2063.37 5013.19C2063.18 5013.19 2063 5013.27 2062.86 5013.39C2059.05 5015.4 2055.13 5017.31 2051.21 5019.12C2036.12 5026.38 2020.57 5032.66 2004.67 5037.91C2002.67 5038.62 2000.56 5039.42 1998.54 5040.03C1972.91 5048.16 1946.56 5053.81 1919.85 5056.91C1916.83 5057.31 1913.72 5057.61 1910.6 5057.92C1897.54 5059.12 1884.37 5059.72 1871.01 5059.72C1859.14 5059.72 1847.18 5059.22 1835.43 5058.22C1810.84 5056.17 1786.49 5051.93 1762.66 5045.55C1744.53 5040.83 1726.76 5034.78 1709.5 5027.46C1708.59 5027.06 1707.69 5026.76 1706.78 5026.36C1705.78 5025.95 1704.97 5025.65 1704.07 5025.25C1703.06 5024.85 1702.26 5024.45 1701.25 5023.94C1694.72 5021.13 1688.19 5018.01 1681.86 5014.8C1680.95 5014.3 1680.05 5013.89 1679.15 5013.39L1675.63 5011.58C1673.52 5010.48 1671.41 5009.37 1669.4 5008.27C1662.66 5004.65 1656.03 5000.73 1649.6 4996.71C1647.18 4995.2 1644.57 4993.59 1642.16 4991.98L1640.35 4990.78C1634.72 4986.96 1629.1 4983.14 1623.56 4979.02C1619.84 4976.2 1616.03 4973.49 1612.41 4970.58C1606.28 4965.95 1600.35 4961.03 1594.62 4955.9C1591.6 4953.39 1588.59 4950.57 1585.78 4947.96C1574.46 4937.53 1563.76 4926.46 1553.72 4914.79C1550.4 4910.98 1547.08 4907.16 1543.97 4903.14C1543.26 4902.33 1542.66 4901.53 1541.95 4900.62C1490.14 4835.25 1458.97 4755.92 1452.43 4672.76C1445.88 4589.6 1464.25 4506.38 1505.19 4433.7C1546.14 4361.02 1607.8 4302.19 1682.32 4264.7C1756.83 4227.21 1840.83 4212.76 1923.59 4223.21C2006.35 4233.65 2084.12 4268.51 2146.99 4323.33C2209.86 4378.16 2254.97 4450.47 2276.58 4531.04C2298.19 4611.61 2295.3 4696.79 2268.3 4775.72C2241.3 4854.64 2191.41 4923.74 2124.98 4974.19Z" fill="#D17A22"/>
<path d="M2614.07 2323.82C2459.41 2193.31 2270.16 2110.58 2069.34 2085.67C1868.53 2060.77 1664.8 2094.77 1482.95 2183.55C1301.11 2272.32 1148.99 2412.04 1045.1 2585.69C941.206 2759.35 890.028 2959.46 897.791 3161.67C905.554 3363.88 971.922 3559.48 1088.82 3724.66C1205.72 3889.84 1368.1 4017.48 1556.22 4092.05C1744.34 4166.62 1950.07 4184.9 2148.39 4144.68C2346.71 4104.45 2529.06 4007.45 2673.25 3865.47L3953.67 4945.91C3973.16 4962.29 3998.36 4970.28 4023.73 4968.12C4049.1 4965.96 4072.58 4953.83 4089.02 4934.38C4105.46 4914.93 4113.52 4889.76 4111.43 4864.38C4109.34 4839 4097.28 4815.49 4077.88 4798.99L4077.74 4798.87L2797.32 3718.43C2946.06 3504.95 3009.72 3243.61 2975.82 2985.63C2941.93 2727.65 2812.91 2491.63 2614.07 2323.82ZM2531.52 3614.39C2431.77 3732.61 2299.21 3818.6 2150.59 3861.47C2001.97 3904.35 1843.98 3902.19 1696.59 3855.27C1549.2 3808.35 1419.03 3718.78 1322.55 3597.88C1226.06 3476.98 1167.59 3330.19 1154.53 3176.06C1141.48 3021.93 1174.42 2867.39 1249.19 2731.98C1323.96 2596.57 1437.2 2486.37 1574.6 2415.33C1712 2344.28 1867.38 2315.57 2021.09 2332.83C2174.8 2350.1 2319.94 2412.55 2438.16 2512.31C2596.68 2646.07 2695.58 2837.33 2713.08 3044.01C2730.59 3250.69 2665.28 3455.87 2531.52 3614.39Z" fill="#D17A22"/>
<path opacity="0.3" d="M1429.46 3707.76C1279.43 3581.15 1182.5 3402.75 1157.91 3207.97C1133.33 3013.2 1182.89 2816.31 1296.75 2656.38C1281.8 2671.44 1267.34 2687.21 1253.38 2703.7C1187.15 2782.19 1137.03 2872.96 1105.88 2970.83C1074.73 3068.7 1063.15 3171.74 1071.82 3274.08C1080.49 3376.42 1109.23 3476.05 1156.41 3567.28C1203.58 3658.51 1268.26 3739.55 1346.75 3805.79C1425.24 3872.02 1516.01 3922.14 1613.88 3953.3C1711.74 3984.45 1814.78 3996.02 1917.12 3987.35C2019.45 3978.68 2119.08 3949.94 2210.31 3902.77C2301.54 3855.59 2382.58 3790.91 2448.81 3712.42C2462.74 3695.91 2475.85 3679.01 2488.16 3661.71C2349.67 3800.86 2163.93 3882.83 1967.8 3891.37C1771.67 3899.9 1579.51 3834.36 1429.46 3707.76Z" fill="black"/>
<path d="M5195.39 4986.3C5205.4 4974.09 5212.6 4959.84 5216.49 4944.54C5220.39 4929.24 5220.89 4913.28 5217.95 4897.77C5215.01 4882.26 5208.7 4867.59 5199.48 4854.78C5190.25 4841.97 5178.33 4831.34 5164.55 4823.64L4931.16 3868.34L4760.9 3922.69L5012.92 4871.47C5001.52 4895.48 4999.31 4922.83 5006.73 4948.35C5014.14 4973.87 5030.66 4995.78 5053.16 5009.94C5075.65 5024.09 5102.55 5029.5 5128.76 5025.15C5154.98 5020.79 5178.69 5006.97 5195.39 4986.3Z" fill="#FFB6B6"/>
<path d="M5074.76 4375.25L4950.34 4482.59L4776.27 4632.65L4699.38 4239.27L4691.34 4198.37L4685.01 4165.9L4861.39 3858.66L5008.43 3867.09L5018.48 3867.69L5018.68 3869.91L5020.99 3890.52L5051.14 4161.67L5051.85 4168.22L5074.76 4375.25Z" fill="#D17A22"/>
<path d="M4261.5 7045.45L4138.29 7045.44L4079.66 6570.16L4261.53 6570.17L4261.5 7045.45Z" fill="#FFB6B6"/>
<path d="M4292.92 7164.89L3895.62 7164.87V7159.85C3895.63 7118.84 3911.92 7079.5 3940.92 7050.5C3969.92 7021.5 4009.25 7005.21 4050.26 7005.21H4050.27L4292.93 7005.22L4292.92 7164.89Z" fill="#141414"/>
<path d="M5547.94 7055.5L5424.74 7055.49L5366.11 6580.21L5547.97 6580.23L5547.94 7055.5Z" fill="#FFB6B6"/>
<path d="M5579.37 7174.94L5182.07 7174.92V7169.9C5182.08 7128.88 5198.37 7089.55 5227.37 7060.55C5256.37 7031.55 5295.7 7015.26 5336.71 7015.26H5336.72L5579.38 7015.27L5579.37 7174.94Z" fill="#141414"/>
<path d="M5646.43 6866.3L5314.77 6916.55L4832.25 5283.53L4319.78 6926.6L3947.91 6876.35L4430.33 4966.73V4815.97L4495.66 4589.83L4488.82 4528.63L4441.29 4100.57L4420.68 3914.93L4419.35 3902.94C4418.23 3892.88 4420.89 3882.76 4426.83 3874.55C4432.76 3866.35 4441.53 3860.64 4451.44 3858.55L4606.21 3825.99H4859.18L5008.43 3867.09L5018.68 3869.91L5023.3 3871.21L5020.99 3890.51L4986.02 4183.79L4984.11 4199.87L4950.34 4482.59L4942.9 4544.61C5234.36 4755.67 5244.41 4966.73 5244.41 4966.73L5646.43 6866.3Z" fill="#141414"/>
<path d="M4702.13 3698.83C4838.46 3698.83 4948.98 3588.31 4948.98 3451.98C4948.98 3315.64 4838.46 3205.12 4702.13 3205.12C4565.8 3205.12 4455.28 3315.64 4455.28 3451.98C4455.28 3588.31 4565.8 3698.83 4702.13 3698.83Z" fill="#FFB6B6"/>
<path d="M4961.4 4487.88L4473.08 4551.74L4482.21 4621.5L4970.52 4557.64L4961.4 4487.88Z" fill="#D17A22"/>
<path d="M3818.09 4572.77C3822.76 4575.79 3827.18 4579.18 3831.32 4582.89L4314.3 4459.77L4347.25 4343.25L4529.6 4369.99L4491.31 4581.94C4488.22 4599.06 4479.66 4614.72 4466.91 4626.56C4454.16 4638.4 4437.91 4645.78 4420.61 4647.61L3856.67 4707C3847.48 4726.35 3832.62 4742.44 3814.05 4753.14C3795.49 4763.84 3774.11 4768.63 3752.76 4766.88C3731.41 4765.13 3711.09 4756.92 3694.52 4743.35C3677.95 4729.77 3665.9 4711.47 3659.98 4690.88C3654.06 4670.29 3654.55 4648.39 3661.38 4628.08C3668.22 4607.77 3681.07 4590.03 3698.24 4577.21C3715.4 4564.39 3736.06 4557.1 3757.47 4556.3C3778.88 4555.51 3800.02 4561.25 3818.09 4572.77Z" fill="#FFB6B6"/>
<path d="M4560.99 3921.47L4475.56 3856.14C4452.46 3847.38 4420.81 3872.27 4415.26 3896.34L4294.65 4388.82L4545.91 4569.73L4581.09 4514.46L4560.99 3921.47Z" fill="#D17A22"/>
<g opacity="0.2">
<path d="M5051.14 4161.68C5029.82 4170.14 5008.09 4177.52 4986.02 4183.79C4978.98 4185.9 4971.75 4187.91 4964.61 4189.82C4917.57 4202.87 4869.24 4210.69 4820.49 4213.14C4799.5 4214.02 4778.48 4213.45 4757.57 4211.43C4735.13 4209.19 4712.95 4204.82 4691.34 4198.36C4690.64 4198.16 4689.83 4197.96 4689.13 4197.76C4644.19 4185 4602.99 4161.59 4569.03 4129.51C4561.44 4122.12 4554.35 4114.23 4547.82 4105.9C4529.05 4082.91 4515.28 4056.26 4507.39 4027.66C4499.5 3999.05 4497.66 3969.12 4501.99 3939.76C4502.83 3934.44 4503.97 3929.17 4505.41 3923.98C4509.2 3909.84 4514.21 3896.05 4520.38 3882.77C4523.1 3876.54 4526.11 3870.41 4529.33 3864.38L4642.9 3825.99H4859.18L5008.43 3867.09L5018.48 3867.7L5018.68 3869.91L5023.3 3871.21L5020.99 3890.51L5051.14 4161.68Z" fill="black"/>
</g>
<path d="M4512.98 3247.61C4466.81 3241.95 4416.15 3245.95 4380.17 3275.42C4344.19 3304.89 4332.57 3366.16 4366.64 3397.82C4396.8 3425.85 4443.96 3419.26 4484.36 3427.23C4519.16 3435.03 4550.34 3454.28 4572.9 3481.9C4595.47 3509.52 4608.11 3543.91 4608.82 3579.56C4608.22 3681.82 4510.08 3759.26 4492.46 3859.99C4480.43 3928.73 4509.42 4001.08 4559.54 4049.64C4609.67 4098.2 4678.57 4124.44 4748 4131.55C4817.42 4138.66 4887.62 4127.8 4955.09 4109.96C5022.84 4092.05 5089.54 4066.64 5146.39 4025.66C5203.24 3984.68 5249.84 3926.9 5268.1 3859.24C5286.35 3791.58 5273.24 3714 5226.21 3662.05C5172.35 3602.56 5082.74 3582.1 5036.16 3516.76C4983.93 3443.52 5003.26 3339.21 4960.99 3259.79C4932.77 3206.78 4879.33 3170.61 4822.37 3151.56C4765.41 3132.51 4704.59 3128.75 4644.56 3126.91C4613.01 3125.94 4580.49 3125.62 4551.09 3137.12C4521.69 3148.62 4495.85 3174.84 4494.32 3206.37C4492.8 3237.91 4512.98 3247.61 4512.98 3247.61Z" fill="#141414"/>
<path d="M6823.95 7179H2994.75C2992.09 7179 2989.53 7177.94 2987.65 7176.06C2985.76 7174.17 2984.7 7171.61 2984.7 7168.95C2984.7 7166.28 2985.76 7163.73 2987.65 7161.84C2989.53 7159.96 2992.09 7158.9 2994.75 7158.9H6823.95C6826.62 7158.9 6829.17 7159.96 6831.06 7161.84C6832.94 7163.73 6834 7166.28 6834 7168.95C6834 7171.61 6832.94 7174.17 6831.06 7176.06C6829.17 7177.94 6826.62 7179 6823.95 7179Z" fill="#141414"/>
</g>
<defs>
<clipPath id="clip0_52_377">
<rect width="5937" height="6627" fill="white" transform="translate(897 552)"/>
</clipPath>
</defs>
</svg>
