<svg width="7731" height="7731" viewBox="0 0 7731 7731" fill="none" xmlns="http://www.w3.org/2000/svg">
<g clip-path="url(#clip0_53_584)">
<path d="M382.521 5437.34C233.27 5564.61 202.292 5773.35 202.292 5773.35C202.292 5773.35 413.297 5775.75 562.548 5648.48C711.799 5521.21 742.777 5312.47 742.777 5312.47C742.777 5312.47 531.772 5310.07 382.521 5437.34Z" fill="#EFEFEF"/>
<path d="M451.489 5487.98C387.913 5673.54 205.134 5779 205.134 5779C205.134 5779 125.431 5583.6 189.007 5398.04C252.582 5212.48 435.361 5107.02 435.361 5107.02C435.361 5107.02 515.064 5302.42 451.489 5487.98Z" fill="#EFEFEF"/>
<path d="M2009.37 2742.59C1975.6 2698.83 1927.87 2658.34 1924.85 2604.35C1922.08 2554.82 1959.01 2505.65 1943.43 2458.27C1931.46 2421.83 1891.95 2399.85 1853.35 2388.21C1779.44 2366.24 1700.35 2369.29 1628.35 2396.87L1632.26 2394.12C1588.31 2378.46 1536.95 2394.62 1502.37 2424.56C1467.8 2454.49 1447.25 2495.98 1431.3 2537.55C1415.36 2579.13 1403 2622.23 1380.85 2661.2C1358.69 2700.18 1324.77 2735.63 1280.02 2749.1C1295 2778.99 1341.84 2789.24 1369.31 2768.65C1376.33 2762.95 1382.63 2756.43 1388.1 2749.22C1406.42 2726.94 1424.74 2704.67 1443.06 2682.39C1461.91 2715.92 1433.75 2762.19 1456.92 2793.23C1468.87 2809.24 1490.69 2815.32 1510.96 2819.68C1669.37 2853.48 1833.7 2847.39 1989.17 2801.94C2001.67 2798.26 2015.45 2793.19 2020.63 2781.88C2026.62 2768.82 2018.25 2754.1 2009.37 2742.59Z" fill="#141414"/>
<path d="M2458.53 2913.37C2457.54 2917.71 2456.9 2922.13 2456.61 2926.59L2110.37 3126.34L2026.21 3077.89L1936.49 3195.34L2077.14 3295.59C2088.51 3303.69 2102.19 3307.89 2116.14 3307.55C2130.09 3307.21 2143.55 3302.35 2154.5 3293.71L2511.53 3012.03C2527.65 3018 2545.19 3018.92 2561.84 3014.67C2578.49 3010.41 2593.45 3001.19 2604.73 2988.23C2616.01 2975.27 2623.07 2959.19 2624.99 2942.11C2626.9 2925.04 2623.57 2907.78 2615.44 2892.65C2607.31 2877.51 2594.76 2865.21 2579.47 2857.38C2564.18 2849.55 2546.86 2846.56 2529.83 2848.8C2512.8 2851.05 2496.85 2858.44 2484.12 2869.97C2471.38 2881.5 2462.46 2896.64 2458.53 2913.37Z" fill="#FFB7B7"/>
<path d="M2098.79 3135.8L1986.89 3280.84C1983.71 3284.96 1979.67 3288.35 1975.06 3290.78C1970.44 3293.21 1965.36 3294.61 1960.16 3294.89C1954.95 3295.18 1949.75 3294.34 1944.9 3292.43C1940.05 3290.52 1935.67 3287.59 1932.05 3283.84L1805.37 3152.28C1784.32 3135.88 1770.64 3111.8 1767.32 3085.32C1764.01 3058.84 1771.34 3032.13 1787.71 3011.05C1804.07 2989.97 1828.13 2976.25 1854.6 2972.89C1881.07 2969.53 1907.79 2976.81 1928.9 2993.14L2087.79 3081.99C2092.34 3084.53 2096.28 3088.03 2099.36 3092.24C2102.44 3096.44 2104.57 3101.27 2105.61 3106.37C2106.66 3111.48 2106.59 3116.75 2105.41 3121.83C2104.24 3126.91 2101.98 3131.67 2098.79 3135.8Z" fill="#D17A22"/>
<path d="M1944.79 5662.91L2043.6 5662.9L2090.61 5281.74L1944.77 5281.75L1944.79 5662.91Z" fill="#FFB7B7"/>
<path d="M1919.58 5630.64L2114.18 5630.63H2114.19C2147.08 5630.63 2178.62 5643.7 2201.88 5666.96C2225.13 5690.22 2238.2 5721.76 2238.2 5754.65V5758.68L1919.59 5758.69L1919.58 5630.64Z" fill="#141414"/>
<path d="M1267.74 5662.91L1366.56 5662.9L1413.57 5281.74L1267.73 5281.75L1267.74 5662.91Z" fill="#FFB7B7"/>
<path d="M1242.54 5630.64L1437.14 5630.63H1437.15C1470.04 5630.63 1501.58 5643.7 1524.84 5666.96C1548.09 5690.22 1561.16 5721.76 1561.16 5754.65V5758.68L1242.54 5758.69L1242.54 5630.64Z" fill="#141414"/>
<path d="M1885.44 2688.71C1895.73 2594.95 1828.08 2510.61 1734.32 2500.31C1640.57 2490.02 1556.22 2557.68 1545.93 2651.44C1535.64 2745.2 1603.3 2829.54 1697.05 2839.84C1790.81 2850.13 1875.15 2782.47 1885.44 2688.71Z" fill="#FFB7B7"/>
<path d="M1815.61 2926.1L1916.22 2975.94C1916.22 2975.94 2028.63 3171.3 1964.15 3356.68C1932.84 3446.69 2021 3733.61 2021 3733.61C2021 3733.61 2157.59 5033.23 2158.02 5434.34C1988.33 5460.43 1827.13 5492.67 1819.07 5412.07C1811.01 5331.47 1722.78 4378.44 1722.78 4378.44C1722.78 4378.44 1601.45 5436.25 1504.73 5452.37C1408 5468.49 1214.56 5444.31 1214.56 5444.31C1214.56 5444.31 1368.14 3894.82 1472.92 3798.09L1489.04 3717.49L1488.61 2993.97L1609.32 2936.36L1815.61 2926.1Z" fill="#141414"/>
<path d="M1455.71 4024.48C1466.84 4018.46 1476.52 4010.06 1484.06 3999.89C1491.6 3989.73 1496.81 3978.03 1499.34 3965.62C1501.87 3953.22 1501.65 3940.41 1498.69 3928.1C1495.74 3915.79 1490.12 3904.28 1482.23 3894.38L1599.24 3114.45L1446.37 3107.11L1355.17 3883.81C1339.41 3898.16 1329.46 3917.8 1327.22 3938.99C1324.97 3960.18 1330.57 3981.47 1342.96 3998.81C1355.35 4016.14 1373.68 4028.33 1394.46 4033.07C1415.24 4037.8 1437.03 4034.74 1455.71 4024.48Z" fill="#FFB7B7"/>
<path d="M1595.92 3309.87L1413.1 3298.33C1407.9 3298 1402.83 3296.55 1398.23 3294.09C1393.64 3291.62 1389.63 3288.2 1386.48 3284.05C1383.33 3279.89 1381.12 3275.11 1379.98 3270.02C1378.85 3264.93 1378.82 3259.66 1379.91 3254.56L1418 3075.94C1419.83 3049.34 1432.13 3024.54 1452.22 3006.99C1472.3 2989.44 1498.53 2980.57 1525.14 2982.33C1551.75 2984.09 1576.58 2996.33 1594.18 3016.37C1611.78 3036.41 1620.71 3062.61 1619.02 3089.23L1634.35 3270.63C1634.78 3275.82 1634.1 3281.05 1632.33 3285.95C1630.57 3290.86 1627.76 3295.32 1624.12 3299.05C1620.47 3302.77 1616.06 3305.67 1611.2 3307.53C1606.33 3309.4 1601.12 3310.2 1595.92 3309.87Z" fill="#D17A22"/>
<path d="M6648.6 2570.29H2605.74C2576.23 2570.29 2547.93 2582.02 2527.06 2602.89C2506.19 2623.76 2494.47 2652.06 2494.47 2681.57V4934.26C2494.47 4963.78 2506.19 4992.08 2527.06 5012.95C2547.93 5033.82 2576.23 5045.55 2605.74 5045.55H6648.6C6678.11 5045.55 6706.42 5033.82 6727.28 5012.95C6748.15 4992.08 6759.88 4963.78 6759.88 4934.26V2681.57C6759.88 2652.06 6748.15 2623.76 6727.28 2602.89C6706.42 2582.02 6678.11 2570.29 6648.6 2570.29Z" fill="#141414"/>
<path d="M6610.69 2766.96H2643.65V5004.86H6610.69V2766.96Z" fill="white"/>
<path d="M4623.78 2705.92C4646.25 2705.92 4664.47 2687.71 4664.47 2665.23C4664.47 2642.76 4646.25 2624.54 4623.78 2624.54C4601.31 2624.54 4583.09 2642.76 4583.09 2665.23C4583.09 2687.71 4601.31 2705.92 4623.78 2705.92Z" fill="white"/>
<path d="M5476.18 5004.86H2643.66V2766.96L5476.18 5004.86Z" fill="#D17A22"/>
<path d="M6871.26 4964.17H6484.1V4936.27C6484.1 4934.81 6483.52 4933.4 6482.48 4932.36C6481.45 4931.32 6480.04 4930.74 6478.57 4930.74H6345.83C6345.11 4930.74 6344.39 4930.88 6343.72 4931.16C6343.04 4931.44 6342.43 4931.85 6341.92 4932.36C6341.41 4932.88 6341 4933.48 6340.72 4934.16C6340.44 4934.83 6340.3 4935.55 6340.3 4936.27V4964.17H6257.34V4936.27C6257.34 4935.55 6257.2 4934.83 6256.92 4934.16C6256.64 4933.49 6256.23 4932.88 6255.72 4932.36C6255.21 4931.85 6254.6 4931.44 6253.93 4931.16C6253.26 4930.88 6252.54 4930.74 6251.81 4930.74H6119.07C6118.34 4930.74 6117.62 4930.88 6116.95 4931.16C6116.28 4931.44 6115.67 4931.85 6115.16 4932.36C6114.65 4932.88 6114.24 4933.49 6113.96 4934.16C6113.68 4934.83 6113.54 4935.55 6113.54 4936.27V4964.17H6030.58V4936.27C6030.58 4935.55 6030.43 4934.83 6030.16 4934.16C6029.88 4933.49 6029.47 4932.88 6028.96 4932.36C6028.44 4931.85 6027.83 4931.44 6027.16 4931.16C6026.49 4930.88 6025.77 4930.74 6025.05 4930.74H5892.31C5891.58 4930.74 5890.86 4930.88 5890.19 4931.16C5889.52 4931.44 5888.91 4931.85 5888.4 4932.36C5887.88 4932.88 5887.48 4933.49 5887.2 4934.16C5886.92 4934.83 5886.78 4935.55 5886.78 4936.27V4964.17H5803.81V4936.27C5803.81 4935.55 5803.67 4934.83 5803.39 4934.16C5803.12 4933.49 5802.71 4932.88 5802.19 4932.36C5801.68 4931.85 5801.07 4931.44 5800.4 4931.16C5799.73 4930.88 5799.01 4930.74 5798.28 4930.74H5665.54C5664.82 4930.74 5664.1 4930.88 5663.43 4931.16C5662.76 4931.44 5662.15 4931.85 5661.63 4932.36C5661.12 4932.88 5660.71 4933.48 5660.43 4934.16C5660.16 4934.83 5660.01 4935.55 5660.01 4936.27V4964.17H5577.05V4936.27C5577.05 4935.55 5576.91 4934.83 5576.63 4934.16C5576.35 4933.49 5575.95 4932.88 5575.43 4932.36C5574.92 4931.85 5574.31 4931.44 5573.64 4931.16C5572.97 4930.88 5572.25 4930.74 5571.52 4930.74H5438.78C5438.05 4930.74 5437.34 4930.88 5436.66 4931.16C5435.99 4931.44 5435.38 4931.85 5434.87 4932.36C5434.36 4932.88 5433.95 4933.49 5433.67 4934.16C5433.39 4934.83 5433.25 4935.55 5433.25 4936.27V4964.17H5350.29V4936.27C5350.29 4935.55 5350.15 4934.83 5349.87 4934.16C5349.59 4933.49 5349.18 4932.88 5348.67 4932.36C5348.15 4931.85 5347.54 4931.44 5346.87 4931.16C5346.2 4930.88 5345.48 4930.74 5344.76 4930.74H5212.02C5211.29 4930.74 5210.57 4930.88 5209.9 4931.16C5209.23 4931.44 5208.62 4931.85 5208.11 4932.36C5207.59 4932.88 5207.19 4933.49 5206.91 4934.16C5206.63 4934.83 5206.49 4935.55 5206.49 4936.27V4964.17H5123.53V4936.27C5123.53 4935.55 5123.38 4934.83 5123.1 4934.16C5122.83 4933.49 5122.42 4932.88 5121.91 4932.36C5121.39 4931.85 5120.78 4931.44 5120.11 4931.16C5119.44 4930.88 5118.72 4930.74 5117.99 4930.74H4078.2C4077.48 4930.74 4076.76 4930.88 4076.09 4931.16C4075.41 4931.44 4074.8 4931.85 4074.29 4932.36C4073.78 4932.88 4073.37 4933.49 4073.09 4934.16C4072.81 4934.83 4072.67 4935.55 4072.67 4936.27V4964.17H3989.71V4936.27C3989.71 4935.55 3989.57 4934.83 3989.29 4934.16C3989.01 4933.49 3988.6 4932.88 3988.09 4932.36C3987.58 4931.85 3986.97 4931.44 3986.29 4931.16C3985.62 4930.88 3984.9 4930.74 3984.18 4930.74H3851.44C3850.71 4930.74 3849.99 4930.88 3849.32 4931.16C3848.65 4931.44 3848.04 4931.85 3847.53 4932.36C3847.01 4932.88 3846.61 4933.49 3846.33 4934.16C3846.05 4934.83 3845.91 4935.55 3845.91 4936.27V4964.17H3762.95V4936.27C3762.95 4935.55 3762.8 4934.83 3762.53 4934.16C3762.25 4933.49 3761.84 4932.88 3761.33 4932.36C3760.81 4931.85 3760.2 4931.44 3759.53 4931.16C3758.86 4930.89 3758.14 4930.74 3757.42 4930.74H3624.68C3623.95 4930.74 3623.23 4930.88 3622.56 4931.16C3621.89 4931.44 3621.28 4931.85 3620.76 4932.36C3620.25 4932.88 3619.84 4933.49 3619.57 4934.16C3619.29 4934.83 3619.14 4935.55 3619.14 4936.27V4964.17H3536.18V4936.27C3536.18 4935.55 3536.04 4934.83 3535.76 4934.16C3535.48 4933.49 3535.08 4932.88 3534.56 4932.36C3534.05 4931.85 3533.44 4931.44 3532.77 4931.16C3532.1 4930.88 3531.38 4930.74 3530.65 4930.74H3397.91C3397.19 4930.74 3396.47 4930.88 3395.8 4931.16C3395.12 4931.44 3394.52 4931.85 3394 4932.36C3393.49 4932.88 3393.08 4933.49 3392.8 4934.16C3392.52 4934.83 3392.38 4935.55 3392.38 4936.27V4964.17H3309.42V4936.27C3309.42 4935.55 3309.28 4934.83 3309 4934.16C3308.72 4933.49 3308.31 4932.88 3307.8 4932.36C3307.29 4931.85 3306.68 4931.44 3306.01 4931.16C3305.33 4930.88 3304.62 4930.74 3303.89 4930.74H3171.15C3170.42 4930.74 3169.7 4930.88 3169.03 4931.16C3168.36 4931.44 3167.75 4931.85 3167.24 4932.36C3166.72 4932.88 3166.32 4933.49 3166.04 4934.16C3165.76 4934.83 3165.62 4935.55 3165.62 4936.27V4964.17H3082.66V4936.27C3082.66 4935.55 3082.51 4934.83 3082.24 4934.16C3081.96 4933.49 3081.55 4932.88 3081.04 4932.36C3080.52 4931.85 3079.91 4931.44 3079.24 4931.16C3078.57 4930.88 3077.85 4930.74 3077.13 4930.74H2944.39C2942.92 4930.74 2941.51 4931.32 2940.48 4932.36C2939.44 4933.4 2938.86 4934.81 2938.86 4936.27V4964.17H2855.89V4936.27C2855.89 4935.55 2855.75 4934.83 2855.47 4934.16C2855.19 4933.49 2854.79 4932.88 2854.27 4932.36C2853.76 4931.85 2853.15 4931.44 2852.48 4931.16C2851.81 4930.89 2851.09 4930.74 2850.36 4930.74H2717.62C2716.16 4930.74 2714.75 4931.32 2713.71 4932.36C2712.67 4933.4 2712.09 4934.81 2712.09 4936.27V4964.17H2457.67C2440.24 4964.17 2422.98 4967.6 2406.88 4974.27C2390.77 4980.94 2376.14 4990.72 2363.81 5003.05C2351.49 5015.38 2341.71 5030.01 2335.04 5046.11C2328.37 5062.22 2324.94 5079.48 2324.94 5096.91V5156.94C2324.94 5192.14 2338.92 5225.91 2363.81 5250.8C2388.71 5275.7 2422.47 5289.68 2457.67 5289.68H6871.26C6906.46 5289.68 6940.23 5275.7 6965.12 5250.8C6990.02 5225.91 7004 5192.14 7004 5156.94V5096.91C7004 5079.48 7000.57 5062.22 6993.9 5046.11C6987.23 5030.01 6977.45 5015.38 6965.12 5003.05C6952.8 4990.72 6938.16 4980.94 6922.06 4974.27C6905.95 4967.6 6888.69 4964.17 6871.26 4964.17Z" fill="#141414"/>
<path d="M4703.48 4711.41C4702.15 4714.56 4700.66 4717.64 4699.01 4720.63C4690.36 4736.6 4678.13 4750.36 4663.28 4760.83C4645.7 4773.2 4625.06 4780.51 4603.61 4781.95C4582.16 4783.4 4560.73 4778.92 4541.65 4769.02C4522.56 4759.11 4506.57 4744.16 4495.41 4725.78C4484.24 4707.41 4478.34 4686.32 4478.34 4664.82V4645.88H4494.42C4556.88 4686.26 4629.14 4708.91 4703.48 4711.41Z" fill="#141414"/>
<path d="M4932.9 4651.43V4664.82C4932.91 4690.91 4924.23 4716.26 4908.23 4736.86C4892.22 4757.46 4869.81 4772.14 4844.54 4778.58C4819.26 4785.03 4792.56 4782.86 4768.65 4772.44C4744.74 4762.01 4724.98 4743.91 4712.5 4721.01C4710.79 4717.94 4709.23 4714.79 4707.85 4711.56C4711.28 4711.65 4714.67 4711.7 4718.1 4711.7C4793.89 4711.79 4868.22 4690.93 4932.9 4651.43Z" fill="#141414"/>
<path d="M5091.05 3234.52C5087.52 3234 5083.95 3233.67 5080.38 3233.44C5120.98 3327.01 5123.79 3432.66 5088.23 3528.26C5091.8 3527.84 5095.33 3527.28 5098.85 3526.62C5133.28 3519.95 5164.23 3501.27 5186.18 3473.92C5208.13 3446.57 5219.66 3412.32 5218.73 3377.26C5217.79 3342.2 5204.44 3308.61 5181.06 3282.48C5157.68 3256.34 5125.78 3239.34 5091.05 3234.52Z" fill="#141414"/>
<path d="M4355.83 3233.44C4352.25 3233.67 4348.68 3234 4345.15 3234.52C4310.42 3239.34 4278.52 3256.34 4255.14 3282.48C4231.76 3308.62 4218.41 3342.2 4217.48 3377.26C4216.54 3412.32 4228.07 3446.57 4250.02 3473.92C4271.98 3501.27 4302.92 3519.95 4337.35 3526.62C4340.88 3527.28 4344.4 3527.84 4347.97 3528.26C4312.41 3432.66 4315.23 3327.01 4355.83 3233.44Z" fill="#141414"/>
<path d="M5091.05 3234.52C5052.32 3142.01 4980.58 3067.19 4889.78 3024.61C4798.98 2982.03 4695.59 2974.72 4599.7 3004.11C4503.81 3033.5 4422.26 3097.48 4370.91 3183.63C4319.56 3269.78 4302.06 3371.94 4321.81 3470.27C4341.57 3568.6 4397.17 3656.08 4477.81 3715.71C4558.45 3775.33 4658.38 3802.85 4758.18 3792.92C4857.97 3782.99 4950.52 3736.32 5017.83 3661.97C5085.14 3587.62 5122.41 3490.9 5122.41 3390.61C5122.39 3337.02 5111.73 3283.96 5091.05 3234.52ZM5088.23 3528.26C5053.84 3620.71 4986.09 3696.93 4898.33 3741.93C4810.56 3786.93 4709.13 3797.45 4614 3771.41C4518.87 3745.38 4436.92 3684.68 4384.3 3601.26C4331.68 3517.84 4312.18 3417.74 4329.65 3320.67C4347.12 3223.59 4400.3 3136.57 4478.7 3076.74C4557.11 3016.9 4655.07 2988.58 4753.31 2997.35C4851.55 3006.13 4942.95 3051.35 5009.52 3124.13C5076.09 3196.91 5113 3291.97 5113 3390.61C5112.99 3437.6 5104.6 3484.21 5088.23 3528.26Z" fill="#141414"/>
<path d="M4924.95 3298.93H4511.25C4489.43 3298.93 4468.5 3307.6 4453.07 3323.03C4437.64 3338.46 4428.98 3359.38 4428.98 3381.2C4428.98 3403.02 4437.64 3423.95 4453.07 3439.38C4468.5 3454.81 4489.43 3463.48 4511.25 3463.48H4924.95C4946.77 3463.48 4967.7 3454.81 4983.13 3439.38C4998.56 3423.95 5007.23 3403.02 5007.23 3381.2C5007.23 3359.38 4998.56 3338.46 4983.13 3323.03C4967.7 3307.6 4946.77 3298.93 4924.95 3298.93Z" fill="#141414"/>
<path d="M5088.23 4093.18C5086.72 4090.41 5085.17 4087.68 5083.57 4085C5083.53 4084.91 5083.48 4084.86 5083.43 4084.77C5046.44 4021.44 4993.62 3968.83 4930.15 3932.08C4866.69 3895.33 4794.76 3875.72 4721.43 3875.17C4648.1 3874.62 4575.88 3893.14 4511.87 3928.93C4447.86 3964.71 4394.25 4016.53 4356.31 4079.29C4318.37 4142.04 4297.4 4213.59 4295.45 4286.9C4293.51 4360.21 4310.66 4432.77 4345.22 4497.45C4379.78 4562.13 4430.57 4616.72 4492.6 4655.84C4554.62 4694.97 4625.75 4717.3 4699.01 4720.63C4703.48 4720.87 4707.99 4721.01 4712.5 4721.01C4714.39 4721.1 4716.22 4721.1 4718.1 4721.1C4793.68 4721.21 4867.89 4700.92 4932.9 4662.38C5003.51 4620.59 5060.55 4559.28 5097.16 4485.84C5097.2 4485.75 5097.25 4485.7 5097.3 4485.61C5098.71 4482.79 5100.07 4479.92 5101.44 4477C5129.71 4416.53 5143.26 4350.22 5140.96 4283.51C5138.66 4216.79 5120.59 4151.57 5088.23 4093.18ZM5092.27 4474.42C5090.91 4477.33 5089.5 4480.2 5088.04 4483.02C5053.07 4552.55 4999.33 4610.88 4932.9 4651.43C4868.22 4690.93 4793.89 4711.79 4718.1 4711.7C4714.67 4711.7 4711.28 4711.65 4707.85 4711.56C4706.39 4711.56 4704.94 4711.51 4703.48 4711.42C4631.7 4708.91 4561.81 4687.75 4500.68 4650.03C4439.56 4612.32 4389.31 4559.33 4354.88 4496.3C4320.44 4433.27 4303.01 4362.35 4304.3 4290.54C4305.59 4218.72 4325.55 4148.48 4362.23 4086.72C4398.9 4024.97 4451.02 3973.82 4513.46 3938.32C4575.89 3902.82 4646.5 3884.18 4718.32 3884.25C4790.14 3884.32 4860.71 3903.09 4923.08 3938.71C4985.45 3974.33 5037.47 4025.57 5074.03 4087.4C5074.08 4087.49 5074.12 4087.54 5074.17 4087.64C5075.81 4090.31 5077.41 4093.04 5078.92 4095.77C5111.18 4153.24 5129.23 4217.6 5131.55 4283.47C5133.87 4349.34 5120.4 4414.81 5092.27 4474.42Z" fill="#141414"/>
<path d="M5043.28 4105.69C5035.05 4099.82 5025.19 4096.65 5015.08 4096.61H4830.18C4817.3 4096.61 4804.94 4101.73 4795.84 4110.84C4786.73 4119.95 4781.61 4132.3 4781.61 4145.18C4781.61 4158.06 4786.73 4170.41 4795.84 4179.52C4804.94 4188.63 4817.3 4193.74 4830.18 4193.74H5015.08C5018.38 4193.75 5021.67 4193.42 5024.9 4192.76C5028.12 4192.06 5031.27 4191.07 5034.3 4189.79C5042.21 4186.39 5049.06 4180.94 5054.17 4174.01C5059.28 4167.09 5062.45 4158.92 5063.36 4150.36C5064.28 4141.81 5062.9 4133.16 5059.37 4125.31C5055.84 4117.46 5050.29 4110.68 5043.28 4105.69Z" fill="#141414"/>
<path d="M4842.49 4169.83C4856.1 4169.83 4867.14 4158.79 4867.14 4145.18C4867.14 4131.56 4856.1 4120.52 4842.49 4120.52C4828.87 4120.52 4817.83 4131.56 4817.83 4145.18C4817.83 4158.79 4828.87 4169.83 4842.49 4169.83Z" fill="#EFEFEF"/>
<path d="M4922.62 4169.83C4936.23 4169.83 4947.27 4158.79 4947.27 4145.18C4947.27 4131.56 4936.23 4120.52 4922.62 4120.52C4909 4120.52 4897.96 4131.56 4897.96 4145.18C4897.96 4158.79 4909 4169.83 4922.62 4169.83Z" fill="#EFEFEF"/>
<path d="M5002.75 4169.83C5016.36 4169.83 5027.4 4158.79 5027.4 4145.18C5027.4 4131.56 5016.36 4120.52 5002.75 4120.52C4989.13 4120.52 4978.09 4131.56 4978.09 4145.18C4978.09 4158.79 4989.13 4169.83 5002.75 4169.83Z" fill="#EFEFEF"/>
<path d="M5931.35 3332.55C5867.23 3371.01 5752.99 3419.19 5636.26 3369.67L5560.8 3337.66L5712.01 3168.14C5591.34 3035.09 5524.59 2861.84 5524.77 2682.21C5524.95 2502.58 5592.07 2329.47 5713.01 2196.66C5833.95 2063.85 6000.04 1980.88 6178.86 1963.94C6357.68 1947.01 6536.4 1997.31 6680.12 2105.05C6823.85 2212.79 6922.27 2370.22 6956.18 2546.62C6990.08 2723.02 6957.04 2905.72 6863.5 3059.07C6769.96 3212.41 6622.63 3325.4 6450.27 3375.96C6277.92 3426.53 6092.9 3411.05 5931.35 3332.55Z" fill="white"/>
<path d="M5931.74 3341.69C5870.13 3377.86 5752.76 3427.85 5633.11 3377.09L5547.3 3340.69L5701.2 3168.16C5605.44 3060.45 5543.7 2926.8 5523.74 2784.06C5503.79 2641.32 5526.51 2495.87 5589.06 2366.02C5651.6 2236.17 5751.17 2127.74 5875.22 2054.37C5999.27 1981 6142.26 1945.98 6286.18 1953.72C6430.09 1961.46 6568.5 2011.61 6683.97 2097.86C6799.43 2184.11 6886.8 2302.6 6935.06 2438.4C6983.32 2574.21 6990.32 2721.26 6955.18 2861.04C6920.03 3000.82 6844.31 3127.07 6737.55 3223.89C6630.34 3321.72 6496.3 3385.22 6352.69 3406.22C6209.08 3427.21 6062.47 3404.74 5931.74 3341.69ZM6775.95 2203.17C6712.95 2133.67 6636.88 2077.27 6552.08 2037.18C6467.29 1997.08 6375.42 1974.09 6281.74 1969.51C6188.05 1964.92 6094.38 1978.84 6006.08 2010.46C5917.77 2042.09 5836.56 2090.8 5767.08 2153.81C5697.61 2216.83 5641.22 2292.92 5601.15 2377.73C5561.08 2462.54 5538.11 2554.41 5533.55 2648.1C5528.99 2741.79 5542.93 2835.46 5574.58 2923.76C5606.22 3012.06 5654.95 3093.26 5717.98 3162.73L5722.85 3168.1L5574.3 3334.64L5639.4 3362.25C5754.97 3411.28 5869.32 3360.35 5927.2 3325.64L5930.94 3323.39L5934.87 3325.3C6084.07 3397.8 6253.86 3416.1 6415.08 3377.04C6576.3 3337.99 6718.9 3244.03 6818.39 3111.29C6917.89 2978.55 6968.07 2815.31 6960.32 2649.6C6952.58 2483.89 6887.39 2326.05 6775.95 2203.17Z" fill="#D17A22"/>
<path opacity="0.1" d="M6856.65 2678.45C6856.64 2512.35 6794.44 2352.28 6682.31 2229.75C6570.18 2107.22 6416.23 2031.12 6250.79 2016.44C6270.15 2014.74 6289.73 2013.82 6309.53 2013.82C6485.73 2013.93 6654.67 2084 6779.22 2208.63C6903.77 2333.26 6973.73 2502.25 6973.73 2678.45C6973.73 2854.65 6903.77 3023.64 6779.22 3148.27C6654.67 3272.9 6485.73 3342.97 6309.53 3343.07C6289.76 3343.07 6270.21 3342.14 6250.88 3340.45C6416.31 3325.74 6570.23 3249.63 6682.34 3127.11C6794.46 3004.59 6856.64 2844.53 6856.65 2678.45Z" fill="black"/>
<path d="M6340.75 2545.91H5865.86V2590.02H6340.75V2545.91Z" fill="#D17A22"/>
<path d="M6693.56 2698.48H5865.86V2742.58H6693.56V2698.48Z" fill="#D17A22"/>
<path d="M6692.75 2851.04H5865.86V2895.14H6692.75V2851.04Z" fill="#D17A22"/>
<path d="M3078.93 5767.1H8.06002C5.92237 5767.1 3.87227 5766.25 2.36072 5764.74C0.849172 5763.23 0 5761.18 0 5759.04C0 5756.9 0.849172 5754.85 2.36072 5753.34C3.87227 5751.83 5.92237 5750.98 8.06002 5750.98H3078.93C3081.07 5750.98 3083.12 5751.83 3084.63 5753.34C3086.14 5754.85 3086.99 5756.9 3086.99 5759.04C3086.99 5761.18 3086.14 5763.23 3084.63 5764.74C3083.12 5766.25 3081.07 5767.1 3078.93 5767.1Z" fill="#EFEFEF"/>
<path d="M1894.67 2559.06C1888.02 2528.87 1866.4 2503.86 1841.5 2485.54C1800.46 2455.34 1750.12 2440.5 1699.25 2443.59C1648.39 2446.69 1600.22 2467.52 1563.13 2502.47C1542.41 2520.77 1527.47 2544.72 1520.14 2571.38C1516.65 2584.7 1516.46 2598.68 1519.6 2612.09C1522.74 2625.51 1529.11 2637.95 1538.15 2648.34L1541.57 2650.48C1538.47 2637.35 1548.67 2624.24 1560.84 2618.45C1573.51 2613.8 1586.73 2610.84 1600.16 2609.64C1620.49 2605.79 1639.76 2597.63 1656.66 2585.7C1673.57 2573.78 1687.71 2558.36 1698.15 2540.49C1705.88 2562.48 1718.23 2582.56 1734.36 2599.38C1750.5 2616.2 1770.05 2629.36 1791.7 2637.99C1814.27 2646.82 1876.27 2658.96 1897.75 2647.75C1925.17 2633.46 1901.33 2589.25 1894.67 2559.06Z" fill="#141414"/>
</g>
<defs>
<clipPath id="clip0_53_584">
<rect width="7004" height="3826" fill="white" transform="translate(0 1953)"/>
</clipPath>
</defs>
</svg>
