<svg width="1597" height="1597" viewBox="0 0 1597 1597" fill="none" xmlns="http://www.w3.org/2000/svg">
<g clip-path="url(#clip0_43_145)">
<path d="M836.372 1278.76C715.801 1278.76 602.025 1240.87 507.345 1169.17L510.234 1165.61C604.082 1236.67 716.859 1274.23 836.372 1274.23C955.979 1274.23 1068.83 1236.62 1162.71 1165.46L1165.61 1169.02C1070.88 1240.81 957.037 1278.76 836.372 1278.76Z" fill="#141414"/>
<path d="M1372.26 1125.09C1376.94 1125.38 1379.52 1119.57 1375.98 1116.19L1375.63 1114.79C1375.68 1114.68 1375.72 1114.57 1375.77 1114.45C1380.5 1103.18 1396.51 1103.26 1401.2 1114.55C1405.36 1124.57 1410.65 1134.6 1411.96 1145.2C1412.54 1149.87 1412.28 1154.64 1411.24 1159.23C1420.99 1137.93 1426.12 1114.68 1426.12 1091.3C1426.12 1085.43 1425.79 1079.55 1425.14 1073.69C1424.6 1068.9 1423.85 1064.14 1422.89 1059.42C1417.67 1033.9 1406.38 1009.6 1390.09 989.3C1382.26 985.018 1375.72 978.325 1371.78 970.303C1370.36 967.409 1369.25 964.296 1368.73 961.125C1369.62 961.242 1372.09 947.666 1371.41 946.833C1372.66 944.948 1374.88 944.011 1376.24 942.171C1382.98 933.023 1392.28 934.62 1397.13 947.052C1407.49 952.285 1407.59 960.963 1401.23 969.309C1397.19 974.619 1396.63 981.803 1393.08 987.488C1393.45 987.956 1393.83 988.409 1394.19 988.876C1400.89 997.469 1406.68 1006.71 1411.57 1016.41C1410.19 1005.62 1412.22 992.633 1415.7 984.258C1419.65 974.717 1427.07 966.68 1433.59 958.431C1441.43 948.523 1457.51 952.847 1458.89 965.408C1458.9 965.529 1458.92 965.651 1458.93 965.772C1457.96 966.319 1457.01 966.901 1456.08 967.514C1450.79 971.015 1452.62 979.22 1458.89 980.189L1459.03 980.21C1458.68 983.703 1458.08 987.166 1457.21 990.571C1465.58 1022.96 1447.5 1034.76 1421.69 1035.29C1421.12 1035.58 1420.56 1035.87 1419.99 1036.15C1422.61 1043.52 1424.7 1051.07 1426.25 1058.73C1427.63 1065.49 1428.6 1072.33 1429.14 1079.2C1429.81 1087.87 1429.75 1096.58 1429.02 1105.23L1429.07 1104.92C1430.92 1095.39 1436.09 1086.49 1443.6 1080.33C1454.79 1071.14 1470.6 1067.75 1482.67 1060.36C1488.48 1056.81 1495.92 1061.4 1494.91 1068.14L1494.86 1068.46C1493.06 1069.19 1491.31 1070.04 1489.61 1070.99C1488.64 1071.54 1487.69 1072.12 1486.76 1072.73C1481.47 1076.23 1483.3 1084.44 1489.57 1085.41L1489.71 1085.43C1489.82 1085.44 1489.9 1085.46 1490.01 1085.47C1486.92 1092.79 1482.63 1099.59 1477.25 1105.45C1472.02 1133.72 1449.53 1136.41 1425.47 1128.17H1425.46C1422.83 1139.63 1418.99 1150.82 1414.05 1161.49H1373.28C1373.14 1161.04 1373.01 1160.57 1372.88 1160.12C1376.64 1160.35 1380.44 1160.13 1384.15 1159.45C1381.13 1155.73 1378.11 1151.99 1375.08 1148.28C1375.01 1148.21 1374.95 1148.13 1374.89 1148.06C1373.36 1146.16 1371.81 1144.28 1370.27 1142.38L1370.27 1142.37C1370.18 1136.54 1370.88 1130.73 1372.26 1125.09Z" fill="#D17A22"/>
<path d="M224.829 1125.09C220.155 1125.38 217.573 1119.57 221.108 1116.19L221.46 1114.79C221.414 1114.68 221.367 1114.57 221.32 1114.45C216.594 1103.18 200.577 1103.26 195.892 1114.55C191.733 1124.57 186.437 1134.6 185.134 1145.2C184.549 1149.87 184.812 1154.64 185.85 1159.23C176.104 1137.93 170.976 1114.68 170.976 1091.3C170.976 1085.43 171.298 1079.55 171.955 1073.69C172.496 1068.9 173.241 1064.14 174.205 1059.42C179.421 1033.9 190.715 1009.6 207.005 989.3C214.837 985.018 221.367 978.325 225.312 970.303C226.729 967.409 227.84 964.296 228.366 961.125C227.474 961.242 225.005 947.666 225.677 946.833C224.435 944.948 222.212 944.011 220.856 942.171C214.11 933.023 204.815 934.62 199.963 947.052C189.598 952.285 189.497 960.963 195.858 969.309C199.904 974.619 200.46 981.803 204.01 987.488C203.645 987.956 203.265 988.409 202.9 988.876C196.202 997.469 190.409 1006.71 185.525 1016.41C186.905 1005.62 184.867 992.633 181.393 984.258C177.439 974.717 170.027 966.68 163.499 958.431C155.659 948.523 139.582 952.847 138.201 965.408C138.187 965.529 138.174 965.651 138.161 965.772C139.131 966.319 140.081 966.901 141.008 967.514C146.301 971.015 144.472 979.22 138.201 980.189L138.059 980.21C138.41 983.703 139.009 987.166 139.885 990.571C131.512 1022.96 149.59 1034.76 175.403 1035.29C175.973 1035.58 176.528 1035.87 177.098 1036.15C174.483 1043.52 172.393 1051.07 170.845 1058.73C169.457 1065.49 168.492 1072.33 167.952 1079.2C167.28 1087.87 167.338 1096.58 168.069 1105.23L168.025 1104.92C166.17 1095.39 160.997 1086.49 153.488 1080.33C142.3 1071.14 126.495 1067.75 114.426 1060.36C108.616 1056.81 101.171 1061.4 102.185 1068.14L102.235 1068.46C104.032 1069.19 105.785 1070.04 107.48 1070.99C108.449 1071.54 109.399 1072.12 110.327 1072.73C115.619 1076.23 113.79 1084.44 107.519 1085.41L107.377 1085.43C107.275 1085.44 107.187 1085.46 107.085 1085.47C110.168 1092.79 114.463 1099.59 119.84 1105.45C125.076 1133.72 147.564 1136.41 171.619 1128.17H171.634C174.264 1139.63 178.106 1150.82 183.044 1161.49H223.807C223.953 1161.04 224.085 1160.57 224.216 1160.12C220.447 1160.35 216.648 1160.13 212.937 1159.45C215.961 1155.73 218.986 1151.99 222.01 1148.28C222.083 1148.21 222.142 1148.13 222.2 1148.06C223.734 1146.16 225.283 1144.28 226.817 1142.38L226.818 1142.37C226.914 1136.54 226.214 1130.73 224.829 1125.09Z" fill="#D17A22"/>
<path d="M442.813 1167.19L440.912 1169.42C366.669 1106.09 324.088 1013.83 324.088 916.296C324.088 827.453 358.676 743.931 421.48 681.113C484.284 618.296 567.788 583.7 656.611 583.7C745.434 583.7 828.938 618.296 891.742 681.113C954.546 743.931 989.134 827.453 989.134 916.296C989.134 1013.83 946.553 1106.09 872.31 1169.42L870.409 1167.19" fill="#D17A22"/>
<path d="M1170.66 1165.9L1167.73 1162.45C1281.36 1065.52 1346.54 924.298 1346.54 775.016C1346.54 494.311 1118.22 265.941 837.576 265.941C556.932 265.941 328.612 494.311 328.612 775.016C328.612 924.298 393.787 1065.52 507.425 1162.45L504.489 1165.9C389.842 1068.1 324.088 925.626 324.088 775.016C324.088 637.824 377.499 508.848 474.482 411.843C571.465 314.839 700.414 261.416 837.576 261.416C974.737 261.416 1103.69 314.839 1200.67 411.843C1297.65 508.848 1351.06 637.824 1351.06 775.016C1351.06 925.626 1285.31 1068.1 1170.66 1165.9Z" fill="#141414"/>
<path d="M995.514 1164.99C995.514 1166.48 996.713 1167.68 998.206 1167.68H1491.99C1493.48 1167.68 1494.68 1166.48 1494.68 1164.99C1494.68 1163.5 1493.48 1162.3 1491.99 1162.3H998.206C996.713 1162.3 995.514 1163.5 995.514 1164.99Z" fill="#D17A22"/>
<path d="M839.838 263.679H835.313V420.704H839.838V263.679Z" fill="#141414"/>
<path d="M486.279 767.553H329.289V772.078H486.279V767.553Z" fill="#141414"/>
<path d="M502.416 388.537L498.911 391.398L598.172 513.052L601.677 510.19L502.416 388.537Z" fill="#141414"/>
<path d="M546.328 978.598L424.724 1077.91L427.584 1081.42L549.188 982.103L546.328 978.598Z" fill="#141414"/>
<path d="M1345.86 767.553H1188.87V772.078H1345.86V767.553Z" fill="#141414"/>
<path d="M1172.73 388.534L1073.48 510.193L1076.98 513.055L1176.24 391.395L1172.73 388.534Z" fill="#141414"/>
<path d="M1128.81 978.612L1125.95 982.117L1247.58 1081.4L1250.44 1077.9L1128.81 978.612Z" fill="#141414"/>
<path d="M837.575 822.53C872.556 822.53 900.913 794.167 900.913 759.179C900.913 724.191 872.556 695.827 837.575 695.827C802.595 695.827 774.238 724.191 774.238 759.179C774.238 794.167 802.595 822.53 837.575 822.53Z" fill="#141414"/>
<path d="M1129.38 1001.27C1141.87 1001.27 1152 991.142 1152 978.646C1152 966.15 1141.87 956.021 1129.38 956.021C1116.89 956.021 1106.76 966.15 1106.76 978.646C1106.76 991.142 1116.89 1001.27 1129.38 1001.27Z" fill="#141414"/>
<path d="M1179.15 797.642C1191.64 797.642 1201.77 787.512 1201.77 775.016C1201.77 762.52 1191.64 752.391 1179.15 752.391C1166.65 752.391 1156.53 762.52 1156.53 775.016C1156.53 787.512 1166.65 797.642 1179.15 797.642Z" fill="#141414"/>
<path d="M1070.57 535.186C1083.06 535.186 1093.19 525.056 1093.19 512.56C1093.19 500.064 1083.06 489.935 1070.57 489.935C1058.07 489.935 1047.95 500.064 1047.95 512.56C1047.95 525.056 1058.07 535.186 1070.57 535.186Z" fill="#141414"/>
<path d="M835.313 449.208C847.806 449.208 857.934 439.078 857.934 426.583C857.934 414.087 847.806 403.957 835.313 403.957C822.82 403.957 812.693 414.087 812.693 426.583C812.693 439.078 822.82 449.208 835.313 449.208Z" fill="#141414"/>
<path d="M602.321 535.186C614.814 535.186 624.942 525.056 624.942 512.56C624.942 500.064 614.814 489.935 602.321 489.935C589.828 489.935 579.701 500.064 579.701 512.56C579.701 525.056 589.828 535.186 602.321 535.186Z" fill="#141414"/>
<path d="M486.956 790.854C499.449 790.854 509.577 780.724 509.577 768.228C509.577 755.732 499.449 745.603 486.956 745.603C474.463 745.603 464.336 755.732 464.336 768.228C464.336 780.724 474.463 790.854 486.956 790.854Z" fill="#141414"/>
<path d="M550.294 999.009C562.787 999.009 572.915 988.879 572.915 976.383C572.915 963.888 562.787 953.758 550.294 953.758C537.801 953.758 527.673 963.888 527.673 976.383C527.673 988.879 537.801 999.009 550.294 999.009Z" fill="#141414"/>
<path d="M713.301 786.425C725.794 786.425 735.921 776.295 735.921 763.799C735.921 751.304 725.794 741.174 713.301 741.174C700.808 741.174 690.68 751.304 690.68 763.799C690.68 776.295 700.808 786.425 713.301 786.425Z" fill="#141414"/>
<path d="M1235.36 724.679L729.123 746.485C720.386 746.861 713.608 754.25 713.984 762.989L713.984 762.989C714.361 771.728 721.749 778.507 730.486 778.131L1236.72 756.326C1245.45 755.949 1252.23 748.56 1251.86 739.821C1251.48 731.082 1244.09 724.303 1235.36 724.679Z" fill="#EFEFEF"/>
<path d="M1011.5 1340.5L985.119 1340.49L972.568 1238.71L1011.51 1238.71L1011.5 1340.5Z" fill="#A0616A"/>
<path d="M921.112 1339.9C920.291 1341.28 919.857 1345.75 919.857 1347.36C919.857 1352.3 923.866 1356.31 928.811 1356.31H1010.51C1013.89 1356.31 1016.62 1353.58 1016.62 1350.2V1346.8C1016.62 1346.8 1020.66 1336.57 1012.34 1323.97C1012.34 1323.97 1002 1333.84 986.547 1318.38L981.99 1310.12L949.002 1334.26L930.717 1336.51C926.716 1337 923.17 1336.43 921.112 1339.9Z" fill="#141414"/>
<path d="M1150.42 1340.5L1124.04 1340.49L1111.49 1238.71L1150.43 1238.71L1150.42 1340.5Z" fill="#A0616A"/>
<path d="M1060.03 1339.9C1059.21 1341.28 1058.78 1345.75 1058.78 1347.36C1058.78 1352.3 1062.79 1356.31 1067.73 1356.31H1149.44C1152.81 1356.31 1155.54 1353.58 1155.54 1350.2V1346.8C1155.54 1346.8 1159.59 1336.57 1151.27 1323.97C1151.27 1323.97 1140.92 1333.84 1125.47 1318.38L1120.91 1310.12L1087.92 1334.26L1069.64 1336.51C1065.64 1337 1062.09 1336.43 1060.03 1339.9Z" fill="#141414"/>
<path d="M1211.75 521.157L1214.55 640.696L1188.68 748.286L1164.6 740.282L1171.61 642.27L1165.44 510.201L1211.75 521.157Z" fill="#A0616A"/>
<path d="M1189.2 765.465C1191.43 750.048 1185.82 736.475 1176.67 735.149C1167.52 733.822 1158.29 745.245 1156.06 760.662C1153.82 776.078 1159.43 789.651 1168.58 790.978C1177.74 792.304 1186.97 780.882 1189.2 765.465Z" fill="#A0616A"/>
<path d="M1150.87 413.015C1150.87 413.015 1195.26 412.914 1202.75 438.927C1210.55 465.975 1222.98 566.856 1217.6 566.861L1162.19 573.866L1150.87 413.015Z" fill="#EFEFEF"/>
<path d="M979.349 533.895L954.891 650.938L905.242 749.826L883.611 736.554L912.724 642.705L950.313 512.693L979.349 533.895Z" fill="#A0616A"/>
<path d="M901.843 766.674C907.523 752.169 905.147 737.676 896.537 734.302C887.926 730.929 876.342 739.953 870.662 754.458C864.982 768.963 867.358 783.456 875.968 786.829C884.578 790.202 896.163 781.178 901.843 766.674Z" fill="#A0616A"/>
<path d="M971.439 417.827C971.439 417.827 995.71 428.653 1002.5 454.86C1008.67 478.699 1023.93 583.602 979.087 578.678L922.535 574.153C922.134 518.476 946.165 465.981 971.439 417.827Z" fill="#EFEFEF"/>
<path d="M964.251 759.178L955.203 840.63L959.727 1069.5L968.775 1284.09H1016.63L1070.57 892.669L1105.55 1284.09H1161.12L1176.88 1019.37C1176.88 1019.37 1188.2 772.753 1167.84 752.39C1147.48 732.027 964.251 759.178 964.251 759.178Z" fill="#141414"/>
<path d="M1114.68 371.15H1040.57L1024.2 393.776C1024.2 393.776 992.527 398.301 972.168 418.664L969.906 635.869L955.203 777.902L1176.87 771.622L1163.31 693.564L1172.34 419.599C1172.34 419.599 1148.61 391.513 1132.77 396.038L1114.68 371.15Z" fill="#EFEFEF"/>
<path d="M1058.82 359.053C1089.44 359.053 1114.27 334.223 1114.27 303.594C1114.27 272.964 1089.44 248.134 1058.82 248.134C1028.19 248.134 1003.37 272.964 1003.37 303.594C1003.37 334.223 1028.19 359.053 1058.82 359.053Z" fill="#A0616A"/>
<path d="M1106.45 251.95C1100.25 246.486 1091.74 243.341 1083.62 243.898C1078.69 244.236 1073.91 242.687 1069.54 240.395C1069.25 240.24 1068.94 240.099 1068.64 239.972C1065.88 238.833 1062.82 238.706 1059.84 238.778C1054.4 238.91 1047.98 233.459 1043.72 241.018C1027.62 237.985 1026.13 247.345 1018.64 252.861C1016.52 251.608 1002.78 253.89 1001.33 256.144C1000.23 257.861 999.468 259.61 998.95 261.308C998.618 262.397 1000.63 266.372 1000.47 267.398C1000.32 268.424 998.008 266.501 997.989 267.419C997.937 269.878 998.28 271.873 998.568 272.986C999.304 275.827 991.763 272.188 989.289 273.764C986.814 275.34 989.337 282.633 986.917 284.292C984.029 286.271 985.941 288.458 988.458 291.044C990.193 292.827 992.214 294.799 993.15 297.023C995.444 302.474 982.842 307.304 988.641 306.152C994.627 304.963 996.579 314.282 1001.62 310.835C1013.01 303.036 1012.6 303.676 1022.54 313.255C1025.3 315.915 1030.72 305.499 1034.37 306.667C1041.25 308.87 1046.88 316.253 1051.42 327.413C1052.06 328.992 1045.97 354.762 1045.69 356.444C1045.03 360.362 1063.27 351.52 1063.23 355.794C1063.16 361.435 1073.19 354.325 1076.07 359.269C1076.43 358.818 1096.77 349.568 1097.74 348.85L1111.83 335.228C1121.07 319.419 1124.6 300.352 1121.63 282.284C1119.75 270.904 1115.11 259.572 1106.45 251.95Z" fill="#141414"/>
<path d="M834.908 1357.31C834.908 1358.8 836.107 1360 837.6 1360H1331.38C1332.88 1360 1334.08 1358.8 1334.08 1357.31C1334.08 1355.81 1332.88 1354.62 1331.38 1354.62H837.6C836.107 1354.62 834.908 1355.81 834.908 1357.31Z" fill="#CCCCCC"/>
<path d="M102 1164.99C102 1166.48 103.199 1167.68 104.692 1167.68H598.477C599.97 1167.68 601.169 1166.48 601.169 1164.99C601.169 1163.5 599.97 1162.3 598.477 1162.3H104.692C103.199 1162.3 102 1163.5 102 1164.99Z" fill="#D17A22"/>
</g>
<defs>
<clipPath id="clip0_43_145">
<rect width="1393" height="1123" fill="white" transform="translate(102 237)"/>
</clipPath>
</defs>
</svg>
