<svg width="945" height="945" viewBox="0 0 945 945" fill="none" xmlns="http://www.w3.org/2000/svg">
<g clip-path="url(#clip0_106_421)">
<path d="M201.088 452.328V322.328C201.088 320.472 201.825 318.691 203.138 317.378C204.451 316.066 206.231 315.328 208.088 315.328C209.944 315.328 211.725 316.066 213.038 317.378C214.35 318.691 215.088 320.472 215.088 322.328V452.328C215.088 454.185 214.35 455.965 213.038 457.278C211.725 458.591 209.944 459.328 208.088 459.328C206.231 459.328 204.451 458.591 203.138 457.278C201.825 455.965 201.088 454.185 201.088 452.328Z" fill="#141414"/>
<path d="M184.338 452.328V322.328C184.338 320.472 185.075 318.691 186.388 317.378C187.701 316.066 189.481 315.328 191.338 315.328C193.194 315.328 194.975 316.066 196.288 317.378C197.6 318.691 198.338 320.472 198.338 322.328V452.328C198.338 454.185 197.6 455.965 196.288 457.278C194.975 458.591 193.194 459.328 191.338 459.328C189.481 459.328 187.701 458.591 186.388 457.278C185.075 455.965 184.338 454.185 184.338 452.328Z" fill="#141414"/>
<path d="M167.588 452.328V322.328C167.588 320.472 168.325 318.691 169.638 317.378C170.951 316.066 172.731 315.328 174.588 315.328C176.444 315.328 178.225 316.066 179.538 317.378C180.85 318.691 181.588 320.472 181.588 322.328V452.328C181.588 454.185 180.85 455.965 179.538 457.278C178.225 458.591 176.444 459.328 174.588 459.328C172.731 459.328 170.951 458.591 169.638 457.278C168.325 455.965 167.588 454.185 167.588 452.328Z" fill="#141414"/>
<path d="M799.992 659.965C797.173 659.967 794.375 659.481 791.721 658.529L791.312 658.382L791.501 657.476C786.749 647.876 788.41 634.724 795.753 623.909C802.43 614.078 812.583 606.931 821.54 600.625C822.676 599.825 824.026 599.383 825.416 599.357C826.805 599.33 828.171 599.72 829.338 600.476C830.504 601.231 831.418 602.319 831.961 603.598C832.505 604.877 832.653 606.29 832.387 607.654L829.184 624.088C826.873 635.943 824.123 647.164 815.967 654.161C811.487 657.909 805.833 659.964 799.992 659.965Z" fill="#141414"/>
<path d="M820.969 688.363C817.866 688.345 814.818 687.552 812.1 686.056C809.382 684.56 807.081 682.409 805.405 679.798L805.173 679.436L805.727 678.948C807.159 671.13 813.899 664.164 822.949 661.168C831.175 658.445 840.255 658.89 848.261 659.282C849.319 659.333 850.338 659.698 851.188 660.329C852.039 660.96 852.683 661.83 853.039 662.827C853.395 663.825 853.447 664.906 853.188 665.933C852.928 666.96 852.37 667.887 851.584 668.596L842.576 676.727C836.03 682.634 829.502 687.968 821.627 688.35C821.407 688.359 821.188 688.363 820.969 688.363Z" fill="#141414"/>
<path d="M793.014 697.053C791.683 687.148 790.315 677.116 791.248 667.104C792.077 658.213 794.731 649.529 800.133 642.408C802.987 638.648 806.476 635.416 810.443 632.857C811.474 632.191 812.423 633.862 811.397 634.524C804.52 638.988 799.23 645.513 796.285 653.164C792.995 661.719 792.466 671.045 793.033 680.132C793.376 685.628 794.103 691.087 794.835 696.54C794.894 696.785 794.859 697.042 794.737 697.262C794.615 697.482 794.414 697.649 794.175 697.728C794.055 697.76 793.929 697.768 793.805 697.752C793.682 697.735 793.562 697.695 793.454 697.632C793.346 697.569 793.252 697.486 793.176 697.387C793.101 697.287 793.045 697.174 793.014 697.053Z" fill="#141414"/>
<path d="M789.254 702.748C795.657 691.167 803.083 678.295 816.353 674.181C820.038 673.042 823.91 672.633 827.751 672.978C828.961 673.085 828.659 674.992 827.451 674.885C820.999 674.343 814.561 676.085 809.261 679.805C804.133 683.374 800.139 688.335 796.759 693.597C794.689 696.82 792.835 700.179 790.98 703.534C790.387 704.607 788.655 703.833 789.254 702.748Z" fill="#141414"/>
<path d="M786.373 702.578L792.838 702.726L753.858 494.488L747.393 495.706L757.572 549.726H724.778L734.957 495.706L728.493 494.488L689.838 702.726L695.977 702.578L716.299 594.726H766.051L786.373 702.578ZM717.807 586.726L723.271 557.726H759.079L764.543 586.726H717.807Z" fill="#141414"/>
<path d="M504.088 455.646V387.26C504.088 385.23 507.228 383.578 511.088 383.578C514.948 383.578 518.088 385.23 518.088 387.26V455.646C518.088 457.676 514.948 459.328 511.088 459.328C507.228 459.328 504.088 457.676 504.088 455.646Z" fill="#141414"/>
<path d="M487.338 455.646V387.26C487.338 385.23 490.478 383.578 494.338 383.578C498.198 383.578 501.338 385.23 501.338 387.26V455.646C501.338 457.676 498.198 459.328 494.338 459.328C490.478 459.328 487.338 457.676 487.338 455.646Z" fill="#141414"/>
<path d="M470.588 455.646V387.26C470.588 385.23 473.728 383.578 477.588 383.578C481.448 383.578 484.588 385.23 484.588 387.26V455.646C484.588 457.676 481.448 459.328 477.588 459.328C473.728 459.328 470.588 457.676 470.588 455.646Z" fill="#141414"/>
<path d="M611.502 405.355C611.471 405.147 611.396 404.948 611.283 404.771C611.17 404.593 611.021 404.442 610.846 404.326L558.073 369.487C558.868 369.155 559.533 368.573 559.967 367.828C560.494 366.909 560.636 365.818 560.362 364.794C560.088 363.77 559.419 362.897 558.503 362.364L554.173 359.864C553.253 359.337 552.163 359.195 551.139 359.469C550.115 359.743 549.242 360.412 548.709 361.328C548.421 361.832 548.248 362.393 548.202 362.971L510.108 337.823C508.829 334.724 506.889 331.942 504.425 329.67C501.96 327.398 499.03 325.69 495.838 324.666V313.578H481.838V324.667C477.193 326.152 473.14 329.075 470.264 333.013C467.389 336.951 465.838 341.702 465.838 346.578V349.578H479.838C479.838 351.965 480.786 354.254 482.474 355.942C484.162 357.63 486.451 358.578 488.838 358.578C491.225 358.578 493.514 357.63 495.202 355.942C496.89 354.254 497.838 351.965 497.838 349.578H511.838V346.578C511.837 345.14 511.701 343.705 511.433 342.292L607.802 405.912L567.771 454.582C567.46 454.581 567.151 454.578 566.838 454.578C563.644 454.578 560.549 454.654 557.601 454.784C557.778 454.289 557.856 453.765 557.829 453.24C557.771 452.182 557.296 451.189 556.509 450.48C555.721 449.77 554.685 449.401 553.626 449.453L548.633 449.714C547.575 449.772 546.583 450.247 545.873 451.034C545.164 451.822 544.795 452.858 544.847 453.916C544.884 454.542 545.069 455.149 545.389 455.688C536.56 456.627 530.838 457.92 530.838 458.578C530.838 459.656 546.201 458.63 565.43 458.581C565.518 458.831 565.671 459.053 565.874 459.224C566.076 459.395 566.32 459.51 566.582 459.556C566.843 459.601 567.111 459.577 567.36 459.485C567.608 459.393 567.828 459.236 567.996 459.031L568.367 458.581C587.539 458.634 602.838 459.654 602.838 458.578C602.838 457.564 589.236 455.04 571.612 454.635L611.178 406.531C611.311 406.368 611.409 406.18 611.465 405.977C611.521 405.774 611.533 405.562 611.502 405.355Z" fill="#CCCCCC"/>
<path d="M612.945 703.078H489.729C487.239 703.075 484.852 702.085 483.092 700.324C481.331 698.563 480.341 696.176 480.338 693.686V491.47C480.335 489.245 479.45 487.112 477.877 485.539C476.304 483.965 474.171 483.081 471.946 483.078H183.73C181.505 483.081 179.372 483.965 177.799 485.539C176.225 487.112 175.34 489.245 175.338 491.47V693.685C175.335 696.176 174.345 698.563 172.584 700.324C170.823 702.085 168.436 703.075 165.946 703.078H161.73C159.24 703.075 156.853 702.085 155.092 700.324C153.331 698.563 152.341 696.176 152.338 693.686V480.578C152.345 474.613 154.717 468.894 158.935 464.676C163.153 460.457 168.873 458.085 174.838 458.078H599.838C605.803 458.085 611.522 460.458 615.74 464.676C619.958 468.894 622.331 474.613 622.338 480.578V693.685C622.335 696.176 621.344 698.563 619.584 700.324C617.823 702.085 615.435 703.075 612.945 703.078Z" fill="#EFEFEF"/>
<path d="M621.838 510.578H480.838V516.578H621.838V510.578Z" fill="white"/>
<path d="M621.838 591.578H480.838V597.578H621.838V591.578Z" fill="white"/>
<path d="M364.122 457.092L360.069 455.385L357.289 435.07H320.269L317.256 455.302L313.63 457.115C313.457 457.202 313.318 457.345 313.235 457.52C313.153 457.696 313.133 457.894 313.177 458.083C313.222 458.272 313.329 458.44 313.481 458.56C313.633 458.681 313.821 458.746 314.015 458.746H363.788C363.986 458.746 364.179 458.677 364.333 458.551C364.487 458.426 364.592 458.25 364.631 458.056C364.671 457.861 364.641 457.658 364.549 457.483C364.456 457.307 364.305 457.169 364.122 457.092Z" fill="#EFEFEF"/>
<path d="M429.908 437.77H248.055C247.101 437.768 246.186 437.387 245.512 436.712C244.838 436.037 244.46 435.121 244.46 434.167V408.523H433.503V434.167C433.503 435.121 433.125 436.036 432.451 436.712C431.777 437.387 430.863 437.768 429.908 437.77Z" fill="#CCCCCC"/>
<path d="M433.693 420.645H244.294V310.921C244.295 309.77 244.753 308.666 245.568 307.852C246.382 307.037 247.486 306.579 248.637 306.578H429.35C430.501 306.579 431.605 307.037 432.42 307.852C433.234 308.666 433.692 309.77 433.693 310.921V420.645Z" fill="#141414"/>
<path d="M422.381 412.683H255.606C254.718 412.682 253.867 412.329 253.24 411.701C252.612 411.073 252.259 410.222 252.258 409.335V317.891C252.259 317.004 252.612 316.153 253.24 315.525C253.867 314.897 254.718 314.544 255.606 314.543H422.381C423.269 314.544 424.12 314.897 424.748 315.525C425.376 316.153 425.729 317.004 425.73 317.891V409.335C425.729 410.222 425.376 411.073 424.748 411.701C424.12 412.329 423.269 412.682 422.381 412.683Z" fill="white"/>
<path d="M609.339 325.038C610.934 324.809 612.561 324.931 614.103 325.398C615.646 325.865 617.068 326.664 618.268 327.739C619.469 328.815 620.419 330.141 621.052 331.623C621.684 333.106 621.984 334.709 621.93 336.32L658.496 350.394L641.929 362.23L609.746 347.05C607.046 346.78 604.539 345.529 602.699 343.534C600.86 341.539 599.816 338.939 599.766 336.225C599.715 333.512 600.662 330.875 602.427 328.813C604.191 326.751 606.651 325.408 609.339 325.038Z" fill="#9E616A"/>
<path d="M748.177 318.129L754.363 329.376C752.869 336.509 749.005 342.927 743.401 347.586C733.93 355.574 684.409 385.323 684.409 385.323L621.892 353.938L632.828 339.405L681.91 355.854C700.118 338.66 722.089 325.958 746.075 318.76L748.177 318.129Z" fill="#EFEFEF"/>
<path d="M736.674 504.234C763.621 504.234 785.465 497.116 785.465 488.336C785.465 479.555 763.621 472.438 736.674 472.438C709.728 472.438 687.884 479.555 687.884 488.336C687.884 497.116 709.728 504.234 736.674 504.234Z" fill="#141414"/>
<path d="M627.217 689.107L614.261 685.526L621.909 633.848L641.031 639.135L627.217 689.107Z" fill="#9E616A"/>
<path d="M627.05 702.577L585.274 691.029L585.42 690.5C586.613 686.188 589.469 682.526 593.361 680.319C597.253 678.113 601.862 677.543 606.175 678.734L606.176 678.735L631.691 685.788L627.05 702.577Z" fill="#141414"/>
<path d="M589.653 689.274L577.356 683.844L592.448 633.832L610.596 641.845L589.653 689.274Z" fill="#9E616A"/>
<path d="M587.526 702.577L547.877 685.069L548.098 684.567C549.906 680.474 553.265 677.267 557.437 675.651C561.609 674.035 566.252 674.142 570.345 675.949L570.346 675.949L594.562 686.642L587.526 702.577Z" fill="#141414"/>
<path d="M774.646 449.466C774.646 449.466 781.163 469.659 741.175 495.196L689.674 546.514L636.161 674.52L604.392 660.277L610.623 643.645L614.804 632.485L616.943 626.775L619.236 620.655L653.247 529.868L681.817 479.845L682.646 452.701L689.674 433.567L740.657 415.477L774.646 449.466Z" fill="#141414"/>
<path d="M748.646 450.466C748.646 450.466 755.163 470.659 715.175 496.196L663.674 547.514L610.161 675.52L578.392 661.277L584.623 644.645L588.804 633.485L590.943 627.775L593.236 621.655L627.247 530.868L636.813 514.119C649.433 492.023 664.768 471.592 682.46 453.304L691.838 443.61L692.838 428.61L714.657 416.477L748.646 450.466Z" fill="#141414"/>
<path d="M717.838 351.61L733.838 317.61L761.759 313.801C761.759 313.801 783.562 341.578 777.838 380.61C775.691 395.246 773.942 409.819 773.838 422.61C773.81 426.013 776.788 427.533 776.838 430.61C776.887 433.632 771.195 438.556 772.838 440.61C775.188 443.441 776.587 446.939 776.838 450.61C774.856 455.326 714.882 429.776 689.674 433.567L717.838 351.61Z" fill="#EFEFEF"/>
<path d="M757.496 296.686C764.623 284.697 760.681 269.2 748.692 262.073C736.702 254.946 721.205 258.888 714.078 270.877C706.951 282.867 710.893 298.364 722.882 305.49C734.872 312.617 750.369 308.676 757.496 296.686Z" fill="#9E616A"/>
<path d="M751.933 274.713C751.884 275.378 751.818 276.258 751.741 277.253C751.662 279.979 752.43 282.662 753.939 284.933C755.352 287.323 753.666 301.754 753.666 301.754C795.035 272.918 762.347 243.947 749.561 246.522C749.828 242.855 739.4 244.308 739.4 244.308C735.427 238.12 726.718 246.334 726.718 246.334L728.399 243.507C721.638 245.227 714.955 266.122 714.955 266.122C717.248 275.137 752.2 271.046 751.933 274.713Z" fill="#141414"/>
<path d="M591.453 364.986C605.668 346.077 616.906 325.104 624.776 302.795C625.232 301.461 625.2 300.008 624.685 298.695C624.17 297.382 623.206 296.295 621.964 295.626L573.319 269.561C572.532 269.136 571.658 268.897 570.765 268.86C569.871 268.824 568.981 268.992 568.162 269.352C567.328 269.714 566.588 270.262 565.997 270.954C565.407 271.646 564.982 272.463 564.755 273.344C559.093 294.841 548.451 314.704 533.688 331.325C533.08 332.002 532.635 332.808 532.386 333.683C532.137 334.558 532.091 335.478 532.251 336.373C532.405 337.254 532.758 338.088 533.283 338.812C533.808 339.536 534.491 340.13 535.281 340.55L583.927 366.616C585.171 367.279 586.61 367.479 587.988 367.181C589.367 366.883 590.594 366.105 591.453 364.986Z" fill="#CCCCCC"/>
<path d="M588.133 362.492C587.872 362.819 587.504 363.044 587.094 363.128C586.684 363.213 586.258 363.152 585.888 362.956L537.243 336.89C537.006 336.767 536.802 336.591 536.645 336.375C536.488 336.16 536.384 335.911 536.339 335.648C536.289 335.371 536.303 335.086 536.381 334.815C536.459 334.544 536.599 334.295 536.789 334.087C551.987 316.976 562.943 296.528 568.772 274.397C568.839 274.124 568.969 273.869 569.151 273.655C569.333 273.44 569.563 273.27 569.821 273.158C570.065 273.049 570.33 272.998 570.597 273.009C570.864 273.02 571.124 273.093 571.358 273.222L620.003 299.287C620.371 299.486 620.659 299.807 620.815 300.196C620.972 300.584 620.988 301.015 620.86 301.414C613.131 323.324 602.094 343.922 588.133 362.492Z" fill="white"/>
<path d="M571.114 297.986L604.667 317.652C608.005 319.609 611.028 314.425 607.695 312.471L574.143 292.805C570.804 290.848 567.781 296.032 571.114 297.986Z" fill="#D17A22"/>
<path d="M565.114 308.986L598.667 328.652C602.005 330.609 605.028 325.425 601.695 323.471L568.143 303.805C564.804 301.848 561.781 307.032 565.114 308.986Z" fill="#D17A22"/>
<path d="M558.114 320.986L591.667 340.652C595.005 342.609 598.028 337.425 594.695 335.471L561.143 315.805C557.804 313.848 554.781 319.032 558.114 320.986Z" fill="#D17A22"/>
<path d="M551.114 330.986L584.667 350.652C588.005 352.609 591.028 347.425 587.695 345.471L554.143 325.805C550.804 323.848 547.781 329.032 551.114 330.986Z" fill="#D17A22"/>
<path d="M704.07 446.664L716.666 474.989C716.97 475.667 717.1 476.41 717.044 477.151C716.989 477.892 716.749 478.608 716.347 479.233C715.874 479.98 715.191 480.57 714.383 480.929C713.575 481.289 712.679 481.401 711.807 481.252C711.51 481.206 711.219 481.129 710.939 481.02C709.826 480.59 708.928 479.737 708.443 478.646L695.846 450.321C695.606 449.781 695.475 449.199 695.459 448.608C695.444 448.017 695.546 447.429 695.758 446.878C696.186 445.764 697.039 444.865 698.129 444.38C699.22 443.895 700.459 443.864 701.573 444.292C702.687 444.72 703.585 445.573 704.07 446.664Z" fill="#D17A22"/>
<path d="M715.65 472.707L718.174 478.424L719.464 486.529C719.549 487.062 719.456 487.609 719.198 488.084C718.941 488.559 718.533 488.936 718.04 489.155C717.546 489.375 716.994 489.425 716.468 489.298C715.943 489.171 715.475 488.874 715.135 488.453L709.914 481.956L707.427 476.364L715.65 472.707Z" fill="#141414"/>
<path d="M693.046 438.783L694.851 450.123C694.91 450.494 695.054 450.847 695.271 451.154C695.488 451.461 695.773 451.714 696.103 451.893C696.434 452.073 696.801 452.174 697.176 452.188C697.552 452.203 697.926 452.131 698.27 451.979L700.059 451.183L703.513 458.95C703.621 459.191 703.821 459.381 704.068 459.475C704.315 459.57 704.59 459.563 704.832 459.455C705.075 459.348 705.264 459.148 705.359 458.901C705.454 458.654 705.448 458.379 705.34 458.137L701.887 450.37L703.676 449.574C704.269 449.31 704.734 448.822 704.968 448.216C705.202 447.61 705.186 446.936 704.925 446.342C704.837 446.145 704.724 445.961 704.588 445.793L697.376 436.857C697.037 436.437 696.568 436.14 696.043 436.014C695.518 435.887 694.965 435.937 694.472 436.157C693.978 436.376 693.571 436.753 693.313 437.228C693.055 437.703 692.961 438.249 693.046 438.783Z" fill="#141414"/>
<path d="M698.272 459.25C698.556 457.664 699.184 456.158 700.113 454.841C701.041 453.523 702.247 452.425 703.646 451.624C705.045 450.823 706.602 450.339 708.208 450.205C709.814 450.071 711.43 450.29 712.943 450.849L737.809 420.57L743.83 440.02L719.294 465.791C718.188 468.269 716.211 470.255 713.739 471.373C711.266 472.491 708.469 472.664 705.878 471.858C703.287 471.051 701.081 469.323 699.679 466.999C698.278 464.675 697.777 461.918 698.272 459.25Z" fill="#9E616A"/>
<path d="M729.577 457.286L718.625 441.467L749.724 400.001L733.703 365.671L734.87 324.836L748.109 322.391L748.273 322.473C754.709 326.178 759.684 331.973 762.372 338.896C765.675 347.152 773.047 378.146 777.148 395.886C777.954 399.324 777.866 402.91 776.892 406.304C775.919 409.699 774.093 412.787 771.588 415.275L729.577 457.286Z" fill="#EFEFEF"/>
<path d="M421.214 380.844C421.123 381.612 421.092 382.387 421.123 383.16L365.05 423.954L349.646 417.136L336.318 439.04L362.416 453.759C364.525 454.948 366.962 455.421 369.362 455.107C371.762 454.793 373.996 453.709 375.727 452.018L432.163 396.895C435.051 397.629 438.095 397.466 440.889 396.428C443.683 395.39 446.094 393.526 447.803 391.083C449.512 388.641 450.436 385.737 450.454 382.756C450.472 379.776 449.581 376.861 447.902 374.399C446.222 371.936 443.833 370.044 441.052 368.973C438.27 367.902 435.229 367.703 432.331 368.402C429.434 369.102 426.819 370.667 424.833 372.89C422.847 375.112 421.584 377.887 421.214 380.844Z" fill="#FFB6B6"/>
<path d="M363.237 425.447L346.885 452.695C346.42 453.471 345.793 454.137 345.047 454.648C344.301 455.159 343.454 455.503 342.563 455.657C341.672 455.812 340.759 455.772 339.884 455.541C339.01 455.311 338.196 454.894 337.497 454.32L313.014 434.213C309.062 431.81 306.224 427.937 305.122 423.445C304.02 418.952 304.745 414.206 307.137 410.247C309.528 406.288 313.392 403.439 317.881 402.324C322.371 401.209 327.119 401.919 331.085 404.3L360.254 416.399C361.089 416.745 361.84 417.268 362.455 417.931C363.07 418.594 363.535 419.381 363.818 420.24C364.101 421.099 364.195 422.008 364.095 422.907C363.995 423.806 363.702 424.672 363.237 425.447Z" fill="#D17A22"/>
<path d="M293.174 662.281H325.227V609.166H293.174V662.281Z" fill="#141414"/>
<path d="M323.621 637.273L319.507 643.336L396.433 695.535L400.547 689.473L323.621 637.273Z" fill="#141414"/>
<path d="M294.78 637.273L217.854 689.473L221.968 695.535L298.894 643.336L294.78 637.273Z" fill="#141414"/>
<path d="M398.49 702.577C404.053 702.577 408.563 698.067 408.563 692.503C408.563 686.94 404.053 682.43 398.49 682.43C392.926 682.43 388.416 686.94 388.416 692.503C388.416 698.067 392.926 702.577 398.49 702.577Z" fill="#141414"/>
<path d="M308.743 702.577C314.306 702.577 318.816 698.067 318.816 692.503C318.816 686.94 314.306 682.43 308.743 682.43C303.179 682.43 298.669 686.94 298.669 692.503C298.669 698.067 303.179 702.577 308.743 702.577Z" fill="#141414"/>
<path d="M219.912 702.577C225.475 702.577 229.985 698.067 229.985 692.503C229.985 686.94 225.475 682.43 219.912 682.43C214.348 682.43 209.838 686.94 209.838 692.503C209.838 698.067 214.348 702.577 219.912 702.577Z" fill="#141414"/>
<path d="M312.405 640.305H305.079V692.504H312.405V640.305Z" fill="#141414"/>
<path d="M302.332 632.977H316.068V562.461H302.332V632.977Z" fill="#141414"/>
<path d="M269.821 573.451V556.967C269.825 553.932 271.032 551.022 273.178 548.876C275.324 546.73 278.234 545.523 281.269 545.52H342.626C345.661 545.523 348.571 546.73 350.717 548.876C352.863 551.022 354.07 553.932 354.073 556.967V573.451C354.07 576.486 352.863 579.396 350.717 581.542C348.571 583.688 345.661 584.895 342.626 584.898H281.269C278.234 584.895 275.324 583.688 273.178 581.542C271.032 579.396 269.825 576.486 269.821 573.451Z" fill="#141414"/>
<path d="M380.641 686.129L397.609 686.128L405.683 642.117L380.639 642.118L380.641 686.129Z" fill="#FFB8B8"/>
<path d="M376.314 702.576L431.029 702.574V701.882C431.029 699.086 430.478 696.316 429.408 693.733C428.337 691.149 426.769 688.801 424.791 686.824C422.814 684.846 420.466 683.277 417.882 682.207C415.299 681.137 412.529 680.586 409.733 680.586H409.73L376.312 680.587L376.314 702.576Z" fill="#141414"/>
<path d="M406.022 658.837L439.851 582.976C442.675 576.583 442.988 569.36 440.726 562.746C438.464 556.132 433.793 550.613 427.645 547.288L354.268 507.941L320.784 505.093L289.898 502.285L289.675 502.662C289.391 503.143 282.75 514.614 287.239 527.191C290.644 536.731 299.5 544.183 313.563 549.34C346.387 561.375 384.304 571.662 399.083 575.525C399.736 575.692 400.346 575.995 400.874 576.415C401.401 576.835 401.834 577.361 402.143 577.96C402.454 578.552 402.638 579.202 402.685 579.869C402.731 580.536 402.64 581.205 402.415 581.834L370.986 652.445C370.658 653.34 370.54 654.299 370.641 655.248C370.742 656.196 371.059 657.109 371.569 657.915C372.078 658.721 372.766 659.4 373.579 659.899C374.393 660.397 375.309 660.702 376.259 660.79L399.743 662.5C399.942 662.519 400.141 662.528 400.338 662.528C401.541 662.528 402.718 662.179 403.726 661.524C404.735 660.869 405.532 659.936 406.022 658.837Z" fill="#141414"/>
<path d="M369.568 686.129L386.536 686.128L394.61 642.117L369.566 642.118L369.568 686.129Z" fill="#FFB8B8"/>
<path d="M365.24 702.576L419.955 702.574V701.882C419.955 699.086 419.405 696.316 418.334 693.733C417.264 691.149 415.696 688.801 413.718 686.824C411.741 684.846 409.393 683.277 406.809 682.207C404.225 681.137 401.456 680.586 398.659 680.586H398.657L365.239 680.587L365.24 702.576Z" fill="#141414"/>
<path d="M393.564 662.991L427.393 587.131C430.218 580.737 430.53 573.514 428.268 566.9C426.006 560.286 421.336 554.767 415.187 551.442L341.81 512.095L308.327 509.247L284.135 507.148L284.138 506.816C283.853 507.298 277.213 518.768 281.702 531.345C285.107 540.886 287.043 548.337 301.105 553.494C333.929 565.529 371.847 575.816 386.625 579.679C387.278 579.846 387.889 580.149 388.416 580.569C388.944 580.989 389.376 581.516 389.686 582.115C389.996 582.707 390.18 583.356 390.227 584.023C390.274 584.69 390.182 585.359 389.957 585.989L358.529 656.599C358.201 657.495 358.082 658.454 358.183 659.402C358.284 660.35 358.602 661.263 359.111 662.069C359.621 662.876 360.308 663.554 361.122 664.053C361.935 664.551 362.852 664.856 363.801 664.944L387.285 666.654C387.484 666.673 387.683 666.683 387.881 666.683C389.083 666.682 390.26 666.333 391.269 665.678C392.277 665.023 393.075 664.09 393.564 662.991Z" fill="#141414"/>
<path d="M372.343 336.24C376.687 317.974 365.401 299.645 347.136 295.301C328.87 290.957 310.541 302.243 306.197 320.509C301.853 338.775 313.139 357.103 331.405 361.447C349.671 365.791 368 354.505 372.343 336.24Z" fill="#FFB8B8"/>
<path d="M456.453 458.986C470.668 440.077 481.906 419.104 489.776 396.795C490.232 395.461 490.2 394.008 489.685 392.695C489.17 391.382 488.206 390.295 486.964 389.626L438.319 363.561C437.532 363.136 436.658 362.897 435.765 362.86C434.871 362.824 433.981 362.992 433.162 363.352C432.328 363.714 431.588 364.262 430.997 364.954C430.407 365.646 429.982 366.463 429.755 367.344C424.093 388.841 413.451 408.704 398.688 425.325C398.08 426.002 397.635 426.808 397.386 427.683C397.137 428.558 397.091 429.478 397.251 430.373C397.405 431.254 397.758 432.088 398.283 432.812C398.808 433.536 399.491 434.13 400.281 434.55L448.927 460.616C450.171 461.279 451.61 461.479 452.988 461.181C454.367 460.883 455.594 460.105 456.453 458.986Z" fill="#CCCCCC"/>
<path d="M453.133 456.492C452.872 456.819 452.504 457.044 452.094 457.128C451.684 457.213 451.258 457.152 450.888 456.956L402.243 430.89C402.006 430.767 401.802 430.591 401.645 430.375C401.488 430.16 401.384 429.911 401.339 429.648C401.289 429.371 401.303 429.086 401.381 428.815C401.459 428.544 401.599 428.295 401.789 428.087C416.987 410.976 427.943 390.528 433.772 368.397C433.839 368.124 433.969 367.869 434.151 367.655C434.333 367.44 434.563 367.27 434.821 367.158C435.065 367.049 435.33 366.998 435.597 367.009C435.864 367.02 436.124 367.093 436.358 367.222L485.003 393.287C485.371 393.486 485.659 393.807 485.815 394.196C485.972 394.584 485.988 395.015 485.86 395.414C478.131 417.324 467.094 437.922 453.133 456.492Z" fill="white"/>
<path d="M436.114 391.986L469.667 411.652C473.005 413.609 476.028 408.425 472.695 406.471L439.143 386.805C435.804 384.848 432.781 390.032 436.114 391.986Z" fill="#CCCCCC"/>
<path d="M430.114 402.986L463.667 422.652C467.005 424.609 470.028 419.425 466.695 417.471L433.143 397.805C429.804 395.848 426.781 401.032 430.114 402.986Z" fill="#CCCCCC"/>
<path d="M425.401 413.942L455.915 432.056C458.951 433.859 462.198 430.132 459.166 428.333L428.652 410.218C425.616 408.416 422.369 412.142 425.401 413.942Z" fill="#CCCCCC"/>
<path d="M416.114 424.986L449.667 444.652C453.005 446.609 456.028 441.425 452.695 439.471L419.143 419.805C415.804 417.848 412.781 423.032 416.114 424.986Z" fill="#CCCCCC"/>
<path d="M358.872 510.695L291.598 510.293L291.579 509.815C290.297 476.061 294.422 445.485 304.191 416.34C304.329 415.249 304.478 414.083 304.625 412.939C306.293 399.9 307.618 389.547 320.018 385.692C318.985 384.318 318.376 382.672 318.266 380.957C318.188 379.817 318.337 378.673 318.705 377.592C319.073 376.51 319.653 375.513 320.411 374.657C321.135 373.831 322.017 373.158 323.005 372.676C323.993 372.194 325.066 371.914 326.163 371.851L350.109 371.035C351.367 371.027 352.592 371.442 353.585 372.214C355.408 373.568 356.69 375.527 357.2 377.74C357.71 379.953 357.415 382.276 356.369 384.291C356.087 384.853 355.979 385.109 355.938 385.22C356.789 389.68 359.315 394.978 361.988 400.584C365.815 408.611 370.152 417.709 371.268 427.443C371.87 432.698 371.62 438.016 370.526 443.192C370.027 445.98 369.912 448.825 370.185 451.645C370.404 455.826 370.61 459.775 368.246 463.593C367.644 464.628 366.954 465.732 366.145 466.954L362.82 474.902L358.872 510.695Z" fill="#D17A22"/>
<path d="M257.916 557.931V420.469C257.921 415.99 259.703 411.696 262.87 408.528C266.037 405.361 270.332 403.579 274.811 403.574H279.484C283.963 403.579 288.258 405.361 291.425 408.528C294.592 411.696 296.374 415.99 296.379 420.469V557.931C296.374 562.41 294.592 566.705 291.425 569.872C288.258 573.039 283.963 574.821 279.484 574.826H274.811C270.332 574.821 266.037 573.039 262.87 569.872C259.703 566.705 257.921 562.41 257.916 557.931Z" fill="#141414"/>
<path d="M438.321 434.187C437.838 434.792 437.403 435.434 437.021 436.106L367.863 441.156L358.378 427.234L335.497 438.803L349.893 465.08C351.056 467.203 352.877 468.891 355.081 469.892C357.285 470.892 359.754 471.15 362.118 470.628L439.147 453.599C441.214 455.747 443.885 457.215 446.805 457.809C449.726 458.402 452.759 458.091 455.499 456.919C458.239 455.747 460.558 453.768 462.146 451.246C463.734 448.724 464.517 445.778 464.39 442.8C464.263 439.822 463.233 436.954 461.436 434.576C459.639 432.198 457.16 430.424 454.33 429.489C451.5 428.554 448.453 428.502 445.593 429.342C442.733 430.181 440.196 431.871 438.321 434.187Z" fill="#FFB6B6"/>
<path d="M365.536 441.465L337.265 455.977C336.46 456.389 335.577 456.624 334.673 456.665C333.77 456.705 332.869 456.55 332.031 456.211C331.192 455.872 330.437 455.356 329.817 454.698C329.196 454.041 328.724 453.257 328.434 452.401L318.253 422.4C316.165 418.281 315.794 413.503 317.22 409.112C318.645 404.72 321.752 401.071 325.861 398.964C313.329 405.397 339.429 387.125 349.391 406.532L367.779 432.205C368.305 432.941 368.667 433.781 368.839 434.668C369.012 435.556 368.991 436.47 368.778 437.349C368.565 438.228 368.165 439.05 367.606 439.761C367.046 440.471 366.34 441.052 365.536 441.465Z" fill="#D17A22"/>
<path d="M323.913 361.438C321.867 361.438 319.61 360.451 317.064 358.453C309.574 352.572 304.22 344.395 301.824 335.178C299.428 325.961 300.121 316.213 303.799 307.428C305.65 303.007 309.111 296.998 315.091 293.477C319.39 290.947 324.44 290.032 328.836 289.374C332.641 288.804 336.495 288.35 340.289 288.027C344.822 287.639 350.059 287.377 354.835 289.192C358.334 290.522 361.313 292.87 364.193 295.142C365.197 295.933 366.235 296.752 367.275 297.51C369.795 299.475 372.7 300.887 375.803 301.652C376.457 301.787 377.075 302.062 377.615 302.457C378.154 302.852 378.602 303.358 378.929 303.942C379.263 304.534 379.465 305.192 379.523 305.87C379.58 306.547 379.492 307.23 379.263 307.87C378.814 309.13 378.408 310.266 379.229 311.496C379.533 311.93 379.938 312.282 380.41 312.522C380.882 312.763 381.405 312.884 381.935 312.875C382.214 312.871 382.49 312.936 382.738 313.065C382.986 313.194 383.197 313.384 383.353 313.615C383.511 313.845 383.611 314.11 383.644 314.387C383.676 314.664 383.64 314.945 383.539 315.205L383.407 315.544C383.759 315.577 384.098 315.695 384.394 315.888C384.69 316.08 384.935 316.342 385.108 316.651C385.365 317.09 385.464 317.603 385.389 318.107C385.314 318.61 385.07 319.072 384.697 319.418C381.663 322.306 377.881 324.285 373.779 325.132C370.972 325.683 368.084 325.676 365.28 325.112L364.829 325.025L364.884 324.525C353.54 320.479 343.3 327.345 337.463 335.195L336.62 334.662C336.764 334.37 336.849 334.051 336.867 333.725C336.885 333.399 336.838 333.073 336.727 332.766C336.609 332.397 336.42 332.056 336.17 331.76C335.921 331.465 335.615 331.222 335.271 331.045C334.576 330.758 333.811 330.684 333.074 330.831C332.336 330.978 331.659 331.34 331.127 331.872C330.585 332.44 330.168 333.114 329.901 333.852C329.634 334.59 329.524 335.375 329.578 336.158C329.731 337.818 330.154 339.441 330.829 340.964C331.103 341.693 331.387 342.446 331.618 343.206C332.91 347.522 332.566 352.163 330.651 356.241C329.767 358.102 328.169 360.474 325.575 361.209C325.034 361.362 324.475 361.439 323.913 361.438Z" fill="#141414"/>
<path d="M876.485 704.577H69.1911C68.876 704.576 68.574 704.45 68.3514 704.227C68.1289 704.004 68.0039 703.701 68.0039 703.386C68.0039 703.071 68.1289 702.768 68.3514 702.545C68.574 702.322 68.876 702.196 69.1911 702.195H876.485C876.801 702.195 877.104 702.321 877.327 702.544C877.55 702.767 877.676 703.07 877.676 703.386C877.676 703.702 877.55 704.005 877.327 704.228C877.104 704.451 876.801 704.577 876.485 704.577Z" fill="#141414"/>
</g>
<defs>
<clipPath id="clip0_106_421">
<rect width="809.675" height="462.577" fill="white" transform="translate(68 242)"/>
</clipPath>
</defs>
</svg>
