<svg width="32" height="32" viewBox="0 0 32 32" fill="none" xmlns="http://www.w3.org/2000/svg">
<g clip-path="url(#clip0_184_34)">
<path d="M6.66699 9.33333C6.66699 10.7478 7.2289 12.1044 8.22909 13.1046C9.22928 14.1048 10.5858 14.6667 12.0003 14.6667C13.4148 14.6667 14.7714 14.1048 15.7716 13.1046C16.7718 12.1044 17.3337 10.7478 17.3337 9.33333C17.3337 7.91885 16.7718 6.56229 15.7716 5.5621C14.7714 4.5619 13.4148 4 12.0003 4C10.5858 4 9.22928 4.5619 8.22909 5.5621C7.2289 6.56229 6.66699 7.91885 6.66699 9.33333Z" stroke="#D17A22" stroke-width="2" stroke-linecap="round" stroke-linejoin="round"/>
<path d="M4 28V25.3333C4 23.9188 4.5619 22.5623 5.5621 21.5621C6.56229 20.5619 7.91885 20 9.33333 20H14.6667C16.0812 20 17.4377 20.5619 18.4379 21.5621C19.4381 22.5623 20 23.9188 20 25.3333V28" stroke="#D17A22" stroke-width="2" stroke-linecap="round" stroke-linejoin="round"/>
<path d="M21.333 4.17383C22.4802 4.46756 23.4971 5.13476 24.2232 6.07024C24.9493 7.00572 25.3435 8.15627 25.3435 9.34049C25.3435 10.5247 24.9493 11.6753 24.2232 12.6107C23.4971 13.5462 22.4802 14.2134 21.333 14.5072" stroke="#D17A22" stroke-width="2" stroke-linecap="round" stroke-linejoin="round"/>
<path d="M28 27.9992V25.3326C27.9932 24.1554 27.5972 23.0136 26.8737 22.0851C26.1502 21.1566 25.1398 20.4935 24 20.1992" stroke="#D17A22" stroke-width="2" stroke-linecap="round" stroke-linejoin="round"/>
</g>
<defs>
<clipPath id="clip0_184_34">
<rect width="32" height="32" fill="white"/>
</clipPath>
</defs>
</svg>
