<svg width="32" height="32" viewBox="0 0 32 32" fill="none" xmlns="http://www.w3.org/2000/svg">
<path d="M12.5 18.3334C12.5 20.2665 15.6337 21.8334 19.5 21.8334C23.3663 21.8334 26.5 20.2665 26.5 18.3334C26.5 16.4002 23.3663 14.8334 19.5 14.8334C15.6337 14.8334 12.5 16.4002 12.5 18.3334Z" stroke="#D17A22" stroke-width="1.5" stroke-linecap="round" stroke-linejoin="round"/>
<path d="M12.5 18.3334V23C12.5 24.932 15.6337 26.5 19.5 26.5C23.3663 26.5 26.5 24.932 26.5 23V18.3334" stroke="#D17A22" stroke-width="1.5" stroke-linecap="round" stroke-linejoin="round"/>
<path d="M5.5 9C5.5 10.2507 6.83467 11.4057 9 12.031C11.1653 12.6563 13.8347 12.6563 16 12.031C18.1653 11.4057 19.5 10.2507 19.5 9C19.5 7.74933 18.1653 6.59433 16 5.969C13.8347 5.34367 11.1653 5.34367 9 5.969C6.83467 6.59433 5.5 7.74933 5.5 9Z" stroke="#D17A22" stroke-width="1.5" stroke-linecap="round" stroke-linejoin="round"/>
<path d="M5.5 9V20.6667C5.5 21.7027 6.40067 22.3583 7.83333 23" stroke="#D17A22" stroke-width="1.5" stroke-linecap="round" stroke-linejoin="round"/>
<path d="M5.5 14.8334C5.5 15.8694 6.40067 16.525 7.83333 17.1667" stroke="#D17A22" stroke-width="1.5" stroke-linecap="round" stroke-linejoin="round"/>
</svg>
