<svg width="945" height="945" viewBox="0 0 945 945" fill="none" xmlns="http://www.w3.org/2000/svg">
<g clip-path="url(#clip0_106_503)">
<path d="M429.054 679.254H137.829C134.163 679.25 130.648 677.791 128.055 675.199C125.462 672.606 124.004 669.091 124 665.425V270.075C124.004 266.409 125.462 262.894 128.055 260.301C130.648 257.709 134.163 256.25 137.829 256.246H429.054C432.72 256.25 436.235 257.709 438.828 260.301C441.42 262.894 442.879 266.409 442.883 270.075V665.425C442.879 669.091 441.42 672.606 438.828 675.199C436.235 677.791 432.72 679.25 429.054 679.254Z" fill="white"/>
<path d="M270.313 359.136C270.313 370.555 266.701 381.68 259.993 390.921C253.286 400.161 243.828 407.043 232.971 410.581C232.647 410.684 232.322 410.787 231.993 410.885C230.586 411.318 229.16 411.687 227.71 412.002C225.085 412.571 222.42 412.941 219.739 413.108C218.574 413.187 217.402 413.226 216.223 413.226C210.134 413.232 204.087 412.208 198.339 410.197C198.172 410.138 198.005 410.079 197.843 410.02C188.53 406.657 180.319 400.802 174.104 393.093C167.89 385.385 163.91 376.118 162.599 366.304C161.288 356.489 162.696 346.503 166.67 337.434C170.643 328.364 177.03 320.56 185.133 314.87C193.237 309.18 202.747 305.824 212.626 305.166C222.506 304.509 232.377 306.576 241.163 311.142C249.949 315.708 257.313 322.598 262.453 331.061C267.593 339.523 270.312 349.235 270.313 359.136Z" fill="white"/>
<path d="M214.928 394.973C229.462 394.973 241.245 383.191 241.245 368.656C241.245 354.122 229.462 342.34 214.928 342.34C200.394 342.34 188.611 354.122 188.611 368.656C188.611 383.191 200.394 394.973 214.928 394.973Z" fill="#D17A22"/>
<path d="M216.464 382.835L216.491 381.852C214.662 381.801 213.049 381.686 211.837 380.801C211.493 380.536 211.211 380.199 211.009 379.815C210.806 379.431 210.69 379.008 210.666 378.574C210.644 378.309 210.684 378.043 210.783 377.796C210.881 377.549 211.035 377.329 211.233 377.151C211.69 376.873 212.215 376.724 212.75 376.719C213.286 376.715 213.813 376.854 214.275 377.124L215.089 377.497L213.529 366.094L212.554 366.227L213.882 375.927C213.338 375.726 212.753 375.663 212.18 375.746C211.606 375.828 211.062 376.053 210.598 376.4C210.285 376.673 210.04 377.014 209.881 377.397C209.723 377.78 209.655 378.195 209.683 378.609C209.712 379.191 209.867 379.76 210.139 380.276C210.411 380.792 210.792 381.242 211.257 381.595C212.814 382.733 214.838 382.79 216.464 382.835Z" fill="#141414"/>
<path d="M207.736 367.062H202.439V368.046H207.736V367.062Z" fill="#141414"/>
<path d="M224.455 367.062H219.158V368.046H224.455V367.062Z" fill="#141414"/>
<path d="M222.404 405.444C222.474 405.121 222.51 404.791 222.513 404.46C222.511 403.222 222.018 402.035 221.142 401.159C220.267 400.284 219.08 399.791 217.841 399.789H210.957C209.718 399.79 208.531 400.283 207.655 401.159C206.779 402.034 206.287 403.222 206.286 404.46C206.285 404.793 206.322 405.124 206.394 405.449C203.795 406.268 201.339 407.483 199.111 409.053C198.679 409.353 198.251 409.678 197.843 410.017C198.005 410.076 198.172 410.135 198.339 410.194C204.087 412.205 210.134 413.229 216.223 413.223C217.403 413.223 218.575 413.184 219.739 413.105C222.42 412.938 225.085 412.568 227.71 411.999C229.161 411.684 230.587 411.315 231.993 410.882C229.211 408.421 225.945 406.569 222.404 405.444Z" fill="#141414"/>
<path d="M221.519 412.482C220.881 412.529 220.267 412.744 219.739 413.106C222.42 412.939 225.085 412.57 227.71 412L221.519 412.482Z" fill="#141414"/>
<path d="M238.795 362.403L193.077 345.678C192.587 345.499 192.189 345.133 191.969 344.659C191.749 344.186 191.727 343.645 191.906 343.155L192.061 342.424C195.631 332.664 207.465 326.522 217.225 330.092L231.293 335.239C241.053 338.809 245.295 350.366 241.725 360.126L241.318 361.232C241.138 361.722 240.772 362.12 240.299 362.34C239.826 362.56 239.285 362.582 238.795 362.403Z" fill="#141414"/>
<path d="M241.258 363.332C177.536 365.683 171.968 357.677 191.384 345.087L195.503 337.508L242.708 354.718L241.258 363.332Z" fill="#141414"/>
<path d="M228.764 334.037C229.115 332.867 227.608 331.38 225.398 330.715C223.187 330.05 221.11 330.461 220.758 331.631C220.406 332.801 221.913 334.289 224.124 334.953C226.334 335.618 228.412 335.208 228.764 334.037Z" fill="#141414"/>
<path d="M216.223 414.699C209.967 414.706 203.756 413.654 197.851 411.587L197.338 411.404C184.97 406.934 174.588 398.223 168.039 386.819C161.49 375.415 159.198 362.058 161.57 349.123C163.942 336.188 170.825 324.514 180.995 316.177C191.165 307.839 203.963 303.379 217.112 303.589C230.261 303.799 242.909 308.667 252.807 317.325C262.705 325.983 269.211 337.872 271.169 350.876C273.126 363.88 270.408 377.157 263.497 388.346C256.587 399.534 245.932 407.909 233.427 411.981C233.078 412.092 232.749 412.197 232.415 412.297C231.018 412.726 229.536 413.112 228.022 413.441C225.324 414.026 222.585 414.406 219.83 414.578C218.646 414.658 217.429 414.699 216.223 414.699ZM216.223 306.52C203.842 306.521 191.858 310.889 182.379 318.853C172.9 326.818 166.533 337.87 164.397 350.065C162.262 362.261 164.495 374.819 170.704 385.531C176.913 396.242 186.7 404.422 198.344 408.63L198.831 408.804C204.42 410.76 210.301 411.755 216.223 411.749C217.363 411.749 218.513 411.71 219.639 411.634C222.249 411.471 224.843 411.111 227.398 410.557C228.83 410.247 230.23 409.882 231.559 409.473C231.888 409.375 232.2 409.276 232.513 409.176C244.423 405.297 254.558 397.297 261.097 386.614C267.636 375.931 270.15 363.265 268.187 350.895C266.224 338.524 259.913 327.259 250.388 319.125C240.863 310.991 228.749 306.521 216.223 306.52Z" fill="#141414"/>
<path d="M429.054 679.254H137.829C134.163 679.25 130.648 677.791 128.055 675.199C125.462 672.606 124.004 669.091 124 665.425V270.075C124.004 266.409 125.462 262.894 128.055 260.301C130.648 257.709 134.163 256.25 137.829 256.246H429.054C432.72 256.25 436.235 257.709 438.828 260.301C441.42 262.894 442.879 266.409 442.883 270.075V665.425C442.879 669.091 441.42 672.606 438.828 675.199C436.235 677.791 432.72 679.25 429.054 679.254ZM137.829 257.873C134.594 257.877 131.492 259.163 129.205 261.451C126.917 263.739 125.631 266.84 125.627 270.075V665.425C125.631 668.66 126.917 671.761 129.205 674.049C131.492 676.336 134.594 677.623 137.829 677.627H429.054C432.289 677.623 435.39 676.336 437.678 674.049C439.965 671.761 441.252 668.66 441.256 665.425V270.075C441.252 266.84 439.965 263.739 437.678 261.451C435.39 259.163 432.289 257.877 429.054 257.873H137.829Z" fill="#141414"/>
<path d="M372.676 358.925H290.269C288.541 358.923 286.885 358.235 285.664 357.013C284.444 355.791 283.758 354.134 283.758 352.406C283.758 350.678 284.444 349.021 285.664 347.799C286.885 346.577 288.541 345.889 290.269 345.887H372.676C373.532 345.886 374.381 346.054 375.173 346.381C375.965 346.708 376.684 347.188 377.291 347.793C377.897 348.399 378.378 349.118 378.706 349.909C379.034 350.701 379.203 351.549 379.203 352.406C379.203 353.263 379.034 354.111 378.706 354.903C378.378 355.694 377.897 356.413 377.291 357.019C376.684 357.624 375.965 358.104 375.173 358.431C374.381 358.759 373.532 358.926 372.676 358.925Z" fill="#EFEFEF"/>
<path d="M399.568 380.925H290.269C288.541 380.923 286.885 380.235 285.664 379.013C284.444 377.791 283.758 376.134 283.758 374.406C283.758 372.678 284.444 371.021 285.664 369.799C286.885 368.577 288.541 367.889 290.269 367.887H399.568C401.295 367.889 402.951 368.577 404.172 369.799C405.393 371.021 406.079 372.678 406.079 374.406C406.079 376.134 405.393 377.791 404.172 379.013C402.951 380.235 401.295 380.923 399.568 380.925Z" fill="#EFEFEF"/>
<path d="M372.556 465.316H167.314C166.458 465.317 165.609 465.149 164.817 464.822C164.025 464.495 163.306 464.015 162.699 463.409C162.093 462.804 161.612 462.085 161.284 461.293C160.956 460.502 160.787 459.653 160.787 458.797C160.787 457.94 160.956 457.091 161.284 456.3C161.612 455.508 162.093 454.789 162.699 454.184C163.306 453.578 164.025 453.098 164.817 452.771C165.609 452.444 166.458 452.276 167.314 452.277H372.556C374.284 452.279 375.94 452.967 377.161 454.19C378.381 455.412 379.067 457.069 379.067 458.797C379.067 460.524 378.381 462.181 377.161 463.404C375.94 464.626 374.284 465.314 372.556 465.316Z" fill="#EFEFEF"/>
<path d="M399.448 487.32H167.314C166.458 487.321 165.609 487.153 164.817 486.826C164.025 486.499 163.306 486.019 162.699 485.413C162.093 484.808 161.612 484.089 161.284 483.297C160.956 482.506 160.787 481.657 160.787 480.801C160.787 479.944 160.956 479.095 161.284 478.304C161.612 477.512 162.093 476.793 162.699 476.188C163.306 475.582 164.025 475.102 164.817 474.775C165.609 474.448 166.458 474.28 167.314 474.281H399.448C400.305 474.28 401.153 474.448 401.945 474.775C402.737 475.102 403.457 475.582 404.063 476.188C404.669 476.793 405.15 477.512 405.478 478.304C405.806 479.095 405.975 479.944 405.975 480.801C405.975 481.657 405.806 482.506 405.478 483.297C405.15 484.089 404.669 484.808 404.063 485.413C403.457 486.019 402.737 486.499 401.945 486.826C401.153 487.153 400.305 487.321 399.448 487.32Z" fill="#EFEFEF"/>
<path d="M372.556 537.89H167.314C165.585 537.89 163.927 537.203 162.704 535.981C161.482 534.758 160.795 533.1 160.795 531.371C160.795 529.642 161.482 527.984 162.704 526.761C163.927 525.538 165.585 524.852 167.314 524.852H372.556C374.285 524.852 375.943 525.538 377.165 526.761C378.388 527.984 379.075 529.642 379.075 531.371C379.075 533.1 378.388 534.758 377.165 535.981C375.943 537.203 374.285 537.89 372.556 537.89Z" fill="#EFEFEF"/>
<path d="M399.448 559.89H167.314C165.585 559.89 163.927 559.203 162.704 557.981C161.482 556.758 160.795 555.1 160.795 553.371C160.795 551.642 161.482 549.984 162.704 548.761C163.927 547.538 165.585 546.852 167.314 546.852H399.448C401.177 546.852 402.835 547.538 404.058 548.761C405.28 549.984 405.967 551.642 405.967 553.371C405.967 555.1 405.28 556.758 404.058 557.981C402.835 559.203 401.177 559.89 399.448 559.89Z" fill="#EFEFEF"/>
<path d="M372.556 610.46H167.314C165.585 610.46 163.927 609.774 162.704 608.551C161.482 607.328 160.795 605.67 160.795 603.941C160.795 602.212 161.482 600.554 162.704 599.331C163.927 598.109 165.585 597.422 167.314 597.422H372.556C374.285 597.422 375.943 598.109 377.165 599.331C378.388 600.554 379.075 602.212 379.075 603.941C379.075 605.67 378.388 607.328 377.165 608.551C375.943 609.774 374.285 610.46 372.556 610.46Z" fill="#EFEFEF"/>
<path d="M399.448 632.464H167.314C165.585 632.464 163.927 631.778 162.704 630.555C161.482 629.332 160.795 627.674 160.795 625.945C160.795 624.216 161.482 622.558 162.704 621.335C163.927 620.113 165.585 619.426 167.314 619.426H399.448C401.177 619.426 402.835 620.113 404.058 621.335C405.28 622.558 405.967 624.216 405.967 625.945C405.967 627.674 405.28 629.332 404.058 630.555C402.835 631.778 401.177 632.464 399.448 632.464Z" fill="#EFEFEF"/>
<path d="M808.134 580.008L516.909 580.008C513.243 580.004 509.728 578.546 507.135 575.953C504.543 573.36 503.085 569.845 503.08 566.179L503.08 170.829C503.084 167.163 504.543 163.648 507.135 161.055C509.728 158.463 513.243 157.004 516.909 157L808.134 157C811.8 157.004 815.315 158.462 817.908 161.055C820.5 163.648 821.959 167.163 821.963 170.829L821.963 566.179C821.959 569.845 820.501 573.36 817.908 575.953C815.316 578.545 811.8 580.004 808.134 580.008Z" fill="white"/>
<path d="M808.134 580.008L516.909 580.008C513.243 580.004 509.728 578.546 507.135 575.953C504.543 573.36 503.085 569.845 503.08 566.179L503.08 170.829C503.084 167.163 504.543 163.648 507.135 161.055C509.728 158.463 513.243 157.004 516.909 157L808.134 157C811.8 157.004 815.315 158.462 817.908 161.055C820.5 163.648 821.959 167.163 821.963 170.829L821.963 566.179C821.959 569.845 820.501 573.36 817.908 575.953C815.316 578.545 811.8 580.004 808.134 580.008ZM516.909 158.627C513.674 158.631 510.573 159.918 508.285 162.205C505.997 164.493 504.711 167.594 504.707 170.829L504.707 566.179C504.711 569.414 505.998 572.516 508.285 574.803C510.573 577.091 513.674 578.377 516.909 578.381L808.134 578.381C811.369 578.377 814.471 577.09 816.758 574.803C819.046 572.515 820.333 569.414 820.336 566.179L820.336 170.829C820.332 167.594 819.045 164.492 816.758 162.205C814.47 159.917 811.369 158.631 808.134 158.627L516.909 158.627Z" fill="#141414"/>
<path d="M649.53 259.351C649.53 270.049 646.358 280.507 640.414 289.402C634.471 298.297 626.023 305.23 616.14 309.324C606.256 313.418 595.38 314.489 584.888 312.402C574.396 310.315 564.758 305.163 557.193 297.598C549.629 290.034 544.477 280.396 542.39 269.904C540.303 259.411 541.374 248.536 545.468 238.652C549.562 228.769 556.495 220.321 565.39 214.377C574.285 208.434 584.742 205.262 595.44 205.262C609.784 205.266 623.54 210.966 633.682 221.109C643.825 231.252 649.525 245.007 649.53 259.351Z" fill="white"/>
<path d="M620.439 268.607C619.848 303.2 568.391 303.195 567.806 268.606C568.396 234.014 619.853 234.019 620.439 268.607Z" fill="#D17A22"/>
<path d="M593.078 279.343L593.051 278.36C599.829 279.265 601.289 270.864 594.453 274.005L596.013 262.602L596.988 262.735L595.66 272.435C602.858 271.364 600.196 280.326 593.078 279.343Z" fill="#141414"/>
<path d="M607.102 263.574H601.806V264.558H607.102V263.574Z" fill="#141414"/>
<path d="M590.384 263.574H585.088V264.558H590.384V263.574Z" fill="#141414"/>
<path d="M602.653 305.403C603.686 298.435 595.528 299.812 591.211 299.743C590.515 299.746 589.828 299.903 589.2 300.204C588.573 300.505 588.02 300.943 587.583 301.485C587.146 302.026 586.835 302.659 586.673 303.336C586.511 304.013 586.503 304.717 586.648 305.398C583.306 306.431 580.212 308.138 577.556 310.414C588.749 314.317 600.911 314.452 612.188 310.797C609.439 308.329 606.185 306.488 602.653 305.403Z" fill="#141414"/>
<path d="M581.75 256.161C586.627 253.342 592.541 255.505 597.579 256.687C607.137 259.625 620.541 255.946 621.703 244.56C622.913 233.971 608.427 228.069 603.797 238.608L605.145 238.432C590.13 216.116 564.01 216.963 564.182 247.643C564.127 248.59 565.602 248.587 565.657 247.642C565.104 229.563 577.069 217.205 593.983 228.823C597.76 231.78 601.091 235.267 603.872 239.176C605.633 241.15 606.016 232.649 614.447 234.876C623.725 238.47 620.697 251.756 612.404 254.673C602.158 259.908 591.06 249.758 581.005 254.886C580.843 254.989 580.727 255.15 580.682 255.336C580.637 255.522 580.665 255.718 580.762 255.883C580.858 256.049 581.015 256.17 581.2 256.222C581.384 256.274 581.581 256.252 581.75 256.161Z" fill="#141414"/>
<path d="M595.44 314.915C581.472 314.903 568.021 309.627 557.771 300.138C547.521 290.648 541.225 277.644 540.137 263.718C539.05 249.793 543.252 235.969 551.905 225.004C560.559 214.039 573.027 206.739 586.824 204.559C600.621 202.38 614.733 205.481 626.345 213.245C637.957 221.009 646.215 232.864 649.473 246.447C652.732 260.03 650.75 274.342 643.924 286.528C637.098 298.715 625.929 307.881 612.644 312.197C607.089 314.004 601.282 314.921 595.44 314.915ZM595.44 206.736C585.032 206.734 574.857 209.819 566.202 215.601C557.547 221.383 550.801 229.601 546.818 239.217C542.834 248.832 541.791 259.414 543.821 269.622C545.852 279.83 550.863 289.207 558.223 296.567C565.583 303.927 574.96 308.939 585.168 310.969C595.377 312.999 605.958 311.956 615.574 307.973C625.189 303.989 633.408 297.243 639.189 288.588C644.971 279.933 648.056 269.758 648.054 259.35C648.039 245.401 642.49 232.027 632.627 222.164C622.763 212.3 609.389 206.752 595.44 206.736Z" fill="#141414"/>
<path d="M751.756 259.679L669.349 259.679C667.62 259.679 665.962 258.992 664.74 257.77C663.517 256.547 662.83 254.889 662.83 253.16C662.83 251.431 663.517 249.773 664.74 248.55C665.962 247.328 667.62 246.641 669.349 246.641L751.756 246.641C753.485 246.641 755.143 247.327 756.366 248.55C757.588 249.773 758.275 251.431 758.275 253.16C758.275 254.889 757.588 256.547 756.366 257.77C755.143 258.992 753.485 259.679 751.756 259.679Z" fill="#EFEFEF"/>
<path d="M778.648 281.683L669.35 281.683C668.493 281.684 667.644 281.516 666.852 281.189C666.06 280.862 665.341 280.382 664.735 279.777C664.128 279.171 663.647 278.452 663.319 277.661C662.991 276.869 662.822 276.021 662.822 275.164C662.822 274.307 662.991 273.459 663.319 272.667C663.647 271.876 664.128 271.157 664.735 270.551C665.341 269.946 666.06 269.466 666.852 269.139C667.644 268.811 668.493 268.644 669.35 268.645L778.648 268.645C780.377 268.645 782.035 269.331 783.258 270.554C784.481 271.777 785.168 273.435 785.168 275.164C785.168 276.893 784.481 278.551 783.258 279.774C782.035 280.996 780.377 281.683 778.648 281.683Z" fill="#EFEFEF"/>
<path d="M751.636 366.074L546.395 366.074C544.667 366.072 543.011 365.384 541.79 364.162C540.57 362.939 539.884 361.282 539.884 359.555C539.884 357.827 540.57 356.17 541.79 354.948C543.011 353.725 544.667 353.037 546.395 353.035L751.636 353.035C753.365 353.035 755.024 353.722 756.246 354.945C757.469 356.167 758.156 357.825 758.156 359.554C758.156 361.283 757.469 362.942 756.246 364.164C755.024 365.387 753.365 366.074 751.636 366.074Z" fill="#EFEFEF"/>
<path d="M778.528 388.074L546.395 388.074C545.538 388.075 544.689 387.907 543.897 387.58C543.105 387.253 542.386 386.773 541.779 386.167C541.173 385.562 540.692 384.843 540.364 384.051C540.036 383.26 539.867 382.411 539.867 381.555C539.867 380.698 540.036 379.849 540.364 379.058C540.692 378.266 541.173 377.547 541.779 376.942C542.386 376.336 543.105 375.856 543.897 375.529C544.689 375.202 545.538 375.034 546.395 375.035L778.528 375.035C780.257 375.035 781.915 375.722 783.138 376.945C784.361 378.167 785.047 379.825 785.047 381.554C785.047 383.283 784.361 384.942 783.138 386.164C781.915 387.387 780.257 388.074 778.528 388.074Z" fill="#EFEFEF"/>
<path d="M751.636 438.644L546.395 438.644C544.667 438.642 543.011 437.954 541.79 436.732C540.57 435.51 539.884 433.853 539.884 432.125C539.884 430.397 540.57 428.74 541.79 427.518C543.011 426.296 544.667 425.608 546.395 425.606L751.636 425.605C753.365 425.605 755.024 426.292 756.246 427.515C757.469 428.738 758.156 430.396 758.156 432.125C758.156 433.854 757.469 435.512 756.246 436.735C755.024 437.957 753.365 438.644 751.636 438.644Z" fill="#EFEFEF"/>
<path d="M778.528 460.648L546.395 460.648C545.538 460.649 544.689 460.481 543.897 460.154C543.105 459.827 542.386 459.347 541.779 458.742C541.173 458.136 540.692 457.417 540.364 456.626C540.036 455.834 539.867 454.986 539.867 454.129C539.867 453.272 540.036 452.424 540.364 451.632C540.692 450.841 541.173 450.122 541.779 449.516C542.386 448.911 543.105 448.431 543.897 448.103C544.689 447.776 545.538 447.608 546.395 447.61L778.528 447.609C780.257 447.609 781.915 448.296 783.138 449.519C784.361 450.741 785.047 452.4 785.047 454.129C785.047 455.858 784.361 457.516 783.138 458.738C781.915 459.961 780.257 460.648 778.528 460.648Z" fill="#EFEFEF"/>
<path d="M751.636 511.218L546.394 511.218C544.665 511.218 543.007 510.532 541.784 509.309C540.562 508.086 539.875 506.428 539.875 504.699C539.875 502.97 540.562 501.312 541.784 500.089C543.007 498.867 544.665 498.18 546.394 498.18L751.636 498.18C753.365 498.18 755.023 498.867 756.246 500.089C757.468 501.312 758.155 502.97 758.155 504.699C758.155 506.428 757.468 508.086 756.246 509.309C755.023 510.531 753.365 511.218 751.636 511.218Z" fill="#EFEFEF"/>
<path d="M778.528 533.222L546.394 533.222C544.665 533.222 543.007 532.536 541.784 531.313C540.562 530.09 539.875 528.432 539.875 526.703C539.875 524.974 540.562 523.316 541.784 522.093C543.007 520.871 544.665 520.184 546.394 520.184L778.528 520.184C780.257 520.184 781.915 520.87 783.138 522.093C784.36 523.316 785.047 524.974 785.047 526.703C785.047 528.432 784.36 530.09 783.138 531.313C781.915 532.535 780.257 533.222 778.528 533.222Z" fill="#EFEFEF"/>
<path d="M632.423 750.023H341.198C337.532 750.019 334.017 748.561 331.424 745.968C328.832 743.376 327.373 739.861 327.369 736.194V340.845C327.373 337.178 328.832 333.663 331.424 331.071C334.017 328.478 337.532 327.02 341.198 327.016H632.423C636.089 327.02 639.604 328.478 642.197 331.071C644.789 333.663 646.248 337.178 646.252 340.845V736.194C646.248 739.861 644.789 743.376 642.197 745.968C639.604 748.561 636.089 750.019 632.423 750.023Z" fill="white"/>
<path d="M365.487 428.797C365.478 435.916 366.878 442.967 369.608 449.542C372.337 456.117 376.341 462.087 381.39 467.107C381.813 467.525 382.245 467.943 382.683 468.351C385.319 470.814 388.195 473.006 391.269 474.896C391.858 475.26 392.449 475.609 393.053 475.948C396.161 477.7 399.436 479.138 402.829 480.241C403.414 480.433 404.009 480.615 404.604 480.782C415.389 483.875 426.867 483.552 437.461 479.857C437.668 479.784 437.874 479.71 438.076 479.636C447.376 476.253 455.569 470.383 461.764 462.666C467.96 454.949 471.919 445.68 473.212 435.869C474.505 426.058 473.082 416.08 469.097 407.021C465.113 397.963 458.72 390.171 450.614 384.493C442.508 378.816 433 375.472 423.125 374.823C413.251 374.175 403.387 376.248 394.609 380.817C385.83 385.385 378.473 392.274 373.338 400.734C368.204 409.194 365.488 418.9 365.487 428.797Z" fill="white"/>
<path d="M408.154 455.307C408.18 459.498 406.636 463.546 403.825 466.654C401.044 469.706 396.903 471.73 392.725 470.893C388.878 470.122 385.751 466.759 386.141 462.691C386.206 461.81 386.462 460.954 386.892 460.182C387.321 459.41 387.914 458.741 388.629 458.221C389.344 457.702 390.163 457.345 391.03 457.174C391.897 457.004 392.79 457.025 393.648 457.235C397.303 458.184 398.759 463.451 395.714 465.924C394.983 466.517 393.933 465.479 394.671 464.881C395.126 464.465 395.469 463.941 395.669 463.358C395.869 462.775 395.92 462.152 395.817 461.544C395.713 460.936 395.459 460.364 395.077 459.88C394.696 459.397 394.199 459.016 393.632 458.774C392.963 458.56 392.254 458.501 391.559 458.601C390.864 458.701 390.201 458.958 389.62 459.353C389.039 459.747 388.556 460.269 388.206 460.878C387.856 461.487 387.65 462.167 387.602 462.868C387.36 466.297 389.988 468.88 393.209 469.488C396.695 470.146 400.15 468.362 402.512 465.9C405.219 463.041 406.712 459.244 406.679 455.307C406.685 455.116 406.766 454.934 406.903 454.801C407.041 454.668 407.225 454.594 407.416 454.594C407.608 454.594 407.792 454.668 407.929 454.801C408.067 454.934 408.148 455.116 408.154 455.307Z" fill="#141414"/>
<path d="M422.559 464.684C437.093 464.684 448.875 452.902 448.875 438.367C448.875 423.833 437.093 412.051 422.559 412.051C408.025 412.051 396.242 423.833 396.242 438.367C396.242 452.902 408.025 464.684 422.559 464.684Z" fill="#D17A22"/>
<path d="M421.212 449.597L421.185 448.614C423.014 448.563 424.627 448.448 425.839 447.563C426.183 447.297 426.465 446.961 426.667 446.577C426.869 446.193 426.986 445.769 427.01 445.336C427.031 445.071 426.991 444.805 426.893 444.558C426.795 444.311 426.641 444.09 426.443 443.913C425.985 443.635 425.461 443.486 424.926 443.481C424.39 443.476 423.863 443.616 423.401 443.886L422.587 444.259L424.147 432.855L425.122 432.989L423.794 442.689C424.338 442.487 424.923 442.425 425.496 442.508C426.07 442.59 426.614 442.815 427.078 443.161C427.39 443.434 427.636 443.776 427.794 444.159C427.953 444.542 428.021 444.957 427.993 445.37C427.964 445.953 427.808 446.522 427.537 447.038C427.265 447.554 426.883 448.004 426.419 448.357C424.862 449.495 422.838 449.551 421.212 449.597Z" fill="#141414"/>
<path d="M435.237 433.824H429.94V434.808H435.237V433.824Z" fill="#141414"/>
<path d="M418.518 433.824H413.222V434.808H418.518V433.824Z" fill="#141414"/>
<path d="M404.604 480.78C415.388 483.873 426.867 483.55 437.461 479.855C437.667 479.782 437.874 479.708 438.075 479.634C435.579 477.708 432.755 476.249 429.741 475.327C429.954 474.57 429.95 473.77 429.731 473.015C429.432 472.059 428.833 471.225 428.023 470.637C427.212 470.048 426.233 469.738 425.231 469.75H418.819C417.82 469.737 416.842 470.047 416.033 470.635C415.224 471.222 414.627 472.056 414.33 473.011C414.11 473.766 414.107 474.569 414.32 475.327C411.665 476.14 409.155 477.37 406.885 478.97C406.428 479.29 405.985 479.624 405.558 479.973C405.233 480.234 404.913 480.504 404.604 480.78Z" fill="#141414"/>
<path d="M443.175 435.578C443.175 440.013 445.358 443.691 448.195 444.33C448.484 444.395 448.779 444.428 449.076 444.429C452.326 444.429 454.976 440.46 454.976 435.578C455.05 433.06 454.247 430.596 452.704 428.605C452.225 428.024 451.635 427.545 450.968 427.194C450.384 426.889 449.735 426.728 449.076 426.727C448.17 426.738 447.291 427.034 446.563 427.572C444.561 428.988 443.175 432.042 443.175 435.578Z" fill="#141414"/>
<path d="M390.56 435.578C390.56 439.393 392.173 442.649 394.435 443.893C395.054 444.24 395.751 444.424 396.461 444.429C396.619 444.429 396.776 444.419 396.933 444.399C399.962 444.04 402.362 440.224 402.362 435.578C402.362 431.855 400.822 428.664 398.649 427.361C397.992 426.953 397.235 426.733 396.461 426.727C395.801 426.728 395.152 426.889 394.568 427.194C393.9 427.546 393.308 428.028 392.827 428.61C391.289 430.601 390.488 433.063 390.56 435.578Z" fill="#141414"/>
<path d="M394.803 443.044C394.92 443.044 395.036 443.016 395.14 442.962C395.244 442.909 395.334 442.831 395.402 442.736C395.471 442.641 395.515 442.531 395.533 442.415C395.55 442.299 395.54 442.181 395.502 442.07C394.093 437.878 393.668 433.418 394.263 429.035C394.858 424.652 396.455 420.466 398.93 416.801C401.406 413.136 404.693 410.091 408.537 407.903C412.38 405.715 416.676 404.443 421.092 404.185C425.507 403.928 429.922 404.692 433.994 406.418C438.066 408.144 441.685 410.786 444.57 414.138C447.455 417.49 449.528 421.463 450.628 425.746C451.728 430.03 451.826 434.51 450.913 438.837C450.873 439.028 450.911 439.228 451.018 439.391C451.125 439.555 451.292 439.669 451.483 439.71C451.674 439.75 451.874 439.713 452.037 439.606C452.201 439.5 452.316 439.333 452.357 439.142C453.317 434.592 453.215 429.882 452.058 425.378C450.902 420.874 448.723 416.697 445.69 413.172C442.657 409.648 438.852 406.87 434.57 405.055C430.289 403.24 425.647 402.437 421.005 402.708C416.363 402.979 411.845 404.316 407.804 406.617C403.763 408.918 400.307 412.119 397.705 415.973C395.102 419.827 393.424 424.229 392.799 428.837C392.175 433.445 392.621 438.134 394.104 442.542C394.154 442.688 394.248 442.815 394.373 442.905C394.498 442.995 394.649 443.044 394.803 443.044Z" fill="#141414"/>
<path d="M435.778 421.319C436.215 422.032 436.396 422.872 436.293 423.701C436.189 424.531 435.807 425.301 435.209 425.885C433.78 427.48 431.502 427.581 429.523 427.285C427.304 426.953 424.949 425.913 422.702 426.613C420.786 427.211 419.42 428.948 417.43 429.384C415.665 429.771 413.555 429.259 412.936 427.378C412.639 426.474 414.063 426.087 414.359 426.986C414.759 428.203 416.487 428.179 417.477 427.842C419.064 427.301 420.286 425.987 421.846 425.36C423.705 424.784 425.696 424.789 427.552 425.375C429.316 425.773 431.347 426.362 433.104 425.62C434.405 425.07 435.44 423.34 434.504 422.063C433.943 421.297 435.222 420.56 435.778 421.319Z" fill="#141414"/>
<path d="M419.577 484.36C414.374 484.365 409.196 483.637 404.195 482.198C403.607 482.033 402.99 481.845 402.37 481.642C398.886 480.507 395.523 479.031 392.33 477.232C391.731 476.897 391.13 476.542 390.494 476.15C387.338 474.209 384.384 471.957 381.676 469.428C381.229 469.011 380.786 468.583 380.353 468.156C371.836 459.664 366.305 448.638 364.589 436.734C362.874 424.83 365.068 412.69 370.841 402.14C376.615 391.589 385.656 383.197 396.606 378.223C407.557 373.25 419.825 371.964 431.569 374.559C443.313 377.153 453.897 383.489 461.733 392.613C469.568 401.738 474.231 413.158 475.022 425.159C475.812 437.16 472.687 449.094 466.116 459.167C459.544 469.24 449.882 476.909 438.58 481.021C438.377 481.095 438.167 481.17 437.957 481.245C432.05 483.314 425.836 484.367 419.577 484.36ZM419.577 376.181C409.164 376.182 398.985 379.272 390.329 385.061C381.673 390.85 374.929 399.077 370.952 408.701C366.974 418.325 365.942 428.912 367.986 439.123C370.029 449.334 375.057 458.709 382.431 466.061C382.839 466.464 383.262 466.872 383.689 467.271C386.254 469.667 389.052 471.799 392.041 473.638C392.644 474.009 393.21 474.343 393.775 474.66C396.799 476.364 399.984 477.763 403.285 478.837C403.868 479.028 404.445 479.204 405.003 479.36C415.496 482.372 426.665 482.058 436.973 478.464L437.569 478.249C449.194 474.018 458.956 465.826 465.141 455.113C471.327 444.4 473.54 431.85 471.393 419.667C469.245 407.484 462.874 396.448 453.398 388.495C443.922 380.543 431.948 376.183 419.577 376.181Z" fill="#141414"/>
<path d="M632.423 750.023H341.198C337.532 750.019 334.017 748.561 331.424 745.968C328.832 743.376 327.373 739.861 327.369 736.194V340.845C327.373 337.178 328.832 333.663 331.424 331.071C334.017 328.478 337.532 327.02 341.198 327.016H632.423C636.089 327.02 639.604 328.478 642.197 331.071C644.789 333.663 646.248 337.178 646.252 340.845V736.194C646.248 739.861 644.789 743.376 642.197 745.968C639.604 748.561 636.089 750.019 632.423 750.023ZM341.198 328.643C337.963 328.646 334.862 329.933 332.574 332.221C330.287 334.508 329 337.61 328.996 340.845V736.194C329 739.429 330.287 742.531 332.574 744.818C334.862 747.106 337.963 748.393 341.198 748.396H632.423C635.658 748.393 638.759 747.106 641.047 744.818C643.334 742.531 644.621 739.429 644.625 736.194V340.845C644.621 337.61 643.334 334.508 641.047 332.221C638.759 329.933 635.658 328.646 632.423 328.643H341.198Z" fill="#141414"/>
<path d="M576.045 429.699H493.638C491.909 429.699 490.251 429.012 489.029 427.789C487.806 426.567 487.119 424.908 487.119 423.179C487.119 421.45 487.806 419.792 489.029 418.57C490.251 417.347 491.909 416.66 493.638 416.66H576.045C577.774 416.66 579.432 417.347 580.655 418.57C581.877 419.792 582.564 421.45 582.564 423.179C582.564 424.908 581.877 426.567 580.655 427.789C579.432 429.012 577.774 429.699 576.045 429.699Z" fill="#D17A22"/>
<path d="M602.937 451.699H493.638C491.909 451.699 490.251 451.012 489.029 449.789C487.806 448.567 487.119 446.908 487.119 445.179C487.119 443.45 487.806 441.792 489.029 440.57C490.251 439.347 491.909 438.66 493.638 438.66H602.937C604.666 438.66 606.324 439.347 607.547 440.57C608.769 441.792 609.456 443.45 609.456 445.179C609.456 446.908 608.769 448.567 607.547 449.789C606.324 451.012 604.666 451.699 602.937 451.699Z" fill="#D17A22"/>
<path d="M575.925 536.089H370.683C368.954 536.089 367.296 535.403 366.074 534.18C364.851 532.957 364.164 531.299 364.164 529.57C364.164 527.841 364.851 526.183 366.074 524.96C367.296 523.738 368.954 523.051 370.683 523.051H575.925C577.654 523.051 579.312 523.738 580.535 524.96C581.757 526.183 582.444 527.841 582.444 529.57C582.444 531.299 581.757 532.957 580.535 534.18C579.312 535.403 577.654 536.089 575.925 536.089Z" fill="#141414"/>
<path d="M602.817 558.089H370.683C368.954 558.089 367.296 557.403 366.074 556.18C364.851 554.957 364.164 553.299 364.164 551.57C364.164 549.841 364.851 548.183 366.074 546.96C367.296 545.738 368.954 545.051 370.683 545.051H602.817C604.546 545.051 606.204 545.738 607.427 546.96C608.649 548.183 609.336 549.841 609.336 551.57C609.336 553.299 608.649 554.957 607.427 556.18C606.204 557.403 604.546 558.089 602.817 558.089Z" fill="#141414"/>
<path d="M575.926 608.664H370.684C368.956 608.661 367.3 607.974 366.079 606.751C364.859 605.529 364.173 603.872 364.173 602.144C364.173 600.417 364.859 598.76 366.079 597.537C367.3 596.315 368.956 595.627 370.684 595.625H575.926C577.655 595.625 579.313 596.312 580.535 597.534C581.758 598.757 582.445 600.415 582.445 602.144C582.445 603.873 581.758 605.532 580.535 606.754C579.313 607.977 577.655 608.664 575.926 608.664Z" fill="#141414"/>
<path d="M602.818 630.664H370.684C368.956 630.661 367.3 629.974 366.079 628.751C364.859 627.529 364.173 625.872 364.173 624.144C364.173 622.417 364.859 620.76 366.079 619.537C367.3 618.315 368.956 617.627 370.684 617.625H602.818C604.547 617.625 606.205 618.312 607.427 619.534C608.65 620.757 609.337 622.415 609.337 624.144C609.337 625.873 608.65 627.532 607.427 628.754C606.205 629.977 604.547 630.664 602.818 630.664Z" fill="#141414"/>
<path d="M575.925 681.234H370.683C368.954 681.234 367.296 680.547 366.074 679.324C364.851 678.102 364.164 676.444 364.164 674.715C364.164 672.986 364.851 671.327 366.074 670.105C367.296 668.882 368.954 668.195 370.683 668.195H575.925C577.654 668.195 579.312 668.882 580.535 670.105C581.757 671.327 582.444 672.986 582.444 674.715C582.444 676.444 581.757 678.102 580.535 679.324C579.312 680.547 577.654 681.234 575.925 681.234Z" fill="#141414"/>
<path d="M602.817 703.238H370.683C368.954 703.238 367.296 702.551 366.074 701.328C364.851 700.106 364.164 698.448 364.164 696.719C364.164 694.989 364.851 693.331 366.074 692.109C367.296 690.886 368.954 690.199 370.683 690.199H602.817C604.546 690.199 606.204 690.886 607.427 692.109C608.649 693.331 609.336 694.989 609.336 696.719C609.336 698.448 608.649 700.106 607.427 701.328C606.204 702.551 604.546 703.238 602.817 703.238Z" fill="#141414"/>
<path d="M629.044 660C620.603 659.991 612.243 661.645 604.441 664.869C596.64 668.092 589.551 672.822 583.579 678.788C577.607 684.753 572.869 691.837 569.637 699.635C566.404 707.432 564.74 715.79 564.74 724.231C564.74 732.672 566.404 741.031 569.636 748.828C572.869 756.626 577.606 763.71 583.578 769.675C589.55 775.641 596.64 780.371 604.441 783.594C612.242 786.818 620.602 788.473 629.043 788.463C646.059 788.433 662.368 781.653 674.389 769.61C686.41 757.568 693.162 741.247 693.162 724.232C693.162 707.216 686.41 690.896 674.389 678.853C662.368 666.811 646.059 660.03 629.044 660Z" fill="#D17A22"/>
<path d="M622.949 750.906C621.258 750.908 619.612 750.361 618.259 749.347L618.175 749.284L600.512 735.772C598.862 734.505 597.782 732.634 597.511 730.571C597.239 728.508 597.798 726.422 599.063 724.771C600.329 723.119 602.199 722.038 604.262 721.765C606.324 721.492 608.411 722.048 610.063 723.313L621.505 732.086L648.541 696.815C649.168 695.997 649.949 695.311 650.842 694.795C651.734 694.28 652.719 693.945 653.74 693.81C654.762 693.675 655.8 693.742 656.795 694.009C657.791 694.275 658.724 694.735 659.542 695.362L659.544 695.363L659.376 695.596L659.548 695.363C661.198 696.631 662.277 698.502 662.55 700.565C662.822 702.627 662.264 704.714 661 706.366L629.199 747.835C628.464 748.79 627.518 749.564 626.435 750.094C625.352 750.625 624.162 750.9 622.956 750.896L622.949 750.906Z" fill="white"/>
</g>
<defs>
<clipPath id="clip0_106_503">
<rect width="697.963" height="631.463" fill="white" transform="translate(124 157)"/>
</clipPath>
</defs>
</svg>
