<svg width="945" height="945" viewBox="0 0 945 945" fill="none" xmlns="http://www.w3.org/2000/svg">
<g clip-path="url(#clip0_105_224)">
<path d="M158.542 648.182H782.542V610.565C782.542 602.709 773.074 594.976 756.567 589.349L756.397 589.291C745.252 585.358 674.006 557.376 635.469 558.222C615.112 558.668 597.683 562.118 583.668 568.478C540.043 588.281 482.738 595.597 452.462 589.85C425.78 584.784 352.531 576.406 325.466 576.784C287.561 577.306 287.45 583.638 248.542 604.076C233.681 611.875 228.123 612.854 158.542 619.076V648.182Z" fill="#F2F2F2"/>
<path d="M57.943 592.895C56.5842 572.714 65.1516 552.327 82.9042 544.836C79.3155 565.629 83.7371 588.734 95.1381 608.765C99.5786 616.566 105.281 624.896 104.068 633.048C103.313 638.12 99.862 642.147 95.6456 644.769C91.4288 647.391 86.4602 648.791 81.5522 650.165L80.7048 651.055C69.0402 632.989 59.3018 613.076 57.943 592.895Z" fill="#F2F2F2"/>
<path d="M83.165 545.203C74.3611 558.758 70.4497 574.912 72.0781 590.993C72.3474 594.666 73.1701 598.277 74.5183 601.704C75.9926 605.138 78.2538 608.177 81.1193 610.575C83.7715 612.885 86.7142 614.979 88.838 617.814C89.8862 619.197 90.6447 620.777 91.068 622.461C91.4914 624.144 91.5709 625.895 91.3018 627.61C90.6827 631.672 88.5796 635.065 86.3953 638.295C83.97 641.882 81.3875 645.56 80.9475 650.174C80.8942 650.733 80.0006 650.496 80.0538 649.937C80.8193 641.91 87.5891 637.029 89.8645 629.719C90.4832 627.953 90.6943 626.069 90.4817 624.21C90.2692 622.351 89.6387 620.563 88.6373 618.982C86.6584 615.984 83.6254 613.823 80.9226 611.504C78.0926 609.192 75.7908 606.301 74.1723 603.025C72.6599 599.656 71.7015 596.064 71.3342 592.389C70.4163 584.464 70.7924 576.444 72.4477 568.64C74.2183 560.051 77.6139 551.879 82.4517 544.565C82.7485 544.119 83.4598 544.76 83.165 545.203Z" fill="white"/>
<path d="M71.2854 585.59C68.3651 585.018 65.6957 583.55 63.6485 581.391C61.6013 579.231 60.2782 576.487 59.8632 573.54C59.799 572.966 60.6914 572.965 60.7557 573.54C61.1375 576.284 62.3698 578.839 64.2793 580.846C66.1888 582.854 68.6795 584.212 71.4011 584.73C71.4582 584.737 71.5134 584.755 71.5635 584.783C71.6135 584.812 71.6575 584.85 71.6927 584.895C71.7279 584.941 71.7538 584.993 71.7687 585.048C71.7837 585.104 71.7874 585.162 71.7797 585.219C71.7721 585.276 71.7531 585.331 71.7241 585.38C71.695 585.43 71.6563 585.473 71.6103 585.508C71.5643 585.542 71.5119 585.567 71.4561 585.582C71.4004 585.596 71.3423 585.599 71.2854 585.59Z" fill="white"/>
<path d="M79.642 609.56C81.8211 607.937 83.6316 605.87 84.9543 603.496C86.277 601.122 87.082 598.495 87.3163 595.787C87.3717 595.229 88.2654 595.466 88.21 596.024C87.9606 598.841 87.117 601.572 85.735 604.039C84.353 606.506 82.4639 608.652 80.1922 610.336C79.7575 610.654 79.2097 609.877 79.642 609.56Z" fill="white"/>
<path d="M75.2593 560.714C76.2778 561.151 77.3912 561.322 78.494 561.208C79.5967 561.095 80.6522 560.701 81.5603 560.066C81.9898 559.742 82.5372 560.519 82.1104 560.841C81.1043 561.539 79.9386 561.972 78.7209 562.1C77.5032 562.228 76.2729 562.047 75.1437 561.574C75.0265 561.54 74.9243 561.467 74.8536 561.367C74.783 561.268 74.7481 561.147 74.7547 561.025C74.7629 560.969 74.7833 560.916 74.8143 560.869C74.8454 560.822 74.8864 560.782 74.9345 560.752C74.9826 560.722 75.0366 560.704 75.0927 560.697C75.1488 560.69 75.2056 560.696 75.2593 560.714Z" fill="white"/>
<path d="M147.674 577.716C147.413 577.927 147.152 578.137 146.892 578.356C143.402 581.203 140.186 584.369 137.285 587.815C137.056 588.077 136.829 588.347 136.609 588.616C129.67 597.108 124.59 606.962 121.699 617.541C120.514 621.855 119.682 626.259 119.211 630.708C118.55 636.912 118.345 643.762 115.679 648.945C115.409 649.487 115.101 650.01 114.757 650.51L82.0243 652.171C81.9427 652.137 81.8622 652.111 81.7803 652.077L80.4849 652.204C80.4928 651.968 80.5062 651.725 80.5141 651.489C80.5181 651.352 80.5295 651.215 80.5335 651.078C80.5385 650.987 80.5438 650.895 80.543 650.812C80.5445 650.781 80.5464 650.751 80.5494 650.728C80.5485 650.644 80.5567 650.568 80.5573 650.492C80.6285 649.13 80.7069 647.767 80.8006 646.404C80.7992 646.396 80.7992 646.396 80.8051 646.388C81.3676 636.137 83.2289 625.999 86.3441 616.216C86.4404 615.93 86.5349 615.637 86.6461 615.35C88.0991 611.111 89.9378 607.013 92.1392 603.109C93.3421 600.996 94.6661 598.955 96.1048 596.995C99.8299 591.947 104.437 587.614 109.705 584.205C115.081 580.624 121.132 578.179 127.487 577.02C133.842 575.861 140.367 576.012 146.661 577.464C147.001 577.545 147.333 577.627 147.674 577.716Z" fill="#F2F2F2"/>
<path d="M147.681 578.138C132.337 581.995 118.884 591.222 109.759 604.146C107.756 606.898 106.258 609.983 105.334 613.259C104.529 616.665 104.66 620.225 105.714 623.562C106.637 626.807 107.95 630.072 108.084 633.373C108.158 634.989 107.848 636.598 107.181 638.071C106.513 639.544 105.506 640.838 104.242 641.847C101.2 644.374 97.2581 645.53 93.3446 646.521C88.9994 647.621 84.4586 648.692 81.2357 651.72C80.8452 652.087 80.2018 651.38 80.5917 651.014C86.199 645.746 95.1767 646.336 101.677 642.487C104.711 640.692 107.081 637.896 107.189 634.086C107.284 630.756 105.933 627.388 104.97 624.107C103.897 620.848 103.639 617.376 104.217 613.994C104.956 610.666 106.323 607.51 108.244 604.695C112.411 598.373 117.687 592.858 123.818 588.415C130.914 583.23 138.931 579.442 147.443 577.253C147.979 577.114 148.213 577.999 147.681 578.138Z" fill="white"/>
<path d="M112.377 599.814C107.829 595.513 106.691 588.888 109.692 584.341C109.988 583.893 110.777 584.429 110.48 584.877C107.669 589.138 108.756 595.249 113.008 599.27C113.455 599.693 112.822 600.235 112.377 599.814Z" fill="white"/>
<path d="M105.033 621.946C107.794 622.155 110.568 621.801 113.188 620.905C115.808 620.009 118.218 618.59 120.272 616.735C120.664 616.369 121.308 617.076 120.916 617.441C118.774 619.368 116.262 620.839 113.533 621.766C110.804 622.692 107.916 623.055 105.043 622.831C104.464 622.796 104.457 621.912 105.033 621.946Z" fill="white"/>
<path d="M131.171 584.448C131.859 585.408 132.75 586.203 133.781 586.779C134.811 587.354 135.956 587.695 137.134 587.777C137.712 587.805 137.718 588.689 137.143 588.662C135.843 588.566 134.578 588.187 133.438 587.554C132.298 586.92 131.309 586.046 130.54 584.992C130.458 584.909 130.412 584.798 130.411 584.681C130.409 584.565 130.453 584.452 130.534 584.367C130.63 584.297 130.75 584.266 130.868 584.281C130.987 584.296 131.095 584.356 131.171 584.448Z" fill="white"/>
<path d="M877.461 592.895C878.82 572.714 870.252 552.327 852.5 544.836C856.088 565.629 851.667 588.734 840.266 608.765C835.825 616.566 830.122 624.896 831.336 633.048C832.091 638.12 835.542 642.147 839.758 644.769C843.975 647.391 848.944 648.791 853.852 650.165L854.699 651.055C866.364 632.989 876.102 613.076 877.461 592.895Z" fill="#F2F2F2"/>
<path d="M852.239 545.203C861.043 558.758 864.954 574.912 863.326 590.993C863.056 594.666 862.234 598.277 860.885 601.704C859.411 605.138 857.15 608.177 854.284 610.575C851.632 612.885 848.69 614.979 846.566 617.814C845.517 619.197 844.759 620.777 844.336 622.461C843.912 624.144 843.833 625.895 844.102 627.61C844.721 631.672 846.824 635.065 849.008 638.295C851.434 641.882 854.016 645.56 854.456 650.174C854.509 650.733 855.403 650.496 855.35 649.937C854.584 641.91 847.815 637.029 845.539 629.719C844.92 627.953 844.709 626.069 844.922 624.21C845.134 622.351 845.765 620.563 846.766 618.982C848.745 615.984 851.778 613.823 854.481 611.504C857.311 609.192 859.613 606.301 861.231 603.025C862.744 599.656 863.702 596.064 864.07 592.389C864.987 584.464 864.611 576.444 862.956 568.64C861.185 560.051 857.79 551.879 852.952 544.565C852.655 544.119 851.944 544.76 852.239 545.203Z" fill="white"/>
<path d="M864.118 585.59C867.039 585.018 869.708 583.55 871.755 581.391C873.802 579.231 875.126 576.487 875.541 573.54C875.605 572.966 874.712 572.965 874.648 573.54C874.266 576.284 873.034 578.839 871.124 580.846C869.215 582.854 866.724 584.212 864.003 584.73C863.946 584.737 863.89 584.755 863.84 584.783C863.79 584.812 863.746 584.85 863.711 584.895C863.676 584.941 863.65 584.993 863.635 585.048C863.62 585.104 863.616 585.162 863.624 585.219C863.632 585.276 863.651 585.331 863.68 585.38C863.709 585.43 863.747 585.473 863.793 585.508C863.839 585.542 863.892 585.567 863.948 585.582C864.003 585.596 864.061 585.599 864.118 585.59Z" fill="white"/>
<path d="M855.762 609.56C853.583 607.937 851.772 605.87 850.45 603.496C849.127 601.122 848.322 598.495 848.088 595.787C848.032 595.229 847.139 595.466 847.194 596.024C847.443 598.841 848.287 601.572 849.669 604.039C851.051 606.506 852.94 608.652 855.212 610.336C855.646 610.654 856.194 609.877 855.762 609.56Z" fill="white"/>
<path d="M860.144 560.714C859.126 561.151 858.012 561.322 856.91 561.208C855.807 561.095 854.751 560.701 853.843 560.066C853.414 559.742 852.866 560.519 853.293 560.841C854.299 561.539 855.465 561.972 856.683 562.1C857.9 562.228 859.131 562.047 860.26 561.574C860.377 561.54 860.479 561.467 860.55 561.367C860.621 561.268 860.656 561.147 860.649 561.025C860.641 560.969 860.62 560.916 860.589 560.869C860.558 560.822 860.517 560.782 860.469 560.752C860.421 560.722 860.367 560.704 860.311 560.697C860.255 560.69 860.198 560.696 860.144 560.714Z" fill="white"/>
<path d="M787.729 577.716C787.991 577.927 788.252 578.137 788.512 578.356C792.002 581.203 795.218 584.369 798.119 587.815C798.348 588.077 798.575 588.347 798.795 588.616C805.734 597.108 810.814 606.962 813.705 617.541C814.89 621.855 815.722 626.259 816.193 630.708C816.854 636.912 817.059 643.762 819.725 648.945C819.995 649.487 820.303 650.01 820.647 650.51L853.38 652.171C853.461 652.137 853.542 652.111 853.624 652.077L854.919 652.204C854.911 651.968 854.898 651.725 854.89 651.489C854.886 651.352 854.875 651.215 854.87 651.078C854.865 650.987 854.86 650.895 854.861 650.812C854.859 650.781 854.858 650.751 854.855 650.728C854.855 650.645 854.847 650.568 854.847 650.492C854.775 649.13 854.697 647.767 854.603 646.404C854.605 646.396 854.605 646.396 854.599 646.388C854.036 636.137 852.175 625.999 849.06 616.216C848.964 615.93 848.869 615.637 848.758 615.351C847.305 611.111 845.466 607.013 843.265 603.109C842.062 600.996 840.738 598.955 839.299 596.995C835.574 591.947 830.967 587.614 825.699 584.205C820.323 580.624 814.272 578.179 807.917 577.02C801.562 575.861 795.037 576.012 788.743 577.464C788.403 577.545 788.071 577.627 787.729 577.716Z" fill="#F2F2F2"/>
<path d="M787.723 578.138C803.066 581.995 816.52 591.222 825.645 604.146C827.648 606.898 829.146 609.983 830.07 613.259C830.875 616.665 830.744 620.225 829.69 623.562C828.766 626.807 827.453 630.072 827.319 633.373C827.246 634.989 827.555 636.598 828.223 638.071C828.891 639.544 829.898 640.838 831.161 641.847C834.204 644.374 838.146 645.53 842.059 646.521C846.404 647.621 850.945 648.692 854.168 651.72C854.559 652.087 855.202 651.38 854.812 651.014C849.205 645.746 840.227 646.336 833.727 642.487C830.693 640.692 828.322 637.896 828.214 634.086C828.12 630.756 829.471 627.388 830.434 624.107C831.507 620.848 831.765 617.376 831.187 613.994C830.447 610.666 829.08 607.51 827.159 604.695C822.993 598.373 817.717 592.858 811.586 588.415C804.49 583.23 796.473 579.442 787.961 577.253C787.425 577.114 787.191 577.999 787.723 578.138Z" fill="white"/>
<path d="M823.026 599.814C827.575 595.513 828.713 588.888 825.712 584.341C825.416 583.893 824.627 584.429 824.923 584.877C827.735 589.138 826.648 595.249 822.396 599.27C821.948 599.693 822.581 600.235 823.026 599.814Z" fill="white"/>
<path d="M830.371 621.946C827.61 622.155 824.836 621.801 822.216 620.905C819.596 620.009 817.186 618.59 815.131 616.735C814.739 616.369 814.096 617.076 814.488 617.441C816.63 619.368 819.142 620.839 821.871 621.766C824.6 622.692 827.488 623.055 830.361 622.831C830.94 622.796 830.947 621.912 830.371 621.946Z" fill="white"/>
<path d="M804.233 584.448C803.545 585.408 802.654 586.203 801.623 586.779C800.593 587.354 799.448 587.695 798.27 587.777C797.692 587.805 797.686 588.689 798.261 588.662C799.561 588.566 800.826 588.187 801.966 587.554C803.106 586.92 804.095 586.046 804.864 584.992C804.946 584.909 804.992 584.798 804.993 584.681C804.995 584.565 804.951 584.452 804.87 584.367C804.774 584.297 804.654 584.266 804.536 584.281C804.417 584.296 804.309 584.356 804.233 584.448Z" fill="white"/>
<path d="M86.9634 492.984H80.9634V494.984H86.9634V492.984Z" fill="#E6E6E6"/>
<path d="M842.098 494.984H829.918V492.984H842.098V494.984ZM817.739 494.984H805.559V492.984H817.739V494.984ZM793.379 494.984H781.2V492.984H793.379V494.984ZM769.021 494.984H756.841V492.984H769.021V494.984ZM744.661 494.984H732.482V492.984H744.661V494.984ZM720.302 494.984H708.123V492.984H720.302V494.984ZM695.943 494.984H683.764V492.984H695.943V494.984ZM671.584 494.984H659.404V492.984H671.584L671.584 494.984ZM647.225 494.984H635.045V492.984H647.225V494.984ZM622.866 494.984H610.686V492.984H622.866V494.984ZM598.506 494.984H586.327V492.984H598.506V494.984ZM574.147 494.984H561.968V492.984H574.147V494.984ZM549.788 494.984H537.608V492.984H549.788V494.984ZM525.429 494.984H513.25V492.984H525.429V494.984ZM501.07 494.984H488.89V492.984H501.07V494.984ZM476.71 494.984H464.531V492.984H476.71V494.984ZM452.352 494.984H440.172V492.984H452.352V494.984ZM427.992 494.984H415.812V492.984H427.992V494.984ZM403.633 494.984H391.453V492.984H403.633V494.984ZM379.274 494.984H367.094V492.984H379.274V494.984ZM354.915 494.984H342.735V492.984H354.915V494.984ZM330.555 494.984H318.376V492.984H330.555V494.984ZM306.196 494.984H294.017V492.984H306.196V494.984ZM281.837 494.984H269.657V492.984H281.837L281.837 494.984ZM257.478 494.984H245.298V492.984H257.478V494.984ZM233.119 494.984H220.939V492.984H233.119V494.984ZM208.759 494.984H196.58V492.984H208.759V494.984ZM184.4 494.984H172.221V492.984H184.4V494.984ZM160.041 494.984H147.861V492.984H160.041V494.984ZM135.682 494.984H123.502V492.984H135.682V494.984ZM111.323 494.984H99.1431V492.984H111.323V494.984Z" fill="#E6E6E6"/>
<path d="M860.278 492.984H854.278V494.984H860.278V492.984Z" fill="#E6E6E6"/>
<path d="M86.9634 478.984H80.9634V480.984H86.9634V478.984Z" fill="#E6E6E6"/>
<path d="M842.098 480.984H829.918V478.984H842.098V480.984ZM817.739 480.984H805.559V478.984H817.739V480.984ZM793.379 480.984H781.2V478.984H793.379V480.984ZM769.021 480.984H756.841V478.984H769.021V480.984ZM744.661 480.984H732.482V478.984H744.661V480.984ZM720.302 480.984H708.123V478.984H720.302V480.984ZM695.943 480.984H683.764V478.984H695.943V480.984ZM671.584 480.984H659.404V478.984H671.584L671.584 480.984ZM647.225 480.984H635.045V478.984H647.225V480.984ZM622.866 480.984H610.686V478.984H622.866V480.984ZM598.506 480.984H586.327V478.984H598.506V480.984ZM574.147 480.984H561.968V478.984H574.147V480.984ZM549.788 480.984H537.608V478.984H549.788V480.984ZM525.429 480.984H513.25V478.984H525.429V480.984ZM501.07 480.984H488.89V478.984H501.07V480.984ZM476.71 480.984H464.531V478.984H476.71V480.984ZM452.352 480.984H440.172V478.984H452.352V480.984ZM427.992 480.984H415.812V478.984H427.992V480.984ZM403.633 480.984H391.453V478.984H403.633V480.984ZM379.274 480.984H367.094V478.984H379.274V480.984ZM354.915 480.984H342.735V478.984H354.915V480.984ZM330.555 480.984H318.376V478.984H330.555V480.984ZM306.196 480.984H294.017V478.984H306.196V480.984ZM281.837 480.984H269.657V478.984H281.837L281.837 480.984ZM257.478 480.984H245.298V478.984H257.478V480.984ZM233.119 480.984H220.939V478.984H233.119V480.984ZM208.759 480.984H196.58V478.984H208.759V480.984ZM184.4 480.984H172.221V478.984H184.4V480.984ZM160.041 480.984H147.861V478.984H160.041V480.984ZM135.682 480.984H123.502V478.984H135.682V480.984ZM111.323 480.984H99.1431V478.984H111.323V480.984Z" fill="#E6E6E6"/>
<path d="M860.278 478.984H854.278V480.984H860.278V478.984Z" fill="#E6E6E6"/>
<path d="M86.9634 449.984H80.9634V451.984H86.9634V449.984Z" fill="#E6E6E6"/>
<path d="M842.098 451.984H829.918V449.984H842.098V451.984ZM817.739 451.984H805.559V449.984H817.739V451.984ZM793.379 451.984H781.2V449.984H793.379V451.984ZM769.021 451.984H756.841V449.984H769.021V451.984ZM744.661 451.984H732.482V449.984H744.661V451.984ZM720.302 451.984H708.123V449.984H720.302V451.984ZM695.943 451.984H683.764V449.984H695.943V451.984ZM671.584 451.984H659.404V449.984H671.584L671.584 451.984ZM647.225 451.984H635.045V449.984H647.225V451.984ZM622.866 451.984H610.686V449.984H622.866V451.984ZM598.506 451.984H586.327V449.984H598.506V451.984ZM574.147 451.984H561.968V449.984H574.147V451.984ZM549.788 451.984H537.608V449.984H549.788V451.984ZM525.429 451.984H513.25V449.984H525.429V451.984ZM501.07 451.984H488.89V449.984H501.07V451.984ZM476.71 451.984H464.531V449.984H476.71V451.984ZM452.352 451.984H440.172V449.984H452.352V451.984ZM427.992 451.984H415.812V449.984H427.992V451.984ZM403.633 451.984H391.453V449.984H403.633V451.984ZM379.274 451.984H367.094V449.984H379.274V451.984ZM354.915 451.984H342.735V449.984H354.915V451.984ZM330.555 451.984H318.376V449.984H330.555V451.984ZM306.196 451.984H294.017V449.984H306.196V451.984ZM281.837 451.984H269.657V449.984H281.837L281.837 451.984ZM257.478 451.984H245.298V449.984H257.478V451.984ZM233.119 451.984H220.939V449.984H233.119V451.984ZM208.759 451.984H196.58V449.984H208.759V451.984ZM184.4 451.984H172.221V449.984H184.4V451.984ZM160.041 451.984H147.861V449.984H160.041V451.984ZM135.682 451.984H123.502V449.984H135.682V451.984ZM111.323 451.984H99.1431V449.984H111.323V451.984Z" fill="#E6E6E6"/>
<path d="M860.278 449.984H854.278V451.984H860.278V449.984Z" fill="#E6E6E6"/>
<path d="M86.9634 429.984H80.9634V431.984H86.9634V429.984Z" fill="#E6E6E6"/>
<path d="M842.098 431.984H829.918V429.984H842.098V431.984ZM817.739 431.984H805.559V429.984H817.739V431.984ZM793.379 431.984H781.2V429.984H793.379V431.984ZM769.021 431.984H756.841V429.984H769.021V431.984ZM744.661 431.984H732.482V429.984H744.661V431.984ZM720.302 431.984H708.123V429.984H720.302V431.984ZM695.943 431.984H683.764V429.984H695.943V431.984ZM671.584 431.984H659.404V429.984H671.584L671.584 431.984ZM647.225 431.984H635.045V429.984H647.225V431.984ZM622.866 431.984H610.686V429.984H622.866V431.984ZM598.506 431.984H586.327V429.984H598.506V431.984ZM574.147 431.984H561.968V429.984H574.147V431.984ZM549.788 431.984H537.608V429.984H549.788V431.984ZM525.429 431.984H513.25V429.984H525.429V431.984ZM501.07 431.984H488.89V429.984H501.07V431.984ZM476.71 431.984H464.531V429.984H476.71V431.984ZM452.352 431.984H440.172V429.984H452.352V431.984ZM427.992 431.984H415.812V429.984H427.992V431.984ZM403.633 431.984H391.453V429.984H403.633V431.984ZM379.274 431.984H367.094V429.984H379.274V431.984ZM354.915 431.984H342.735V429.984H354.915V431.984ZM330.555 431.984H318.376V429.984H330.555V431.984ZM306.196 431.984H294.017V429.984H306.196V431.984ZM281.837 431.984H269.657V429.984H281.837L281.837 431.984ZM257.478 431.984H245.298V429.984H257.478V431.984ZM233.119 431.984H220.939V429.984H233.119V431.984ZM208.759 431.984H196.58V429.984H208.759V431.984ZM184.4 431.984H172.221V429.984H184.4V431.984ZM160.041 431.984H147.861V429.984H160.041V431.984ZM135.682 431.984H123.502V429.984H135.682V431.984ZM111.323 431.984H99.1431V429.984H111.323V431.984Z" fill="#E6E6E6"/>
<path d="M860.278 429.984H854.278V431.984H860.278V429.984Z" fill="#E6E6E6"/>
<path d="M86.9634 386.984H80.9634V388.984H86.9634V386.984Z" fill="#E6E6E6"/>
<path d="M842.098 388.984H829.918V386.984H842.098V388.984ZM817.739 388.984H805.559V386.984H817.739V388.984ZM793.379 388.984H781.2V386.984H793.379V388.984ZM769.021 388.984H756.841V386.984H769.021V388.984ZM744.661 388.984H732.482V386.984H744.661V388.984ZM720.302 388.984H708.123V386.984H720.302V388.984ZM695.943 388.984H683.764V386.984H695.943V388.984ZM671.584 388.984H659.404V386.984H671.584L671.584 388.984ZM647.225 388.984H635.045V386.984H647.225V388.984ZM622.866 388.984H610.686V386.984H622.866V388.984ZM598.506 388.984H586.327V386.984H598.506V388.984ZM574.147 388.984H561.968V386.984H574.147V388.984ZM549.788 388.984H537.608V386.984H549.788V388.984ZM525.429 388.984H513.25V386.984H525.429V388.984ZM501.07 388.984H488.89V386.984H501.07V388.984ZM476.71 388.984H464.531V386.984H476.71V388.984ZM452.352 388.984H440.172V386.984H452.352V388.984ZM427.992 388.984H415.812V386.984H427.992V388.984ZM403.633 388.984H391.453V386.984H403.633V388.984ZM379.274 388.984H367.094V386.984H379.274V388.984ZM354.915 388.984H342.735V386.984H354.915V388.984ZM330.555 388.984H318.376V386.984H330.555V388.984ZM306.196 388.984H294.017V386.984H306.196V388.984ZM281.837 388.984H269.657V386.984H281.837L281.837 388.984ZM257.478 388.984H245.298V386.984H257.478V388.984ZM233.119 388.984H220.939V386.984H233.119V388.984ZM208.759 388.984H196.58V386.984H208.759V388.984ZM184.4 388.984H172.221V386.984H184.4V388.984ZM160.041 388.984H147.861V386.984H160.041V388.984ZM135.682 388.984H123.502V386.984H135.682V388.984ZM111.323 388.984H99.1431V386.984H111.323V388.984Z" fill="#E6E6E6"/>
<path d="M860.278 386.984H854.278V388.984H860.278V386.984Z" fill="#E6E6E6"/>
<path d="M371.488 329.197C371.488 339.963 368.296 350.487 362.314 359.439C356.333 368.39 347.831 375.367 337.885 379.488C327.938 383.608 316.993 384.686 306.434 382.585C295.875 380.485 286.175 375.3 278.563 367.688C270.95 360.075 265.765 350.376 263.665 339.816C261.565 329.257 262.643 318.312 266.763 308.366C270.883 298.419 277.86 289.917 286.811 283.936C295.763 277.955 306.287 274.762 317.054 274.762C324.211 274.73 331.304 276.117 337.922 278.841C344.541 281.565 350.554 285.574 355.616 290.635C360.677 295.696 364.685 301.709 367.409 308.328C370.134 314.947 371.52 322.039 371.488 329.197Z" fill="#F2F2F2"/>
<path d="M339.316 316.171L339.047 316.657C341.444 310.748 339.264 303.468 334.988 299.013C330.711 294.558 324.766 292.521 318.912 291.713C314.566 290.947 310.097 291.294 305.923 292.723C299.939 295.028 295.367 300.364 291.55 305.916C289.804 308.455 288.087 311.35 288.261 314.523C288.422 317.468 290.17 319.968 291.602 322.466C293.034 324.965 294.229 328.065 293.202 330.792C292.59 332.417 291.295 333.588 290.245 334.917C289.195 336.247 288.332 338.044 288.839 339.712C289.064 340.35 289.451 340.919 289.962 341.363C290.473 341.806 291.09 342.11 291.753 342.244C293.038 342.459 294.352 342.428 295.625 342.153L328.994 337.111C331.261 336.768 333.412 335.883 335.263 334.529C337.114 333.175 338.611 331.394 339.625 329.337C340.638 327.281 341.14 325.009 341.086 322.717C341.033 320.424 340.425 318.178 339.316 316.171Z" fill="#141414"/>
<path d="M314.496 336.879C323.507 336.879 330.811 329.575 330.811 320.565C330.811 311.554 323.507 304.25 314.496 304.25C305.486 304.25 298.182 311.554 298.182 320.565C298.182 329.575 305.486 336.879 314.496 336.879Z" fill="#FFB9B9"/>
<path d="M357.927 365.139C348.497 375.87 335.225 382.461 320.976 383.491C306.728 384.521 292.646 379.906 281.77 370.643L286.439 357.615C287.494 355.301 289.159 353.318 291.256 351.878C293.352 350.439 295.801 349.597 298.339 349.443L301.31 349.261L308.392 343.152C308.392 343.152 327.476 342.471 327.193 342.145L338.753 349.098L338.743 349.05L343.287 349.328C345.826 349.481 348.275 350.323 350.371 351.762C352.468 353.202 354.133 355.185 355.187 357.5L357.927 365.139Z" fill="#D17A22"/>
<path d="M329.971 305.421C329.55 303.193 327.277 302.174 325.331 301.68C319.684 300.24 313.809 299.917 308.038 300.731C303.832 301.331 299.525 302.654 296.473 305.937C294.011 308.702 292.617 312.254 292.539 315.955C292.415 318.168 292.909 320.372 293.967 322.319C294.44 323.226 295.141 323.994 296.001 324.548C296.861 325.102 297.85 325.423 298.871 325.48L299.066 326.16C303.29 325.48 307.316 323.895 310.87 321.515C314.424 319.134 317.422 316.014 319.658 312.368C318.759 315.579 316.969 318.47 314.496 320.708C320.026 318.495 324.833 314.79 328.381 310.006C329.35 308.72 330.291 307.116 329.971 305.421Z" fill="#141414"/>
<path d="M780.93 400.884C810.993 400.884 835.364 376.513 835.364 346.45C835.364 316.387 810.993 292.016 780.93 292.016C750.867 292.016 726.496 316.387 726.496 346.45C726.496 376.513 750.867 400.884 780.93 400.884Z" fill="#F2F2F2"/>
<path d="M765.982 326.027C770.227 326.027 773.667 322.586 773.667 318.341C773.667 314.097 770.227 310.656 765.982 310.656C761.738 310.656 758.297 314.097 758.297 318.341C758.297 322.586 761.738 326.027 765.982 326.027Z" fill="#141414"/>
<path d="M778.279 355.228C789.031 355.228 797.748 346.511 797.748 335.758C797.748 325.006 789.031 316.289 778.279 316.289C767.526 316.289 758.81 325.006 758.81 335.758C758.81 346.511 767.526 355.228 778.279 355.228Z" fill="#141414"/>
<path d="M779.89 355.224C788.627 355.224 795.711 348.141 795.711 339.403C795.711 330.665 788.627 323.582 779.89 323.582C771.152 323.582 764.069 330.665 764.069 339.403C764.069 348.141 771.152 355.224 779.89 355.224Z" fill="#9E616A"/>
<path d="M790.634 323.278C787.861 321.588 784.686 320.673 781.439 320.63C778.193 320.588 774.994 321.418 772.178 323.034C769.363 324.651 767.033 326.994 765.432 329.819C763.832 332.644 763.02 335.847 763.081 339.094C771.143 341.118 779.612 342.667 788.209 339.578L790.24 334.609L791.436 339.582C794.055 340.652 796.68 341.557 799.304 339.571C799.412 336.334 798.667 333.125 797.146 330.266C795.624 327.407 793.379 324.997 790.634 323.278Z" fill="#141414"/>
<path d="M758.827 297.477C756.128 296.325 753.162 295.951 750.262 296.398C747.363 296.845 744.646 298.094 742.419 300.004C740.242 301.969 738.584 304.442 737.594 307.203C736.604 309.964 736.312 312.926 736.745 315.827C737.616 321.727 741.203 326.808 744.51 331.772C747.816 336.736 751.046 342.175 751.042 348.139C751.04 352.435 749.334 356.554 746.298 359.593C743.263 362.633 739.146 364.345 734.85 364.353C739.892 366.524 745.154 368.737 750.637 368.479C756.12 368.222 761.867 364.697 762.761 359.282C763.406 355.379 761.491 351.574 759.894 347.956C757.294 342.06 755.414 335.872 754.295 329.525C753.762 326.496 753.415 323.312 754.402 320.399C755.189 318.241 756.648 316.392 758.565 315.126C760.482 313.86 762.755 313.243 765.048 313.367L766.86 311.737C767.17 308.82 766.563 305.878 765.123 303.322C763.683 300.766 761.482 298.723 758.827 297.477Z" fill="#141414"/>
<path d="M821.888 382.87C812.457 393.6 799.185 400.192 784.937 401.221C770.688 402.251 756.606 397.636 745.73 388.373L750.399 375.345C751.455 373.031 753.12 371.048 755.216 369.609C757.313 368.169 759.761 367.327 762.3 367.174L765.27 366.991L772.353 360.883C772.353 360.883 791.436 360.201 791.153 359.875L802.713 366.828L802.703 366.78L807.247 367.058C809.786 367.211 812.235 368.053 814.332 369.493C816.428 370.932 818.093 372.916 819.148 375.23L821.888 382.87Z" fill="#D17A22"/>
<path d="M680.488 288.531C680.469 299.297 677.258 309.816 671.26 318.757C665.263 327.698 656.749 334.66 646.796 338.762C636.842 342.864 625.895 343.923 615.339 341.804C604.784 339.685 595.094 334.483 587.494 326.857C579.895 319.231 574.728 309.522 572.646 298.959C570.565 288.396 571.662 277.453 575.8 267.514C579.937 257.575 586.93 249.086 595.892 243.12C604.854 237.155 615.384 233.981 626.15 234C633.304 233.994 640.388 235.402 646.996 238.143C653.604 240.884 659.605 244.903 664.654 249.97C669.704 255.038 673.702 261.053 676.419 267.671C679.136 274.288 680.519 281.377 680.488 288.531Z" fill="#F2F2F2"/>
<path d="M600.824 270.727C603.075 263.554 608.193 256.974 615.272 254.549C622.351 252.124 632.717 255.819 638.039 261.122C647.773 270.824 650.149 304.154 643.461 314.687C642.131 314.616 637.54 314.564 636.194 314.514L634.289 308.166V314.451C632.144 314.385 629.982 314.339 627.803 314.314C620.499 314.223 613.514 311.304 608.317 306.17C603.12 301.037 600.116 294.088 599.936 286.785C599.762 279.799 599.937 273.554 600.824 270.727Z" fill="#141414"/>
<path d="M625.246 294.5C633.814 294.5 640.76 287.554 640.76 278.986C640.76 270.418 633.814 263.473 625.246 263.473C616.679 263.473 609.733 270.418 609.733 278.986C609.733 287.554 616.679 294.5 625.246 294.5Z" fill="#9E616A"/>
<path d="M611.858 265.362L629.72 256.418C633.372 258.064 636.517 260.656 638.829 263.927C641.141 267.198 642.536 271.027 642.87 275.019L643.315 280.352L635.835 278.448L635.016 271.629L633.745 277.916L630.294 277.038L630.326 266.451L626.872 277.03L614.544 274.198L611.858 265.362Z" fill="#141414"/>
<path d="M666.448 324.455C657.017 335.186 643.745 341.778 629.497 342.807C615.248 343.837 601.166 339.222 590.291 329.959L594.96 316.931C596.015 314.617 597.68 312.634 599.776 311.195C601.873 309.755 604.321 308.913 606.86 308.759L609.83 308.577L616.913 302.469C616.913 302.469 635.996 301.787 635.713 301.461L647.273 308.414L647.263 308.366L651.808 308.644C654.346 308.797 656.795 309.639 658.892 311.079C660.988 312.518 662.653 314.502 663.708 316.816L666.448 324.455Z" fill="#D17A22"/>
<path d="M476.409 430.884C506.472 430.884 530.843 406.513 530.843 376.45C530.843 346.387 506.472 322.016 476.409 322.016C446.345 322.016 421.974 346.387 421.974 376.45C421.974 406.513 446.345 430.884 476.409 430.884Z" fill="#F2F2F2"/>
<path d="M474.906 383.194C484.503 383.194 492.282 375.414 492.282 365.817C492.282 356.221 484.503 348.441 474.906 348.441C465.31 348.441 457.53 356.221 457.53 365.817C457.53 375.414 465.31 383.194 474.906 383.194Z" fill="#FFB6B6"/>
<path d="M517.247 412.87C507.816 423.6 494.544 430.192 480.295 431.221C466.047 432.251 451.965 427.636 441.089 418.373L445.758 405.345C446.813 403.031 448.479 401.048 450.575 399.609C452.671 398.169 455.12 397.327 457.659 397.174L460.629 396.991L467.712 390.883C467.712 390.883 486.795 390.201 486.512 389.875L498.072 396.828L498.062 396.78L502.606 397.058C505.145 397.211 507.594 398.053 509.691 399.493C511.787 400.932 513.452 402.916 514.507 405.23L517.247 412.87Z" fill="#D17A22"/>
<path d="M493.232 355.042C491.764 349.786 488.428 345.248 483.85 342.277C480.202 339.944 475.65 338.753 471.517 339.987C467.384 341.221 463.963 345.276 464.233 349.659C463.468 349.457 462.661 349.475 461.905 349.708C461.148 349.942 460.472 350.382 459.954 350.98C458.917 352.204 458.196 353.664 457.854 355.232C456.528 360.145 456.615 365.333 458.107 370.198L458.025 370.896C460.042 370.563 461.571 368.833 462.522 366.99C463.473 365.146 464.02 363.102 465.051 361.303C466.082 359.505 467.793 357.901 469.835 357.845L469.655 360.966C471.412 360.061 473.169 359.156 474.926 358.251C474.508 359.251 474.09 360.25 473.672 361.25C475.206 360.609 476.741 359.967 478.275 359.326C478.103 360.287 477.932 361.249 477.76 362.21C478.162 361.375 478.73 360.631 479.428 360.023C480.126 359.414 480.941 358.953 481.822 358.668C482.703 358.383 483.633 358.28 484.556 358.365C485.478 358.449 486.374 358.721 487.188 359.161C489.023 360.396 490.345 362.256 490.908 364.395C491.466 366.528 491.765 368.721 491.799 370.926C494.17 365.976 494.679 360.337 493.232 355.042Z" fill="#141414"/>
<path d="M161.27 455.631C191.333 455.631 215.704 431.259 215.704 401.196C215.704 371.133 191.333 346.762 161.27 346.762C131.207 346.762 106.835 371.133 106.835 401.196C106.835 431.259 131.207 455.631 161.27 455.631Z" fill="#F2F2F2"/>
<path d="M160.072 406.845C169.192 406.845 176.586 399.451 176.586 390.33C176.586 381.21 169.192 373.816 160.072 373.816C150.951 373.816 143.558 381.21 143.558 390.33C143.558 399.451 150.951 406.845 160.072 406.845Z" fill="#9E616A"/>
<path d="M201.407 437.139C191.976 447.87 178.704 454.461 164.456 455.491C150.207 456.521 136.125 451.906 125.25 442.643L129.919 429.615C130.974 427.301 132.639 425.318 134.735 423.878C136.832 422.439 139.28 421.597 141.819 421.443L144.789 421.261L151.872 415.152C151.872 415.152 170.955 414.471 170.672 414.145L182.232 421.098L182.222 421.05L186.767 421.328C189.305 421.481 191.754 422.323 193.851 423.762C195.947 425.202 197.612 427.185 198.667 429.5L201.407 437.139Z" fill="#D17A22"/>
<path d="M145.067 397.964C145.034 397.873 145.005 397.782 144.973 397.691C144.909 397.747 144.848 397.805 144.779 397.858L145.067 397.964Z" fill="#141414"/>
<path d="M179.854 384.454C179.769 382.779 179.33 381.14 178.566 379.646C177.802 378.153 176.73 376.838 175.42 375.789C174.378 375.138 173.46 374.307 172.707 373.336C172.344 372.594 172.036 371.826 171.786 371.038C170.518 368.021 166.905 366.417 163.664 366.874C162.053 367.18 160.519 367.808 159.156 368.72C157.793 369.633 156.627 370.81 155.729 372.183C154.799 371.737 153.759 371.567 152.735 371.694C151.711 371.82 150.744 372.237 149.949 372.896C149.155 373.555 148.565 374.427 148.251 375.41C147.937 376.393 147.911 377.446 148.177 378.444C146.498 377.092 143.784 378.173 142.736 380.056C141.688 381.94 141.855 384.244 142.166 386.377C142.73 390.231 143.67 394.021 144.973 397.692C146.607 396.253 146.506 393.632 146.307 391.417C146.099 389.115 146.223 386.306 148.236 385.17C150.18 384.073 152.54 385.277 154.684 385.9C156.379 386.38 158.158 386.487 159.899 386.213C161.639 385.94 163.299 385.292 164.765 384.315C165.82 383.475 166.927 382.704 168.08 382.005C168.662 381.662 169.323 381.475 169.999 381.463C170.675 381.451 171.343 381.614 171.937 381.937C172.877 382.747 173.509 383.857 173.725 385.079C174.55 387.878 175.376 390.678 176.201 393.477C177.413 392.316 178.365 390.912 178.995 389.357C179.624 387.802 179.917 386.131 179.854 384.454Z" fill="#141414"/>
<path d="M161.451 497.527H156.255V649.83H161.451V497.527Z" fill="#141414"/>
<path d="M317.014 426.395H311.818V649.828H317.014V426.395Z" fill="#141414"/>
<path d="M472.898 473.16H467.702V649.828H472.898V473.16Z" fill="#141414"/>
<path d="M628.782 387.426H623.585V649.83H628.782V387.426Z" fill="#141414"/>
<path d="M784.665 447.18H779.469V649.828H784.665V447.18Z" fill="#141414"/>
<path d="M314.737 445.874C323.516 445.874 330.632 438.757 330.632 429.978C330.632 421.199 323.516 414.082 314.737 414.082C305.958 414.082 298.841 421.199 298.841 429.978C298.841 438.757 305.958 445.874 314.737 445.874Z" fill="#141414"/>
<path d="M626.504 404.303C635.283 404.303 642.4 397.186 642.4 388.407C642.4 379.628 635.283 372.512 626.504 372.512C617.725 372.512 610.608 379.628 610.608 388.407C610.608 397.186 617.725 404.303 626.504 404.303Z" fill="#141414"/>
<path d="M470.62 490.038C479.399 490.038 486.516 482.921 486.516 474.142C486.516 465.363 479.399 458.246 470.62 458.246C461.841 458.246 454.725 465.363 454.725 474.142C454.725 482.921 461.841 490.038 470.62 490.038Z" fill="#141414"/>
<path d="M158.853 513.42C167.632 513.42 174.749 506.304 174.749 497.525C174.749 488.746 167.632 481.629 158.853 481.629C150.074 481.629 142.958 488.746 142.958 497.525C142.958 506.304 150.074 513.42 158.853 513.42Z" fill="#141414"/>
<path d="M782.388 461.46C791.167 461.46 798.284 454.343 798.284 445.564C798.284 436.785 791.167 429.668 782.388 429.668C773.609 429.668 766.492 436.785 766.492 445.564C766.492 454.343 773.609 461.46 782.388 461.46Z" fill="#141414"/>
<path d="M893.892 648.258H49.9978L44.6992 650.907C44.6992 651.61 44.9784 652.284 45.4752 652.78C45.972 653.277 46.6459 653.556 47.3485 653.556H893.892C894.595 653.556 895.268 653.277 895.765 652.78C896.262 652.284 896.541 651.61 896.541 650.907C896.541 650.204 896.262 649.531 895.765 649.034C895.268 648.537 894.595 648.258 893.892 648.258Z" fill="#141414"/>
<path d="M46.8958 665.549C55.6748 665.549 62.7915 658.433 62.7915 649.654C62.7915 640.875 55.6748 633.758 46.8958 633.758C38.1168 633.758 31 640.875 31 649.654C31 658.433 38.1168 665.549 46.8958 665.549Z" fill="#141414"/>
<path d="M158.896 711.549C167.675 711.549 174.792 704.433 174.792 695.654C174.792 686.875 167.675 679.758 158.896 679.758C150.117 679.758 143 686.875 143 695.654C143 704.433 150.117 711.549 158.896 711.549Z" fill="#E6E6E6"/>
<path d="M314.896 711.549C323.675 711.549 330.792 704.433 330.792 695.654C330.792 686.875 323.675 679.758 314.896 679.758C306.117 679.758 299 686.875 299 695.654C299 704.433 306.117 711.549 314.896 711.549Z" fill="#E6E6E6"/>
<path d="M470.896 711.549C479.675 711.549 486.792 704.433 486.792 695.654C486.792 686.875 479.675 679.758 470.896 679.758C462.117 679.758 455 686.875 455 695.654C455 704.433 462.117 711.549 470.896 711.549Z" fill="#E6E6E6"/>
<path d="M625.896 711.549C634.675 711.549 641.792 704.433 641.792 695.654C641.792 686.875 634.675 679.758 625.896 679.758C617.117 679.758 610 686.875 610 695.654C610 704.433 617.117 711.549 625.896 711.549Z" fill="#E6E6E6"/>
<path d="M781.896 711.549C790.675 711.549 797.792 704.433 797.792 695.654C797.792 686.875 790.675 679.758 781.896 679.758C773.117 679.758 766 686.875 766 695.654C766 704.433 773.117 711.549 781.896 711.549Z" fill="#E6E6E6"/>
<path d="M898.896 665.549C907.675 665.549 914.792 658.433 914.792 649.654C914.792 640.875 907.675 633.758 898.896 633.758C890.117 633.758 883 640.875 883 649.654C883 658.433 890.117 665.549 898.896 665.549Z" fill="#141414"/>
</g>
<defs>
<clipPath id="clip0_105_224">
<rect width="883.792" height="477.548" fill="white" transform="translate(31 234)"/>
</clipPath>
</defs>
</svg>
