<svg width="338" height="100" viewBox="0 0 338 100" fill="none" xmlns="http://www.w3.org/2000/svg">
<path d="M64.9752 68.4747C64.1421 68.4714 63.3316 68.2031 62.6612 67.7085L57.0847 63.6571C56.6221 63.3192 56.064 63.1371 55.4911 63.1371C54.9182 63.1371 54.3601 63.3192 53.8974 63.6571L48.321 67.7085C47.6485 68.1971 46.8385 68.4603 46.0072 68.4603C45.1759 68.4604 44.366 68.1972 43.6934 67.7087C43.0209 67.2201 42.5202 66.5312 42.2633 65.7406C42.0063 64.95 42.0062 64.0984 42.263 63.3077L44.3931 56.7524C44.5711 56.2078 44.5717 55.6208 44.3947 55.0759C44.2177 54.5309 43.8723 54.0563 43.4082 53.7203L37.8318 49.6689C37.1592 49.1803 36.6586 48.4913 36.4017 47.7007C36.1448 46.9101 36.1448 46.0584 36.4016 45.2678C36.6585 44.4772 37.1591 43.7881 37.8317 43.2995C38.5042 42.8109 39.3142 42.5477 40.1455 42.5477H47.0385C47.6113 42.5487 48.1697 42.3679 48.6331 42.0312C49.0966 41.6945 49.4411 41.2194 49.6172 40.6743L51.7469 34.1189C52.0038 33.3282 52.5044 32.6391 53.177 32.1504C53.8496 31.6617 54.6597 31.3984 55.4911 31.3984C56.3224 31.3984 57.1325 31.6617 57.8051 32.1504C58.4777 32.6391 58.9783 33.3282 59.2351 34.1189L61.3649 40.6743C61.5409 41.2194 61.8855 41.6945 62.349 42.0312C62.8124 42.3679 63.3708 42.5487 63.9436 42.5477H70.8366C71.6679 42.5477 72.4778 42.8109 73.1504 43.2996C73.8229 43.7882 74.3234 44.4772 74.5803 45.2678C74.8372 46.0584 74.8372 46.9101 74.5803 47.7007C74.3234 48.4913 73.8228 49.1803 73.1503 49.6689L67.5739 53.7203C67.1098 54.0563 66.7644 54.5309 66.5874 55.0759C66.4104 55.6208 66.4109 56.2078 66.589 56.7524L68.7191 63.3077C68.9854 64.0976 68.99 64.9522 68.7324 65.7448C68.4748 66.5375 67.9686 67.2261 67.2889 67.7085C66.6185 68.203 65.8082 68.4714 64.9752 68.4747Z" fill="#EA7A0B"/>
<path d="M121.483 68.4747C120.65 68.4714 119.84 68.2031 119.169 67.7085L113.593 63.6571C113.13 63.3192 112.572 63.1371 111.999 63.1371C111.426 63.1371 110.868 63.3192 110.406 63.6571L104.829 67.7085C104.157 68.1971 103.347 68.4603 102.515 68.4604C101.684 68.4604 100.874 68.1973 100.202 67.7087C99.5291 67.2201 99.0285 66.5312 98.7715 65.7406C98.5146 64.95 98.5145 64.0984 98.7713 63.3077L100.901 56.7524C101.079 56.2078 101.08 55.6208 100.903 55.0759C100.726 54.5309 100.381 54.0563 99.9165 53.7203L94.34 49.6689C93.6675 49.1802 93.167 48.4912 92.9101 47.7006C92.6533 46.91 92.6533 46.0583 92.9102 45.2677C93.1671 44.4771 93.6677 43.7882 94.3403 43.2995C95.0128 42.8109 95.8227 42.5477 96.654 42.5477H103.547C104.12 42.5487 104.678 42.3679 105.141 42.0312C105.605 41.6945 105.949 41.2194 106.125 40.6743L108.255 34.1189C108.512 33.3282 109.013 32.6391 109.685 32.1504C110.358 31.6616 111.168 31.3984 111.999 31.3984C112.831 31.3984 113.641 31.6616 114.313 32.1504C114.986 32.6391 115.487 33.3282 115.743 34.1189L117.873 40.6743C118.049 41.2194 118.394 41.6945 118.857 42.0312C119.321 42.3679 119.879 42.5488 120.452 42.5477H127.345C128.176 42.5477 128.986 42.8109 129.659 43.2995C130.331 43.7882 130.832 44.4771 131.089 45.2677C131.346 46.0583 131.346 46.91 131.089 47.7006C130.832 48.4912 130.331 49.1802 129.659 49.6689L124.082 53.7203C123.618 54.0562 123.273 54.5309 123.096 55.0758C122.919 55.6207 122.919 56.2078 123.097 56.7524L125.227 63.3077C125.494 64.0976 125.498 64.9522 125.241 65.7448C124.983 66.5375 124.477 67.2261 123.797 67.7085C123.127 68.203 122.316 68.4713 121.483 68.4747Z" fill="#EA7A0B"/>
<path d="M177.992 68.4747C177.159 68.4714 176.349 68.203 175.678 67.7085L170.102 63.6571C169.639 63.32 169.081 63.1385 168.508 63.1385C167.935 63.1385 167.377 63.32 166.914 63.6571L161.338 67.7085C160.665 68.1971 159.855 68.4603 159.024 68.4604C158.193 68.4604 157.383 68.1973 156.71 67.7087C156.038 67.2201 155.537 66.5311 155.28 65.7406C155.023 64.95 155.023 64.0983 155.28 63.3077L157.41 56.7524C157.588 56.2078 157.589 55.6208 157.412 55.0759C157.235 54.5309 156.889 54.0563 156.425 53.7203L150.849 49.6689C150.176 49.1802 149.676 48.4912 149.419 47.7006C149.162 46.91 149.162 46.0583 149.419 45.2677C149.676 44.4771 150.176 43.7882 150.849 43.2995C151.521 42.8109 152.331 42.5477 153.163 42.5477H160.055C160.628 42.5487 161.186 42.3679 161.65 42.0312C162.113 41.6945 162.458 41.2194 162.634 40.6743L164.764 34.1189C165.021 33.3282 165.521 32.6391 166.194 32.1504C166.867 31.6616 167.677 31.3984 168.508 31.3984C169.339 31.3984 170.149 31.6616 170.822 32.1504C171.495 32.6391 171.995 33.3282 172.252 34.1189L174.382 40.6743C174.558 41.2194 174.903 41.6945 175.366 42.0312C175.829 42.3679 176.388 42.5487 176.961 42.5477H183.853C184.685 42.5477 185.495 42.8109 186.167 43.2995C186.84 43.7882 187.34 44.4771 187.597 45.2677C187.854 46.0583 187.854 46.91 187.597 47.7006C187.34 48.4912 186.84 49.1802 186.167 49.6689L180.591 53.7203C180.127 54.0563 179.781 54.5309 179.604 55.0759C179.427 55.6208 179.428 56.2078 179.606 56.7524L181.736 63.3077C182.002 64.0975 182.007 64.9521 181.749 65.7448C181.492 66.5375 180.986 67.226 180.306 67.7085C179.635 68.203 178.825 68.4714 177.992 68.4747Z" fill="#EA7A0B"/>
<path d="M234.766 68.0763C233.933 68.0729 233.123 67.8046 232.452 67.3101L226.876 63.2586C226.413 62.9216 225.855 62.74 225.282 62.74C224.709 62.74 224.151 62.9216 223.688 63.2586L218.112 67.3101C217.439 67.7987 216.629 68.0619 215.798 68.0619C214.967 68.062 214.157 67.7988 213.484 67.3102C212.812 66.8217 212.311 66.1327 212.054 65.3421C211.797 64.5516 211.797 63.6999 212.054 62.9093L214.184 56.354C214.362 55.8094 214.362 55.2224 214.185 54.6774C214.008 54.1325 213.663 53.6579 213.199 53.3219L207.622 49.2705C206.95 48.7818 206.449 48.0928 206.193 47.3022C205.936 46.5115 205.936 45.6599 206.193 44.8693C206.45 44.0787 206.95 43.3897 207.623 42.9011C208.295 42.4125 209.105 42.1493 209.936 42.1493H216.829C217.402 42.1503 217.96 41.9694 218.424 41.6328C218.887 41.2961 219.232 40.8209 219.408 40.2758L221.538 33.7205C221.795 32.9297 222.295 32.2406 222.968 31.7519C223.64 31.2632 224.451 31 225.282 31C226.113 31 226.923 31.2632 227.596 31.7519C228.268 32.2406 228.769 32.9297 229.026 33.7205L231.156 40.2758C231.332 40.8209 231.677 41.2961 232.14 41.6328C232.603 41.9694 233.162 42.1503 233.735 42.1493H240.627C241.459 42.1493 242.269 42.4125 242.941 42.9011C243.614 43.3897 244.114 44.0787 244.371 44.8693C244.628 45.6599 244.628 46.5115 244.371 47.3022C244.114 48.0928 243.614 48.7818 242.941 49.2705L237.365 53.3219C236.901 53.6579 236.555 54.1325 236.378 54.6774C236.201 55.2224 236.202 55.8094 236.38 56.354L238.51 62.9093C238.776 63.6991 238.781 64.5537 238.523 65.3463C238.266 66.139 237.76 66.8276 237.08 67.3101C236.409 67.8046 235.599 68.0729 234.766 68.0763Z" fill="#EA7A0B"/>
<path d="M291.766 68.0763C290.933 68.0729 290.123 67.8046 289.452 67.3101L283.876 63.2586C283.413 62.9216 282.855 62.74 282.282 62.74C281.709 62.74 281.151 62.9216 280.688 63.2586L275.112 67.3101C274.439 67.7987 273.629 68.0619 272.798 68.0619C271.967 68.062 271.157 67.7988 270.484 67.3102C269.812 66.8217 269.311 66.1327 269.054 65.3421C268.797 64.5516 268.797 63.6999 269.054 62.9093L271.184 56.354C271.362 55.8094 271.362 55.2224 271.185 54.6774C271.008 54.1325 270.663 53.6579 270.199 53.3219L264.622 49.2705C263.95 48.7818 263.449 48.0928 263.193 47.3022C262.936 46.5115 262.936 45.6599 263.193 44.8693C263.45 44.0787 263.95 43.3897 264.623 42.9011C265.295 42.4125 266.105 42.1493 266.936 42.1493H273.829C274.402 42.1503 274.96 41.9694 275.424 41.6328C275.887 41.2961 276.232 40.8209 276.408 40.2758L278.538 33.7205C278.795 32.9297 279.295 32.2406 279.968 31.7519C280.64 31.2632 281.451 31 282.282 31C283.113 31 283.923 31.2632 284.596 31.7519C285.268 32.2406 285.769 32.9297 286.026 33.7205L288.156 40.2758C288.332 40.8209 288.677 41.2961 289.14 41.6328C289.603 41.9694 290.162 42.1503 290.735 42.1493H297.627C298.459 42.1493 299.269 42.4125 299.941 42.9011C300.614 43.3897 301.114 44.0787 301.371 44.8693C301.628 45.6599 301.628 46.5115 301.371 47.3022C301.114 48.0928 300.614 48.7818 299.941 49.2705L294.365 53.3219C293.901 53.6579 293.555 54.1325 293.378 54.6774C293.201 55.2224 293.202 55.8094 293.38 56.354L295.51 62.9093C295.776 63.6991 295.781 64.5537 295.523 65.3463C295.266 66.139 294.76 66.8276 294.08 67.3101C293.409 67.8046 292.599 68.0729 291.766 68.0763Z" fill="#EA7A0B"/>
</svg>
