<svg width="945" height="945" viewBox="0 0 945 945" fill="none" xmlns="http://www.w3.org/2000/svg">
<g clip-path="url(#clip0_106_462)">
<path d="M555.408 621C684.091 621 788.408 516.682 788.408 388C788.408 259.318 684.091 155 555.408 155C426.726 155 322.408 259.318 322.408 388C322.408 516.682 426.726 621 555.408 621Z" fill="#F2F2F2"/>
<path d="M140.411 718.346C146.74 720.571 153.535 721.128 160.142 719.964C166.749 718.8 172.945 715.955 178.132 711.701C191.344 700.612 195.487 682.343 198.857 665.426L208.827 615.391L187.955 629.762C172.945 640.097 157.597 650.763 147.205 665.733C136.812 680.703 132.276 701.138 140.626 717.336" fill="#141414"/>
<path d="M142.195 778.922C140.082 763.535 137.91 747.95 139.392 732.397C140.708 718.585 144.922 705.095 153.501 694.033C158.055 688.173 163.596 683.152 169.875 679.196C171.512 678.162 173.019 680.757 171.389 681.786C160.524 688.653 152.121 698.792 147.39 710.743C142.165 724.032 141.326 738.519 142.226 752.636C142.771 761.173 143.925 769.654 145.088 778.125C145.179 778.508 145.122 778.911 144.928 779.254C144.733 779.596 144.416 779.852 144.04 779.97C143.657 780.073 143.248 780.021 142.902 779.825C142.557 779.629 142.303 779.305 142.195 778.922Z" fill="#141414"/>
<path d="M281.996 757.732C284.467 760.65 287.647 762.883 291.231 764.215C294.815 765.547 298.681 765.934 302.458 765.338C312.15 763.694 319.453 755.905 325.987 748.56L345.311 726.832L330.907 727.882C320.548 728.637 309.927 729.457 300.502 733.822C291.077 738.186 282.956 746.926 282.393 757.297" fill="#141414"/>
<path d="M265.412 788.031C268.809 779.857 272.233 771.568 277.445 764.348C282.073 757.937 288.034 752.518 295.44 749.553C299.368 747.984 303.54 747.112 307.768 746.977C308.871 746.941 308.864 748.651 307.766 748.687C300.444 748.932 293.39 751.494 287.619 756.007C281.219 761.035 276.631 767.915 273.004 775.116C270.811 779.471 268.934 783.973 267.064 788.473C266.999 788.688 266.854 788.87 266.66 788.982C266.465 789.095 266.236 789.129 266.017 789.078C265.799 789.019 265.613 788.875 265.499 788.679C265.386 788.483 265.355 788.25 265.412 788.031Z" fill="#141414"/>
<path d="M162.543 751.695C165.257 755.821 168.988 759.178 173.377 761.442C177.765 763.707 182.663 764.804 187.598 764.627C200.281 764.024 210.855 755.172 220.373 746.769L248.526 721.911L229.893 721.02C216.494 720.378 202.748 719.78 189.986 723.912C177.223 728.045 165.453 737.989 163.119 751.2" fill="#141414"/>
<path d="M136.226 787.771C146.394 769.779 158.187 749.784 179.261 743.394C185.12 741.623 191.264 740.988 197.362 741.525C199.283 741.69 198.803 744.653 196.885 744.487C186.664 743.639 176.463 746.337 167.999 752.13C159.854 757.674 153.512 765.381 148.145 773.555C144.857 778.561 141.912 783.78 138.966 788.992C138.025 790.658 135.273 789.456 136.226 787.771Z" fill="#141414"/>
<path d="M575.333 480.682C595.55 469.57 620.712 471.8 642.494 479.397C664.277 486.994 684.016 499.441 705.17 508.646C769.81 536.777 847.718 532.241 908.657 496.799C914.42 510.205 908.237 525.539 901.445 538.454C894.654 551.37 886.913 565.368 889.709 579.69C893.287 598.018 912.502 609.006 920.288 625.978C927.679 642.09 923.712 661.011 918.042 677.806C912.372 694.6 905.014 711.521 905.977 729.221C906.941 746.92 919.8 765.637 937.526 765.651C911.257 769.732 884.47 773.817 858.217 769.634C831.964 765.451 805.848 751.566 793.659 727.941C787.566 716.132 785.217 702.555 778.22 691.259C766.302 672.018 743.429 662.97 721.848 656.151C700.267 649.331 677.172 642.762 661.977 625.989C647.499 610.006 642.913 587.742 635.243 567.588C622.324 533.849 599.886 504.588 570.654 483.358" fill="#D17A22"/>
<path d="M598.757 396.946C591.66 393.644 582.947 392.562 575.726 395.63C568.504 398.698 563.581 406.561 565.916 413.521C566.975 416.676 569.386 419.779 568.447 422.966C567.724 425.419 565.201 427.038 562.724 428.19C560.247 429.341 557.537 430.309 555.746 432.251C553.954 434.193 553.581 437.536 555.819 439.042C556.556 439.539 557.477 439.774 558.192 440.297C558.802 440.792 559.241 441.465 559.45 442.222C559.659 442.978 559.626 443.782 559.357 444.519C558.761 446.003 557.776 447.298 556.506 448.27C553.965 450.461 550.608 452.968 551.397 456.078C551.689 456.91 552.178 457.658 552.822 458.26C553.465 458.862 554.245 459.3 555.094 459.536C556.857 460.045 558.686 460.286 560.52 460.253L635.487 462.614C637.961 462.8 640.45 462.661 642.888 462.201C644.074 461.984 645.202 461.526 646.202 460.854C647.202 460.182 648.053 459.311 648.701 458.296C650.137 455.638 649.194 452.365 647.421 449.884C645.649 447.402 643.139 445.445 641.066 443.167C638.993 440.888 637.297 438.044 637.662 435.099C637.955 432.742 639.509 430.705 640.625 428.563C641.741 426.421 642.39 423.744 640.944 421.774C638.907 418.997 634.017 419.248 631.701 416.661C629.954 414.708 630.291 411.897 630.117 409.38C629.699 403.323 625.506 397.603 619.537 394.947C616.502 393.644 613.2 393.082 609.905 393.306C606.609 393.53 603.414 394.535 600.584 396.238L598.757 396.946Z" fill="#141414"/>
<path d="M551.385 777.1L539.644 773.572L547.663 726.605L564.992 731.812L551.385 777.1Z" fill="#A0616A"/>
<path d="M550.96 789.379L513.102 778.005L513.245 777.526C513.827 775.591 514.784 773.789 516.061 772.224C517.339 770.658 518.912 769.36 520.692 768.403C522.471 767.445 524.422 766.848 526.432 766.645C528.442 766.441 530.473 766.636 532.408 767.217L555.532 774.165L550.96 789.379Z" fill="#141414"/>
<path d="M662.182 777.496L649.922 777.495L644.09 730.207L662.184 730.208L662.182 777.496Z" fill="#A0616A"/>
<path d="M665.308 789.38L625.777 789.378V788.878C625.777 786.858 626.175 784.857 626.949 782.99C627.722 781.124 628.855 779.427 630.284 777.999C631.713 776.57 633.409 775.436 635.276 774.663C637.142 773.89 639.143 773.492 641.164 773.492L665.309 773.493L665.308 789.38Z" fill="#141414"/>
<path d="M645.163 741.729C644.094 741.729 643.059 741.347 642.245 740.653C641.431 739.959 640.891 738.998 640.722 737.941L622.519 624.387C622.398 623.635 622.035 622.942 621.486 622.415C620.936 621.888 620.229 621.554 619.473 621.465C618.716 621.376 617.951 621.536 617.294 621.92C616.636 622.305 616.123 622.894 615.83 623.598L568.669 737.134C568.23 738.182 567.411 739.026 566.377 739.497C565.343 739.969 564.17 740.033 563.09 739.678L546.056 733.999C544.995 733.649 544.103 732.916 543.555 731.943C543.006 730.97 542.84 729.827 543.09 728.738L581.739 557.717C581.928 556.893 582.344 556.139 582.94 555.539C583.536 554.94 584.288 554.519 585.111 554.325L636.943 542.293C637.58 542.148 638.241 542.142 638.88 542.275C639.52 542.408 640.124 542.676 640.651 543.062C674.781 567.861 671.898 648.884 665.537 736.86C665.457 737.962 664.976 738.995 664.184 739.765C663.393 740.534 662.346 740.986 661.242 741.034L645.361 741.726C645.295 741.727 645.229 741.729 645.163 741.729Z" fill="#141414"/>
<path d="M601.532 462.032C615.096 462.032 626.093 451.036 626.093 437.471C626.093 423.907 615.096 412.91 601.532 412.91C587.967 412.91 576.971 423.907 576.971 437.471C576.971 451.036 587.967 462.032 601.532 462.032Z" fill="#A0616A"/>
<path d="M602.592 564.768C596.697 564.731 590.883 563.387 585.569 560.834L585.386 560.749L585.314 560.56L563.284 503.484L562.865 493.567C562.725 490.251 563.28 486.942 564.496 483.853C565.712 480.764 567.562 477.965 569.925 475.634C572.289 473.304 575.114 471.494 578.219 470.321C581.325 469.149 584.641 468.64 587.955 468.827L611.343 470.144C617.384 470.488 623.068 473.121 627.236 477.507C631.405 481.893 633.745 487.704 633.78 493.755C634.387 494.922 638.701 504.047 630.247 512.62C629.931 514.572 626.974 534.867 638.134 546.027L638.447 546.34L638.173 546.689C637.995 546.916 623.663 564.765 602.592 564.768Z" fill="#141414"/>
<path d="M635.434 569.073C636.816 568.572 638.072 567.774 639.112 566.735C640.152 565.696 640.952 564.442 641.455 563.061C641.958 561.68 642.153 560.205 642.024 558.74C641.895 557.276 641.447 555.857 640.711 554.585L664.07 527.541L645.656 525.145L626.297 551.193C624.241 552.571 622.762 554.655 622.141 557.051C621.519 559.447 621.798 561.987 622.924 564.191C624.05 566.395 625.946 568.11 628.252 569.009C630.557 569.909 633.113 569.932 635.434 569.073Z" fill="#A0616A"/>
<path d="M650.038 548.202C649.161 548.201 648.302 547.944 647.569 547.461L636.017 539.884C635.045 539.25 634.357 538.264 634.096 537.134C633.836 536.003 634.022 534.816 634.618 533.82L642.981 519.768C643.434 519.008 643.72 518.161 643.822 517.282C643.924 516.403 643.839 515.513 643.572 514.669C643.305 513.825 642.863 513.048 642.275 512.387C641.686 511.727 640.965 511.198 640.157 510.836L616.13 500.064C613.174 498.722 610.762 496.417 609.289 493.526C607.815 490.634 607.367 487.328 608.017 484.149C608.467 482.005 609.404 479.993 610.758 478.271C612.111 476.548 613.844 475.161 615.821 474.217C617.798 473.274 619.966 472.799 622.156 472.83C624.346 472.86 626.5 473.396 628.45 474.395L664.902 493.074C667.361 494.334 669.519 496.111 671.227 498.282C672.936 500.454 674.155 502.969 674.802 505.655C675.448 508.342 675.506 511.136 674.972 513.847C674.438 516.559 673.324 519.122 671.707 521.363L653.687 546.332C653.271 546.911 652.723 547.383 652.088 547.708C651.454 548.033 650.751 548.202 650.038 548.202Z" fill="#141414"/>
<path d="M576.405 433.98C584.161 433.357 590.601 425.608 589.794 417.869C589.703 421.059 590.788 424.171 592.843 426.613C594.897 429.056 597.777 430.657 600.936 431.114C604.493 431.506 608.394 430.43 611.491 432.225C614.921 434.213 616.018 439.041 619.592 440.758C623.044 442.417 627.429 440.154 629.135 436.724C630.841 433.295 630.422 429.174 629.292 425.514C627.68 420.295 624.744 415.582 620.771 411.833C616.798 408.084 611.922 405.427 606.618 404.121C601.313 402.815 595.762 402.904 590.502 404.379C585.242 405.854 580.454 408.665 576.602 412.539C573.341 415.82 570.751 420.001 570.331 424.607C569.911 429.214 572.048 434.213 576.186 436.282L576.405 433.98Z" fill="#141414"/>
<path d="M519.264 365.945C520.558 366.643 521.683 367.615 522.561 368.795C523.438 369.974 524.046 371.332 524.342 372.772C524.638 374.212 524.615 375.699 524.274 377.129C523.933 378.559 523.283 379.897 522.369 381.049L541.527 411.213L522.96 410.895L507.613 382.299C505.781 380.635 504.622 378.357 504.357 375.896C504.092 373.436 504.739 370.963 506.175 368.947C507.611 366.931 509.737 365.512 512.149 364.959C514.561 364.406 517.093 364.757 519.264 365.945Z" fill="#A0616A"/>
<path d="M534.707 387.426L559.38 445.727L585.249 489.592C586.341 491.443 586.998 493.519 587.17 495.662C587.342 497.805 587.025 499.958 586.243 501.961C585.461 503.963 584.234 505.762 582.655 507.221C581.076 508.679 579.187 509.76 577.129 510.382C573.865 511.35 570.362 511.12 567.254 509.732C564.145 508.344 561.635 505.889 560.178 502.813L510.321 396.28C510.05 395.702 509.905 395.072 509.897 394.433C509.888 393.794 510.016 393.16 510.271 392.575C510.527 391.989 510.904 391.464 511.378 391.036C511.852 390.607 512.412 390.284 513.02 390.089L529.186 384.896C529.492 384.797 529.808 384.731 530.128 384.698C531.083 384.602 532.044 384.815 532.868 385.306C533.692 385.797 534.337 386.54 534.707 387.426Z" fill="#141414"/>
<path d="M766 790.211H10C9.73478 790.211 9.48043 790.106 9.29289 789.918C9.10536 789.73 9 789.476 9 789.211C9 788.946 9.10536 788.691 9.29289 788.504C9.48043 788.316 9.73478 788.211 10 788.211H766C766.265 788.211 766.52 788.316 766.707 788.504C766.895 788.691 767 788.946 767 789.211C767 789.476 766.895 789.73 766.707 789.918C766.52 790.106 766.265 790.211 766 790.211Z" fill="#EFEFEF"/>
<path d="M606.858 263.211V345.211C606.858 345.476 606.753 345.731 606.565 345.918C606.378 346.106 606.124 346.211 605.858 346.211C605.593 346.211 605.339 346.106 605.151 345.918C604.964 345.731 604.858 345.476 604.858 345.211V263.211C604.858 262.946 604.964 262.691 605.151 262.504C605.339 262.316 605.593 262.211 605.858 262.211C606.124 262.211 606.378 262.316 606.565 262.504C606.753 262.691 606.858 262.946 606.858 263.211Z" fill="#EFEFEF"/>
<path d="M693.684 332.779L665.4 361.063C665.212 361.25 664.958 361.355 664.693 361.355C664.428 361.354 664.175 361.249 663.987 361.062C663.8 360.874 663.695 360.621 663.694 360.356C663.694 360.091 663.799 359.837 663.986 359.649L692.27 331.365C692.363 331.272 692.473 331.198 692.594 331.147C692.716 331.097 692.846 331.07 692.977 331.07C693.109 331.07 693.239 331.096 693.361 331.146C693.482 331.196 693.593 331.27 693.686 331.363C693.779 331.456 693.852 331.567 693.903 331.688C693.953 331.81 693.979 331.94 693.979 332.071C693.978 332.203 693.952 332.333 693.902 332.455C693.851 332.576 693.777 332.686 693.684 332.779Z" fill="#EFEFEF"/>
<path d="M518.033 332.779L546.317 361.063C546.505 361.251 546.759 361.356 547.024 361.356C547.289 361.356 547.544 361.251 547.731 361.063C547.919 360.876 548.024 360.621 548.024 360.356C548.024 360.091 547.919 359.837 547.731 359.649L519.447 331.365C519.354 331.272 519.244 331.198 519.123 331.147C519.001 331.097 518.871 331.07 518.739 331.07C518.608 331.07 518.478 331.096 518.356 331.146C518.235 331.196 518.124 331.27 518.031 331.363C517.938 331.456 517.864 331.567 517.814 331.688C517.764 331.81 517.738 331.94 517.738 332.071C517.738 332.203 517.765 332.333 517.815 332.455C517.866 332.576 517.94 332.686 518.033 332.779Z" fill="#EFEFEF"/>
</g>
<defs>
<clipPath id="clip0_106_462">
<rect width="928.526" height="635.213" fill="white" transform="translate(9 155)"/>
</clipPath>
</defs>
</svg>
