<svg width="945" height="945" viewBox="0 0 945 945" fill="none" xmlns="http://www.w3.org/2000/svg">
<g clip-path="url(#clip0_105_299)">
<path d="M593.399 419.733C591.669 419.982 589.905 419.85 588.231 419.344C586.557 418.838 585.015 417.972 583.712 416.806C582.409 415.64 581.377 414.203 580.69 412.595C580.002 410.987 579.675 409.249 579.732 407.501L540.055 392.253L558.02 379.402L592.944 395.852C595.874 396.143 598.596 397.498 600.593 399.662C602.59 401.825 603.725 404.647 603.781 407.591C603.837 410.535 602.811 413.397 600.897 415.635C598.983 417.873 596.315 419.331 593.398 419.733L593.399 419.733Z" fill="#FFB7B7"/>
<path d="M570.726 408.794L576.921 386.941L576.617 386.734L518.586 347.314L468.423 296.98L439.202 308.655L441.121 317.904L441.246 318.018L507.941 377.755L508.003 377.785L570.726 408.794Z" fill="#E6E7E8"/>
<path d="M511.278 458.708L421.469 446.119L429.374 391.012H495.492L511.278 458.708Z" fill="#FFB6B6"/>
<path d="M358.679 728.554L377.102 732.835L402.381 663.814L375.192 657.496L358.679 728.554Z" fill="#FFB6B6"/>
<path d="M341.538 758.214L354.75 761.284L360.006 749.359L363.147 763.235L398.187 771.378C399.867 771.769 401.627 771.612 403.212 770.931C404.796 770.25 406.121 769.08 406.993 767.593C407.866 766.106 408.24 764.379 408.061 762.663C407.883 760.948 407.16 759.335 406 758.06L382.509 732.232L385.439 719.622L355.599 714.539L341.538 758.214Z" fill="#141414"/>
<path d="M472.352 738.819H491.265L500.266 665.867H472.352V738.819Z" fill="#FFB6B6"/>
<path d="M462.369 771.59H475.933L478.354 758.784L484.554 771.59H520.528C522.252 771.59 523.932 771.039 525.321 770.017C526.71 768.995 527.736 767.556 528.249 765.91C528.762 764.264 528.735 762.496 528.173 760.866C527.611 759.236 526.542 757.828 525.123 756.849L496.396 737.009V724.062L466.179 725.866L462.369 771.59Z" fill="#141414"/>
<path d="M420.334 436.768L508.163 429.781C534.08 490.324 517.6 586.973 497.683 695.771L469.433 699.424L467.242 524.597L396.425 687.238L366.982 685.733L420.334 436.768Z" fill="#141414"/>
<path d="M471.458 277.343V247.629C471.461 242.398 470.433 237.219 468.433 232.386C466.433 227.553 463.501 223.161 459.803 219.462C456.106 215.762 451.716 212.828 446.884 210.826C442.052 208.823 436.873 207.793 431.642 207.793C426.412 207.793 421.233 208.823 416.401 210.826C411.569 212.828 407.179 215.762 403.481 219.462C399.784 223.161 396.851 227.553 394.851 232.386C392.852 237.219 391.824 242.398 391.826 247.629C384.809 262.252 389.199 269.205 391.826 277.343C391.829 278.76 392.393 280.118 393.395 281.12C394.397 282.122 395.755 282.686 397.172 282.689H466.11C467.527 282.687 468.886 282.123 469.889 281.121C470.891 280.119 471.456 278.76 471.458 277.343Z" fill="#141414"/>
<path d="M441.467 282.243C457.59 282.243 470.659 269.174 470.659 253.051C470.659 236.929 457.59 223.859 441.467 223.859C425.345 223.859 412.275 236.929 412.275 253.051C412.275 269.174 425.345 282.243 441.467 282.243Z" fill="#FFB7B7"/>
<path d="M480.877 250.008C480.868 241.657 477.546 233.652 471.642 227.747C465.737 221.842 457.732 218.521 449.381 218.512H443.438C435.088 218.521 427.082 221.842 421.178 227.747C415.273 233.652 411.952 241.657 411.942 250.008V250.602C416.393 253.645 420.619 254.09 424.502 250.602L428.785 238.608L429.642 250.602H436.133L438.297 244.551L438.73 250.602C447.498 258.069 464.078 254.491 480.877 250.602L480.877 250.008Z" fill="#141414"/>
<path d="M424.446 407.121L498.771 404.293L502.926 355.669C506.129 346.769 506.182 339.122 503.08 332.956C500.412 327.888 495.929 324.014 490.528 322.107L474.264 302.465C472.172 299.94 469.545 297.912 466.574 296.526C463.602 295.141 460.36 294.433 457.081 294.453L414.821 294.742C413.803 294.13 407.625 290.99 395.44 296.269C382.223 301.997 385.292 321.897 385.325 322.097L385.356 322.284L385.501 322.412L413.609 346.087L424.446 407.121Z" fill="#E6E7E8"/>
<path d="M78.247 772.838H824.528C824.859 772.838 825.176 772.706 825.41 772.473C825.644 772.239 825.775 771.921 825.775 771.591C825.775 771.26 825.644 770.943 825.41 770.709C825.176 770.475 824.859 770.344 824.528 770.344H78.247C77.9163 770.344 77.5991 770.475 77.3652 770.709C77.1314 770.943 77 771.26 77 771.591C77 771.921 77.1314 772.239 77.3652 772.473C77.5991 772.706 77.9163 772.838 78.247 772.838Z" fill="#CCCCCC"/>
<path d="M621.626 477.694C621.571 506.02 610.921 533.301 591.771 554.173C572.621 575.045 546.355 587.999 518.139 590.487C489.922 592.976 461.795 584.819 439.287 567.621C416.779 550.423 401.519 525.427 396.507 497.548C391.494 469.668 397.092 440.923 412.199 416.961C427.307 393 450.831 375.557 478.147 368.061C505.464 360.564 534.596 363.558 559.817 376.452C585.039 389.347 604.524 411.209 614.443 437.742C614.691 438.409 614.932 439.075 615.167 439.747V439.754C616.214 442.711 617.136 445.723 617.933 448.79C620.393 458.227 621.634 467.941 621.626 477.694Z" fill="#D17A22"/>
<path d="M494.909 400.633C489.776 397.857 484.077 396.29 478.247 396.052C472.416 395.813 466.608 396.909 461.266 399.256C456.562 401.304 451.608 404.976 450.039 411.608C456.386 407.862 464.601 413.78 466.235 423.274L465.853 423.379C464.991 429.955 466.916 437.114 470.644 441.191C470.922 439.352 471.605 437.597 472.645 436.054C473.685 434.511 475.056 433.22 476.658 432.273C479.397 430.472 482.427 429.164 484.518 426.069C486.996 422.4 487.626 417.038 488.61 412.146C489.595 407.254 491.463 401.996 494.909 400.633Z" fill="#EFEFEF"/>
<path d="M459.383 456.591C457.625 459.231 455.278 460.887 453.171 462.949C450.739 465.162 449.143 468.144 448.653 471.395C448.386 473.692 448.799 476.027 448.742 478.35C448.685 480.672 447.91 483.287 446.33 483.864C443.837 484.765 441.933 480.133 439.369 479.809C437.332 479.555 435.499 482.76 436.089 485.539C436.679 488.319 439.452 489.55 441.045 487.735C442.485 490.153 441.47 494.537 439.306 495.28C439.077 496.803 438.849 498.319 438.627 499.842C433.157 496.016 427.63 492.126 422.979 486.523C417.806 480.344 414.597 472.76 413.765 464.745C413.162 458.304 414.057 450.937 411.1 445.981C408.733 442.015 404.672 441.14 401.017 441.387C400.351 441.431 399.678 441.508 399.012 441.59C401.167 435.116 403.905 428.851 407.191 422.871C407.935 422.551 408.626 422.121 409.241 421.595C412.642 418.708 414.152 412.864 416.912 408.822C417.09 408.561 417.274 408.308 417.464 408.06C420.288 404.373 424.07 402.476 427.725 400.712C435.816 396.784 444.141 392.806 452.682 393.351L450.252 393.586C447.415 401.531 444.577 409.475 441.736 417.42C441.305 418.638 440.869 419.859 440.429 421.081C438.817 425.599 437.155 430.409 437.402 435.467C437.548 438.462 438.589 441.66 440.569 442.688C442.415 443.64 444.433 442.472 446.216 441.317C446.971 440.835 447.72 440.353 448.475 439.864C451.185 438.119 454.186 436.33 457.048 437.497C459.669 438.563 461.604 442.123 461.972 445.962C462.31 449.694 461.399 453.432 459.383 456.591Z" fill="#EFEFEF"/>
<path d="M475.498 510.83C467.585 505.958 459.671 501.086 451.758 496.213L451.892 495.867C446.972 497.741 444.929 506.487 445.742 513.64C446.555 520.792 449.312 527.186 450.705 534.155C452.583 543.692 451.874 553.558 448.652 562.728C459.058 551.052 468.267 538.363 476.141 524.849C477.241 523.146 478.079 521.288 478.628 519.336C479.209 517.256 479.002 515.035 478.046 513.098C477.399 512.142 476.523 511.363 475.498 510.83Z" fill="#EFEFEF"/>
<path d="M444.266 422.185C443.337 424.18 443.194 426.452 443.865 428.548C444.646 430.237 446.063 431.549 447.806 432.198L452.179 434.365C453.633 435.086 455.201 435.815 456.684 435.221C458.473 434.506 459.713 431.702 459.392 429.099C459.051 426.329 457.305 424.423 455.69 422.801C453.43 420.53 451.17 418.259 448.91 415.988L447.636 417.548C446.259 418.892 445.119 420.46 444.266 422.185Z" fill="#EFEFEF"/>
<path d="M598.186 451.798C600.153 452.261 602.12 452.724 604.087 453.187C603.745 459.831 600.451 465.98 596.035 468.207C594.195 469.134 592.145 469.476 590.622 471.209C589.245 472.783 588.547 475.232 587.906 477.573C586.783 481.66 585.66 485.746 584.537 489.833C583.331 494.237 581.783 499.129 578.648 500.716C575.957 502.08 572.88 500.411 570.811 497.613C568.743 494.814 567.48 491.051 566.255 487.384C566.331 491.381 564.472 495.303 561.839 496.692C559.199 498.082 555.988 496.826 554.224 493.723C552.955 491.496 552.428 488.557 551.184 486.299C549.941 484.039 547.333 482.745 545.975 484.864C545.08 486.273 545.194 488.431 544.75 490.22C544.526 491.408 543.938 492.497 543.067 493.335C542.196 494.173 541.085 494.719 539.889 494.897C538.79 494.872 537.707 494.623 536.707 494.166C535.706 493.709 534.809 493.053 534.071 492.238C530.185 488.263 527.655 483.161 526.843 477.662C526.292 475.026 526.362 472.297 527.046 469.692C527.827 467.224 529.711 465.32 531.583 465.79C532.814 463.188 530.384 459.736 528.195 460.041C525.999 460.345 524.279 462.699 522.477 464.508C520.682 466.316 518.169 467.63 516.36 465.834C516.401 466.491 516.178 467.137 515.743 467.63C515.307 468.123 514.693 468.423 514.036 468.463C513.971 468.467 513.906 468.469 513.841 468.468C512.638 468.122 511.521 467.53 510.56 466.729C506.417 464.146 501.156 465.86 498.212 470.746C500.052 462.915 502.749 453.93 508.403 452.09C510.713 451.335 513.232 451.956 515.415 450.649C519.279 448.333 520.06 439.583 516.722 435.972C517.147 439.386 517.065 443.371 515.262 445.706C513.46 448.041 509.678 446.518 509.907 443.066C509.855 443.552 509.652 444.009 509.325 444.371C508.998 444.734 508.565 444.984 508.087 445.085C507.61 445.187 507.113 445.135 506.667 444.936C506.22 444.737 505.849 444.403 505.605 443.98C504.405 442.153 504.507 439.164 505.357 436.981C506.234 435.004 507.491 433.219 509.057 431.727C512.071 428.497 515.129 425.229 518.619 423.198C522.116 421.168 526.152 420.483 529.654 422.501C531.501 423.567 533.125 425.343 535.01 426.282C535.453 426.557 535.945 426.742 536.46 426.827C536.974 426.911 537.5 426.893 538.007 426.774C538.515 426.655 538.994 426.438 539.417 426.134C539.841 425.83 540.2 425.445 540.475 425.003C540.496 424.968 540.517 424.934 540.537 424.899C541.939 422.437 541.279 418.782 541.8 415.704C542.732 410.266 548.17 407.722 551.185 411.313C548.932 410.736 546.603 413.401 546.324 416.631C546.038 419.861 547.669 423.122 549.852 424.1C553.52 425.724 557.111 421.637 559.884 417.856C562.778 413.896 565.676 409.938 568.578 405.983C569.041 405.31 569.561 404.677 570.132 404.092C571.041 403.206 572.253 402.699 573.522 402.673C574.791 402.647 576.022 403.104 576.966 403.952C579.898 406.345 581.275 411.25 583.68 414.626C587.17 419.531 592.393 420.724 597.253 421.676C600.876 422.38 604.502 423.088 608.13 423.801C610.548 428.3 612.657 432.958 614.443 437.743C607.791 440.776 602.149 445.654 598.186 451.798Z" fill="#EFEFEF"/>
<path d="M617.933 448.79C617.19 450.981 616.783 453.273 616.727 455.586C613.618 451.791 613.123 444.678 615.166 439.754C616.213 442.711 617.136 445.723 617.933 448.79Z" fill="#EFEFEF"/>
<path d="M609.899 528.148C607.181 533.668 604.019 538.959 600.445 543.968C598.16 542.99 595.704 544.735 593.566 546.373C591.332 548.086 588.648 549.755 586.357 548.194C584.016 546.595 583.261 542.121 584.003 538.574C584.857 535.302 586.349 532.231 588.394 529.538C590.298 526.695 592.335 523.744 594.981 522.64C597.633 521.536 601.041 523.097 601.815 526.866L603.693 526.803C602.64 525.356 603.192 522.361 604.607 521.834C606.238 521.219 607.653 523.459 608.618 525.439C609.049 526.333 609.487 527.234 609.899 528.148Z" fill="#EFEFEF"/>
<path d="M537.963 501.345C533.926 501.599 530.728 496.629 528.603 491.739C526.478 486.85 524.539 481.258 520.896 478.77C518.814 477.348 516.441 477.152 514.184 476.463C512.903 476.14 511.718 475.516 510.727 474.643C509.735 473.77 508.967 472.674 508.484 471.445L505.922 470.41C502.34 472.201 499.059 474.54 496.199 477.343C492.93 480.815 490.895 485.266 490.405 490.01C489.916 495.136 491.723 500.852 495.098 502.777C497.765 504.299 500.871 503.34 503.572 504.733C506.948 506.473 508.952 511.529 509.71 516.521C510.469 521.512 510.277 526.7 510.819 531.748C511.362 536.797 512.858 542.049 515.953 544.637C519.827 547.874 525.511 545.184 527.249 539.291C528.102 536.4 528.072 533.138 528.71 530.137C529.833 524.853 532.863 520.932 535.266 516.598C537.669 512.263 539.561 506.376 537.963 501.345Z" fill="#EFEFEF"/>
<path d="M498.069 449.417C498.445 449.764 498.797 450.137 499.12 450.533C499.455 451.111 499.626 451.768 499.615 452.436C499.603 453.103 499.41 453.754 499.056 454.32C499.542 454.292 500.017 454.164 500.452 453.943C500.886 453.723 501.269 453.414 501.578 453.038C502.315 452.199 502.963 451.285 503.513 450.313C503.771 449.98 503.955 449.596 504.054 449.186C504.152 448.776 504.162 448.35 504.083 447.936C503.892 447.392 503.441 447.16 503.125 446.75C502.687 445.95 502.388 445.081 502.24 444.181C502.065 443.336 501.658 442.558 501.065 441.933C500.471 441.307 499.715 440.86 498.881 440.641L499.084 440.679C498.739 440.884 498.467 441.191 498.306 441.557C498.145 441.924 498.103 442.332 498.185 442.724C498.307 443.515 498.816 444.173 498.765 444.98C498.693 446.142 497.532 446.687 497.46 447.848C497.449 448.431 497.668 448.995 498.069 449.417Z" fill="#EFEFEF"/>
<path d="M491.151 429.683L491.169 429.679C491.293 429.566 491.409 429.444 491.514 429.312L491.151 429.683Z" fill="#EFEFEF"/>
<path d="M492.362 435.136C492.847 434.71 493.206 434.159 493.399 433.544C493.592 432.928 493.613 432.272 493.458 431.645C493.165 430.325 492.127 429.437 491.169 429.681C490.891 429.963 490.547 430.169 490.167 430.281C489.788 430.392 489.386 430.406 489 430.32C488.408 430.167 487.758 429.775 487.245 430.221C486.951 430.554 486.746 430.955 486.647 431.388C486.457 431.971 486.267 432.555 486.077 433.138C485.987 433.347 485.963 433.578 486.01 433.801C486.046 433.89 486.105 433.969 486.18 434.029C486.256 434.089 486.345 434.128 486.44 434.144C487.581 434.48 488.721 434.816 489.861 435.152C490.253 435.333 490.681 435.425 491.113 435.422C491.545 435.419 491.972 435.322 492.362 435.136Z" fill="#EFEFEF"/>
<path d="M578.434 510.393C577.907 509.53 577.38 508.668 576.853 507.805C576.336 506.806 575.628 505.917 574.77 505.189C574.584 505.033 574.369 504.916 574.138 504.843C573.907 504.77 573.663 504.744 573.422 504.765C573.18 504.786 572.945 504.855 572.73 504.967C572.516 505.079 572.325 505.233 572.169 505.418L572.142 505.452L572.206 505.945C573.617 507.458 574.579 509.334 574.983 511.363C575.103 512.245 575.061 513.158 575.167 514.043C575.178 514.454 575.27 514.858 575.437 515.233C575.605 515.609 575.845 515.947 576.143 516.229C576.973 516.784 577.947 515.966 578.538 514.969C579.066 514.15 579.303 513.176 579.21 512.206C579.079 511.555 578.815 510.938 578.434 510.393Z" fill="#EFEFEF"/>
<path d="M586.702 511.515C586.802 510.707 586.737 509.887 586.509 509.106C586.471 508.048 586.752 507.004 587.314 506.107C587.872 505.262 588.295 504.334 588.568 503.358C588.683 502.914 588.662 502.445 588.508 502.012C588.333 501.62 587.911 501.441 587.668 501.752L588.187 502.086C587.487 501.961 586.767 501.996 586.082 502.188C585.691 502.337 585.342 502.579 585.064 502.892C584.787 503.205 584.589 503.58 584.487 503.986C584.401 504.619 584.261 505.243 584.068 505.852C583.759 506.488 583.16 506.699 582.784 507.258C582.527 507.752 582.397 508.303 582.407 508.861C582.416 509.418 582.564 509.964 582.837 510.45C583.309 511.245 584.061 511.836 584.945 512.108C585.578 512.335 586.412 512.347 586.702 511.515Z" fill="#EFEFEF"/>
<path d="M601.425 515.959C601.654 516.554 601.961 517.117 602.338 517.633C603.042 518.343 604 517.907 604.855 517.734C605.631 517.612 606.426 517.701 607.155 517.994C607.884 518.286 608.521 518.77 608.997 519.395C608.665 517.741 607.942 516.191 606.887 514.875C605.832 513.559 604.476 512.515 602.934 511.831C600.93 511.138 598.819 510.808 596.699 510.856L596.337 510.949C597.26 513.635 600.157 513.575 601.425 515.959Z" fill="#EFEFEF"/>
<path d="M539.067 521.453L539.073 521.465L539.178 521.262L539.067 521.453Z" fill="#EFEFEF"/>
<path d="M536.834 525.773C536.346 526.657 535.928 527.577 535.581 528.525C535.121 530.061 534.817 531.639 534.672 533.235C534.559 534.143 534.524 535.302 535.093 535.745C535.256 535.853 535.453 535.898 535.647 535.872C535.842 535.845 536.019 535.749 536.148 535.601C536.464 535.267 536.722 534.883 536.913 534.464C538.031 532.539 538.899 530.479 539.495 528.335C540.118 526.06 539.97 523.642 539.072 521.461C538.326 522.898 537.58 524.335 536.834 525.773Z" fill="#EFEFEF"/>
<path d="M515.286 410.591C515.641 410.938 516.089 411.174 516.576 411.269C517.063 411.364 517.567 411.314 518.026 411.126C518.977 410.711 519.85 410.134 520.605 409.423C521.231 408.96 521.761 408.381 522.168 407.718C522.392 407.321 522.536 406.885 522.591 406.433C522.646 405.98 522.611 405.522 522.488 405.083C522.313 404.663 522.034 404.295 521.677 404.012C521.32 403.73 520.897 403.543 520.448 403.47C519.183 403.095 517.917 402.719 516.652 402.344L517.567 401.519C516.625 401.014 515.583 401.952 514.995 403.113C514.617 403.872 514.354 404.682 514.214 405.517C514.014 406.39 514.006 407.296 514.191 408.172C514.376 409.049 514.75 409.874 515.286 410.591Z" fill="#EFEFEF"/>
<path d="M537.629 403.093C537.985 403.487 538.478 403.729 539.007 403.772C539.537 403.815 540.062 403.656 540.478 403.325C540.836 403.057 541.133 402.716 541.35 402.324C541.567 401.933 541.699 401.501 541.738 401.055C541.828 400.06 541.335 398.953 540.633 398.868L540.793 397.936C539.439 397.691 537.773 397.642 537.047 399.286C536.803 399.916 536.727 400.6 536.829 401.268C536.931 401.936 537.207 402.565 537.629 403.093Z" fill="#EFEFEF"/>
<path d="M404.247 502.836C402.946 501.667 401.917 500.228 401.233 498.619C400.548 497.011 400.225 495.271 400.285 493.524C400.345 491.777 400.787 490.064 401.581 488.506C402.374 486.948 403.499 485.583 404.877 484.506L391.151 444.277L412.536 449.832L422.281 487.181C423.937 489.616 424.641 492.574 424.261 495.495C423.881 498.415 422.443 501.095 420.218 503.025C417.994 504.955 415.139 506.002 412.194 505.968C409.249 505.933 406.42 504.819 404.242 502.837L404.247 502.836Z" fill="#FFB7B7"/>
<path d="M398.115 478.422L418.863 469.176L411.893 398.999L418.384 328.235L390.683 313.285L384.814 320.686V320.854L381.704 410.336L381.721 410.404L398.115 478.422Z" fill="#E6E7E8"/>
<path d="M715.954 687.546C704.223 682.151 691.569 675.795 677.992 668.477C607.772 630.622 521.423 571.567 434.852 502.193C348.28 432.82 271.829 361.413 219.581 301.13C194.13 271.764 175.797 246.615 165.092 226.381C153.759 204.959 151.473 189.779 158.297 181.262C171.593 164.671 214.893 179.615 248.875 195.073L247.634 197.804C200.967 176.576 170.071 171.368 160.639 183.139C148.624 198.131 170.935 240.42 221.848 299.165C273.981 359.316 350.293 430.588 436.728 499.853C523.162 569.116 609.351 628.064 679.416 665.837C747.84 702.726 793.977 715.285 805.991 700.293C815.966 687.845 802.36 656.494 767.68 612.014L770.046 610.17C795.245 642.49 822.342 684.686 808.333 702.169C801.508 710.685 786.195 711.762 762.818 705.369C749.493 701.724 733.811 695.757 715.954 687.546Z" fill="#D17A22"/>
<path d="M266.725 485.265C234.382 470.392 204.824 455.455 178.935 440.837C145.097 421.73 119.38 404.201 102.5 388.742C84.6275 372.372 77.3741 358.843 80.9408 348.528C87.8882 328.435 133.692 327.962 170.893 331.103L170.64 334.093C119.554 329.779 88.705 335.253 83.7755 349.509C77.4973 367.666 112.719 400.001 180.411 438.224C249.723 477.363 345.545 518.853 450.227 555.048C554.907 591.245 655.891 617.808 734.575 629.843C811.418 641.597 859.092 637.925 865.37 619.769C870.582 604.694 847.233 579.737 799.625 549.495L801.234 546.962C835.827 568.937 875.526 599.575 868.205 620.749C864.639 631.064 850.577 637.222 826.411 639.056C803.586 640.787 772.535 638.685 734.122 632.809C655.264 620.747 554.093 594.137 449.246 557.884C383.473 535.14 321.167 510.3 266.725 485.265Z" fill="#D17A22"/>
<path d="M315.796 332.583C325.451 332.583 333.279 324.756 333.279 315.1C333.279 305.445 325.451 297.617 315.796 297.617C306.14 297.617 298.312 305.445 298.312 315.1C298.312 324.756 306.14 332.583 315.796 332.583Z" fill="#141414"/>
<path d="M660.402 545.975C666.312 545.975 671.104 541.183 671.104 535.273C671.104 529.362 666.312 524.57 660.402 524.57C654.491 524.57 649.699 529.362 649.699 535.273C649.699 541.183 654.491 545.975 660.402 545.975Z" fill="#141414"/>
<path d="M136.977 639.919C146.632 639.919 154.46 632.092 154.46 622.436C154.46 612.781 146.632 604.953 136.977 604.953C127.321 604.953 119.494 612.781 119.494 622.436C119.494 632.092 127.321 639.919 136.977 639.919Z" fill="#141414"/>
</g>
<defs>
<clipPath id="clip0_105_299">
<rect width="792.086" height="598.836" fill="white" transform="translate(77 174)"/>
</clipPath>
</defs>
</svg>
